<svg xmlns="http://www.w3.org/2000/svg" viewBox="0 0 38.96 129.05"><defs><style>.cls-1{fill:#e56b75;}</style></defs><title>1-alif-after trace</title><g id="Layer_2" data-name="Layer 2"><g id="After_Trace" data-name="After Trace"><path class="cls-1" d="M34.8,34.31a13.69,13.69,0,0,1-1.58.88A9.75,9.75,0,0,1,21.32,32c2.36,29,5.62,76.32,3.08,89.24A9.73,9.73,0,0,1,14.86,129a9.92,9.92,0,0,1-1.86-.18,9.74,9.74,0,0,1-7.68-11.42C7.56,106,3.26,46.39,0,11.47a9.69,9.69,0,0,1,7.7-10.4,9.53,9.53,0,0,1,9.3.3A71.94,71.94,0,0,1,37.2,20.77,9.72,9.72,0,0,1,34.8,34.31Z"/></g></g></svg>