<svg xmlns="http://www.w3.org/2000/svg" viewBox="0 0 67.42 130.72"><defs><style>.cls-1{fill:#e56b75;}</style></defs><title>11-za-after trace</title><g id="Layer_2" data-name="Layer 2"><g id="After_Trace" data-name="After Trace"><path class="cls-1" d="M8.31,130.72a8.32,8.32,0,0,1-1.18-16.56c1.27-.19,31.51-5,41.75-32.62,9.51-25.62-20.24-42.72-21.51-43.42a8.33,8.33,0,0,1,8.11-14.54c15.1,8.39,40.6,32.51,29,63.75-13.73,37-53.32,43.09-55,43.32A9.12,9.12,0,0,1,8.31,130.72Z"/><path class="cls-1" d="M34.78,10.31a7.57,7.57,0,0,1-5.56,4.86,9.64,9.64,0,0,1-1.83.19A7.44,7.44,0,0,1,22,13.15a7.52,7.52,0,0,1-1.08-9.21,7.44,7.44,0,0,1,2.17-2.28A4.11,4.11,0,0,1,24,1,7.35,7.35,0,0,1,29.68.26,7.82,7.82,0,0,1,34,3.41,7.08,7.08,0,0,1,34.78,10.31Z"/></g></g></svg>