<svg xmlns="http://www.w3.org/2000/svg" viewBox="0 0 144.68 126.31"><defs><style>.cls-1{fill:#e29025;}</style></defs><title>13-syin-after trace</title><g id="Layer_2" data-name="Layer 2"><g id="After_Trace" data-name="After Trace"><path class="cls-1" d="M142.48,76.89c-1.9,3.75-6,8.5-14.48,9.89-9.07,1.52-15.15-1.55-18.65-4.37a22.42,22.42,0,0,1-2.28-2.12,22.5,22.5,0,0,1-14.82,6.85c-.66.06-1.3.1-1.92.1a20.11,20.11,0,0,1-4.7-.55c-.85,8.56-3.25,17.27-8.44,24.36-7.09,9.69-17.9,14.82-32.13,15.24-.73,0-1.47,0-2.22,0-15.58,0-27.21-4.92-34.59-14.64C-6.12,92.74,2.43,63.31,3.44,60a7.7,7.7,0,0,1,14.71,4.57c-2.64,8.52-5.54,27.35,2.37,37.79,4.54,6,12.68,9,24.11,8.5,9.36-.25,15.92-3.18,20.14-8.91,5.76-7.88,6.46-20.18,5.57-30.55a53,53,0,0,1-3.09-16,7.76,7.76,0,0,1,.08-1.22,7.69,7.69,0,0,1,15-3.06A105.33,105.33,0,0,1,85.41,67.6a9.75,9.75,0,0,0,2.25,3.24,3.91,3.91,0,0,0,3.23,1c8.44-.74,8.23-10.57,8.18-11.7a7.69,7.69,0,0,1,15.37-.73c.13,2,1.23,8.37,4.59,11,1,.79,2.72,1.76,6.46,1.16,2.61-.44,3.07-1.35,3.25-1.68,1.65-3.23-.66-11.35-3-16A7.7,7.7,0,0,1,139.52,47C141,50,148.25,65.49,142.48,76.89Z"/><path class="cls-1" d="M92.11,79.64c-.49,0-.89.07-1.27.07"/><path class="cls-1" d="M92.45,24.09a6.59,6.59,0,0,1,.76,6.38A7,7,0,0,1,88.08,35a9.29,9.29,0,0,1-1.71.16,6.92,6.92,0,0,1-6-10.54,6.54,6.54,0,0,1,2-2.11,3.46,3.46,0,0,1,.89-.63,6.92,6.92,0,0,1,5.24-.68A7.3,7.3,0,0,1,92.45,24.09Z"/><path class="cls-1" d="M105.62,3.16a6.44,6.44,0,0,1,.76,6.36A7,7,0,0,1,101.25,14a10.62,10.62,0,0,1-1.71.17,6.91,6.91,0,0,1-5-2,7,7,0,0,1-1-8.52,6.76,6.76,0,0,1,2-2.11,3,3,0,0,1,.89-.62,6.81,6.81,0,0,1,5.22-.7A7.21,7.21,0,0,1,105.62,3.16Z"/><path class="cls-1" d="M127.48,27.46a7,7,0,0,1-5.13,4.5,8.08,8.08,0,0,1-1.71.19,6.92,6.92,0,0,1-6-10.56,6.59,6.59,0,0,1,2-2.11,2.82,2.82,0,0,1,.87-.63,6.82,6.82,0,0,1,5.22-.68,7.26,7.26,0,0,1,4,2.91A6.5,6.5,0,0,1,127.48,27.46Z"/></g></g></svg>