<svg xmlns="http://www.w3.org/2000/svg" viewBox="0 0 164.49 113.35"><defs><style>.cls-1{fill:#4880c2;}</style></defs><title>15-dhad-after trace</title><g id="Layer_2" data-name="Layer 2"><g id="After_Trace" data-name="After Trace"><path class="cls-1" d="M120.79,9.53a6.92,6.92,0,0,1-5.13,4.5,9.42,9.42,0,0,1-1.71.19,6.93,6.93,0,0,1-6-10.56,6.71,6.71,0,0,1,2-2.11,3.78,3.78,0,0,1,.89-.63,6.92,6.92,0,0,1,5.24-.68,7.33,7.33,0,0,1,4,2.93A6.56,6.56,0,0,1,120.79,9.53Z"/><path class="cls-1" d="M160.83,31.32c-4.78-7.58-13.46-11.7-23.32-11.16C120,21.26,103,37.21,92,50.1L82.49,62.4c-1.22,1.73-2.06,3-2.45,3.61A7.68,7.68,0,0,0,85.1,77.79a8.06,8.06,0,0,0,1.36.13,7.69,7.69,0,0,0,6.46-3.5c1-1.6,2.52-3.7,4.32-6.09,8.45,2.14,18.81,3.17,31.41,3.26C143.88,71.52,155.8,66,161.37,56A24.19,24.19,0,0,0,160.83,31.32ZM147.92,48.52c-2.75,5-9.86,7.63-19.17,7.68a147.72,147.72,0,0,1-20.18-1.35c9.07-9.59,20.25-18.73,29.9-19.31,4.23-.32,7.57,1.17,9.34,4A8.84,8.84,0,0,1,147.92,48.52Z"/><path class="cls-1" d="M82.27,76.66a7.75,7.75,0,0,0,2.83,1.12c-1.16,7.2-3.55,14.33-7.91,20.31-7.08,9.69-17.89,14.82-32.1,15.24l-2.22,0c-15.59,0-27.23-4.91-34.6-14.64C-6.12,79.78,2.43,50.37,3.45,47.08a7.7,7.7,0,1,1,14.71,4.56C15.52,60.14,12.6,79,20.52,89.4c4.56,6,12.6,9,24.12,8.53C54,97.65,60.57,94.74,64.78,89c8.29-11.35,6.08-31.87,3.77-42.55-.4-.85-.74-1.74-1.09-2.64a7.61,7.61,0,0,1,.21-5.87,1,1,0,0,1,.08-.19,7.69,7.69,0,0,1,14.63.49c.06.25.38,1.36.81,3.17A19.63,19.63,0,0,0,92,50.1L82.49,62.4c-1.22,1.73-2.06,3-2.45,3.61A7.69,7.69,0,0,0,82.27,76.66Z"/></g></g></svg>