<svg xmlns="http://www.w3.org/2000/svg" viewBox="0 0 128.55 149.77"><defs><style>.cls-1{fill:#77c043;}</style></defs><title>16-tho-after trace</title><g id="Layer_2" data-name="Layer 2"><g id="After_Trace" data-name="After Trace"><path class="cls-1" d="M124.84,101.81c-4.94-8-14-12.32-24.24-11.82-15.18.83-30.06,12.38-41.26,23.93C56.89,74.57,49.1,10.34,48.69,7.05A8,8,0,1,0,32.78,9c.05.45,2.46,20.23,5,44.45,2.66,25.08,5.5,54.92,6.09,73-14.49-.91-26.86-2.8-28.33-6.89A8,8,0,0,0,.5,125.07c4.17,11.34,18.44,15.52,38.57,17.14a8,8,0,0,0,14.7,4c.62-.94,1.33-2,2.17-3.13,10.85.29,22.91.27,35.06.45,16.13.25,28.32-5.58,34.22-16A25.24,25.24,0,0,0,124.84,101.81Zm-13.59,17.8c-2.87,5.08-10,7.91-19.67,7.84h-.38c-7.31-.1-14.17-.14-22.31-.21,9.72-10.47,22-20.64,32.58-21.22,4.41-.3,7.87,1.26,9.73,4.24A9.21,9.21,0,0,1,111.25,119.61Z"/></g></g></svg>