<svg xmlns="http://www.w3.org/2000/svg" viewBox="0 0 128.55 149.77"><defs><style>.cls-1{fill:#e29025;}</style></defs><title>17-zho-after trace</title><g id="Layer_2" data-name="Layer 2"><g id="After_Trace" data-name="After Trace"><path class="cls-1" d="M124.85,101.81c-4.94-8-14.06-12.31-24.22-11.82-15.21.83-30.09,12.4-41.29,23.94C56.9,74.58,49.1,10.34,48.7,7.05A8,8,0,1,0,32.79,9c.11.91,9.94,81.89,11.12,117.44-14.49-.91-26.86-2.8-28.35-6.89A8,8,0,0,0,.49,125.07c4.16,11.34,18.46,15.52,38.58,17.14a8,8,0,0,0,14.68,4c.62-.94,1.35-2,2.18-3.13,10.83.29,22.89.27,35,.45h.49c15.63.11,27.93-5.68,33.74-16A25.2,25.2,0,0,0,124.85,101.81Zm-13.6,17.8c-2.86,5.08-10,7.91-19.65,7.84h-.36c-7.34-.1-14.2-.14-22.35-.21,9.72-10.47,22-20.64,32.61-21.22,4.37-.3,7.87,1.26,9.7,4.24A9.13,9.13,0,0,1,111.24,119.61Z"/><path class="cls-1" d="M94.27,74.34A7.34,7.34,0,0,1,88.88,79a9.44,9.44,0,0,1-1.77.17,7.22,7.22,0,0,1-6.19-11,6.9,6.9,0,0,1,2.13-2.19,3.85,3.85,0,0,1,.9-.64,7.25,7.25,0,0,1,5.48-.67,7.55,7.55,0,0,1,4.1,3.08A6.87,6.87,0,0,1,94.27,74.34Z"/><path class="cls-1" d="M24.81,132.28a154.54,154.54,0,0,0,18.6,2.07l7.59.48-.16.18h1.08l-2.44,3.41c-.83,1.17-1.64,2.3-2.35,3.38l-.05,0M91,135.55c-4.73-.07-9.51-.12-14.21-.15-7.28-.06-14.16-.12-20.66-.3L53.24,135l15.57.14,7.68.07c5,0,9.72.08,14.63.15h.42c12.8.09,22.26-4.13,26.62-11.88a17.05,17.05,0,0,0-.22-17.43c-3.08-5-8.64-8-15.23-8q-.83,0-1.7.05c-11.13.63-23.89,8.62-37.94,23.74l-11,11.82-.25-7.49C50.7,91.89,41.7,16.63,40.68,8.16V8a.1.1,0,0,1,0-.09.24.24,0,0,1,.13.07c.07.66,8.11,66.44,10.58,106.41l1.11,17.93L65,119.46c13.12-13.53,25.58-21,36-21.54.4,0,.84,0,1.28,0,6.86,0,12.61,3,15.77,8.1a17.27,17.27,0,0,1,.2,17.62c-4.34,7.68-14.1,12-26.78,11.94ZM7.94,122.34a.09.09,0,0,1,.07-.11.21.21,0,0,1,.11.08C15.29,131,25,131.72,25.88,132.76"/></g></g></svg>