<svg xmlns="http://www.w3.org/2000/svg" viewBox="0 0 114.39 100"><defs><style>.cls-1{fill:#e56b75;}</style></defs><title>24-mim-after trace</title><g id="Layer_2" data-name="Layer 2"><g id="After_Trace" data-name="After Trace"><path class="cls-1" d="M8.4,100a8.31,8.31,0,1,1-.07-16.63c15.47-.28,32.45-27.92,44.84-48.13C65.77,14.74,74.87-.09,87,0c14.29.1,23.54,10.82,26.39,21.39,2.79,10.41-.42,19.92-8.16,24.28C94.41,51.75,74.47,48.75,65.72,47,50.17,72.32,32.46,99.57,8.63,100ZM75.21,31.76c9.07,1.26,18.24,1.38,21.59-.5.34-.19,1.08-2.32.21-5.64s-4-9-10.12-9C84.68,17.58,80,24.34,75.21,31.76Z"/></g></g></svg>