<svg xmlns="http://www.w3.org/2000/svg" viewBox="0 0 106.82 122.73"><defs><style>.cls-1{fill:#4880c2;}</style></defs><title>25-nun-after trace</title><g id="Layer_2" data-name="Layer 2"><g id="After_Trace" data-name="After Trace"><path class="cls-1" d="M52.79,122.73c-19.4-.14-33.79-6.31-42.81-18.4C-7.74,80.64,3.26,43.89,4.56,39.78a8.36,8.36,0,1,1,15.93,5.08C17,55.91,13,80.5,23.38,94.33c6,8.07,16.8,12.06,31.85,11.67,12.4-.26,21.19-4.11,26.87-11.78,12.58-16.95,7.31-49.45,4.23-60.55a8.36,8.36,0,0,1,16.1-4.5c.54,2,13.08,48.1-6.9,75-8.86,11.93-22.29,18.16-39.95,18.55Z"/><path class="cls-1" d="M53.1,10.4a7.58,7.58,0,0,1-5.62,4.86,8.56,8.56,0,0,1-1.84.18,7.51,7.51,0,0,1-6.45-11.5,7.15,7.15,0,0,1,2.2-2.29,4.6,4.6,0,0,1,1-.68A7.53,7.53,0,0,1,48,.27a7.94,7.94,0,0,1,4.29,3.21A7.13,7.13,0,0,1,53.1,10.4Z"/></g></g></svg>