<svg xmlns="http://www.w3.org/2000/svg" viewBox="0 0 170.9 93.09"><defs><style>.cls-1{fill:#77c043;}</style></defs><title>3-ta-after trace</title><g id="Layer_2" data-name="Layer 2"><g id="After_Trace" data-name="After Trace"><path class="cls-1" d="M64,93C37.1,92.44,18.25,85.73,8,73a36.76,36.76,0,0,1-7-31.55,9.38,9.38,0,1,1,18,5.15,18.07,18.07,0,0,0,3.73,14.88c8.09,9.77,28.4,14.2,57.18,12.48C135.44,72,148,59,150.83,53.49c3.58-6.94-1.23-14.35-1.43-14.66a9.38,9.38,0,0,1,15.47-10.62c4.23,6.1,9.59,20,2.81,33.58-9.59,19.1-38,29.21-86.78,30.91Q72,93.22,64,93Z"/><path class="cls-1" d="M68.1,5.48a8,8,0,0,1,.77,7.78,8.52,8.52,0,0,1-6.39,5.36,11.07,11.07,0,0,1-2.09.17,8.42,8.42,0,0,1-7-13A7.7,7.7,0,0,1,55.9,3.24,3.89,3.89,0,0,1,57,2.51a8.45,8.45,0,0,1,6.4-.71A8.79,8.79,0,0,1,68.1,5.48Z"/><path class="cls-1" d="M115.17,11.8a8.53,8.53,0,0,1-6.39,5.34,10.91,10.91,0,0,1-2.09.17,8.4,8.4,0,0,1-6-2.6,8.51,8.51,0,0,1-1-10.41,8.3,8.3,0,0,1,2.53-2.53A3.85,3.85,0,0,1,103.27,1a8.34,8.34,0,0,1,6.4-.69A8.86,8.86,0,0,1,114.42,4,7.94,7.94,0,0,1,115.17,11.8Z"/></g></g></svg>