<svg xmlns="http://www.w3.org/2000/svg" viewBox="0 0 136.37 129.06"><defs><style>.cls-1{fill:#4880c2;}</style></defs><title>5-jim-after trace</title><g id="Layer_2" data-name="Layer 2"><g id="After_Trace" data-name="After Trace"><path class="cls-1" d="M128.85,125.52A238.76,238.76,0,0,1,89,129.06c-20.63,0-44.3-3.23-58.41-15.81-9-8-13.33-19.08-12.46-32,2.53-27.83,17.68-47,35.49-59.56-5.24-.57-11.72-1.57-21-3-5-.79-7.26.57-8.53,1.66-4.88,4.24-5.73,14.65-5.69,17.21a9.14,9.14,0,0,1-9,9.32H9.19a9.18,9.18,0,0,1-9.19-9c0-2.12,0-21,12-31.37,4.31-3.74,11.89-7.79,23.47-6,24.92,4,27.17,4.08,40.11,2.48,13.58-1.7,23-2.89,30.54-.72.32.09.62.19.95.3a20.88,20.88,0,0,1,3.29,1.38,9.19,9.19,0,0,1-7.58,16.72c-11.57,2.21-62,14.47-66.33,62C36,89.8,38,95.23,42.77,99.5c17.72,15.75,65.73,11,82.75,7.92a9.2,9.2,0,0,1,3.33,18.1Z"/><path class="cls-1" d="M76.19,67.43A8.38,8.38,0,0,1,70,72.82,12.8,12.8,0,0,1,68,73a8.19,8.19,0,0,1-6-2.44,8.28,8.28,0,0,1-1.21-10.15,8.19,8.19,0,0,1,2.44-2.53,4.37,4.37,0,0,1,1-.72,8.16,8.16,0,0,1,6.28-.83,8.7,8.7,0,0,1,4.71,3.5A7.79,7.79,0,0,1,76.19,67.43Z"/></g></g></svg>