<svg xmlns="http://www.w3.org/2000/svg" viewBox="0 0 136.38 129.06"><defs><style>.cls-1{fill:#e56b75;}</style></defs><title>6-ha-after trace</title><g id="Layer_2" data-name="Layer 2"><g id="After_Trace" data-name="After Trace"><path class="cls-1" d="M128.85,125.5A235.44,235.44,0,0,1,89,129.06c-20.63,0-44.3-3.25-58.45-15.83-9-8-13.31-19.06-12.46-32,2.55-27.83,17.7-47,35.49-59.56-5.24-.59-11.7-1.57-21-3-5-.79-7.24.55-8.51,1.66-4.73,4.07-5.73,14.09-5.71,17.26A9.21,9.21,0,0,1,9.3,46.82H9.19a9.19,9.19,0,0,1-9.19-9c0-2.12,0-21,12-31.39C16.32,2.65,23.9-1.38,35.49.46c24.92,4,27.15,4.08,40.11,2.46C89.12,1.23,98.52.06,106,2.18c.42.11.79.25,1.19.38l.06,0a21.23,21.23,0,0,1,3.1,1.32,9.2,9.2,0,0,1-7.58,16.73c-11.57,2.17-62,14.45-66.35,62C36,89.8,38,95.23,42.75,99.5c17.74,15.75,65.75,11.06,82.75,7.92a9.19,9.19,0,1,1,3.35,18.08Z"/></g></g></svg>