<svg xmlns="http://www.w3.org/2000/svg" viewBox="0 0 25.87 113.64"><defs><style>.cls-1{fill:#fff;stroke:#00c2ff;stroke-miterlimit:10;stroke-width:0.5px;}.cls-2,.cls-3{fill:#00c2ff;}.cls-3{font-size:6.75px;font-family:Linotte-SemiBold, Linotte-SemiBold;}</style></defs><title>1-alif-guide trace</title><g id="Layer_2" data-name="Layer 2"><g id="Guide_Trace" data-name="Guide Trace"><path class="cls-1" d="M7.16,53.09a1.63,1.63,0,0,1-1.62-1.51l0-.51A1.63,1.63,0,0,1,7,49.34h.1a1.61,1.61,0,0,1,1.62,1.52l0,.49a1.62,1.62,0,0,1-1.51,1.73Z"/><path class="cls-2" d="M7.13,49.47a1.49,1.49,0,0,1,1.5,1.4l0,.49A1.5,1.5,0,0,1,7.27,53H7.16a1.5,1.5,0,0,1-1.49-1.39l0-.51A1.5,1.5,0,0,1,7,49.47h.1m0-.25H7a1.75,1.75,0,0,0-1.63,1.86l0,.51a1.75,1.75,0,0,0,1.74,1.63h.13a1.75,1.75,0,0,0,1.62-1.87l0-.49a1.74,1.74,0,0,0-1.75-1.64Z"/><path class="cls-1" d="M6.5,42.84a1.63,1.63,0,0,1-1.62-1.51l0-.51a1.63,1.63,0,0,1,1.52-1.73h.1a1.61,1.61,0,0,1,1.62,1.52l0,.49a1.62,1.62,0,0,1-1.51,1.73Z"/><path class="cls-2" d="M6.46,39.22A1.49,1.49,0,0,1,8,40.62l0,.49a1.5,1.5,0,0,1-1.39,1.6H6.5A1.5,1.5,0,0,1,5,41.32l0-.51a1.5,1.5,0,0,1,1.4-1.59h.1m0-.25H6.35a1.75,1.75,0,0,0-1.63,1.86l0,.51A1.75,1.75,0,0,0,6.5,43h.13a1.75,1.75,0,0,0,1.62-1.87l0-.49A1.74,1.74,0,0,0,6.46,39Z"/><path class="cls-1" d="M7.83,63.57A1.63,1.63,0,0,1,6.21,62l0-.51A1.62,1.62,0,0,1,7.7,59.82h0a1.65,1.65,0,0,1,1.71,1.53l0,.49a1.63,1.63,0,0,1-1.52,1.73Z"/><path class="cls-2" d="M7.79,59.95a1.5,1.5,0,0,1,1.5,1.41l0,.49a1.5,1.5,0,0,1-1.4,1.59h-.1A1.5,1.5,0,0,1,6.33,62l0-.51a1.5,1.5,0,0,1,1.41-1.59h.08m0-.25H7.7a1.75,1.75,0,0,0-1.65,1.85l0,.51a1.75,1.75,0,0,0,1.74,1.64h.11a1.75,1.75,0,0,0,1.64-1.86l0-.49A1.75,1.75,0,0,0,7.79,59.7Z"/><path class="cls-1" d="M8.33,74.19a1.63,1.63,0,0,1-1.62-1.52l0-.51A1.62,1.62,0,0,1,8.2,70.45h0A1.65,1.65,0,0,1,9.92,72l0,.49a1.63,1.63,0,0,1-1.52,1.73Z"/><path class="cls-2" d="M8.29,70.57A1.5,1.5,0,0,1,9.8,72l0,.49a1.5,1.5,0,0,1-1.4,1.59h-.1a1.5,1.5,0,0,1-1.5-1.4l0-.51a1.5,1.5,0,0,1,1.41-1.59h.08m0-.25H8.2a1.75,1.75,0,0,0-1.65,1.85l0,.51a1.75,1.75,0,0,0,1.74,1.64h.11a1.75,1.75,0,0,0,1.64-1.86L10,72a1.75,1.75,0,0,0-1.75-1.65Z"/><path class="cls-1" d="M9.33,95.19a1.63,1.63,0,0,1-1.62-1.52l0-.51A1.62,1.62,0,0,1,9.2,91.45h0A1.65,1.65,0,0,1,10.92,93l0,.49a1.63,1.63,0,0,1-1.52,1.73Z"/><path class="cls-2" d="M9.29,91.57A1.5,1.5,0,0,1,10.8,93l0,.49a1.5,1.5,0,0,1-1.4,1.59h-.1a1.5,1.5,0,0,1-1.5-1.4l0-.51a1.5,1.5,0,0,1,1.41-1.59h.08m0-.25H9.2a1.75,1.75,0,0,0-1.65,1.85l0,.51a1.75,1.75,0,0,0,1.74,1.64h.11a1.75,1.75,0,0,0,1.64-1.86L11,93a1.75,1.75,0,0,0-1.75-1.65Z"/><path class="cls-1" d="M4.15,21.77a1.63,1.63,0,0,1-1.59-1.29L2.46,20a1.63,1.63,0,0,1,1.25-1.93,1.58,1.58,0,0,1,.34,0,1.63,1.63,0,0,1,1.59,1.29l.1.49a1.63,1.63,0,0,1-1.25,1.93A1.6,1.6,0,0,1,4.15,21.77Z"/><path class="cls-2" d="M4.05,18.16a1.51,1.51,0,0,1,1.46,1.19l.1.49a1.5,1.5,0,0,1-1.16,1.78,1.48,1.48,0,0,1-.31,0,1.5,1.5,0,0,1-1.47-1.19L2.58,20a1.5,1.5,0,0,1,1.16-1.78,1.47,1.47,0,0,1,.31,0m0-.25a1.72,1.72,0,0,0-.37,0A1.75,1.75,0,0,0,2.34,20l.1.49a1.75,1.75,0,0,0,3.42-.72l-.1-.49A1.76,1.76,0,0,0,4.05,17.9Z"/><path class="cls-1" d="M12.63,9a1.63,1.63,0,0,1-1-.37l-.37-.3a1.63,1.63,0,0,1,2-2.53l.4.33a1.63,1.63,0,0,1-1,2.88Z"/><path class="cls-2" d="M12.24,5.57a1.49,1.49,0,0,1,.94.33l.4.33a1.5,1.5,0,0,1-1.91,2.31l-.37-.3a1.5,1.5,0,0,1,.94-2.67m0-.25a1.75,1.75,0,0,0-1.1,3.11l.37.3A1.75,1.75,0,0,0,13.74,6l-.4-.33a1.75,1.75,0,0,0-1.1-.39Z"/><path class="cls-1" d="M2,11.5A1.63,1.63,0,0,1,.39,10.21l-.1-.49A1.63,1.63,0,0,1,1.54,7.79a1.59,1.59,0,0,1,.34,0A1.63,1.63,0,0,1,3.47,9l.1.49a1.63,1.63,0,0,1-1.25,1.93A1.6,1.6,0,0,1,2,11.5Z"/><path class="cls-2" d="M1.88,7.88A1.5,1.5,0,0,1,3.34,9.07l.1.49a1.5,1.5,0,0,1-1.16,1.78,1.48,1.48,0,0,1-.31,0A1.5,1.5,0,0,1,.51,10.18l-.1-.49A1.5,1.5,0,0,1,1.56,7.92a1.47,1.47,0,0,1,.31,0m0-.25a1.72,1.72,0,0,0-.37,0A1.75,1.75,0,0,0,.16,9.75l.1.49a1.75,1.75,0,0,0,3.42-.72L3.59,9A1.76,1.76,0,0,0,1.88,7.63Z"/><path class="cls-1" d="M3.66,3.65a1.62,1.62,0,0,1-.5-.08l-.42-.13a1.62,1.62,0,0,1-1.12-2A1.63,1.63,0,0,1,3.19.25a1.59,1.59,0,0,1,.44.06l.53.16a1.63,1.63,0,0,1-.5,3.17Z"/><path class="cls-2" d="M3.19.38A1.48,1.48,0,0,1,3.6.43l.53.16A1.5,1.5,0,1,1,3.2,3.45l-.43-.13A1.5,1.5,0,0,1,3.19.38m0-.25A1.76,1.76,0,0,0,1.5,1.4a1.75,1.75,0,0,0,1.2,2.16l.42.13A1.75,1.75,0,1,0,4.2.36L3.67.19A1.73,1.73,0,0,0,3.19.13Z"/><path class="cls-1" d="M8.85,84.55A1.62,1.62,0,0,1,7.23,83l0-.51A1.63,1.63,0,0,1,8.78,80.8h0a1.65,1.65,0,0,1,1.68,1.57l0,.49a1.63,1.63,0,0,1-1.56,1.69Z"/><path class="cls-2" d="M8.84,80.92a1.51,1.51,0,0,1,1.5,1.45l0,.49a1.5,1.5,0,0,1-1.44,1.56H8.85A1.5,1.5,0,0,1,7.36,83l0-.51a1.5,1.5,0,0,1,1.45-1.55h.05m0-.25H8.78a1.75,1.75,0,0,0-1.69,1.81l0,.51a1.75,1.75,0,0,0,1.75,1.68h.07a1.75,1.75,0,0,0,1.68-1.82l0-.49a1.76,1.76,0,0,0-1.75-1.69Z"/><path class="cls-1" d="M5.63,32.15A1.63,1.63,0,0,1,4,30.65l0-.51a1.63,1.63,0,0,1,1.5-1.74h.13a1.63,1.63,0,0,1,1.62,1.5l0,.49a1.63,1.63,0,0,1-1.49,1.75Z"/><path class="cls-2" d="M5.59,28.52a1.51,1.51,0,0,1,1.49,1.39l0,.49A1.5,1.5,0,0,1,5.75,32H5.63a1.5,1.5,0,0,1-1.49-1.38l0-.51a1.5,1.5,0,0,1,1.38-1.61h.12m0-.25H5.46a1.75,1.75,0,0,0-1.61,1.88l0,.51a1.76,1.76,0,0,0,1.74,1.61h.15a1.75,1.75,0,0,0,1.6-1.89l0-.49a1.76,1.76,0,0,0-1.74-1.62Z"/><path class="cls-1" d="M19.85,20.33A5.77,5.77,0,1,1,21.63,20a5.75,5.75,0,0,1-1.78.28Z"/><path class="cls-2" d="M19.85,8.93a5.64,5.64,0,1,1-1.74.28,5.64,5.64,0,0,1,1.74-.28m0-.25a5.89,5.89,0,1,0,5.6,4.07,5.88,5.88,0,0,0-5.6-4.07Z"/><path class="cls-1" d="M4.57,104l3.27.92a1.6,1.6,0,0,1-.38-1.09v-.5a1.62,1.62,0,1,1,3.25.09v.5a1.62,1.62,0,0,1-1.1,1.49l4,1.13L6.9,113.16Z"/><path class="cls-2" d="M9.13,101.92h0a1.5,1.5,0,0,1,1.46,1.54v.5a1.5,1.5,0,0,1-1.5,1.46H9l4.42,1.24L7,112.92l-2.22-8.7,3.66,1a1.5,1.5,0,0,1-.82-1.38v-.5a1.48,1.48,0,0,1,1.53-1.46m0-.25a1.73,1.73,0,0,0-1.78,1.7v.5a1.73,1.73,0,0,0,.21.88L4.82,104l-.42-.12.11.42L6.73,113l.11.42.31-.3,6.42-6.27.31-.3-.42-.12-3.48-1a1.74,1.74,0,0,0,.86-1.46v-.5a1.75,1.75,0,0,0-1.7-1.8h0Z"/><text class="cls-3" transform="translate(18.44 16.55)">1</text></g></g></svg>