<svg xmlns="http://www.w3.org/2000/svg" viewBox="0 0 53.56 98.59"><defs><style>.cls-1{fill:#fff;stroke:#00c2ff;stroke-miterlimit:10;stroke-width:0.5px;}.cls-2,.cls-3{fill:#00c2ff;}.cls-3{font-size:6.75px;font-family:Linotte-SemiBold, Linotte-SemiBold;}</style></defs><title>10-ro-guide trace</title><g id="Layer_2" data-name="Layer 2"><g id="Guide_Trace" data-name="Guide Trace"><path class="cls-1" d="M43,71.24a1.62,1.62,0,0,1-1.33-2.55l.28-.4a1.63,1.63,0,0,1,2.68,1.84l-.29.42A1.63,1.63,0,0,1,43,71.24Z"/><path class="cls-2" d="M43.28,67.7A1.5,1.5,0,0,1,44.52,70l-.29.42a1.5,1.5,0,0,1-2.46-1.71l.28-.4a1.5,1.5,0,0,1,1.24-.65m0-.25a1.75,1.75,0,0,0-1.44.76l-.28.4a1.75,1.75,0,0,0,2.87,2l.29-.42a1.75,1.75,0,0,0-1.44-2.74Z"/><path class="cls-1" d="M51.68,41.69a1.62,1.62,0,0,1-1.61-1.43L50,39.77A1.63,1.63,0,0,1,51.41,38l.22,0a1.62,1.62,0,0,1,1.6,1.42l.06.51a1.63,1.63,0,0,1-1.42,1.81Z"/><path class="cls-2" d="M51.63,38.06a1.5,1.5,0,0,1,1.48,1.31l.06.51a1.5,1.5,0,0,1-1.31,1.67h-.18a1.5,1.5,0,0,1-1.49-1.32l-.06-.48a1.5,1.5,0,0,1,1.29-1.68h.21m0-.25-.24,0a1.75,1.75,0,0,0-1.51,2l.06.48a1.75,1.75,0,0,0,1.74,1.54h.21a1.75,1.75,0,0,0,1.53-1.94l-.06-.52a1.75,1.75,0,0,0-1.72-1.53Z"/><path class="cls-1" d="M.5,94.59,8,88.87l.4,3a1.61,1.61,0,0,1,.36-.17l.47-.15a1.63,1.63,0,0,1,1,3.1l-.48.15a1.62,1.62,0,0,1-.49.08,1.43,1.43,0,0,1-.47-.08l.44,3.36Z"/><path class="cls-2" d="M7.87,89.1l.4,3a1.49,1.49,0,0,1,.5-.27l.47-.15a1.5,1.5,0,1,1,.91,2.86l-.48.15a1.5,1.5,0,0,1-.45.07,1.48,1.48,0,0,1-.62-.15L9,98,.74,94.56,7.87,89.1m.19-.46-.34.26L.59,94.36l-.34.26.4.17,8.29,3.44.4.17L9.28,98l-.39-3a1.47,1.47,0,0,0,.32,0A1.74,1.74,0,0,0,9.74,95l.48-.15a1.75,1.75,0,1,0-1.06-3.33l-.47.15-.23.09-.35-2.64-.06-.43Z"/><path class="cls-1" d="M51.34,52.14l-.29,0a1.63,1.63,0,0,1-1.31-1.89l.08-.47a1.62,1.62,0,0,1,1.6-1.36l.27,0A1.63,1.63,0,0,1,53,50.29l-.09.51A1.62,1.62,0,0,1,51.34,52.14Z"/><path class="cls-2" d="M51.43,48.52l.25,0a1.5,1.5,0,0,1,1.23,1.73l-.09.51A1.5,1.5,0,0,1,51.34,52l-.27,0a1.5,1.5,0,0,1-1.21-1.74l.08-.47a1.5,1.5,0,0,1,1.48-1.25m0-.25a1.74,1.74,0,0,0-1.72,1.46l-.08.47a1.75,1.75,0,0,0,1.41,2l.31,0a1.75,1.75,0,0,0,1.72-1.44l.09-.51a1.75,1.75,0,0,0-1.44-2l-.29,0Z"/><path class="cls-1" d="M49,31.57a1.62,1.62,0,0,1-1.5-1l-.19-.44A1.63,1.63,0,0,1,48.17,28a1.62,1.62,0,0,1,2.13.85l.2.47A1.63,1.63,0,0,1,49,31.57Z"/><path class="cls-2" d="M48.81,28a1.5,1.5,0,0,1,1.38.91l.2.47a1.5,1.5,0,1,1-2.77,1.15l-.19-.45A1.5,1.5,0,0,1,48.81,28m0-.25a1.75,1.75,0,0,0-1.61,2.44l.19.44a1.75,1.75,0,0,0,3.23-1.35l-.2-.47a1.75,1.75,0,0,0-1.61-1.06Z"/><path class="cls-1" d="M28.09,85.86a1.62,1.62,0,0,1-.92-3l.4-.28a1.62,1.62,0,0,1,1.85,2.67l-.42.29A1.61,1.61,0,0,1,28.09,85.86Z"/><path class="cls-2" d="M28.5,82.45a1.5,1.5,0,0,1,.86,2.73l-.42.29A1.5,1.5,0,0,1,27.24,83l.4-.28a1.5,1.5,0,0,1,.85-.27m0-.25a1.74,1.74,0,0,0-1,.31l-.4.28a1.75,1.75,0,0,0,2,2.89l.42-.29a1.75,1.75,0,0,0-1-3.19Z"/><path class="cls-1" d="M36.21,79.23a1.62,1.62,0,0,1-1.13-2.79l.35-.34a1.62,1.62,0,0,1,2.29,2.31l-.37.36A1.62,1.62,0,0,1,36.21,79.23Z"/><path class="cls-2" d="M36.57,75.75a1.5,1.5,0,0,1,1.06,2.56l-.37.36a1.5,1.5,0,1,1-2.09-2.15l.35-.34a1.5,1.5,0,0,1,1.06-.44m0-.25a1.74,1.74,0,0,0-1.23.51l-.35.34a1.75,1.75,0,0,0,2.44,2.5l.37-.36a1.75,1.75,0,0,0-1.23-3Z"/><path class="cls-1" d="M43.89,22.43a1.63,1.63,0,0,1-1.33-.68l-.28-.4a1.63,1.63,0,0,1,.36-2.27,1.61,1.61,0,0,1,1-.31,1.63,1.63,0,0,1,1.32.67l.3.41a1.62,1.62,0,0,1-1.32,2.57Z"/><path class="cls-2" d="M43.59,18.9a1.5,1.5,0,0,1,1.22.62l.3.41a1.5,1.5,0,1,1-2.44,1.74l-.28-.4a1.5,1.5,0,0,1,1.21-2.38m0-.25a1.73,1.73,0,0,0-1,.33,1.75,1.75,0,0,0-.39,2.44l.28.39a1.75,1.75,0,0,0,2.85-2l-.3-.41a1.76,1.76,0,0,0-1.42-.73Z"/><path class="cls-1" d="M19,91.08a1.63,1.63,0,0,1-1.47-.93A1.62,1.62,0,0,1,18.29,88l.44-.21a1.61,1.61,0,0,1,.71-.16,1.64,1.64,0,0,1,1.46.91,1.63,1.63,0,0,1-.75,2.17l-.46.22A1.61,1.61,0,0,1,19,91.08Z"/><path class="cls-2" d="M19.43,87.74a1.5,1.5,0,0,1,.66,2.85l-.46.22a1.5,1.5,0,0,1-1.29-2.71l.44-.21a1.49,1.49,0,0,1,.65-.15m0-.25a1.73,1.73,0,0,0-.76.18l-.44.21a1.75,1.75,0,0,0-.83,2.33,1.76,1.76,0,0,0,1.58,1,1.73,1.73,0,0,0,.75-.17l.46-.22A1.75,1.75,0,0,0,21,88.47a1.76,1.76,0,0,0-1.58-1Z"/><path class="cls-1" d="M48.14,62.11a1.63,1.63,0,0,1-1.48-2.29l.19-.44a1.62,1.62,0,0,1,3,1.29l-.21.47A1.63,1.63,0,0,1,48.14,62.11Z"/><path class="cls-2" d="M48.35,58.53a1.5,1.5,0,0,1,1.38,2.1l-.21.47a1.5,1.5,0,0,1-2.74-1.22l.19-.44a1.5,1.5,0,0,1,1.38-.9m0-.25a1.75,1.75,0,0,0-1.61,1.05l-.19.44a1.75,1.75,0,0,0,3.2,1.43l.21-.48a1.75,1.75,0,0,0-1.6-2.45Z"/><path class="cls-1" d="M37.06,14.47A1.62,1.62,0,0,1,35.92,14l-.35-.34a1.63,1.63,0,0,1,2.26-2.34l.37.35a1.63,1.63,0,0,1-1.14,2.79Z"/><path class="cls-2" d="M36.7,11a1.5,1.5,0,0,1,1,.42l.37.35A1.5,1.5,0,0,1,36,13.92l-.35-.34a1.5,1.5,0,0,1,1-2.58m0-.25a1.75,1.75,0,0,0-1.22,3l.35.34a1.75,1.75,0,0,0,2.45-2.5l-.37-.36a1.74,1.74,0,0,0-1.22-.49Z"/><path class="cls-1" d="M28.82,11.78a5.77,5.77,0,0,1-5.25-8.15A5.78,5.78,0,0,1,28.82.25a5.77,5.77,0,0,1,5.25,8.14,5.78,5.78,0,0,1-5.25,3.39Z"/><path class="cls-2" d="M28.82.37a5.64,5.64,0,1,1-5.14,3.31A5.62,5.62,0,0,1,28.82.37m0-.25a5.89,5.89,0,0,0-2.43,11.26,5.84,5.84,0,0,0,2.43.53A5.89,5.89,0,0,0,31.25.65,5.84,5.84,0,0,0,28.82.12Z"/><text class="cls-3" transform="translate(27 7.62)">1</text></g></g></svg>