<svg xmlns="http://www.w3.org/2000/svg" viewBox="0 0 53.57 121.04"><defs><style>.cls-1{fill:#fff;stroke:#00c2ff;stroke-miterlimit:10;stroke-width:0.5px;}.cls-2,.cls-3{fill:#00c2ff;}.cls-3{font-size:6.75px;font-family:Linotte-SemiBold, Linotte-SemiBold;}</style></defs><title>11-za-guide trace</title><g id="Layer_2" data-name="Layer 2"><g id="Guide_Trace" data-name="Guide Trace"><circle class="cls-1" cx="20.3" cy="2.21" r="1.96"/><path class="cls-2" d="M20.3.38a1.83,1.83,0,1,1-1.83,1.83A1.83,1.83,0,0,1,20.3.38m0-.25a2.08,2.08,0,1,0,2.08,2.08A2.09,2.09,0,0,0,20.3.13Z"/><path class="cls-1" d="M51.34,74.59l-.29,0a1.63,1.63,0,0,1-1.31-1.89l.08-.47a1.62,1.62,0,0,1,1.6-1.36l.27,0A1.63,1.63,0,0,1,53,72.74l-.09.51A1.62,1.62,0,0,1,51.34,74.59Z"/><path class="cls-2" d="M51.42,71l.25,0a1.5,1.5,0,0,1,1.23,1.73l-.09.51a1.5,1.5,0,0,1-1.47,1.23l-.27,0a1.5,1.5,0,0,1-1.21-1.74l.08-.47A1.5,1.5,0,0,1,51.42,71m0-.25a1.74,1.74,0,0,0-1.72,1.46l-.08.47a1.75,1.75,0,0,0,1.41,2l.31,0a1.75,1.75,0,0,0,1.72-1.44l.09-.51a1.75,1.75,0,0,0-1.44-2l-.29,0Z"/><path class="cls-1" d="M51.69,64.14a1.62,1.62,0,0,1-1.61-1.44L50,62.23a1.63,1.63,0,0,1,1.4-1.82h.22a1.63,1.63,0,0,1,1.6,1.42l.06.52a1.62,1.62,0,0,1-1.43,1.8Z"/><path class="cls-2" d="M51.64,60.52a1.5,1.5,0,0,1,1.48,1.31l.06.52A1.5,1.5,0,0,1,51.86,64h-.17a1.5,1.5,0,0,1-1.49-1.33l-.06-.47a1.5,1.5,0,0,1,1.29-1.68h.2m0-.25-.23,0a1.75,1.75,0,0,0-1.51,2l.06.47a1.75,1.75,0,0,0,1.74,1.55h.2a1.75,1.75,0,0,0,1.54-1.94l-.06-.52a1.75,1.75,0,0,0-1.73-1.53Z"/><path class="cls-1" d="M43.91,44.88a1.63,1.63,0,0,1-1.32-.68l-.29-.4a1.63,1.63,0,0,1,.36-2.27,1.6,1.6,0,0,1,1-.31,1.63,1.63,0,0,1,1.32.67l.3.41a1.63,1.63,0,0,1-1.32,2.57Z"/><path class="cls-2" d="M43.62,41.35a1.5,1.5,0,0,1,1.22.62l.3.41a1.5,1.5,0,1,1-2.44,1.74l-.29-.4a1.5,1.5,0,0,1,1.21-2.38m0-.25a1.73,1.73,0,0,0-1,.33,1.75,1.75,0,0,0-.39,2.44l.29.4a1.76,1.76,0,0,0,1.42.73,1.75,1.75,0,0,0,1.42-2.77l-.3-.41a1.76,1.76,0,0,0-1.42-.73Z"/><path class="cls-1" d="M.5,117,8,111.31l.39,3a1.59,1.59,0,0,1,.36-.16l.47-.15a1.63,1.63,0,0,1,1,3.1l-.49.15a1.63,1.63,0,0,1-.48.07,1.44,1.44,0,0,1-.46-.08l.43,3.36Z"/><path class="cls-2" d="M7.88,111.54l.39,3a1.49,1.49,0,0,1,.49-.26l.47-.15a1.5,1.5,0,0,1,.91,2.86l-.49.15a1.5,1.5,0,0,1-.45.07,1.48,1.48,0,0,1-.61-.15L9,120.45.74,117l7.14-5.44m.19-.46-.34.26L.59,116.78.25,117l.4.17,8.28,3.47.4.17-.05-.43-.38-3a1.47,1.47,0,0,0,.31,0,1.75,1.75,0,0,0,.52-.08l.49-.15a1.75,1.75,0,1,0-1.06-3.33l-.46.15-.22.08-.34-2.64-.05-.43Z"/><path class="cls-1" d="M19,113.54a1.63,1.63,0,0,1-1.47-.93,1.62,1.62,0,0,1,.77-2.17l.44-.21a1.61,1.61,0,0,1,.71-.16,1.64,1.64,0,0,1,1.46.91,1.63,1.63,0,0,1-.75,2.17l-.46.22A1.61,1.61,0,0,1,19,113.54Z"/><path class="cls-2" d="M19.43,110.2a1.5,1.5,0,0,1,.66,2.85l-.46.22a1.5,1.5,0,1,1-1.29-2.71l.44-.21a1.49,1.49,0,0,1,.66-.15m0-.25a1.73,1.73,0,0,0-.76.18l-.44.21a1.75,1.75,0,0,0-.83,2.33,1.76,1.76,0,0,0,1.58,1,1.73,1.73,0,0,0,.75-.17l.46-.22a1.75,1.75,0,0,0,.81-2.34,1.76,1.76,0,0,0-1.57-1Z"/><path class="cls-1" d="M36.21,101.68a1.62,1.62,0,0,1-1.13-2.79l.34-.34a1.62,1.62,0,0,1,2.29,2.31l-.37.36A1.62,1.62,0,0,1,36.21,101.68Z"/><path class="cls-2" d="M36.56,98.21a1.5,1.5,0,0,1,1.06,2.56l-.37.36A1.5,1.5,0,1,1,35.16,99l.35-.34a1.5,1.5,0,0,1,1.06-.43m0-.25a1.74,1.74,0,0,0-1.23.51L35,98.8a1.75,1.75,0,0,0,2.44,2.51l.37-.36a1.75,1.75,0,0,0-1.23-3Z"/><path class="cls-1" d="M37.08,36.92a1.62,1.62,0,0,1-1.14-.46l-.35-.34a1.63,1.63,0,0,1,2.26-2.34l.37.35a1.63,1.63,0,0,1-1.14,2.79Z"/><path class="cls-2" d="M36.73,33.45a1.5,1.5,0,0,1,1,.42l.37.35A1.5,1.5,0,0,1,36,36.37L35.68,36a1.5,1.5,0,0,1,1-2.58m0-.25a1.75,1.75,0,0,0-1.22,3l.35.34A1.75,1.75,0,0,0,38.31,34l-.37-.36a1.74,1.74,0,0,0-1.22-.49Z"/><path class="cls-1" d="M49,54a1.62,1.62,0,0,1-1.5-1l-.19-.45a1.63,1.63,0,0,1,.85-2.13,1.6,1.6,0,0,1,.64-.13,1.62,1.62,0,0,1,1.49,1l.2.47A1.63,1.63,0,0,1,49,54Z"/><path class="cls-2" d="M48.83,50.44a1.5,1.5,0,0,1,1.38.91l.2.47A1.5,1.5,0,1,1,47.64,53l-.19-.45a1.5,1.5,0,0,1,1.38-2.09m0-.25a1.75,1.75,0,0,0-1.61,2.44l.19.45a1.75,1.75,0,0,0,3.23-1.35l-.2-.47a1.75,1.75,0,0,0-1.61-1.06Z"/><path class="cls-1" d="M28.09,108.32a1.62,1.62,0,0,1-.92-3l.4-.28a1.62,1.62,0,0,1,1.85,2.67L29,108A1.61,1.61,0,0,1,28.09,108.32Z"/><path class="cls-2" d="M28.49,104.91a1.5,1.5,0,0,1,.86,2.73l-.42.29a1.5,1.5,0,1,1-1.69-2.48l.4-.28a1.5,1.5,0,0,1,.85-.27m0-.25a1.75,1.75,0,0,0-1,.31l-.4.28a1.75,1.75,0,0,0,2,2.89l.42-.29a1.75,1.75,0,0,0-1-3.19Z"/><path class="cls-1" d="M43,93.69a1.62,1.62,0,0,1-1.33-2.55l.28-.4a1.63,1.63,0,0,1,2.68,1.84l-.29.42A1.63,1.63,0,0,1,43,93.69Z"/><path class="cls-2" d="M43.27,90.15a1.5,1.5,0,0,1,1.24,2.35l-.29.42a1.5,1.5,0,1,1-2.46-1.71l.28-.4a1.5,1.5,0,0,1,1.24-.65m0-.25a1.75,1.75,0,0,0-1.44.76l-.28.4a1.75,1.75,0,0,0,2.87,2l.29-.42a1.75,1.75,0,0,0-1.44-2.74Z"/><path class="cls-1" d="M48.14,84.56a1.63,1.63,0,0,1-1.48-2.28l.2-.44a1.62,1.62,0,0,1,3,1.29l-.21.47A1.63,1.63,0,0,1,48.14,84.56Z"/><path class="cls-2" d="M48.34,81a1.5,1.5,0,0,1,1.38,2.1l-.21.47a1.5,1.5,0,1,1-2.74-1.22l.2-.45a1.5,1.5,0,0,1,1.38-.9m0-.25a1.75,1.75,0,0,0-1.61,1.05l-.2.44a1.75,1.75,0,1,0,3.2,1.42l.21-.47a1.75,1.75,0,0,0-1.6-2.45Z"/><path class="cls-1" d="M28.84,34.23a5.77,5.77,0,0,1-5.25-8.14,5.78,5.78,0,0,1,5.25-3.39,5.77,5.77,0,0,1,5.25,8.14,5.78,5.78,0,0,1-5.25,3.39Z"/><path class="cls-2" d="M28.85,22.83a5.64,5.64,0,1,1-5.14,3.31,5.62,5.62,0,0,1,5.14-3.31m0-.25a5.89,5.89,0,0,0-2.43,11.26,5.84,5.84,0,0,0,2.43.53A5.89,5.89,0,0,0,31.27,23.1a5.84,5.84,0,0,0-2.43-.53Z"/><text class="cls-3" transform="translate(26.96 30.56)">1</text></g></g></svg>