<svg xmlns="http://www.w3.org/2000/svg" viewBox="0 0 144.81 80.5"><defs><style>.cls-1{fill:#fff;stroke:#00c2ff;stroke-miterlimit:10;stroke-width:0.5px;}.cls-2,.cls-3{fill:#00c2ff;}.cls-3{font-size:6.75px;font-family:Linotte-SemiBold, Linotte-SemiBold;}</style></defs><title>12-sin-guide trace</title><g id="Layer_2" data-name="Layer 2"><g id="Guide_Trace" data-name="Guide Trace"><path class="cls-1" d="M75.2,11.39A1.63,1.63,0,0,1,73.59,10l-.06-.5a1.62,1.62,0,0,1,1.41-1.82h.21a1.63,1.63,0,0,1,1.61,1.42l.06.5a1.62,1.62,0,0,1-1.41,1.82Z"/><path class="cls-2" d="M75.14,7.77a1.5,1.5,0,0,1,1.48,1.31l.06.5a1.5,1.5,0,0,1-1.3,1.68H75.2A1.5,1.5,0,0,1,73.71,10l-.06-.5a1.5,1.5,0,0,1,1.3-1.68h.2m0-.25-.23,0a1.75,1.75,0,0,0-1.51,2l.06.5a1.75,1.75,0,0,0,1.73,1.53h.22a1.75,1.75,0,0,0,1.51-2L76.87,9a1.75,1.75,0,0,0-1.73-1.53Z"/><path class="cls-1" d="M78.53,32.1a1.63,1.63,0,0,1-1.62-1.54l0-.49a1.64,1.64,0,0,1,1.23-1.67L78,28.15a1.63,1.63,0,0,1,1.47-2.32,1.63,1.63,0,0,1,1.47.94l.2.42a1.63,1.63,0,0,1-1.08,2.3,1.62,1.62,0,0,1,.07.4l0,.5a1.63,1.63,0,0,1-1.53,1.71Z"/><path class="cls-2" d="M79.45,26a1.5,1.5,0,0,1,1.36.86l.2.42a1.5,1.5,0,0,1-1.13,2.15,1.5,1.5,0,0,1,.12.5l0,.5A1.5,1.5,0,0,1,78.62,32h-.08A1.5,1.5,0,0,1,77,30.56l0-.49a1.5,1.5,0,0,1,1.28-1.57l-.19-.4A1.5,1.5,0,0,1,79.45,26m0-.25a1.75,1.75,0,0,0-1.58,2.49l.06.12a1.76,1.76,0,0,0-1.17,1.76l0,.49a1.75,1.75,0,0,0,1.75,1.65h.1a1.75,1.75,0,0,0,1.65-1.84l0-.5a1.79,1.79,0,0,0,0-.3l.24-.1a1.75,1.75,0,0,0,.79-2.34l-.2-.42a1.76,1.76,0,0,0-1.58-1Z"/><path class="cls-1" d="M96.52,37.39a1.63,1.63,0,0,1-.45-3.19l.43-.13a1.63,1.63,0,0,1,1,3.09l-.53.16A1.62,1.62,0,0,1,96.52,37.39Z"/><path class="cls-2" d="M97,34.12A1.5,1.5,0,0,1,97.46,37l-.52.16a1.5,1.5,0,0,1-.83-2.88l.43-.13a1.5,1.5,0,0,1,.46-.07m0-.25a1.75,1.75,0,0,0-.54.08l-.43.13a1.75,1.75,0,1,0,1,3.36l.53-.16A1.75,1.75,0,0,0,97,33.87Z"/><path class="cls-1" d="M141.14,19.28a1.63,1.63,0,0,1-1.62-1.49l0-.48A1.63,1.63,0,0,1,141,15.54h.15A1.63,1.63,0,0,1,142.72,17l0,.51a1.63,1.63,0,0,1-1.49,1.75Z"/><path class="cls-2" d="M141.11,15.66A1.5,1.5,0,0,1,142.59,17l0,.51a1.5,1.5,0,0,1-1.37,1.62h-.12a1.5,1.5,0,0,1-1.49-1.38l0-.48A1.5,1.5,0,0,1,141,15.66h.14m0-.25h-.17a1.75,1.75,0,0,0-1.58,1.9l0,.48a1.76,1.76,0,0,0,1.74,1.61h.14a1.75,1.75,0,0,0,1.6-1.89l0-.51a1.76,1.76,0,0,0-1.74-1.59Z"/><path class="cls-1" d="M123.57,37.71a1.64,1.64,0,0,1-.31,0l-.54-.11a1.63,1.63,0,0,1,.36-3.21,1.65,1.65,0,0,1,.36,0l.44.09a1.63,1.63,0,0,1-.31,3.22Z"/><path class="cls-2" d="M123.08,34.49a1.5,1.5,0,0,1,.33,0l.44.09a1.5,1.5,0,0,1-.29,3l-.29,0-.54-.11a1.5,1.5,0,0,1,.34-3m0-.25a1.75,1.75,0,0,0-.39,3.46l.54.12a1.75,1.75,0,0,0,2.05-1.38,1.75,1.75,0,0,0-1.38-2.05l-.43-.09a1.75,1.75,0,0,0-.39,0Z"/><path class="cls-1" d="M77,53a1.66,1.66,0,0,1-.38,0,1.63,1.63,0,0,1-1.21-2l.11-.47a1.63,1.63,0,0,1,1.58-1.27,1.63,1.63,0,0,1,1.59,2l-.12.5A1.62,1.62,0,0,1,77,53Z"/><path class="cls-2" d="M77.13,49.37a1.51,1.51,0,0,1,1.47,1.83l-.12.5A1.5,1.5,0,0,1,77,52.86a1.53,1.53,0,0,1-.35,0A1.5,1.5,0,0,1,75.56,51l.11-.47a1.5,1.5,0,0,1,1.46-1.17m0-.25a1.74,1.74,0,0,0-1.7,1.37l-.11.47a1.75,1.75,0,0,0,1.3,2.11,1.78,1.78,0,0,0,.41,0,1.74,1.74,0,0,0,1.7-1.35l.12-.51a1.76,1.76,0,0,0-1.71-2.14Z"/><path class="cls-1" d="M133.43,37a1.63,1.63,0,0,1-.55-3.16l.42-.16a1.62,1.62,0,1,1,1.2,3l-.52.2A1.62,1.62,0,0,1,133.43,37Z"/><path class="cls-2" d="M133.9,33.65a1.5,1.5,0,0,1,.55,2.89l-.52.19a1.5,1.5,0,1,1-1-2.82l.42-.16a1.49,1.49,0,0,1,.55-.11m0-.25a1.74,1.74,0,0,0-.65.12l-.41.16A1.75,1.75,0,1,0,134,37l.52-.2a1.75,1.75,0,0,0-.65-3.38Z"/><path class="cls-1" d="M78.41,42.6a1.63,1.63,0,0,1-1.52-1.73l0-.49a1.63,1.63,0,0,1,3.25.19l0,.51a1.63,1.63,0,0,1-1.62,1.52Z"/><path class="cls-2" d="M78.56,39h.07A1.5,1.5,0,0,1,80,40.56l0,.51a1.5,1.5,0,0,1-1.5,1.4h-.1A1.5,1.5,0,0,1,77,40.88l0-.49A1.51,1.51,0,0,1,78.56,39m0-.25a1.76,1.76,0,0,0-1.76,1.65l0,.49a1.75,1.75,0,0,0,1.63,1.86h.11a1.75,1.75,0,0,0,1.75-1.64l0-.51a1.75,1.75,0,0,0-1.64-1.85Z"/><path class="cls-1" d="M105,31.47a1.63,1.63,0,0,1-1.31-2.59l.26-.37a1.63,1.63,0,1,1,2.67,1.85l-.32.45A1.63,1.63,0,0,1,105,31.47Z"/><path class="cls-2" d="M105.24,27.94a1.5,1.5,0,0,1,1.23,2.35l-.32.44A1.5,1.5,0,0,1,103.74,29l.26-.37a1.5,1.5,0,0,1,1.24-.65m0-.25a1.75,1.75,0,0,0-1.44.76l-.26.36a1.75,1.75,0,0,0,2.82,2.07l.32-.45a1.75,1.75,0,0,0-1.44-2.74Z"/><path class="cls-1" d="M3.6,37.12a1.62,1.62,0,0,1-1.5-1.74l0-.5a1.63,1.63,0,0,1,1.62-1.5h.13a1.62,1.62,0,0,1,1.49,1.75l0,.49a1.63,1.63,0,0,1-1.62,1.5Z"/><path class="cls-2" d="M3.76,33.5h.12a1.5,1.5,0,0,1,1.38,1.61l0,.49A1.5,1.5,0,0,1,3.73,37H3.61a1.5,1.5,0,0,1-1.38-1.61l0-.5A1.5,1.5,0,0,1,3.76,33.5m0-.25A1.76,1.76,0,0,0,2,34.86l0,.5a1.75,1.75,0,0,0,1.61,1.88h.13a1.76,1.76,0,0,0,1.74-1.62l0-.49A1.75,1.75,0,0,0,3.9,33.26Z"/><path class="cls-1" d="M114.86,32.28a1.62,1.62,0,0,1-1.28-.62l-.33-.44a1.63,1.63,0,0,1,.34-2.27,1.61,1.61,0,0,1,1-.32,1.64,1.64,0,0,1,1.31.66l.27.36a1.63,1.63,0,0,1-.27,2.28A1.61,1.61,0,0,1,114.86,32.28Z"/><path class="cls-2" d="M114.55,28.76a1.5,1.5,0,0,1,1.21.61l.27.36a1.5,1.5,0,0,1-2.36,1.86l-.33-.43a1.5,1.5,0,0,1,1.2-2.39m0-.25a1.75,1.75,0,0,0-1.41,2.79l.33.44a1.75,1.75,0,0,0,2.75-2.16l-.27-.35a1.76,1.76,0,0,0-1.41-.71Z"/><path class="cls-1" d="M76.95,21.74a1.62,1.62,0,0,1-1.6-1.35l-.08-.49a1.62,1.62,0,0,1,.46-1.42A1.62,1.62,0,0,1,75.6,18l-.07-.5a1.63,1.63,0,0,1,1.39-1.83l.23,0a1.63,1.63,0,0,1,1.6,1.4l.07.49A1.62,1.62,0,0,1,78.35,19a1.63,1.63,0,0,1,.11.38l.08.49a1.63,1.63,0,0,1-1.33,1.87Z"/><path class="cls-2" d="M77.14,15.82a1.5,1.5,0,0,1,1.48,1.3l.07.49a1.5,1.5,0,0,1-.49,1.33,1.51,1.51,0,0,1,.14.43l.08.49a1.5,1.5,0,0,1-1.23,1.73l-.25,0a1.5,1.5,0,0,1-1.48-1.25l-.08-.49a1.5,1.5,0,0,1,.48-1.37,1.49,1.49,0,0,1-.15-.47l-.07-.5a1.5,1.5,0,0,1,1.28-1.69l.21,0m0-.25-.25,0a1.75,1.75,0,0,0-1.49,2l.07.5a1.74,1.74,0,0,0,.1.38,1.74,1.74,0,0,0-.43,1.47l.08.49a1.74,1.74,0,0,0,1.72,1.46l.29,0a1.75,1.75,0,0,0,1.43-2l-.08-.49A1.78,1.78,0,0,0,78.5,19a1.75,1.75,0,0,0,.44-1.42l-.07-.49a1.75,1.75,0,0,0-1.73-1.51Z"/><path class="cls-1" d="M10.28,67.29A1.63,1.63,0,0,1,9,66.61l-.3-.43a1.62,1.62,0,1,1,2.67-1.85l.27.39a1.63,1.63,0,0,1-1.32,2.57Z"/><path class="cls-2" d="M10,63.76a1.5,1.5,0,0,1,1.23.64l.27.39a1.5,1.5,0,1,1-2.44,1.75l-.3-.43A1.5,1.5,0,0,1,10,63.76m0-.25a1.75,1.75,0,0,0-1.44,2.75l.3.43a1.76,1.76,0,0,0,1.42.73,1.75,1.75,0,0,0,1.42-2.77l-.27-.39A1.75,1.75,0,0,0,10,63.51Z"/><path class="cls-1" d="M17.84,74.48a1.62,1.62,0,0,1-.89-.27l-.43-.29a1.63,1.63,0,0,1,1.81-2.7l.4.27a1.62,1.62,0,0,1-.89,3Z"/><path class="cls-2" d="M17.43,71.08a1.49,1.49,0,0,1,.83.25l.4.27A1.5,1.5,0,1,1,17,74.11l-.43-.29a1.5,1.5,0,0,1,.84-2.75m0-.25a1.75,1.75,0,0,0-1,3.2l.43.29a1.75,1.75,0,1,0,1.92-2.93l-.4-.27a1.74,1.74,0,0,0-1-.3Z"/><path class="cls-1" d="M37.18,80.22a1.63,1.63,0,0,1,.1-3.25l.59,0a1.63,1.63,0,0,1-.08,3.25Z"/><path class="cls-2" d="M37.28,77.1h.09l.49,0a1.5,1.5,0,0,1-.08,3H37.7l-.51,0a1.5,1.5,0,0,1,.09-3m0-.25a1.75,1.75,0,0,0-.11,3.5l.51,0h.09a1.75,1.75,0,0,0,.09-3.5l-.48,0Z"/><path class="cls-1" d="M110.5,22.81A1.63,1.63,0,0,1,109,21.76l-.27,0h-.22a1.63,1.63,0,0,1-1.39-1.83l.06-.47A1.62,1.62,0,0,1,108.76,18H109a1.63,1.63,0,0,1,1.33,1h.09A1.64,1.64,0,0,1,112,20.32l.11.47a1.62,1.62,0,0,1-1.19,2A1.63,1.63,0,0,1,110.5,22.81Z"/><path class="cls-2" d="M108.76,18.16h.18a1.5,1.5,0,0,1,1.26,1h.18a1.51,1.51,0,0,1,1.46,1.16l.11.47a1.5,1.5,0,0,1-2.89.79,1.51,1.51,0,0,1-.36,0h-.2A1.5,1.5,0,0,1,107.22,20l.06-.47a1.5,1.5,0,0,1,1.49-1.33m0-.25h0A1.75,1.75,0,0,0,107,19.46l-.06.46a1.75,1.75,0,0,0,1.5,2l.24,0h.19a1.75,1.75,0,0,0,2,1,1.75,1.75,0,0,0,1.28-2.12l-.11-.47a1.76,1.76,0,0,0-1.7-1.35h0a1.75,1.75,0,0,0-1.4-1Z"/><path class="cls-1" d="M5.65,57.91a1.62,1.62,0,0,1-1.55-1.14L4,56.28a1.63,1.63,0,1,1,3.11-.94l.14.46a1.63,1.63,0,0,1-1.55,2.11Z"/><path class="cls-2" d="M5.51,54.31a1.5,1.5,0,0,1,1.44,1.07l.14.46a1.5,1.5,0,1,1-2.86.9l-.15-.49a1.5,1.5,0,0,1,1.44-1.93m0-.25a1.75,1.75,0,0,0-1.68,2.26l.15.5a1.75,1.75,0,1,0,3.34-1l-.14-.46a1.76,1.76,0,0,0-1.68-1.24Z"/><path class="cls-1" d="M3.71,47.62a1.63,1.63,0,0,1-1.62-1.5l0-.51a1.62,1.62,0,0,1,1.5-1.74h.1A1.64,1.64,0,0,1,5.3,45.37l0,.49a1.62,1.62,0,0,1-1.49,1.75Z"/><path class="cls-2" d="M3.66,44a1.51,1.51,0,0,1,1.51,1.39l0,.49a1.5,1.5,0,0,1-1.38,1.61H3.71a1.5,1.5,0,0,1-1.49-1.38l0-.51A1.5,1.5,0,0,1,3.57,44h.09m0-.25H3.55a1.75,1.75,0,0,0-1.62,1.87l0,.51a1.76,1.76,0,0,0,1.74,1.61h.14a1.75,1.75,0,0,0,1.6-1.88l0-.49a1.76,1.76,0,0,0-1.76-1.62Z"/><path class="cls-1" d="M27.42,78.67a1.62,1.62,0,0,1-.43-.06l-.5-.14a1.63,1.63,0,1,1,.89-3.13l.47.13a1.63,1.63,0,0,1-.43,3.19Z"/><path class="cls-2" d="M26.94,75.41a1.49,1.49,0,0,1,.41.06l.47.13A1.5,1.5,0,1,1,27,78.49l-.49-.14a1.5,1.5,0,0,1,.41-2.94m0-.25a1.75,1.75,0,0,0-.48,3.43l.5.14a1.75,1.75,0,1,0,.93-3.37l-.47-.13a1.74,1.74,0,0,0-.48-.07Z"/><path class="cls-1" d="M73.44,62.82A1.63,1.63,0,0,1,72,60.44l.22-.42a1.63,1.63,0,0,1,2.9,1.47l-.24.46A1.62,1.62,0,0,1,73.44,62.82Z"/><path class="cls-2" d="M73.67,59.25A1.5,1.5,0,0,1,75,61.43l-.24.46a1.5,1.5,0,0,1-2.66-1.39l.22-.43a1.5,1.5,0,0,1,1.34-.82m0-.25a1.74,1.74,0,0,0-1.56,1l-.22.42A1.75,1.75,0,0,0,75,62l.24-.46a1.75,1.75,0,0,0-.77-2.35,1.76,1.76,0,0,0-.79-.19Z"/><path class="cls-1" d="M86.74,37a1.61,1.61,0,0,1-.67-.15l-.51-.24A1.63,1.63,0,0,1,87,33.73l.39.19a1.63,1.63,0,0,1-.67,3.1Z"/><path class="cls-2" d="M86.29,33.68a1.49,1.49,0,0,1,.67.16l.4.19a1.5,1.5,0,1,1-1.24,2.73l-.51-.24a1.5,1.5,0,0,1,.68-2.84m0-.25a1.75,1.75,0,0,0-.79,3.31L86,37a1.74,1.74,0,0,0,.72.16,1.75,1.75,0,0,0,.73-3.34l-.39-.19a1.76,1.76,0,0,0-.79-.19Z"/><path class="cls-1" d="M57.52,76a1.63,1.63,0,0,1-.75-3.07l.43-.23a1.63,1.63,0,0,1,1.52,2.87l-.46.24A1.64,1.64,0,0,1,57.52,76Z"/><path class="cls-2" d="M58,72.65a1.5,1.5,0,0,1,.71,2.82l-.46.24a1.5,1.5,0,1,1-1.38-2.66l.43-.23a1.5,1.5,0,0,1,.7-.18m0-.25a1.76,1.76,0,0,0-.82.2l-.43.23a1.75,1.75,0,1,0,1.62,3.11l.46-.24A1.75,1.75,0,0,0,58,72.4Z"/><path class="cls-1" d="M66.43,70.44a1.62,1.62,0,0,1-1-2.94l.39-.29a1.63,1.63,0,0,1,1.93,2.62l-.41.3A1.61,1.61,0,0,1,66.43,70.44Z"/><path class="cls-2" d="M66.83,67a1.5,1.5,0,0,1,.89,2.71l-.41.3a1.5,1.5,0,0,1-1.76-2.43l.4-.29a1.49,1.49,0,0,1,.89-.29m0-.25a1.74,1.74,0,0,0-1,.34l-.39.29A1.75,1.75,0,0,0,65,69.84a1.76,1.76,0,0,0,1.42.72,1.74,1.74,0,0,0,1-.33l.41-.3a1.75,1.75,0,0,0-1-3.16Z"/><path class="cls-1" d="M47.73,79.76a1.64,1.64,0,0,1-1.58-1.27,1.62,1.62,0,0,1,1.23-1.94l.46-.11a1.62,1.62,0,0,1,2,1.2,1.63,1.63,0,0,1-1.2,2l-.51.12A1.62,1.62,0,0,1,47.73,79.76Z"/><path class="cls-2" d="M48.22,76.52a1.5,1.5,0,0,1,.35,3l-.51.12a1.5,1.5,0,1,1-.65-2.93l.46-.11a1.5,1.5,0,0,1,.35,0m0-.25a1.75,1.75,0,0,0-.41,0l-.46.11A1.75,1.75,0,0,0,46,78.51a1.75,1.75,0,0,0,2.09,1.33l.52-.12a1.75,1.75,0,0,0-.41-3.45Z"/><path class="cls-1" d="M140.43,29.7a1.63,1.63,0,0,1-1.56-2.09l.12-.44a1.62,1.62,0,0,1,3.14.84q-.07.27-.15.53A1.64,1.64,0,0,1,140.43,29.7Z"/><path class="cls-2" d="M140.56,26.09A1.5,1.5,0,0,1,142,28q-.07.27-.15.52a1.5,1.5,0,1,1-2.87-.86l.12-.44a1.5,1.5,0,0,1,1.45-1.11m0-.25a1.75,1.75,0,0,0-1.69,1.3l-.12.43a1.75,1.75,0,1,0,3.35,1q.08-.26.15-.53a1.75,1.75,0,0,0-1.69-2.2Z"/><polygon class="cls-1" points="0.49 24.5 7.59 18.32 9.39 27.56 0.49 24.5"/><path class="cls-2" d="M7.5,18.56l1.72,8.81L.74,24.45,7.5,18.56m.16-.47-.33.28L.57,24.26l-.33.28.41.14L9.14,27.6l.41.14-.08-.43L7.75,18.51l-.08-.42Z"/><path class="cls-1" d="M138.8,11.78a5.77,5.77,0,1,1,2.83-.75,5.78,5.78,0,0,1-2.83.75Z"/><path class="cls-2" d="M138.79.38a5.64,5.64,0,1,1-2.77.73,5.64,5.64,0,0,1,2.77-.73m0-.25a5.89,5.89,0,1,0,5.13,3,5.89,5.89,0,0,0-5.13-3Z"/><text class="cls-3" transform="translate(137.14 8.79)">1</text></g></g></svg>