<svg xmlns="http://www.w3.org/2000/svg" viewBox="0 0 136.82 114.69"><defs><style>.cls-1{fill:#fff;stroke:#00c2ff;stroke-miterlimit:10;stroke-width:0.5px;}.cls-2,.cls-3{fill:#00c2ff;}.cls-3{font-size:6.75px;font-family:Linotte-SemiBold, Linotte-SemiBold;}</style></defs><title>13-syin-guide trace</title><g id="Layer_2" data-name="Layer 2"><g id="Guide_Trace" data-name="Guide Trace"><circle class="cls-1" cx="117.2" cy="19.54" r="1.96"/><path class="cls-2" d="M117.2,17.71a1.83,1.83,0,1,1-1.83,1.83,1.83,1.83,0,0,1,1.83-1.83m0-.25a2.08,2.08,0,1,0,2.08,2.08,2.09,2.09,0,0,0-2.08-2.08Z"/><circle class="cls-1" cx="82.53" cy="22.87" r="1.96"/><path class="cls-2" d="M82.53,21a1.83,1.83,0,1,1-1.83,1.83A1.83,1.83,0,0,1,82.53,21m0-.25a2.08,2.08,0,1,0,2.08,2.08,2.09,2.09,0,0,0-2.08-2.08Z"/><circle class="cls-1" cx="96.53" cy="2.21" r="1.96"/><path class="cls-2" d="M96.53.37A1.83,1.83,0,1,1,94.7,2.21,1.83,1.83,0,0,1,96.53.37m0-.25a2.08,2.08,0,1,0,2.08,2.08A2.09,2.09,0,0,0,96.53.12Z"/><path class="cls-1" d="M100.65,65.84A1.63,1.63,0,0,1,99.2,63.5l.19-.41a1.62,1.62,0,1,1,3,1.35l-.23.49A1.61,1.61,0,0,1,100.65,65.84Z"/><path class="cls-2" d="M100.87,62.26a1.5,1.5,0,0,1,1.36,2.12l-.23.49a1.5,1.5,0,0,1-2.69-1.32l.2-.41a1.5,1.5,0,0,1,1.36-.88m0-.25a1.75,1.75,0,0,0-1.59,1l-.19.41A1.75,1.75,0,1,0,102.23,65l.23-.5A1.75,1.75,0,0,0,100.87,62Z"/><path class="cls-1" d="M93.44,73.19A1.63,1.63,0,0,1,92,72.27a1.62,1.62,0,0,1,.76-2.17l.4-.2a1.62,1.62,0,1,1,1.51,2.88l-.5.25A1.6,1.6,0,0,1,93.44,73.19Z"/><path class="cls-2" d="M93.89,69.84a1.5,1.5,0,0,1,.7,2.83l-.49.25a1.5,1.5,0,1,1-1.3-2.71l.4-.2a1.49,1.49,0,0,1,.69-.17m0-.25a1.75,1.75,0,0,0-.81.2l-.39.2a1.75,1.75,0,0,0-.82,2.33,1.76,1.76,0,0,0,1.58,1,1.73,1.73,0,0,0,.76-.17l.5-.25a1.75,1.75,0,0,0-.81-3.3Z"/><path class="cls-1" d="M3.73,74.86A1.62,1.62,0,0,1,2.2,73.15l0-.51a1.61,1.61,0,0,1,1.59-1.52H4a1.62,1.62,0,0,1,1.51,1.73l0,.48a1.63,1.63,0,0,1-1.62,1.53Z"/><path class="cls-2" d="M3.82,71.24H4a1.5,1.5,0,0,1,1.4,1.6l0,.49a1.5,1.5,0,0,1-1.5,1.41H3.73a1.5,1.5,0,0,1-1.41-1.58l0-.51a1.5,1.5,0,0,1,1.47-1.4m0-.25a1.74,1.74,0,0,0-1.72,1.63l0,.51A1.75,1.75,0,0,0,3.72,75h.1a1.75,1.75,0,0,0,1.75-1.65l0-.48A1.75,1.75,0,0,0,4,71Z"/><path class="cls-1" d="M72.13,91.19a1.63,1.63,0,0,1-1.56-2.09l.13-.46a1.63,1.63,0,0,1,1.57-1.18,1.61,1.61,0,0,1,.44.06,1.63,1.63,0,0,1,1.12,2l-.14.5A1.63,1.63,0,0,1,72.13,91.19Z"/><path class="cls-2" d="M72.28,87.59a1.5,1.5,0,0,1,1.44,1.91l-.14.5a1.5,1.5,0,0,1-1.44,1.07,1.48,1.48,0,0,1-.43-.06,1.5,1.5,0,0,1-1-1.87l.13-.46a1.5,1.5,0,0,1,1.45-1.09m0-.25a1.76,1.76,0,0,0-1.69,1.27l-.13.46a1.75,1.75,0,0,0,1.68,2.25,1.76,1.76,0,0,0,1.68-1.25l.14-.5a1.75,1.75,0,0,0-1.68-2.23Z"/><path class="cls-1" d="M72.83,60a1.62,1.62,0,0,1-1.6-1.35l-.08-.49a1.63,1.63,0,0,1,.39-1.36,1.65,1.65,0,0,1-.1-.39l-.07-.5a1.63,1.63,0,0,1,1.39-1.83H73a1.63,1.63,0,0,1,1.62,1.41l.07.49a1.61,1.61,0,0,1-.4,1.31,1.61,1.61,0,0,1,.09.33l.08.49A1.62,1.62,0,0,1,73.11,60Z"/><path class="cls-2" d="M73,54.2a1.5,1.5,0,0,1,1.49,1.3l.07.49a1.5,1.5,0,0,1-.43,1.27,1.5,1.5,0,0,1,.12.38l.08.49a1.5,1.5,0,0,1-1.23,1.73l-.25,0a1.5,1.5,0,0,1-1.48-1.25l-.08-.49a1.5,1.5,0,0,1,.42-1.31,1.5,1.5,0,0,1-.13-.43l-.07-.5a1.5,1.5,0,0,1,1.29-1.69H73M73,54h-.23a1.75,1.75,0,0,0-1.5,2l.07.5a1.76,1.76,0,0,0,.08.35A1.75,1.75,0,0,0,71,58.19l.08.49a1.74,1.74,0,0,0,1.72,1.46l.3,0a1.75,1.75,0,0,0,1.43-2l-.08-.49a1.75,1.75,0,0,0-.07-.29A1.74,1.74,0,0,0,74.78,56l-.07-.49A1.76,1.76,0,0,0,73,54Z"/><path class="cls-1" d="M67.81,100.72a1.63,1.63,0,0,1-1.35-2.52l.26-.4a1.63,1.63,0,0,1,2.74,1.75l-.29.44A1.63,1.63,0,0,1,67.81,100.72Z"/><path class="cls-2" d="M68.08,97.17a1.5,1.5,0,0,1,1.26,2.31l-.29.44a1.5,1.5,0,1,1-2.5-1.66l.26-.4a1.5,1.5,0,0,1,1.27-.69m0-.25a1.74,1.74,0,0,0-1.48.81l-.26.4a1.75,1.75,0,0,0,2.92,1.93l.29-.44a1.75,1.75,0,0,0-1.47-2.69Z"/><path class="cls-1" d="M59.69,107.3a1.63,1.63,0,0,1-.89-3l.41-.27A1.62,1.62,0,0,1,61,106.76l-.43.28A1.62,1.62,0,0,1,59.69,107.3Z"/><path class="cls-2" d="M60.11,103.9a1.5,1.5,0,0,1,.83,2.75l-.43.28a1.5,1.5,0,0,1-1.64-2.52l.41-.27a1.49,1.49,0,0,1,.82-.25m0-.25a1.74,1.74,0,0,0-1,.29l-.41.27a1.75,1.75,0,0,0,1.91,2.93l.43-.28a1.75,1.75,0,0,0-1-3.21Z"/><path class="cls-1" d="M74,80.88h-.15a1.63,1.63,0,0,1-1.47-1.77l0-.49a1.61,1.61,0,0,1,1.61-1.49h.14a1.63,1.63,0,0,1,1.48,1.76l0,.51A1.62,1.62,0,0,1,74,80.88Z"/><path class="cls-2" d="M74.09,77.26h.13a1.5,1.5,0,0,1,1.37,1.62l0,.51A1.5,1.5,0,0,1,74,80.76h-.14a1.5,1.5,0,0,1-1.35-1.63l0-.49a1.5,1.5,0,0,1,1.49-1.37m0-.25a1.74,1.74,0,0,0-1.74,1.6l0,.49A1.75,1.75,0,0,0,73.88,81H74a1.74,1.74,0,0,0,1.74-1.59l0-.51A1.75,1.75,0,0,0,74.24,77Z"/><path class="cls-1" d="M71.08,49.66a1.63,1.63,0,0,1-1.61-1.42l-.06-.5a1.62,1.62,0,0,1,1.41-1.82H71a1.63,1.63,0,0,1,1.61,1.42l.06.5a1.62,1.62,0,0,1-1.41,1.82Z"/><path class="cls-2" d="M71,46a1.5,1.5,0,0,1,1.48,1.31l.06.5a1.5,1.5,0,0,1-1.3,1.68h-.19a1.5,1.5,0,0,1-1.49-1.31l-.06-.5A1.5,1.5,0,0,1,70.83,46H71m0-.25-.23,0a1.75,1.75,0,0,0-1.51,2l.06.5a1.75,1.75,0,0,0,1.73,1.53h.22a1.75,1.75,0,0,0,1.51-2l-.06-.5A1.75,1.75,0,0,0,71,45.79Z"/><path class="cls-1" d="M50.43,112.25a1.62,1.62,0,0,1-.61-3.13l.44-.18a1.61,1.61,0,0,1,.63-.13,1.63,1.63,0,0,1,.63,3.12l-.49.2A1.62,1.62,0,0,1,50.43,112.25Z"/><path class="cls-2" d="M50.89,108.93a1.5,1.5,0,0,1,.59,2.88L51,112a1.5,1.5,0,1,1-1.12-2.78l.44-.18a1.49,1.49,0,0,1,.59-.12m0-.25a1.74,1.74,0,0,0-.68.14l-.44.18a1.75,1.75,0,0,0,1.31,3.24l.49-.2a1.75,1.75,0,0,0-.68-3.36Z"/><path class="cls-1" d="M83.71,74.34a1.62,1.62,0,0,1-.4,0l-.56-.16A1.62,1.62,0,0,1,83.22,71a1.63,1.63,0,0,1,.48.07l.4.11a1.62,1.62,0,0,1-.4,3.2Z"/><path class="cls-2" d="M83.22,71.08a1.5,1.5,0,0,1,.44.07l.41.11a1.5,1.5,0,1,1-.74,2.91L82.78,74a1.5,1.5,0,0,1,.44-2.93m0-.25a1.75,1.75,0,0,0-.51,3.42l.57.16A1.75,1.75,0,0,0,84.14,71l-.4-.11a1.75,1.75,0,0,0-.51-.08Z"/><path class="cls-1" d="M11.9,104.46a1.63,1.63,0,0,1-1.2-.53l-.36-.4a1.63,1.63,0,1,1,2.45-2.13l.31.35a1.62,1.62,0,0,1-1.2,2.72Z"/><path class="cls-2" d="M11.57,101a1.5,1.5,0,0,1,1.13.52l.31.35a1.5,1.5,0,0,1-2.22,2l-.35-.4A1.5,1.5,0,0,1,11.57,101m0-.25a1.75,1.75,0,0,0-1.32,2.9l.36.4a1.75,1.75,0,1,0,2.59-2.35l-.31-.34a1.75,1.75,0,0,0-1.32-.6Z"/><path class="cls-1" d="M20.27,110.68a1.61,1.61,0,0,1-.71-.17l-.47-.23a1.62,1.62,0,1,1,1.47-2.9l.43.21a1.63,1.63,0,0,1-.72,3.08Z"/><path class="cls-2" d="M19.82,107.33a1.49,1.49,0,0,1,.68.16l.43.21a1.5,1.5,0,0,1-1.32,2.7l-.47-.23a1.5,1.5,0,0,1,.68-2.84m0-.25A1.75,1.75,0,0,0,19,110.4l.47.23A1.75,1.75,0,1,0,21,107.48l-.43-.21a1.72,1.72,0,0,0-.79-.19Z"/><path class="cls-1" d="M40.23,114.44a1.63,1.63,0,0,1,0-3.25h.5a1.63,1.63,0,0,1,0,3.25h-.51Z"/><path class="cls-2" d="M40.73,111.31a1.5,1.5,0,0,1,0,3h-.51a1.5,1.5,0,0,1,0-3h.51m0-.25h-.51a1.75,1.75,0,0,0,0,3.5h.51a1.75,1.75,0,0,0,0-3.5Z"/><path class="cls-1" d="M30.27,113.76l-.27,0-.51-.09a1.62,1.62,0,0,1,.29-3.22l.29,0,.47.08a1.62,1.62,0,0,1-.26,3.23Z"/><path class="cls-2" d="M29.77,110.55l.26,0,.47.08a1.5,1.5,0,0,1-.24,3l-.25,0-.51-.09a1.5,1.5,0,0,1,.27-3m0-.25a1.75,1.75,0,0,0-.31,3.47l.52.09.29,0a1.75,1.75,0,0,0,.28-3.48l-.47-.08-.31,0Z"/><path class="cls-1" d="M6.47,95.53A1.62,1.62,0,0,1,5,94.5L4.77,94a1.62,1.62,0,1,1,3-1.14l.17.45a1.62,1.62,0,0,1-.92,2.1A1.6,1.6,0,0,1,6.47,95.53Z"/><path class="cls-2" d="M6.29,91.94a1.5,1.5,0,0,1,1.4,1l.17.45a1.5,1.5,0,1,1-2.79,1.09L4.89,94a1.5,1.5,0,0,1,1.41-2m0-.25a1.75,1.75,0,0,0-1.64,2.36l.19.49A1.75,1.75,0,1,0,8.1,93.27l-.17-.45a1.76,1.76,0,0,0-1.64-1.13Z"/><path class="cls-1" d="M4,85.35a1.62,1.62,0,0,1-1.61-1.44l-.06-.52a1.63,1.63,0,0,1,1.45-1.78H4a1.63,1.63,0,0,1,1.62,1.46l.05.48a1.62,1.62,0,0,1-1.43,1.8Z"/><path class="cls-2" d="M4,81.73a1.5,1.5,0,0,1,1.5,1.35l.05.48a1.5,1.5,0,0,1-1.32,1.66H4A1.5,1.5,0,0,1,2.55,83.9l-.06-.52a1.5,1.5,0,0,1,1.34-1.65H4m0-.25H3.81a1.75,1.75,0,0,0-1.56,1.92l.06.52A1.75,1.75,0,0,0,4,85.48h.2a1.75,1.75,0,0,0,1.54-1.94L5.73,83A1.75,1.75,0,0,0,4,81.48Z"/><path class="cls-1" d="M121.69,74.56a1.62,1.62,0,0,1-.16-3.24l.45-.05h.21a1.62,1.62,0,0,1,.21,3.24l-.54.06Z"/><path class="cls-2" d="M122.19,71.37a1.5,1.5,0,0,1,.19,3l-.54.06h-.15a1.5,1.5,0,0,1-.15-3l.46-.05h.19m0-.25H122l-.45.05a1.75,1.75,0,0,0,.17,3.49h.18l.54-.06a1.75,1.75,0,0,0-.22-3.49Z"/><path class="cls-1" d="M130.83,70.07a1.62,1.62,0,0,1-1.31-2.58l.23-.34a1.62,1.62,0,0,1,2.72,1.77l-.33.48A1.63,1.63,0,0,1,130.83,70.07Z"/><path class="cls-2" d="M131.12,66.53a1.5,1.5,0,0,1,1.26,2.32l-.33.48a1.5,1.5,0,1,1-2.42-1.77l.24-.34a1.5,1.5,0,0,1,1.26-.68m0-.25a1.75,1.75,0,0,0-1.47.79l-.23.33a1.75,1.75,0,1,0,2.83,2.07l.34-.49a1.75,1.75,0,0,0-1.46-2.71Z"/><path class="cls-1" d="M112.06,72.64a1.62,1.62,0,0,1-.85-.24l-.48-.31a1.63,1.63,0,1,1,1.83-2.69l.36.23a1.62,1.62,0,0,1-.85,3Z"/><path class="cls-2" d="M111.65,69.24a1.49,1.49,0,0,1,.84.26l.36.23a1.5,1.5,0,1,1-1.57,2.56L110.8,72a1.5,1.5,0,0,1,.84-2.74m0-.25a1.75,1.75,0,0,0-1,3.2l.49.31a1.75,1.75,0,1,0,1.83-3l-.35-.23a1.74,1.74,0,0,0-1-.3Z"/><path class="cls-1" d="M74.27,70.39a1.62,1.62,0,0,1-1.62-1.56l0-.49a1.62,1.62,0,0,1,1.54-1.7h.1l-.08-.14A1.62,1.62,0,1,1,77.06,65l.22.4a1.63,1.63,0,0,1-1.41,2.43h-.07a1.63,1.63,0,0,1,.07.39l0,.51a1.62,1.62,0,0,1-1.56,1.69Z"/><path class="cls-2" d="M75.63,64.23A1.5,1.5,0,0,1,77,65l.23.41a1.5,1.5,0,0,1-1.3,2.24l-.25,0a1.5,1.5,0,0,1,.13.54l0,.51a1.5,1.5,0,0,1-1.44,1.56h-.06a1.5,1.5,0,0,1-1.5-1.44l0-.49a1.5,1.5,0,0,1,1.42-1.57h.08l.24,0-.19-.34a1.5,1.5,0,0,1,1.32-2.21m0-.25a1.75,1.75,0,0,0-1.56,2.54,1.75,1.75,0,0,0-1.57,1.83l0,.49a1.74,1.74,0,0,0,1.75,1.68h.07A1.75,1.75,0,0,0,76,68.69l0-.51a1.79,1.79,0,0,0,0-.26,1.75,1.75,0,0,0,1.43-2.61l-.22-.4A1.75,1.75,0,0,0,75.63,64Z"/><path class="cls-1" d="M102.77,55.66a1.62,1.62,0,0,1-1.62-1.58v-.43a2,2,0,0,1,.08-.57,1.63,1.63,0,0,1,2-1.1,1.62,1.62,0,0,1,1.15,1.76V54a1.63,1.63,0,0,1-1.58,1.67Z"/><path class="cls-2" d="M102.78,52a1.5,1.5,0,0,1,1.49,1.68V54a1.5,1.5,0,0,1-1.46,1.54h0a1.5,1.5,0,0,1-1.5-1.46v-.43a1.85,1.85,0,0,1,.08-.53A1.5,1.5,0,0,1,102.78,52m0-.25A1.76,1.76,0,0,0,101.1,53a2.1,2.1,0,0,0-.09.61v.44a1.74,1.74,0,0,0,1.75,1.7,1.76,1.76,0,0,0,1.27-.55,1.74,1.74,0,0,0,.48-1.25v-.28a1.73,1.73,0,0,0-1.24-1.85,1.76,1.76,0,0,0-.5-.07Z"/><path class="cls-1" d="M132.85,60a1.62,1.62,0,0,1-1.62-1.46l-.05-.47a1.63,1.63,0,0,1,1.42-1.81h.2a1.63,1.63,0,0,1,1.61,1.43c0,.18,0,.35.06.53A1.63,1.63,0,0,1,133,60Z"/><path class="cls-2" d="M132.8,56.38a1.5,1.5,0,0,1,1.49,1.32c0,.18,0,.35.06.53A1.5,1.5,0,0,1,133,59.87h-.15a1.5,1.5,0,0,1-1.49-1.35l-.05-.47a1.5,1.5,0,0,1,1.31-1.67h.18m0-.25h-.21a1.75,1.75,0,0,0-1.53,1.95l.05.46a1.74,1.74,0,0,0,1.74,1.57H133a1.75,1.75,0,0,0,1.57-1.92c0-.18,0-.35-.06-.53a1.75,1.75,0,0,0-1.74-1.54Z"/><path class="cls-1" d="M105.64,64.54a1.62,1.62,0,0,1-1.5-1l-.2-.49a1.63,1.63,0,1,1,3-1.21l.18.44a1.63,1.63,0,0,1-1.5,2.25Z"/><path class="cls-2" d="M105.45,61a1.5,1.5,0,0,1,1.39.94l.18.44a1.5,1.5,0,1,1-2.77,1.16l-.2-.49A1.5,1.5,0,0,1,105.45,61m0-.25a1.75,1.75,0,0,0-1.63,2.4l.2.49a1.75,1.75,0,1,0,3.23-1.35l-.18-.44a1.74,1.74,0,0,0-1.63-1.1Z"/><path class="cls-1" d="M6.11,64.15a1.61,1.61,0,0,1-2.5-.83l-3.13-1,7-6.25,1.9,9.21Z"/><path class="cls-2" d="M7.44,56.27l1.81,8.79L6.09,64a1.5,1.5,0,0,1-.93.33l-.29,0a1.5,1.5,0,0,1-1.16-1.09l-3-1,6.71-6m.16-.47-.32.29L.57,62l-.32.29.41.14,2.86,1a1.73,1.73,0,0,0,1.31,1.14,1.77,1.77,0,0,0,.33,0,1.75,1.75,0,0,0,1-.3l3,1,.41.14L9.5,65,7.69,56.22,7.6,55.8Z"/><path class="cls-1" d="M130.8,55.45a5.77,5.77,0,1,1,5-2.94,5.77,5.77,0,0,1-5,2.94Z"/><path class="cls-2" d="M130.8,44a5.64,5.64,0,1,1-1.52.21A5.64,5.64,0,0,1,130.8,44m0-.25a5.89,5.89,0,1,0,5.67,4.3,5.9,5.9,0,0,0-5.67-4.3Z"/><text class="cls-3" transform="translate(128.9 51.39)">1</text></g></g></svg>