<svg xmlns="http://www.w3.org/2000/svg" viewBox="0 0 154.62 81.34"><defs><style>.cls-1{fill:#fff;stroke:#00c2ff;stroke-miterlimit:10;stroke-width:0.5px;}.cls-2,.cls-3{fill:#00c2ff;}.cls-3{font-size:6.75px;font-family:Linotte-SemiBold, Linotte-SemiBold;}</style></defs><title>14-shad-guide trace</title><g id="Layer_2" data-name="Layer 2"><g id="Guide_Trace" data-name="Guide Trace"><path class="cls-1" d="M148.71,8.55a1.63,1.63,0,0,1-1.2-.53l-.31-.33a1.62,1.62,0,1,1,2.33-2.27l.38.4a1.62,1.62,0,0,1-1.2,2.72Z"/><path class="cls-2" d="M148.37,5.06a1.49,1.49,0,0,1,1.08.45l.37.4a1.5,1.5,0,0,1-2.21,2l-.31-.33a1.5,1.5,0,0,1,1.08-2.55m0-.25a1.75,1.75,0,0,0-1.26,3l.31.33A1.75,1.75,0,0,0,150,5.75l-.38-.4a1.73,1.73,0,0,0-1.25-.53Z"/><path class="cls-1" d="M40.19,81.09a1.63,1.63,0,0,1,0-3.25h.51a1.64,1.64,0,0,1,1.63,1.62,1.62,1.62,0,0,1-1.61,1.63h-.51Z"/><path class="cls-2" d="M40.73,78a1.5,1.5,0,0,1,0,3h-.51a1.5,1.5,0,0,1,0-3h.56m0-.25h-.56a1.75,1.75,0,0,0,0,3.5h.51a1.75,1.75,0,0,0,1.74-1.76,1.76,1.76,0,0,0-1.71-1.74Z"/><path class="cls-1" d="M150.18,28a1.63,1.63,0,0,1-1.37-2.49l.23-.38a1.63,1.63,0,0,1,2.8,1.65l-.29.47A1.62,1.62,0,0,1,150.18,28Z"/><path class="cls-2" d="M150.45,24.49a1.5,1.5,0,0,1,1.29,2.26l-.29.47a1.5,1.5,0,1,1-2.54-1.6l.24-.39a1.5,1.5,0,0,1,1.29-.74m0-.25a1.76,1.76,0,0,0-1.51.86l-.23.38a1.75,1.75,0,0,0,3,1.87l.29-.47a1.75,1.75,0,0,0-1.51-2.64Z"/><path class="cls-1" d="M152.74,18a1.63,1.63,0,0,1-1.62-1.52q0-.22,0-.45a1.63,1.63,0,0,1,1.46-1.78h.16a1.64,1.64,0,0,1,1.62,1.46q0,.28,0,.55A1.63,1.63,0,0,1,152.85,18Z"/><path class="cls-2" d="M152.7,14.41a1.51,1.51,0,0,1,1.49,1.35q0,.27,0,.55a1.5,1.5,0,0,1-1.4,1.6h-.1a1.5,1.5,0,0,1-1.5-1.4q0-.23,0-.45a1.5,1.5,0,0,1,1.34-1.64h.15m0-.25h-.18A1.75,1.75,0,0,0,151,16.09q0,.22,0,.44a1.75,1.75,0,0,0,1.74,1.63h.12a1.75,1.75,0,0,0,1.63-1.86c0-.19,0-.37,0-.55a1.77,1.77,0,0,0-1.74-1.58Z"/><path class="cls-1" d="M73.7,48.84a1.63,1.63,0,0,1-1.49-1.75l0-.49a1.61,1.61,0,0,1,1.58-1.5H74a1.62,1.62,0,0,1,1.49,1.75l0,.51a1.63,1.63,0,0,1-1.62,1.49Z"/><path class="cls-2" d="M73.83,45.22H74a1.5,1.5,0,0,1,1.38,1.61l0,.51a1.5,1.5,0,0,1-1.49,1.38h-.13a1.5,1.5,0,0,1-1.37-1.62l0-.49a1.48,1.48,0,0,1,1.45-1.39m0-.25a1.74,1.74,0,0,0-1.7,1.62l0,.49A1.75,1.75,0,0,0,73.69,49h.15a1.76,1.76,0,0,0,1.74-1.61l0-.51A1.75,1.75,0,0,0,74,45Z"/><path class="cls-1" d="M60.24,75.84a1.62,1.62,0,0,1-.89-3l.39-.26a1.63,1.63,0,0,1,1.82,2.69l-.45.29A1.62,1.62,0,0,1,60.24,75.84Z"/><path class="cls-2" d="M60.65,72.44a1.5,1.5,0,0,1,.84,2.74l-.44.29A1.5,1.5,0,0,1,59.42,73l.39-.26a1.5,1.5,0,0,1,.84-.26m0-.25a1.75,1.75,0,0,0-1,.3l-.39.26a1.75,1.75,0,0,0,1.91,2.94l.45-.3a1.75,1.75,0,0,0-1-3.2Z"/><path class="cls-1" d="M67.75,68.61A1.62,1.62,0,0,1,66.43,66l.27-.38a1.63,1.63,0,0,1,2.68,1.85l-.3.43A1.63,1.63,0,0,1,67.75,68.61Z"/><path class="cls-2" d="M68,65.07a1.5,1.5,0,0,1,1.23,2.35l-.3.43a1.5,1.5,0,1,1-2.44-1.75l.27-.39A1.5,1.5,0,0,1,68,65.07m0-.25a1.75,1.75,0,0,0-1.44.76l-.27.38a1.75,1.75,0,0,0,1.42,2.77A1.76,1.76,0,0,0,69.17,68l.3-.43A1.75,1.75,0,0,0,68,64.82Z"/><path class="cls-1" d="M139.67,3.59a1.62,1.62,0,0,1-.31,0l-.45-.08a1.63,1.63,0,0,1,.26-3.23l.27,0,.54.1a1.63,1.63,0,0,1-.31,3.22Z"/><path class="cls-2" d="M139.17.38l.25,0,.53.1a1.5,1.5,0,0,1-.29,3l-.29,0-.45-.08a1.5,1.5,0,0,1,.24-3m0-.25a1.75,1.75,0,0,0-.29,3.48l.44.08A1.75,1.75,0,0,0,141.12,1,1.74,1.74,0,0,0,140,.25l-.54-.1-.29,0Z"/><path class="cls-1" d="M142.46,35a1.63,1.63,0,0,1-.75-3.06l.41-.22a1.62,1.62,0,0,1,1.56,2.85l-.47.25A1.63,1.63,0,0,1,142.46,35Z"/><path class="cls-2" d="M142.9,31.6a1.5,1.5,0,0,1,.72,2.81l-.47.25A1.5,1.5,0,1,1,141.76,32l.41-.22a1.5,1.5,0,0,1,.72-.18m0-.25a1.75,1.75,0,0,0-.84.22l-.41.22a1.75,1.75,0,0,0,1.62,3.1l.47-.25a1.75,1.75,0,0,0-.84-3.28Z"/><path class="cls-1" d="M111.92,38.15l-.52,0a1.62,1.62,0,0,1,.15-3.24h.12l.48,0a1.63,1.63,0,0,1,1.51,1.74A1.63,1.63,0,0,1,112,38.16Z"/><path class="cls-2" d="M111.55,35h.11l.48,0a1.5,1.5,0,0,1-.1,3h-.11l-.52,0a1.5,1.5,0,0,1,.14-3m0-.25a1.75,1.75,0,0,0-.16,3.49l.52,0H112a1.75,1.75,0,0,0,.12-3.5l-.48,0Z"/><path class="cls-1" d="M110.62,14.48a1.62,1.62,0,0,1-1-2.88l.4-.32a1.62,1.62,0,0,1,2.29.25A1.63,1.63,0,0,1,112,13.8l-.38.31A1.62,1.62,0,0,1,110.62,14.48Z"/><path class="cls-2" d="M111,11a1.5,1.5,0,0,1,.94,2.67l-.38.31a1.5,1.5,0,0,1-1.9-2.32l.4-.32A1.5,1.5,0,0,1,111,11m0-.25a1.76,1.76,0,0,0-1.1.39l-.4.32a1.75,1.75,0,1,0,2.21,2.71l.38-.31a1.75,1.75,0,0,0-1.1-3.11Z"/><path class="cls-1" d="M72.38,59.22a1.63,1.63,0,0,1-1.55-2.13l.15-.46a1.63,1.63,0,1,1,3.1,1l-.16.49A1.62,1.62,0,0,1,72.38,59.22Z"/><path class="cls-2" d="M72.53,55.62A1.5,1.5,0,0,1,74,57.57l-.16.49a1.5,1.5,0,0,1-2.85-.93l.15-.46a1.5,1.5,0,0,1,1.43-1.05m0-.25a1.74,1.74,0,0,0-1.67,1.23l-.15.46A1.75,1.75,0,0,0,74,58.14l.16-.49a1.75,1.75,0,0,0-1.67-2.28Z"/><path class="cls-1" d="M122,38.63A1.63,1.63,0,0,1,120.39,37,1.65,1.65,0,0,1,122,35.38h.51a1.63,1.63,0,0,1,0,3.25Z"/><path class="cls-2" d="M122,35.5h.51a1.5,1.5,0,0,1,0,3H122a1.5,1.5,0,0,1,.06-3m0-.25A1.77,1.77,0,0,0,120.27,37,1.75,1.75,0,0,0,122,38.75h.51a1.75,1.75,0,1,0,.06-3.5H122Z"/><path class="cls-1" d="M119.2,8.44a1.63,1.63,0,0,1-1.4-.8,1.63,1.63,0,0,1,.58-2.22l.45-.26A1.63,1.63,0,1,1,120.44,8l-.42.24A1.62,1.62,0,0,1,119.2,8.44Z"/><path class="cls-2" d="M119.63,5.06a1.5,1.5,0,0,1,.75,2.8l-.42.24a1.5,1.5,0,0,1-1.52-2.59l.45-.26a1.49,1.49,0,0,1,.74-.2m0-.25a1.75,1.75,0,0,0-.87.23l-.45.26a1.75,1.75,0,0,0-.63,2.4,1.75,1.75,0,0,0,2.39.62l.42-.24a1.75,1.75,0,0,0-.87-3.27Z"/><path class="cls-1" d="M128.78,4.23A1.63,1.63,0,0,1,127.22,3a1.63,1.63,0,0,1,1.13-2l.51-.14a1.6,1.6,0,0,1,.41-.05,1.63,1.63,0,0,1,.4,3.2l-.46.12A1.62,1.62,0,0,1,128.78,4.23Z"/><path class="cls-2" d="M129.27,1a1.5,1.5,0,0,1,.37,3l-.46.12a1.5,1.5,0,0,1-.8-2.89l.51-.14a1.49,1.49,0,0,1,.38,0m0-.25a1.75,1.75,0,0,0-.44.06l-.51.14a1.75,1.75,0,1,0,.93,3.37l.46-.12a1.75,1.75,0,0,0-.44-3.44Z"/><path class="cls-1" d="M132.49,38.1a1.62,1.62,0,0,1-.25-3.23l.48-.08.26,0a1.62,1.62,0,0,1,.27,3.23l-.51.08Z"/><path class="cls-2" d="M133,34.89a1.5,1.5,0,0,1,.25,3l-.51.08-.24,0a1.5,1.5,0,0,1-.23-3l.48-.08.24,0m0-.25-.28,0-.48.08a1.75,1.75,0,0,0,.27,3.48l.28,0,.51-.08a1.75,1.75,0,0,0-.29-3.48Z"/><path class="cls-1" d="M50.6,79.89a1.63,1.63,0,0,1-.38-3.21l.46-.11a1.62,1.62,0,0,1,.82,3.14l-.52.13A1.66,1.66,0,0,1,50.6,79.89Z"/><path class="cls-2" d="M51.09,76.64a1.5,1.5,0,0,1,.38,3l-.51.13a1.56,1.56,0,0,1-.35,0,1.5,1.5,0,0,1-.35-3l.46-.11a1.5,1.5,0,0,1,.38,0m0-.25a1.76,1.76,0,0,0-.45.06l-.45.11A1.75,1.75,0,0,0,50.6,80,1.82,1.82,0,0,0,51,80l.52-.13a1.75,1.75,0,0,0-.44-3.44Z"/><path class="cls-1" d="M95.82,29.31a1.62,1.62,0,0,1-1.24-2.67l.32-.38a1.62,1.62,0,1,1,2.49,2.09l-.32.38A1.62,1.62,0,0,1,95.82,29.31Z"/><path class="cls-2" d="M96.14,25.81a1.5,1.5,0,0,1,1.15,2.47l-.32.38a1.5,1.5,0,0,1-2.29-1.93l.32-.38a1.5,1.5,0,0,1,1.15-.53m0-.25a1.75,1.75,0,0,0-1.34.62l-.32.38a1.75,1.75,0,1,0,2.68,2.25l.32-.38a1.75,1.75,0,0,0-1.34-2.88Z"/><path class="cls-1" d="M74.48,22.28a1.62,1.62,0,0,1-1.26-.6l-.35-.44a1.62,1.62,0,1,1,2.59-2l.27.34a1.63,1.63,0,0,1-1.26,2.65Z"/><path class="cls-2" d="M74.17,18.76a1.5,1.5,0,0,1,1.2.59l.27.35a1.5,1.5,0,1,1-2.32,1.9L73,21.16a1.5,1.5,0,0,1,1.2-2.4m0-.25a1.75,1.75,0,0,0-1.39,2.81l.35.45a1.75,1.75,0,1,0,2.71-2.22l-.27-.34a1.74,1.74,0,0,0-1.4-.69Z"/><path class="cls-1" d="M74.43,38.36a1.63,1.63,0,0,1-1.56-1.69l0-.5A1.61,1.61,0,0,1,74.5,34.6a1.64,1.64,0,0,1,1.64,1.69l0,.51a1.62,1.62,0,0,1-1.62,1.56Z"/><path class="cls-2" d="M74.5,34.73h.07A1.5,1.5,0,0,1,76,36.29l0,.51a1.5,1.5,0,0,1-1.5,1.44h-.06A1.5,1.5,0,0,1,73,36.67l0-.5a1.49,1.49,0,0,1,1.48-1.44m0-.25a1.74,1.74,0,0,0-1.73,1.68l0,.5a1.75,1.75,0,0,0,1.68,1.82h.07a1.74,1.74,0,0,0,1.75-1.68l0-.51a1.75,1.75,0,0,0-1.68-1.82Z"/><path class="cls-1" d="M82.54,29a1.62,1.62,0,0,1-.91-.28l-.42-.28A1.62,1.62,0,1,1,83,25.73l.42.28a1.63,1.63,0,0,1-.91,3Z"/><path class="cls-2" d="M82.12,25.58a1.49,1.49,0,0,1,.84.26l.42.28A1.5,1.5,0,1,1,81.7,28.6l-.42-.28a1.5,1.5,0,0,1,.84-2.74m0-.25a1.75,1.75,0,0,0-1,3.2l.42.28a1.75,1.75,0,0,0,2-2.9l-.42-.28a1.74,1.74,0,0,0-1-.3Z"/><path class="cls-1" d="M91.59,34.34a1.63,1.63,0,0,1-.76-.19l-.45-.24a1.62,1.62,0,1,1,1.55-2.86l.43.23a1.63,1.63,0,0,1-.77,3.06Z"/><path class="cls-2" d="M91.15,31a1.49,1.49,0,0,1,.71.18l.43.23A1.5,1.5,0,1,1,90.88,34l-.45-.24A1.5,1.5,0,0,1,91.15,31m0-.25A1.75,1.75,0,0,0,90.32,34l.45.24a1.75,1.75,0,1,0,1.65-3.09L92,30.94a1.75,1.75,0,0,0-.83-.21Z"/><path class="cls-1" d="M86.12,45.3a5.76,5.76,0,1,1,0-11.51,5.79,5.79,0,0,1,2.12.4,1.62,1.62,0,0,1,2.54,2,5.75,5.75,0,0,1-4.65,9.14Z"/><path class="cls-2" d="M89.38,33.84a1.49,1.49,0,0,1,1.24,2.33,5.64,5.64,0,1,1-2.36-1.82,1.5,1.5,0,0,1,1.12-.5m0-.25A1.76,1.76,0,0,0,88.2,34a5.9,5.9,0,0,0-2.1-.38,5.88,5.88,0,1,0,4.69,9.46,5.89,5.89,0,0,0,.12-7,1.74,1.74,0,0,0-1.54-2.56Z"/><path class="cls-1" d="M74.47,27.85a1.63,1.63,0,0,1-1.62-1.52l0-.49a1.62,1.62,0,0,1,1.5-1.74h.13a1.62,1.62,0,0,1,1.61,1.5l0,.51a1.62,1.62,0,0,1-1.51,1.73Z"/><path class="cls-2" d="M74.45,24.23a1.49,1.49,0,0,1,1.48,1.39l0,.51a1.5,1.5,0,0,1-1.4,1.6h-.1a1.5,1.5,0,0,1-1.5-1.4l0-.49a1.5,1.5,0,0,1,1.38-1.61h.12m0-.25h-.14a1.75,1.75,0,0,0-1.61,1.88l0,.49A1.75,1.75,0,0,0,74.47,28h.12a1.75,1.75,0,0,0,1.63-1.86l0-.51A1.75,1.75,0,0,0,74.45,24Z"/><path class="cls-1" d="M101.6,37h-.19l-.5-.06a1.63,1.63,0,0,1,.18-3.24h.19l.5.06A1.62,1.62,0,0,1,101.6,37Z"/><path class="cls-2" d="M101.09,33.81h.18l.5.06a1.5,1.5,0,0,1-.17,3h-.17l-.5-.06a1.5,1.5,0,0,1,.16-3m0-.25a1.75,1.75,0,0,0-.19,3.49l.5.06h.2a1.75,1.75,0,0,0,.2-3.49l-.5-.06Z"/><path class="cls-1" d="M3.72,41.51a1.62,1.62,0,0,1-1.53-1.72l0-.51a1.62,1.62,0,0,1,1.6-1.52H4A1.63,1.63,0,0,1,5.47,39.5l0,.48a1.63,1.63,0,0,1-1.62,1.53Z"/><path class="cls-2" d="M3.83,37.89h.12a1.5,1.5,0,0,1,1.4,1.6l0,.49a1.5,1.5,0,0,1-1.5,1.41H3.73A1.5,1.5,0,0,1,2.32,39.8l0-.51a1.5,1.5,0,0,1,1.48-1.4m0-.25A1.74,1.74,0,0,0,2.1,39.27l0,.51a1.75,1.75,0,0,0,1.65,1.85h.1A1.75,1.75,0,0,0,5.56,40l0-.48A1.75,1.75,0,0,0,4,37.65Z"/><path class="cls-1" d="M11.89,71.11a1.63,1.63,0,0,1-1.21-.54l-.35-.4A1.62,1.62,0,1,1,12.79,68l.31.35a1.63,1.63,0,0,1-1.21,2.71Z"/><path class="cls-2" d="M11.56,67.61a1.5,1.5,0,0,1,1.14.52l.31.35a1.5,1.5,0,0,1-2.24,2l-.35-.4a1.5,1.5,0,0,1,1.14-2.48m0-.25a1.75,1.75,0,0,0-1.33,2.89l.35.4a1.75,1.75,0,0,0,2.61-2.33L12.88,68a1.75,1.75,0,0,0-1.33-.61Z"/><path class="cls-1" d="M102.84,21.52a1.63,1.63,0,0,1-1.14-2.78l.36-.35a1.62,1.62,0,1,1,2.28,2.32L104,21A1.62,1.62,0,0,1,102.84,21.52Z"/><path class="cls-2" d="M103.19,18a1.5,1.5,0,0,1,1.05,2.57l-.35.35a1.5,1.5,0,1,1-2.11-2.13l.36-.35a1.5,1.5,0,0,1,1.05-.43m0-.25a1.74,1.74,0,0,0-1.23.5l-.36.35a1.75,1.75,0,0,0,2.46,2.49l.35-.35a1.75,1.75,0,0,0-1.23-3Z"/><path class="cls-1" d="M6.47,62.18a1.62,1.62,0,0,1-1.51-1l-.19-.49a1.62,1.62,0,1,1,3-1.14L8,60a1.62,1.62,0,0,1-.92,2.1A1.6,1.6,0,0,1,6.47,62.18Z"/><path class="cls-2" d="M6.29,58.59a1.5,1.5,0,0,1,1.4,1l.17.45A1.5,1.5,0,1,1,5.07,61.1l-.19-.49a1.5,1.5,0,0,1,1.4-2m0-.25A1.75,1.75,0,0,0,4.65,60.7l.19.49A1.75,1.75,0,1,0,8.1,59.92l-.17-.45a1.76,1.76,0,0,0-1.64-1.13Z"/><path class="cls-1" d="M20.22,77.38a1.61,1.61,0,0,1-.71-.17L19,77a1.63,1.63,0,1,1,1.47-2.9l.42.21a1.63,1.63,0,0,1-.72,3.08Z"/><path class="cls-2" d="M19.78,74a1.49,1.49,0,0,1,.68.16l.43.21a1.5,1.5,0,0,1-1.32,2.7l-.47-.23A1.5,1.5,0,0,1,19.78,74m0-.25A1.75,1.75,0,0,0,19,77.09l.47.23A1.75,1.75,0,1,0,21,74.18L20.57,74a1.74,1.74,0,0,0-.79-.19Z"/><path class="cls-1" d="M30.23,80.43l-.27,0-.5-.08a1.63,1.63,0,0,1,.26-3.23l.29,0,.48.08a1.62,1.62,0,0,1-.26,3.23Z"/><path class="cls-2" d="M29.72,77.22l.27,0,.48.08a1.5,1.5,0,0,1-.24,3l-.25,0-.5-.08a1.5,1.5,0,0,1,.24-3m0-.25a1.75,1.75,0,0,0-.29,3.48l.5.09.29,0a1.75,1.75,0,0,0,.28-3.48L30,77l-.31,0Z"/><path class="cls-1" d="M4,52a1.62,1.62,0,0,1-1.61-1.44L2.37,50a1.63,1.63,0,0,1,1.45-1.78H4A1.63,1.63,0,0,1,5.6,49.71l.05.48A1.62,1.62,0,0,1,4.22,52Z"/><path class="cls-2" d="M4,48.38a1.51,1.51,0,0,1,1.5,1.35l.05.48a1.5,1.5,0,0,1-1.32,1.66H4a1.5,1.5,0,0,1-1.49-1.33L2.49,50a1.5,1.5,0,0,1,1.34-1.65H4m0-.25H3.8a1.75,1.75,0,0,0-1.56,1.92l.06.52A1.75,1.75,0,0,0,4,52.12h.2a1.75,1.75,0,0,0,1.54-1.94l-.05-.48A1.75,1.75,0,0,0,4,48.13Z"/><path class="cls-1" d="M6.12,30.8a1.6,1.6,0,0,1-1.27.28A1.61,1.61,0,0,1,3.62,30l-3.13-1,7-6.25,1.9,9.21Z"/><path class="cls-2" d="M7.44,22.92l1.81,8.79L6.09,30.66a1.5,1.5,0,0,1-.93.33l-.29,0a1.49,1.49,0,0,1-1.15-1.09l-3-1,6.71-6m.16-.47-.32.29-6.71,6L.25,29l.41.14,2.86,1a1.74,1.74,0,0,0,2.62.87l3,1,.41.14-.09-.42L7.69,22.87l-.09-.42Z"/><text class="cls-3" transform="translate(84.22 42.18)">1</text></g></g></svg>