<svg xmlns="http://www.w3.org/2000/svg" viewBox="0 0 154.62 101.65"><defs><style>.cls-1{fill:#fff;stroke:#00c2ff;stroke-miterlimit:10;stroke-width:0.5px;}.cls-2,.cls-3{fill:#00c2ff;}.cls-3{font-size:6.75px;font-family:Linotte-SemiBold, Linotte-SemiBold;}</style></defs><title>15-dhad-guide trace</title><g id="Layer_2" data-name="Layer 2"><g id="Guide_Trace" data-name="Guide Trace"><circle class="cls-1" cx="111.67" cy="2.21" r="1.96"/><path class="cls-2" d="M111.67.37a1.83,1.83,0,1,1-1.83,1.83A1.83,1.83,0,0,1,111.67.37m0-.25a2.08,2.08,0,1,0,2.08,2.08A2.09,2.09,0,0,0,111.67.12Z"/><path class="cls-1" d="M86.12,65.61a5.71,5.71,0,0,1-3.51-1.2,5.77,5.77,0,0,1-1-8.08A5.69,5.69,0,0,1,86.1,54.1a5.77,5.77,0,0,1,2.12.4,1.62,1.62,0,0,1,2.54,2,5.75,5.75,0,0,1-4.65,9.14Z"/><path class="cls-2" d="M89.38,54.15a1.49,1.49,0,0,1,1.24,2.32,5.64,5.64,0,1,1-4.51-2.25,5.68,5.68,0,0,1,2.16.42,1.5,1.5,0,0,1,1.12-.5m0-.25a1.75,1.75,0,0,0-1.18.46A5.9,5.9,0,0,0,86.1,54a5.82,5.82,0,0,0-4.64,2.28,5.9,5.9,0,0,0,1.07,8.26,5.89,5.89,0,0,0,8.26-1.07,5.89,5.89,0,0,0,.12-7,1.74,1.74,0,0,0-1.54-2.56Z"/><path class="cls-1" d="M74.42,58.67A1.63,1.63,0,0,1,72.87,57l0-.5a1.61,1.61,0,0,1,1.6-1.56,1.65,1.65,0,0,1,1.65,1.69l0,.51a1.62,1.62,0,0,1-1.62,1.56Z"/><path class="cls-2" d="M74.49,55h.08A1.5,1.5,0,0,1,76,56.6l0,.51a1.5,1.5,0,0,1-1.5,1.44h-.06A1.5,1.5,0,0,1,73,57l0-.5A1.48,1.48,0,0,1,74.49,55m0-.25a1.73,1.73,0,0,0-1.73,1.68l0,.5a1.75,1.75,0,0,0,1.68,1.82h.07a1.74,1.74,0,0,0,1.75-1.68l0-.51a1.75,1.75,0,0,0-1.68-1.82Z"/><path class="cls-1" d="M91.59,54.66a1.63,1.63,0,0,1-.76-.19l-.45-.24a1.62,1.62,0,1,1,1.55-2.86l.43.23a1.63,1.63,0,0,1-.77,3.06Z"/><path class="cls-2" d="M91.15,51.29a1.49,1.49,0,0,1,.71.18l.43.23a1.5,1.5,0,0,1-1.41,2.65l-.45-.24a1.5,1.5,0,0,1,.71-2.82m0-.25a1.75,1.75,0,0,0-.83,3.29l.45.24a1.75,1.75,0,1,0,1.65-3.09L92,51.25a1.75,1.75,0,0,0-.83-.21Z"/><path class="cls-1" d="M30.23,100.74l-.27,0-.5-.08a1.63,1.63,0,0,1,.26-3.23l.29,0,.48.08a1.62,1.62,0,0,1-.26,3.23Z"/><path class="cls-2" d="M29.72,97.53l.27,0,.48.08a1.5,1.5,0,0,1-.24,3l-.25,0-.5-.08a1.5,1.5,0,0,1,.24-3m0-.25a1.75,1.75,0,0,0-.28,3.48l.5.09.29,0a1.75,1.75,0,0,0,.28-3.48L30,97.31l-.31,0Z"/><path class="cls-1" d="M95.81,49.63A1.62,1.62,0,0,1,94.57,47l.32-.38a1.63,1.63,0,0,1,2.48,2.1l-.32.38A1.62,1.62,0,0,1,95.81,49.63Z"/><path class="cls-2" d="M96.14,46.12a1.5,1.5,0,0,1,1.15,2.47L97,49A1.5,1.5,0,0,1,94.67,47l.32-.38a1.5,1.5,0,0,1,1.15-.53m0-.25a1.75,1.75,0,0,0-1.34.62l-.32.38a1.75,1.75,0,0,0,2.68,2.26l.32-.38a1.75,1.75,0,0,0-1.34-2.88Z"/><path class="cls-1" d="M82.54,49.3a1.62,1.62,0,0,1-.9-.27l-.42-.29A1.62,1.62,0,1,1,83,46l.41.27a1.62,1.62,0,0,1-.9,3Z"/><path class="cls-2" d="M82.12,45.89a1.49,1.49,0,0,1,.84.26l.41.27a1.5,1.5,0,0,1-1.67,2.49l-.42-.28a1.5,1.5,0,0,1,.84-2.74m0-.25a1.75,1.75,0,0,0-1,3.2l.42.28a1.75,1.75,0,0,0,1.95-2.91l-.41-.27a1.74,1.74,0,0,0-1-.3Z"/><path class="cls-1" d="M40.19,101.4a1.63,1.63,0,0,1,0-3.25h.51a1.63,1.63,0,0,1,0,3.25h-.51Z"/><path class="cls-2" d="M40.69,98.27a1.5,1.5,0,0,1,0,3h-.51a1.5,1.5,0,0,1,0-3h.52m0-.25h-.52a1.75,1.75,0,0,0,0,3.5h.51a1.75,1.75,0,0,0,0-3.5Z"/><path class="cls-1" d="M73.7,69.15a1.63,1.63,0,0,1-1.49-1.75l0-.49a1.62,1.62,0,0,1,1.58-1.5H74a1.62,1.62,0,0,1,1.49,1.75l0,.51a1.63,1.63,0,0,1-1.62,1.49Z"/><path class="cls-2" d="M73.84,65.53H74a1.5,1.5,0,0,1,1.38,1.61l0,.51A1.5,1.5,0,0,1,73.84,69h-.13a1.5,1.5,0,0,1-1.37-1.62l0-.49a1.49,1.49,0,0,1,1.46-1.39m0-.25a1.74,1.74,0,0,0-1.71,1.62l0,.49a1.75,1.75,0,0,0,1.6,1.89h.15a1.76,1.76,0,0,0,1.74-1.61l0-.51A1.75,1.75,0,0,0,74,65.29Z"/><path class="cls-1" d="M101.6,57.31h-.19l-.5-.06a1.63,1.63,0,0,1,.18-3.24h.19l.5.06a1.62,1.62,0,0,1-.18,3.24Z"/><path class="cls-2" d="M101.09,54.12h.18l.5.06a1.5,1.5,0,0,1-.17,3h-.17l-.5-.06a1.5,1.5,0,0,1,.16-3m0-.25a1.75,1.75,0,0,0-.19,3.49l.5.06h.2a1.75,1.75,0,0,0,.2-3.49l-.5-.06Z"/><path class="cls-1" d="M50.6,100.2A1.63,1.63,0,0,1,50.22,97l.46-.11A1.62,1.62,0,0,1,51.5,100l-.52.13A1.66,1.66,0,0,1,50.6,100.2Z"/><path class="cls-2" d="M51.09,97a1.5,1.5,0,0,1,.38,3L51,100a1.56,1.56,0,0,1-.35,0,1.5,1.5,0,0,1-.35-3l.46-.11a1.51,1.51,0,0,1,.38,0m0-.25a1.76,1.76,0,0,0-.44.06l-.45.11a1.75,1.75,0,0,0,.41,3.45,1.82,1.82,0,0,0,.41,0l.52-.13a1.75,1.75,0,0,0-.44-3.44Z"/><path class="cls-1" d="M72.38,79.54a1.63,1.63,0,0,1-1.55-2.13l.15-.46a1.63,1.63,0,1,1,3.1,1l-.16.49A1.62,1.62,0,0,1,72.38,79.54Z"/><path class="cls-2" d="M72.52,75.93a1.51,1.51,0,0,1,1.44,2l-.16.49a1.5,1.5,0,0,1-2.85-.93l.15-.46a1.5,1.5,0,0,1,1.43-1.05m0-.25a1.74,1.74,0,0,0-1.67,1.23l-.15.46A1.75,1.75,0,0,0,74,78.45L74.2,78a1.76,1.76,0,0,0-1.67-2.28Z"/><path class="cls-1" d="M20.22,97.69a1.61,1.61,0,0,1-.71-.17L19,97.29a1.63,1.63,0,0,1,.74-3.08,1.6,1.6,0,0,1,.73.18l.42.21a1.63,1.63,0,0,1-.72,3.08Z"/><path class="cls-2" d="M19.78,94.34a1.48,1.48,0,0,1,.68.16l.43.21a1.5,1.5,0,0,1-1.32,2.7l-.47-.23a1.5,1.5,0,0,1,.68-2.84m0-.25A1.75,1.75,0,0,0,19,97.4l.47.23A1.75,1.75,0,1,0,21,94.49l-.42-.21a1.74,1.74,0,0,0-.79-.19Z"/><path class="cls-1" d="M60.24,96.15a1.62,1.62,0,0,1-.89-3l.39-.26a1.63,1.63,0,0,1,1.82,2.69l-.45.29A1.62,1.62,0,0,1,60.24,96.15Z"/><path class="cls-2" d="M60.65,92.75a1.5,1.5,0,0,1,.84,2.74l-.44.29a1.5,1.5,0,0,1-1.63-2.52l.39-.26a1.5,1.5,0,0,1,.84-.26m0-.25a1.75,1.75,0,0,0-1,.3l-.39.26A1.75,1.75,0,0,0,61.19,96l.45-.3a1.75,1.75,0,0,0-1-3.2Z"/><path class="cls-1" d="M67.75,88.92a1.62,1.62,0,0,1-1.32-2.57L66.7,86a1.63,1.63,0,1,1,2.68,1.85l-.3.43A1.63,1.63,0,0,1,67.75,88.92Z"/><path class="cls-2" d="M68,85.39a1.5,1.5,0,0,1,1.23,2.35l-.3.43a1.5,1.5,0,1,1-2.44-1.75L66.8,86A1.5,1.5,0,0,1,68,85.39m0-.25a1.75,1.75,0,0,0-1.44.76l-.27.38A1.75,1.75,0,0,0,67.75,89a1.76,1.76,0,0,0,1.42-.73l.3-.43A1.75,1.75,0,0,0,68,85.14Z"/><path class="cls-1" d="M132.49,58.41a1.62,1.62,0,0,1-.25-3.23l.48-.08.27,0a1.62,1.62,0,0,1,.27,3.23l-.51.08Z"/><path class="cls-2" d="M133,55.2a1.5,1.5,0,0,1,.25,3l-.51.08-.24,0a1.5,1.5,0,0,1-.23-3l.48-.08.25,0m0-.25-.29,0-.48.08a1.75,1.75,0,0,0,.27,3.48l.28,0,.51-.08A1.75,1.75,0,0,0,133,55Z"/><path class="cls-1" d="M139.66,23.9a1.62,1.62,0,0,1-.31,0l-.45-.08a1.63,1.63,0,0,1,.27-3.23l.27,0,.54.1a1.63,1.63,0,0,1-.31,3.22Z"/><path class="cls-2" d="M139.17,20.69l.25,0,.53.1a1.5,1.5,0,0,1-.29,3l-.29,0-.45-.08a1.5,1.5,0,0,1,.24-3m0-.25a1.75,1.75,0,0,0-.29,3.48l.44.08a1.75,1.75,0,1,0,.67-3.44l-.54-.1-.29,0Z"/><path class="cls-1" d="M4,72.31a1.62,1.62,0,0,1-1.61-1.44l-.06-.52a1.63,1.63,0,0,1,1.45-1.78H4A1.63,1.63,0,0,1,5.6,70l.05.48a1.63,1.63,0,0,1-1.43,1.8Z"/><path class="cls-2" d="M4,68.69A1.51,1.51,0,0,1,5.47,70l.05.48a1.5,1.5,0,0,1-1.32,1.66H4a1.5,1.5,0,0,1-1.49-1.33l-.06-.52A1.5,1.5,0,0,1,3.83,68.7H4m0-.25H3.8a1.75,1.75,0,0,0-1.56,1.92l.06.52A1.75,1.75,0,0,0,4,72.44h.2a1.75,1.75,0,0,0,1.54-1.94L5.72,70A1.75,1.75,0,0,0,4,68.44Z"/><path class="cls-1" d="M3.72,61.82a1.62,1.62,0,0,1-1.53-1.72l0-.51a1.62,1.62,0,0,1,1.6-1.52H4a1.63,1.63,0,0,1,1.51,1.73l0,.48a1.63,1.63,0,0,1-1.62,1.53Z"/><path class="cls-2" d="M3.82,58.2h.13a1.5,1.5,0,0,1,1.4,1.6l0,.49a1.5,1.5,0,0,1-1.5,1.41H3.73a1.5,1.5,0,0,1-1.41-1.58l0-.51a1.5,1.5,0,0,1,1.47-1.4m0-.25A1.74,1.74,0,0,0,2.1,59.58l0,.51a1.75,1.75,0,0,0,1.65,1.85h.1A1.75,1.75,0,0,0,5.56,60.3l0-.48A1.75,1.75,0,0,0,4,58Z"/><path class="cls-1" d="M148.71,28.86a1.63,1.63,0,0,1-1.2-.53L147.2,28a1.63,1.63,0,0,1,2.33-2.27l.38.4a1.62,1.62,0,0,1-1.2,2.72Z"/><path class="cls-2" d="M148.37,25.37a1.5,1.5,0,0,1,1.08.45l.37.4a1.5,1.5,0,0,1-2.21,2l-.31-.33a1.5,1.5,0,0,1,1.08-2.54m0-.25a1.75,1.75,0,0,0-1.26,3l.31.33A1.75,1.75,0,1,0,150,26.06l-.38-.4a1.74,1.74,0,0,0-1.25-.53Z"/><path class="cls-1" d="M150.18,48.35a1.63,1.63,0,0,1-1.37-2.49l.23-.38a1.63,1.63,0,0,1,2.8,1.65l-.29.47A1.62,1.62,0,0,1,150.18,48.35Z"/><path class="cls-2" d="M150.45,44.8a1.5,1.5,0,0,1,1.29,2.26l-.29.47a1.5,1.5,0,0,1-2.54-1.6l.24-.39a1.5,1.5,0,0,1,1.3-.74m0-.25a1.76,1.76,0,0,0-1.51.86l-.23.38a1.75,1.75,0,0,0,3,1.87l.29-.47a1.75,1.75,0,0,0-1.51-2.64Z"/><path class="cls-1" d="M152.74,38.34a1.63,1.63,0,0,1-1.62-1.52q0-.22,0-.45a1.63,1.63,0,0,1,1.46-1.78h.17a1.62,1.62,0,0,1,1.61,1.46q0,.28,0,.55a1.63,1.63,0,0,1-1.51,1.73Z"/><path class="cls-2" d="M152.7,34.72a1.5,1.5,0,0,1,1.49,1.35q0,.27,0,.55a1.5,1.5,0,0,1-1.4,1.6h-.1a1.5,1.5,0,0,1-1.5-1.4q0-.23,0-.45a1.5,1.5,0,0,1,1.34-1.64h.15m0-.25h-.18A1.75,1.75,0,0,0,151,36.39q0,.22,0,.44a1.75,1.75,0,0,0,1.74,1.63h.12a1.75,1.75,0,0,0,1.63-1.86q0-.28,0-.55a1.74,1.74,0,0,0-1.74-1.58Z"/><path class="cls-1" d="M6.47,82.49a1.62,1.62,0,0,1-1.51-1L4.77,81a1.62,1.62,0,1,1,3-1.14l.17.45a1.62,1.62,0,0,1-.92,2.1A1.6,1.6,0,0,1,6.47,82.49Z"/><path class="cls-2" d="M6.29,78.9a1.5,1.5,0,0,1,1.4,1l.17.45a1.5,1.5,0,1,1-2.79,1.09l-.19-.49a1.5,1.5,0,0,1,1.41-2m0-.25A1.75,1.75,0,0,0,4.65,81l.19.49A1.75,1.75,0,1,0,8.1,80.23l-.17-.45a1.76,1.76,0,0,0-1.64-1.14Z"/><path class="cls-1" d="M142.46,55.27a1.62,1.62,0,0,1-.76-3.06l.41-.22a1.62,1.62,0,0,1,2.21.64,1.63,1.63,0,0,1-.64,2.21l-.47.25A1.63,1.63,0,0,1,142.46,55.27Z"/><path class="cls-2" d="M142.9,51.91a1.5,1.5,0,0,1,.73,2.81l-.46.25a1.5,1.5,0,1,1-1.4-2.65l.42-.22a1.49,1.49,0,0,1,.72-.19m0-.25a1.75,1.75,0,0,0-.84.22l-.41.22a1.75,1.75,0,0,0,1.64,3.09l.47-.25a1.75,1.75,0,0,0-.84-3.28Z"/><path class="cls-1" d="M119.2,28.75a1.63,1.63,0,0,1-1.4-.8,1.63,1.63,0,0,1,.58-2.22l.45-.26a1.63,1.63,0,1,1,1.62,2.82l-.42.24A1.62,1.62,0,0,1,119.2,28.75Z"/><path class="cls-2" d="M119.63,25.38a1.5,1.5,0,0,1,.75,2.8l-.42.24a1.5,1.5,0,1,1-1.52-2.59l.45-.26a1.49,1.49,0,0,1,.74-.2m0-.25a1.75,1.75,0,0,0-.87.23l-.45.26a1.75,1.75,0,0,0-.63,2.4,1.75,1.75,0,0,0,2.39.62l.42-.24a1.75,1.75,0,0,0-.87-3.27Z"/><path class="cls-1" d="M128.78,24.54a1.63,1.63,0,0,1-1.57-1.19,1.63,1.63,0,0,1,1.13-2l.51-.14a1.6,1.6,0,0,1,.41-.05,1.63,1.63,0,0,1,.4,3.2l-.46.12A1.62,1.62,0,0,1,128.78,24.54Z"/><path class="cls-2" d="M129.27,21.29a1.5,1.5,0,0,1,.37,3l-.46.12a1.5,1.5,0,0,1-.8-2.89l.51-.14a1.48,1.48,0,0,1,.38,0m0-.25a1.74,1.74,0,0,0-.44.06l-.51.14a1.75,1.75,0,1,0,.93,3.37l.46-.12a1.75,1.75,0,0,0-.44-3.44Z"/><path class="cls-1" d="M122,58.94a1.63,1.63,0,0,1-1.59-1.66A1.65,1.65,0,0,1,122,55.69h.5a1.63,1.63,0,0,1,0,3.25Z"/><path class="cls-2" d="M122,55.82h.5a1.5,1.5,0,0,1,0,3H122a1.5,1.5,0,0,1-1.46-1.54A1.53,1.53,0,0,1,122,55.82m0-.25a1.77,1.77,0,0,0-1.77,1.71A1.75,1.75,0,0,0,122,59.07h.51a1.75,1.75,0,1,0,.06-3.5H122Z"/><path class="cls-1" d="M102.83,41.83A1.63,1.63,0,0,1,101.69,39l.36-.35A1.62,1.62,0,1,1,104.33,41l-.35.35A1.62,1.62,0,0,1,102.83,41.83Z"/><path class="cls-2" d="M103.19,38.35a1.5,1.5,0,0,1,1.05,2.57l-.35.35a1.5,1.5,0,0,1-2.11-2.13l.36-.35a1.49,1.49,0,0,1,1.05-.43m0-.25a1.74,1.74,0,0,0-1.23.5l-.36.35a1.75,1.75,0,0,0,2.46,2.49l.35-.35a1.75,1.75,0,0,0-1.23-3Z"/><path class="cls-1" d="M111.92,58.46l-.52,0a1.62,1.62,0,0,1,.16-3.24h.11l.48,0A1.63,1.63,0,0,1,113.65,57,1.63,1.63,0,0,1,112,58.47Z"/><path class="cls-2" d="M111.56,55.3h.1l.48,0a1.5,1.5,0,0,1-.1,3h-.11l-.52,0a1.5,1.5,0,0,1,.15-3m0-.25a1.75,1.75,0,0,0-.17,3.49l.52,0H112a1.75,1.75,0,0,0,.12-3.5l-.48,0Z"/><path class="cls-1" d="M110.62,34.79a1.62,1.62,0,0,1-1-2.88l.4-.32a1.63,1.63,0,0,1,1-.36,1.62,1.62,0,0,1,1,2.89l-.38.31A1.62,1.62,0,0,1,110.62,34.79Z"/><path class="cls-2" d="M111,31.35a1.5,1.5,0,0,1,.94,2.67l-.38.31a1.5,1.5,0,1,1-1.9-2.32l.4-.32a1.5,1.5,0,0,1,.94-.33m0-.25a1.76,1.76,0,0,0-1.1.39l-.4.32a1.75,1.75,0,1,0,2.21,2.71l.38-.31A1.75,1.75,0,0,0,111,31.1Z"/><path class="cls-1" d="M74.48,42.59a1.62,1.62,0,0,1-1.26-.6l-.35-.44a1.62,1.62,0,1,1,2.59-2l.27.34a1.63,1.63,0,0,1-1.26,2.65Z"/><path class="cls-2" d="M74.17,39.07a1.5,1.5,0,0,1,1.2.59l.27.35a1.5,1.5,0,1,1-2.32,1.9L73,41.48a1.5,1.5,0,0,1,1.2-2.4m0-.25a1.75,1.75,0,0,0-1.39,2.81l.35.45a1.75,1.75,0,1,0,2.71-2.22l-.27-.34a1.74,1.74,0,0,0-1.4-.69Z"/><path class="cls-1" d="M74.47,48.17a1.63,1.63,0,0,1-1.62-1.52l0-.49a1.63,1.63,0,0,1,1.5-1.74h.11a1.64,1.64,0,0,1,1.63,1.51l0,.51a1.63,1.63,0,0,1-1.51,1.73Z"/><path class="cls-2" d="M74.43,44.54a1.5,1.5,0,0,1,1.5,1.39l0,.51a1.5,1.5,0,0,1-1.4,1.6h-.1a1.5,1.5,0,0,1-1.5-1.4l0-.49a1.5,1.5,0,0,1,1.39-1.61h.1m0-.25h-.12a1.75,1.75,0,0,0-1.62,1.87l0,.49a1.75,1.75,0,0,0,1.74,1.63h.12a1.75,1.75,0,0,0,1.63-1.86l0-.51a1.76,1.76,0,0,0-1.75-1.62Z"/><path class="cls-1" d="M11.89,91.42a1.63,1.63,0,0,1-1.21-.54l-.35-.4a1.62,1.62,0,0,1,2.47-2.12l.31.35a1.63,1.63,0,0,1-1.21,2.71Z"/><path class="cls-2" d="M11.56,87.92a1.5,1.5,0,0,1,1.14.52l.31.35a1.5,1.5,0,0,1-2.24,2l-.35-.4a1.5,1.5,0,0,1,1.14-2.48m0-.25a1.75,1.75,0,0,0-1.33,2.89l.35.4a1.75,1.75,0,0,0,2.61-2.33l-.31-.35a1.75,1.75,0,0,0-1.33-.61Z"/><path class="cls-1" d="M6.11,51.11a1.63,1.63,0,0,1-.95.31,1.67,1.67,0,0,1-.32,0,1.61,1.61,0,0,1-1.23-1.11l-3.13-1,7-6.25,1.9,9.21Z"/><path class="cls-2" d="M7.44,43.23,9.25,52,6.09,51a1.5,1.5,0,0,1-.93.33l-.29,0a1.5,1.5,0,0,1-1.15-1.08l-3-1,6.71-6m.16-.47L7.28,43,.57,49l-.32.29.41.14,2.86,1a1.74,1.74,0,0,0,2.61.87l3,1,.41.14L9.5,52,7.69,43.18l-.09-.42Z"/><text class="cls-3" transform="translate(84.45 62.38)">1</text></g></g></svg>