<svg xmlns="http://www.w3.org/2000/svg" viewBox="0 0 115.19 135.79"><defs><style>.cls-1{fill:#fff;stroke:#00c2ff;stroke-miterlimit:10;stroke-width:0.5px;}.cls-2,.cls-3{fill:#00c2ff;}.cls-3{font-size:6.75px;font-family:Linotte-SemiBold, Linotte-SemiBold;}</style></defs><title>16-tho-guide trace</title><g id="Layer_2" data-name="Layer 2"><g id="Guide_Trace" data-name="Guide Trace"><path class="cls-1" d="M98.71,127a1.63,1.63,0,0,1-.53-3.16l.45-.16a1.63,1.63,0,0,1,1.11,3.05l-.5.17A1.62,1.62,0,0,1,98.71,127Z"/><path class="cls-2" d="M99.18,123.68a1.5,1.5,0,0,1,.51,2.91l-.49.17a1.5,1.5,0,1,1-1-2.83l.45-.16a1.49,1.49,0,0,1,.51-.09m0-.25a1.74,1.74,0,0,0-.6.11l-.45.16A1.75,1.75,0,1,0,99.28,127l.5-.18a1.75,1.75,0,0,0-.6-3.4Z"/><path class="cls-1" d="M76.44,97.87a1.63,1.63,0,0,1-.87-3l.44-.27a1.63,1.63,0,1,1,1.7,2.77l-.41.26A1.62,1.62,0,0,1,76.44,97.87Z"/><path class="cls-2" d="M76.86,94.48a1.5,1.5,0,0,1,.79,2.78l-.41.26A1.5,1.5,0,1,1,75.64,95l.44-.27a1.49,1.49,0,0,1,.78-.22m0-.25a1.75,1.75,0,0,0-.91.26l-.44.27a1.75,1.75,0,1,0,1.86,3l.41-.26a1.75,1.75,0,0,0-.92-3.24Z"/><path class="cls-1" d="M68,104.06a1.63,1.63,0,0,1-1-2.87l.39-.33a1.62,1.62,0,1,1,2.06,2.51l-.38.31A1.63,1.63,0,0,1,68,104.06Z"/><path class="cls-2" d="M68.35,100.62a1.5,1.5,0,0,1,1,2.66l-.38.31A1.5,1.5,0,1,1,67,101.28l.39-.33a1.5,1.5,0,0,1,1-.34m0-.25a1.76,1.76,0,0,0-1.11.4l-.39.33a1.75,1.75,0,1,0,2.24,2.69l.38-.31a1.75,1.75,0,0,0-1.11-3.1Z"/><path class="cls-1" d="M113.19,113a1.63,1.63,0,0,1-1.57-2.05l.11-.44a1.62,1.62,0,0,1,1.58-1.24,1.65,1.65,0,0,1,.39,0,1.63,1.63,0,0,1,1.19,2c0,.17-.09.35-.14.52A1.63,1.63,0,0,1,113.19,113Z"/><path class="cls-2" d="M113.31,109.35a1.5,1.5,0,0,1,1.46,1.86q-.06.26-.13.52a1.5,1.5,0,0,1-2.89-.79l.12-.45a1.5,1.5,0,0,1,1.45-1.14m0-.25a1.74,1.74,0,0,0-1.7,1.33l-.11.44a1.75,1.75,0,1,0,3.38.92q.07-.26.14-.53a1.75,1.75,0,0,0-1.28-2.12,1.76,1.76,0,0,0-.42-.05Z"/><path class="cls-1" d="M15.9,123.86a1.62,1.62,0,0,1-.49-.07l-.49-.15a1.63,1.63,0,1,1,1-3.09l.46.15a1.63,1.63,0,0,1-.48,3.18Z"/><path class="cls-2" d="M15.42,120.58a1.5,1.5,0,0,1,.46.07l.47.15a1.5,1.5,0,1,1-.9,2.86l-.49-.15a1.5,1.5,0,0,1,.46-2.93m0-.25a1.75,1.75,0,0,0-.53,3.42l.49.15a1.75,1.75,0,1,0,1-3.34l-.46-.15a1.74,1.74,0,0,0-.53-.08Z"/><path class="cls-1" d="M106.48,94.48a1.62,1.62,0,0,1-.9-.27l-.37-.24a1.62,1.62,0,1,1,1.71-2.76l.46.3a1.63,1.63,0,0,1-.9,3Z"/><path class="cls-2" d="M106.07,91.09a1.49,1.49,0,0,1,.79.23l.46.3a1.5,1.5,0,0,1-1.67,2.5l-.38-.24a1.5,1.5,0,0,1,.79-2.77m0-.25a1.75,1.75,0,0,0-.92,3.24l.37.24a1.75,1.75,0,0,0,1.94-2.91l-.47-.3a1.74,1.74,0,0,0-.92-.26Z"/><path class="cls-1" d="M85.82,93.19a1.63,1.63,0,0,1-1.53-1.08,1.62,1.62,0,0,1,1-2.08l.49-.17a1.62,1.62,0,1,1,1.06,3.07l-.45.16A1.61,1.61,0,0,1,85.82,93.19Z"/><path class="cls-2" d="M86.29,89.9a1.5,1.5,0,0,1,.49,2.92l-.46.16a1.5,1.5,0,1,1-1-2.82L85.8,90a1.49,1.49,0,0,1,.49-.08m0-.25a1.74,1.74,0,0,0-.57.1l-.49.17a1.75,1.75,0,1,0,1.18,3.29l.45-.16a1.75,1.75,0,0,0-.57-3.4Z"/><path class="cls-1" d="M107.74,121.77a1.63,1.63,0,0,1-1.1-2.82l.34-.32a1.63,1.63,0,1,1,2.25,2.35l-.39.37A1.62,1.62,0,0,1,107.74,121.77Z"/><path class="cls-2" d="M108.1,118.3a1.5,1.5,0,0,1,1,2.58l-.39.37a1.5,1.5,0,1,1-2-2.21l.34-.32a1.5,1.5,0,0,1,1-.42m0-.25a1.74,1.74,0,0,0-1.21.49l-.34.31a1.75,1.75,0,0,0,2.36,2.58l.39-.37a1.75,1.75,0,0,0,.05-2.47,1.73,1.73,0,0,0-1.26-.54Z"/><path class="cls-1" d="M88.43,129a1.63,1.63,0,0,1-1.23-2.69,1.61,1.61,0,0,1,1.11-.55l.48,0h.13a1.62,1.62,0,0,1,.13,3.24l-.51,0Z"/><path class="cls-2" d="M88.93,125.81a1.5,1.5,0,0,1,.12,3l-.51,0h-.11a1.5,1.5,0,0,1-.1-3l.48,0h.12m0-.25h-.14l-.48,0a1.75,1.75,0,0,0-1.62,1.87,1.75,1.75,0,0,0,1.74,1.63h.13l.51,0a1.75,1.75,0,0,0-.14-3.49Z"/><path class="cls-1" d="M42.53,135.54a5.76,5.76,0,0,1-5.43-7.68,1.51,1.51,0,0,1-.63.14h-.15l-.51,0a1.62,1.62,0,0,1,.17-3.24h.15l.48,0a1.61,1.61,0,0,1,1.46,1.37,5.76,5.76,0,0,1,6.11-1.88,1.58,1.58,0,0,1,.19-.42l.29-.39.22-.23a1.62,1.62,0,1,1,2.35,2.25l-.13.15a1.62,1.62,0,0,1,1,2.73,5.72,5.72,0,0,1-.61,4.36,5.79,5.79,0,0,1-5,2.85Z"/><path class="cls-2" d="M46.05,122.83a1.5,1.5,0,0,1,1.08,2.54l-.14.16-.14.18H47a1.5,1.5,0,0,1,1,2.58,5.64,5.64,0,1,1-10.62-.73,1.48,1.48,0,0,1-.88.31h-.14l-.51,0a1.5,1.5,0,0,1,.16-3h.14l.48,0a1.5,1.5,0,0,1,1.36,1.6,5.64,5.64,0,0,1,6.31-2.07,1.49,1.49,0,0,1,.21-.51l.28-.39.21-.22a1.49,1.49,0,0,1,1.08-.46m0-.25a1.73,1.73,0,0,0-1.26.54l-.21.22-.3.41a1.74,1.74,0,0,0-.17.35,5.89,5.89,0,0,0-6,1.76,1.74,1.74,0,0,0-1.51-1.22l-.48,0H36a1.75,1.75,0,0,0-.18,3.49l.51,0h.16a1.58,1.58,0,0,0,.43-.06,5.89,5.89,0,1,0,11.35.3,1.75,1.75,0,0,0-.91-2.85,1.75,1.75,0,0,0-1.29-2.93Z"/><path class="cls-1" d="M96,91.36a1.63,1.63,0,0,1,0-3.25l.58,0a1.63,1.63,0,0,1-.08,3.25Z"/><path class="cls-2" d="M96.09,88.24h0l.53,0a1.5,1.5,0,0,1-.07,3h-.08l-.47,0a1.5,1.5,0,0,1,0-3m0-.25a1.75,1.75,0,0,0,0,3.5l.47,0h.09a1.75,1.75,0,0,0,.09-3.5l-.54,0h-.05Z"/><path class="cls-1" d="M67.43,129a1.63,1.63,0,0,1,0-3.25h.5a1.63,1.63,0,0,1,0,3.25Z"/><path class="cls-2" d="M67.44,125.91h.5a1.5,1.5,0,0,1,0,3h-.5a1.5,1.5,0,0,1,0-3h0m0-.25h0a1.75,1.75,0,0,0,0,3.5h.5a1.75,1.75,0,1,0,0-3.5Z"/><path class="cls-1" d="M77.93,129.05a1.63,1.63,0,0,1,0-3.25h.5a1.63,1.63,0,0,1,0,3.25Z"/><path class="cls-2" d="M77.94,125.93h.5a1.5,1.5,0,0,1,0,3h-.5a1.5,1.5,0,0,1,0-3h0m0-.25h0a1.75,1.75,0,0,0,0,3.5h.5a1.75,1.75,0,1,0,0-3.5Z"/><path class="cls-1" d="M26.08,126.43a1.64,1.64,0,0,1-.32,0l-.5-.1a1.62,1.62,0,0,1,.33-3.22,1.65,1.65,0,0,1,.33,0l.48.1a1.63,1.63,0,0,1-.31,3.22Z"/><path class="cls-2" d="M25.59,123.21a1.51,1.51,0,0,1,.3,0l.48.1a1.5,1.5,0,0,1-.29,3l-.29,0-.5-.1a1.5,1.5,0,0,1,.3-3m0-.25a1.75,1.75,0,0,0-.35,3.46l.5.1a1.8,1.8,0,0,0,.34,0,1.75,1.75,0,0,0,.34-3.47l-.48-.1a1.76,1.76,0,0,0-.35,0Z"/><path class="cls-1" d="M53,118.73A1.62,1.62,0,0,1,51.79,116l.35-.36a1.63,1.63,0,1,1,2.35,2.25l-.35.36A1.61,1.61,0,0,1,53,118.73Z"/><path class="cls-2" d="M53.31,115.24a1.5,1.5,0,0,1,1.08,2.54l-.35.36a1.5,1.5,0,1,1-2.17-2.07l.35-.36a1.5,1.5,0,0,1,1.08-.46m0-.25a1.74,1.74,0,0,0-1.26.54l-.35.36a1.75,1.75,0,0,0,2.53,2.42l.35-.36a1.75,1.75,0,0,0-1.26-3Z"/><path class="cls-1" d="M56.92,129a1.63,1.63,0,0,1,0-3.25h.51a1.63,1.63,0,0,1,0,3.25Z"/><path class="cls-2" d="M56.95,125.87h.49a1.5,1.5,0,0,1,0,3h-.51a1.5,1.5,0,0,1,0-3h0m0-.25h0a1.75,1.75,0,0,0,0,3.5h.5a1.75,1.75,0,1,0,0-3.5H57Z"/><path class="cls-1" d="M112.83,102.62a1.63,1.63,0,0,1-1.53-1.08l-.16-.42a1.62,1.62,0,0,1,3-1.19l.19.51a1.63,1.63,0,0,1-1.53,2.17Z"/><path class="cls-2" d="M112.65,99a1.5,1.5,0,0,1,1.4,1l.19.51a1.5,1.5,0,1,1-2.82,1l-.16-.43a1.5,1.5,0,0,1,1.4-2m0-.25a1.75,1.75,0,0,0-1.63,2.39l.16.42a1.75,1.75,0,0,0,3.29-1.18l-.19-.52a1.74,1.74,0,0,0-1.63-1.11Z"/><path class="cls-1" d="M60.24,111.16a1.62,1.62,0,0,1-1.15-2.77l.36-.36a1.63,1.63,0,0,1,2.29,2.3l-.35.35A1.62,1.62,0,0,1,60.24,111.16Z"/><path class="cls-2" d="M60.59,107.68a1.5,1.5,0,0,1,1.06,2.56l-.35.35a1.5,1.5,0,0,1-2.13-2.12l.36-.36a1.5,1.5,0,0,1,1.06-.44m0-.25a1.74,1.74,0,0,0-1.23.51l-.36.36a1.75,1.75,0,0,0,2.48,2.47l.35-.35a1.75,1.75,0,0,0-1.24-3Z"/><path class="cls-1" d="M.4,114l9.36,1-2,2.81a1.62,1.62,0,0,1-1.54,2.14l-1.95,2.67Z"/><path class="cls-2" d="M.61,114.12l8.93.93-1.95,2.69a1.49,1.49,0,0,1-1.4,2H6.12l-1.85,2.56L.61,114.12m-.4-.29.18.4L4,122.42l.18.4.25-.35L6.24,120a1.74,1.74,0,0,0,1.62-2.24l1.87-2.58.25-.35-.43,0-8.93-.93-.43,0Z"/><path class="cls-1" d="M37.78,39.16a1.62,1.62,0,0,1-1.61-1.44l-.05-.44a1.66,1.66,0,0,1,.34-1.21,1.6,1.6,0,0,1,1.09-.62h.21a1.6,1.6,0,0,1,1.59,1.41l.06.49A1.62,1.62,0,0,1,38,39.15Z"/><path class="cls-2" d="M37.74,35.57a1.47,1.47,0,0,1,1.47,1.3v.06l.05.44A1.5,1.5,0,0,1,38,39h-.18a1.5,1.5,0,0,1-1.49-1.32l-.05-.44a1.52,1.52,0,0,1,1.31-1.69h.19m0-.25h-.22a1.72,1.72,0,0,0-1.17.67A1.78,1.78,0,0,0,36,37.3l.05.44a1.75,1.75,0,0,0,1.74,1.55H38a1.75,1.75,0,0,0,1.53-1.94l-.05-.44v-.06a1.72,1.72,0,0,0-1.72-1.52Z"/><path class="cls-1" d="M44.12,112.36a1.62,1.62,0,0,1-1.48-1.75l0-.5a1.6,1.6,0,0,1,1.59-1.49h.16a1.63,1.63,0,0,1,1.48,1.75l0,.5a1.63,1.63,0,0,1-1.62,1.49Z"/><path class="cls-2" d="M44.28,108.74h.15a1.5,1.5,0,0,1,1.37,1.62l0,.5a1.5,1.5,0,0,1-1.49,1.38h-.13a1.5,1.5,0,0,1-1.37-1.62l0-.5a1.48,1.48,0,0,1,1.47-1.38m0-.25a1.73,1.73,0,0,0-1.72,1.61l0,.5a1.75,1.75,0,0,0,1.6,1.89h.15a1.76,1.76,0,0,0,1.74-1.6l0-.5a1.75,1.75,0,0,0-1.6-1.89Z"/><path class="cls-1" d="M36.55,28.72a1.62,1.62,0,0,1-1.61-1.43l-.05-.44A1.64,1.64,0,0,1,36.31,25h.21a1.58,1.58,0,0,1,1.59,1.41l.06.49a1.63,1.63,0,0,1-1.42,1.81Z"/><path class="cls-2" d="M36.51,25.13A1.47,1.47,0,0,1,38,26.42v.06l.05.43a1.5,1.5,0,0,1-1.31,1.67h-.18a1.5,1.5,0,0,1-1.49-1.32L35,26.84a1.53,1.53,0,0,1,1.31-1.7h.19m0-.25h-.22a1.77,1.77,0,0,0-1.53,2l.05.44a1.75,1.75,0,0,0,1.74,1.54h.21a1.75,1.75,0,0,0,1.53-1.95l-.05-.43V26.4a1.73,1.73,0,0,0-1.72-1.52Z"/><path class="cls-1" d="M39,49.6a1.62,1.62,0,0,1-1.61-1.44l-.06-.5a1.62,1.62,0,0,1,1.43-1.8h.18a1.62,1.62,0,0,1,1.61,1.44l.06.5a1.63,1.63,0,0,1-1.43,1.79Z"/><path class="cls-2" d="M38.92,46a1.5,1.5,0,0,1,1.49,1.33l.06.5a1.5,1.5,0,0,1-1.32,1.66H39a1.5,1.5,0,0,1-1.49-1.33l-.06-.5A1.5,1.5,0,0,1,38.75,46h.17m0-.25h-.2a1.75,1.75,0,0,0-1.54,1.93l.06.5A1.75,1.75,0,0,0,39,49.73h.2a1.75,1.75,0,0,0,1.54-1.93l-.06-.5a1.75,1.75,0,0,0-1.74-1.56Z"/><path class="cls-1" d="M42.27,81a1.62,1.62,0,0,1-1.62-1.47l0-.5a1.63,1.63,0,0,1,1.46-1.77h.15a1.62,1.62,0,0,1,1.63,1.47l0,.5a1.63,1.63,0,0,1-1.46,1.78Z"/><path class="cls-2" d="M42.22,77.33a1.51,1.51,0,0,1,1.5,1.35l0,.5a1.5,1.5,0,0,1-1.35,1.64h-.15a1.5,1.5,0,0,1-1.49-1.35l0-.5a1.5,1.5,0,0,1,1.35-1.64h.14m0-.25h-.16A1.75,1.75,0,0,0,40.48,79l0,.5a1.74,1.74,0,0,0,1.74,1.58h.17A1.75,1.75,0,0,0,44,79.16l0-.5a1.75,1.75,0,0,0-1.75-1.58Z"/><path class="cls-1" d="M41.23,70.5A1.62,1.62,0,0,1,39.61,69l-.05-.5A1.63,1.63,0,0,1,41,66.76h.17a1.62,1.62,0,0,1,1.61,1.46l.05.49a1.63,1.63,0,0,1-1.45,1.79Z"/><path class="cls-2" d="M41.18,66.87a1.5,1.5,0,0,1,1.48,1.35l.05.49a1.5,1.5,0,0,1-1.33,1.65h-.16A1.5,1.5,0,0,1,39.74,69l-.05-.5A1.5,1.5,0,0,1,41,66.88h.16m0-.25H41a1.75,1.75,0,0,0-1.56,1.92l.05.5a1.75,1.75,0,0,0,1.74,1.57h.19A1.75,1.75,0,0,0,43,68.69l-.05-.49a1.74,1.74,0,0,0-1.73-1.57Z"/><path class="cls-1" d="M35.29,18.29a1.63,1.63,0,0,1-1.61-1.42l-.05-.44A1.64,1.64,0,0,1,35,14.58h.21a1.6,1.6,0,0,1,1.6,1.4l.06.49a1.62,1.62,0,0,1-1.41,1.81Z"/><path class="cls-2" d="M35.24,14.69A1.47,1.47,0,0,1,36.72,16V16l.05.43a1.5,1.5,0,0,1-1.3,1.68h-.19a1.5,1.5,0,0,1-1.49-1.31l-.05-.44a1.53,1.53,0,0,1,1.3-1.7h.19m0-.25H35a1.77,1.77,0,0,0-1.52,2l.05.44a1.75,1.75,0,0,0,1.73,1.53h.22a1.75,1.75,0,0,0,1.52-2L37,16V16a1.73,1.73,0,0,0-1.72-1.51Z"/><path class="cls-1" d="M40.12,60a1.62,1.62,0,0,1-1.61-1.45l-.05-.49a1.63,1.63,0,0,1,1.44-1.79h.18a1.62,1.62,0,0,1,1.61,1.45l.05.5A1.63,1.63,0,0,1,40.29,60Z"/><path class="cls-2" d="M40.07,56.43a1.51,1.51,0,0,1,1.49,1.34l.05.5a1.5,1.5,0,0,1-1.33,1.65h-.16a1.5,1.5,0,0,1-1.49-1.34l-.05-.49a1.5,1.5,0,0,1,1.33-1.65h.16m0-.25h-.19a1.75,1.75,0,0,0-1.55,1.93l.05.49a1.75,1.75,0,0,0,1.74,1.56h.19a1.75,1.75,0,0,0,1.56-1.93l-.05-.5a1.75,1.75,0,0,0-1.74-1.56Z"/><path class="cls-1" d="M44.13,101.89a1.63,1.63,0,0,1-1.62-1.5l0-.5A1.62,1.62,0,0,1,44,98.15h.14a1.63,1.63,0,0,1,1.61,1.5l0,.5a1.62,1.62,0,0,1-1.49,1.75Z"/><path class="cls-2" d="M44.11,98.27a1.5,1.5,0,0,1,1.48,1.38l0,.5a1.5,1.5,0,0,1-1.38,1.61h-.12a1.5,1.5,0,0,1-1.49-1.38l0-.5A1.5,1.5,0,0,1,44,98.27h.13m0-.25H44a1.75,1.75,0,0,0-1.6,1.88l0,.5A1.76,1.76,0,0,0,44.13,102h.14a1.75,1.75,0,0,0,1.6-1.88l0-.5A1.75,1.75,0,0,0,44.11,98Z"/><path class="cls-1" d="M43.25,91.42a1.62,1.62,0,0,1-1.62-1.48l0-.5a1.62,1.62,0,0,1,1.47-1.77h.16a1.63,1.63,0,0,1,1.6,1.48l0,.5a1.62,1.62,0,0,1-1.47,1.77Z"/><path class="cls-2" d="M43.22,87.79a1.5,1.5,0,0,1,1.48,1.37l0,.5a1.5,1.5,0,0,1-1.36,1.63h-.14a1.5,1.5,0,0,1-1.49-1.36l0-.5a1.5,1.5,0,0,1,1.36-1.63h.15m0-.25H43a1.75,1.75,0,0,0-1.58,1.9l0,.5a1.74,1.74,0,0,0,1.74,1.59h.16A1.75,1.75,0,0,0,45,89.63l0-.5a1.76,1.76,0,0,0-1.73-1.59Z"/><path class="cls-1" d="M33.93,11.78A5.77,5.77,0,0,1,33.08.32a5.76,5.76,0,0,1,1.72,11.4,5.8,5.8,0,0,1-.87.07Z"/><path class="cls-2" d="M33.95.38a5.64,5.64,0,1,1-.85.06,5.64,5.64,0,0,1,.85-.06m0-.25a5.89,5.89,0,0,0-5.83,6.77,5.88,5.88,0,0,0,6.7,4.95,5.89,5.89,0,0,0,4.95-6.7,5.92,5.92,0,0,0-5.82-5Z"/><polygon class="cls-1" points="39.16 115.22 48.54 116 43.17 123.73 39.16 115.22"/><path class="cls-2" d="M39.37,115.36l8.94.75-5.12,7.37-3.82-8.12m-.41-.29.18.39L43,123.58l.18.39.25-.36,5.12-7.37.25-.36-.43,0-8.94-.75-.43,0Z"/><text class="cls-3" transform="translate(32.14 8.73)">1</text><text class="cls-3" transform="translate(40.81 132.06)">2</text></g></g></svg>