<svg xmlns="http://www.w3.org/2000/svg" viewBox="0 0 115.19 137.53"><defs><style>.cls-1{fill:#fff;stroke:#00c2ff;stroke-miterlimit:10;stroke-width:0.5px;}.cls-2,.cls-3{fill:#00c2ff;}.cls-3{font-size:6.75px;font-family:Linotte-SemiBold, Linotte-SemiBold;}</style></defs><title>17-zho-guide trace</title><g id="Layer_2" data-name="Layer 2"><g id="Guide_Trace" data-name="Guide Trace"><circle class="cls-1" cx="82.53" cy="63.72" r="1.96"/><path class="cls-2" d="M82.53,61.88a1.83,1.83,0,1,1-1.83,1.83,1.83,1.83,0,0,1,1.83-1.83m0-.25a2.08,2.08,0,1,0,2.08,2.08,2.09,2.09,0,0,0-2.08-2.08Z"/><path class="cls-1" d="M53,120.47a1.62,1.62,0,0,1-1.17-2.75l.35-.36a1.63,1.63,0,1,1,2.35,2.25l-.35.36A1.61,1.61,0,0,1,53,120.47Z"/><path class="cls-2" d="M53.31,117a1.5,1.5,0,0,1,1.08,2.54l-.35.36a1.5,1.5,0,0,1-2.17-2.07l.35-.36a1.5,1.5,0,0,1,1.08-.46m0-.25a1.74,1.74,0,0,0-1.26.54l-.35.36a1.75,1.75,0,0,0,2.53,2.42l.35-.36a1.75,1.75,0,0,0-1.26-3Z"/><path class="cls-1" d="M42.53,137.28a5.76,5.76,0,0,1-5.43-7.68,1.51,1.51,0,0,1-.63.14h-.15l-.51,0a1.62,1.62,0,0,1,.17-3.24h.15l.48,0a1.61,1.61,0,0,1,1.46,1.37A5.76,5.76,0,0,1,44.18,126a1.58,1.58,0,0,1,.19-.42l.29-.39.22-.23a1.62,1.62,0,1,1,2.35,2.25l-.13.15a1.62,1.62,0,0,1,1,2.73,5.72,5.72,0,0,1-.61,4.36,5.79,5.79,0,0,1-5,2.85Z"/><path class="cls-2" d="M46.05,124.57a1.5,1.5,0,0,1,1.08,2.54l-.14.16-.14.18H47A1.5,1.5,0,0,1,48,130a5.64,5.64,0,1,1-10.62-.73,1.48,1.48,0,0,1-.88.31h-.14l-.51,0a1.5,1.5,0,0,1,.16-3h.14l.48,0a1.5,1.5,0,0,1,1.36,1.6,5.64,5.64,0,0,1,6.31-2.07,1.49,1.49,0,0,1,.21-.51l.28-.39L45,125a1.49,1.49,0,0,1,1.08-.46m0-.25a1.73,1.73,0,0,0-1.26.54l-.21.22-.3.41a1.74,1.74,0,0,0-.17.35,5.89,5.89,0,0,0-6,1.76,1.74,1.74,0,0,0-1.51-1.22l-.48,0H36a1.75,1.75,0,0,0-.18,3.49l.51,0h.16a1.58,1.58,0,0,0,.43-.06,5.89,5.89,0,1,0,11.35.3,1.75,1.75,0,0,0-.91-2.85,1.75,1.75,0,0,0-1.29-2.93Z"/><path class="cls-1" d="M67.43,130.78a1.63,1.63,0,0,1,0-3.25h.5a1.63,1.63,0,0,1,0,3.25Z"/><path class="cls-2" d="M67.44,127.65h.5a1.5,1.5,0,0,1,0,3h-.5a1.5,1.5,0,0,1,0-3h0m0-.25h0a1.75,1.75,0,0,0,0,3.5h.5a1.75,1.75,0,1,0,0-3.5Z"/><path class="cls-1" d="M77.93,130.79a1.63,1.63,0,0,1,0-3.25h.5a1.63,1.63,0,0,1,0,3.25Z"/><path class="cls-2" d="M77.94,127.67h.5a1.5,1.5,0,0,1,0,3h-.5a1.5,1.5,0,0,1,0-3h0m0-.25h0a1.75,1.75,0,0,0,0,3.5h.5a1.75,1.75,0,1,0,0-3.5Z"/><path class="cls-1" d="M107.74,123.5a1.63,1.63,0,0,1-1.1-2.82l.34-.32a1.63,1.63,0,1,1,2.25,2.35l-.39.37A1.62,1.62,0,0,1,107.74,123.5Z"/><path class="cls-2" d="M108.1,120a1.5,1.5,0,0,1,1,2.58l-.39.37a1.5,1.5,0,1,1-2-2.21l.34-.32a1.5,1.5,0,0,1,1-.42m0-.25a1.74,1.74,0,0,0-1.21.49l-.34.31a1.75,1.75,0,0,0,2.36,2.58l.39-.37a1.75,1.75,0,0,0,.05-2.47,1.73,1.73,0,0,0-1.26-.54Z"/><path class="cls-1" d="M56.92,130.73a1.63,1.63,0,0,1,0-3.25h.51a1.63,1.63,0,0,1,0,3.25Z"/><path class="cls-2" d="M56.95,127.61h.49a1.5,1.5,0,0,1,0,3h-.51a1.5,1.5,0,0,1,0-3h0m0-.25h0a1.75,1.75,0,0,0,0,3.5h.5a1.75,1.75,0,1,0,0-3.5H57Z"/><path class="cls-1" d="M60.24,112.9a1.62,1.62,0,0,1-1.15-2.77l.36-.36a1.63,1.63,0,0,1,2.29,2.3l-.35.35A1.62,1.62,0,0,1,60.24,112.9Z"/><path class="cls-2" d="M60.59,109.42A1.5,1.5,0,0,1,61.65,112l-.35.35a1.5,1.5,0,0,1-2.13-2.12l.36-.36a1.5,1.5,0,0,1,1.06-.44m0-.25a1.74,1.74,0,0,0-1.23.51L59,110a1.75,1.75,0,0,0,2.48,2.47l.35-.35a1.75,1.75,0,0,0-1.24-3Z"/><path class="cls-1" d="M68,105.8a1.63,1.63,0,0,1-1-2.87l.39-.33a1.62,1.62,0,1,1,2.06,2.51l-.38.31A1.63,1.63,0,0,1,68,105.8Z"/><path class="cls-2" d="M68.35,102.35a1.5,1.5,0,0,1,1,2.66l-.38.31A1.5,1.5,0,0,1,67,103l.39-.33a1.49,1.49,0,0,1,1-.34m0-.25a1.75,1.75,0,0,0-1.11.4l-.39.33a1.75,1.75,0,1,0,2.24,2.69l.38-.31a1.75,1.75,0,0,0-1.11-3.1Z"/><path class="cls-1" d="M85.82,94.93a1.63,1.63,0,0,1-1.53-1.08,1.62,1.62,0,0,1,1-2.08l.49-.17a1.62,1.62,0,1,1,1.06,3.07l-.45.16A1.61,1.61,0,0,1,85.82,94.93Z"/><path class="cls-2" d="M86.29,91.64a1.5,1.5,0,0,1,.49,2.92l-.46.16a1.5,1.5,0,0,1-1-2.82l.49-.17a1.49,1.49,0,0,1,.49-.08m0-.25a1.74,1.74,0,0,0-.57.1l-.49.17A1.75,1.75,0,1,0,86.41,95l.45-.16a1.75,1.75,0,0,0-.57-3.4Z"/><path class="cls-1" d="M113.19,114.69a1.63,1.63,0,0,1-1.57-2.05l.11-.44a1.62,1.62,0,0,1,1.58-1.24,1.64,1.64,0,0,1,.39,0,1.63,1.63,0,0,1,1.19,2c0,.17-.09.35-.14.52A1.63,1.63,0,0,1,113.19,114.69Z"/><path class="cls-2" d="M113.31,111.08a1.5,1.5,0,0,1,1.46,1.86q-.06.26-.13.52a1.5,1.5,0,1,1-2.89-.79l.12-.45a1.5,1.5,0,0,1,1.45-1.14m0-.25a1.74,1.74,0,0,0-1.7,1.33l-.11.44a1.75,1.75,0,1,0,3.38.92q.07-.26.14-.53a1.75,1.75,0,0,0-1.7-2.17Z"/><path class="cls-1" d="M76.44,99.6a1.63,1.63,0,0,1-.87-3l.44-.27a1.63,1.63,0,1,1,1.7,2.77l-.41.26A1.62,1.62,0,0,1,76.44,99.6Z"/><path class="cls-2" d="M76.86,96.22A1.5,1.5,0,0,1,77.65,99l-.41.26a1.5,1.5,0,1,1-1.59-2.54l.44-.27a1.5,1.5,0,0,1,.78-.22m0-.25a1.75,1.75,0,0,0-.91.26l-.44.27a1.75,1.75,0,1,0,1.86,3l.41-.26A1.75,1.75,0,0,0,76.86,96Z"/><path class="cls-1" d="M98.71,128.71a1.63,1.63,0,0,1-.53-3.16l.45-.16a1.63,1.63,0,0,1,1.11,3.05l-.5.17A1.62,1.62,0,0,1,98.71,128.71Z"/><path class="cls-2" d="M99.18,125.42a1.5,1.5,0,0,1,.51,2.91l-.49.17a1.5,1.5,0,0,1-1-2.83l.45-.16a1.49,1.49,0,0,1,.51-.09m0-.25a1.74,1.74,0,0,0-.6.11l-.45.16a1.75,1.75,0,1,0,1.15,3.31l.5-.18a1.75,1.75,0,0,0-.6-3.4Z"/><path class="cls-1" d="M106.48,96.22a1.62,1.62,0,0,1-.9-.27l-.37-.24a1.62,1.62,0,1,1,1.71-2.76l.46.3a1.63,1.63,0,0,1-.9,3Z"/><path class="cls-2" d="M106.07,92.83a1.49,1.49,0,0,1,.79.23l.46.3a1.5,1.5,0,0,1-1.67,2.5l-.38-.24a1.5,1.5,0,0,1,.79-2.77m0-.25a1.75,1.75,0,0,0-.92,3.24l.37.24a1.75,1.75,0,0,0,1.94-2.91l-.47-.3a1.74,1.74,0,0,0-.92-.26Z"/><path class="cls-1" d="M96,93.1a1.63,1.63,0,0,1,0-3.25l.58,0a1.63,1.63,0,0,1-.08,3.25Z"/><path class="cls-2" d="M96.09,90h0l.53,0a1.5,1.5,0,0,1-.07,3h-.08L96,93a1.5,1.5,0,0,1,0-3m0-.25a1.75,1.75,0,0,0,0,3.5l.47,0h.09a1.75,1.75,0,0,0,.09-3.5l-.54,0h-.05Z"/><path class="cls-1" d="M112.83,104.36a1.63,1.63,0,0,1-1.53-1.08l-.16-.42a1.62,1.62,0,0,1,3-1.19l.19.51a1.63,1.63,0,0,1-1.53,2.17Z"/><path class="cls-2" d="M112.65,100.77a1.5,1.5,0,0,1,1.4,1l.19.51a1.5,1.5,0,1,1-2.82,1l-.16-.43a1.5,1.5,0,0,1,1.4-2m0-.25a1.75,1.75,0,0,0-1.63,2.39l.16.42a1.75,1.75,0,0,0,3.29-1.18l-.19-.52a1.74,1.74,0,0,0-1.63-1.11Z"/><path class="cls-1" d="M88.43,130.71A1.63,1.63,0,0,1,87.2,128a1.61,1.61,0,0,1,1.11-.55l.48,0h.13a1.62,1.62,0,0,1,.13,3.24l-.51,0Z"/><path class="cls-2" d="M88.93,127.55a1.5,1.5,0,0,1,.12,3l-.51,0h-.11a1.5,1.5,0,0,1-.1-3l.48,0h.12m0-.25h-.14l-.48,0a1.75,1.75,0,0,0-1.62,1.87,1.75,1.75,0,0,0,1.74,1.63h.13l.51,0a1.75,1.75,0,0,0-.14-3.49Z"/><path class="cls-1" d="M15.9,125.6a1.62,1.62,0,0,1-.49-.07l-.49-.15a1.63,1.63,0,1,1,1-3.09l.46.15a1.63,1.63,0,0,1-.48,3.18Z"/><path class="cls-2" d="M15.42,122.32a1.5,1.5,0,0,1,.46.07l.47.15a1.5,1.5,0,1,1-.9,2.86l-.49-.15a1.5,1.5,0,0,1,.46-2.93m0-.25a1.75,1.75,0,0,0-.53,3.42l.49.15a1.75,1.75,0,1,0,1-3.34l-.46-.15a1.74,1.74,0,0,0-.53-.08Z"/><path class="cls-1" d="M.4,115.71l9.36,1-2,2.81a1.62,1.62,0,0,1-1.54,2.14L4.24,124.3Z"/><path class="cls-2" d="M.61,115.86l8.93.93-1.95,2.69a1.49,1.49,0,0,1-1.4,2H6.12l-1.85,2.56L.61,115.86m-.4-.29.18.4L4,124.16l.18.4.25-.35,1.77-2.45a1.74,1.74,0,0,0,1.62-2.24l1.87-2.58.25-.35-.43,0-8.93-.93-.43,0Z"/><path class="cls-1" d="M26.08,128.17a1.64,1.64,0,0,1-.32,0l-.5-.1a1.62,1.62,0,0,1,.33-3.22,1.66,1.66,0,0,1,.33,0l.48.1a1.63,1.63,0,0,1-.31,3.22Z"/><path class="cls-2" d="M25.59,124.95a1.51,1.51,0,0,1,.3,0l.48.1a1.5,1.5,0,0,1-.29,3l-.29,0-.5-.1a1.5,1.5,0,0,1,.3-3m0-.25a1.75,1.75,0,0,0-.35,3.46l.5.1a1.8,1.8,0,0,0,.34,0,1.75,1.75,0,0,0,.34-3.47l-.48-.1a1.77,1.77,0,0,0-.35,0Z"/><path class="cls-1" d="M40.31,49.68a1.63,1.63,0,0,1-1.62-1.51l0-.49a1.63,1.63,0,0,1,1.5-1.74h.12a1.63,1.63,0,0,1,1.62,1.51l0,.5a1.62,1.62,0,0,1-1.51,1.73Z"/><path class="cls-2" d="M40.27,46.05a1.5,1.5,0,0,1,1.5,1.39l0,.5a1.5,1.5,0,0,1-1.39,1.6h-.11a1.5,1.5,0,0,1-1.49-1.39l0-.49a1.5,1.5,0,0,1,1.39-1.61h.11m0-.25h-.12a1.75,1.75,0,0,0-1.62,1.87l0,.49a1.75,1.75,0,0,0,1.74,1.63h.13a1.75,1.75,0,0,0,1.62-1.87l0-.5a1.76,1.76,0,0,0-1.75-1.62Z"/><path class="cls-1" d="M44.05,102.09a1.63,1.63,0,0,1-1.62-1.51l0-.5a1.62,1.62,0,0,1,1.51-1.73H44a1.6,1.6,0,0,1,1.6,1.51l0,.5a1.62,1.62,0,0,1-1.51,1.73Z"/><path class="cls-2" d="M44,98.46a1.49,1.49,0,0,1,1.48,1.4l0,.5a1.5,1.5,0,0,1-1.39,1.6h-.11a1.5,1.5,0,0,1-1.49-1.39l0-.5a1.5,1.5,0,0,1,1.39-1.6H44m0-.25h-.14a1.75,1.75,0,0,0-1.62,1.87l0,.5a1.75,1.75,0,0,0,1.74,1.63h.13a1.75,1.75,0,0,0,1.62-1.87l0-.5A1.73,1.73,0,0,0,44,98.21Z"/><path class="cls-1" d="M39.55,39.2a1.63,1.63,0,0,1-1.62-1.51l0-.49a1.63,1.63,0,0,1,1.5-1.74h.11A1.64,1.64,0,0,1,41.13,37l0,.5a1.62,1.62,0,0,1-1.51,1.73Z"/><path class="cls-2" d="M39.5,35.57A1.51,1.51,0,0,1,41,37l0,.5a1.5,1.5,0,0,1-1.39,1.6h-.11a1.5,1.5,0,0,1-1.49-1.39l0-.49a1.5,1.5,0,0,1,1.39-1.61h.1m0-.25h-.11a1.75,1.75,0,0,0-1.62,1.87l0,.49a1.75,1.75,0,0,0,1.74,1.63h.13a1.75,1.75,0,0,0,1.62-1.87l0-.5a1.76,1.76,0,0,0-1.76-1.62Z"/><path class="cls-1" d="M41.82,70.64a1.63,1.63,0,0,1-1.62-1.51l0-.5a1.62,1.62,0,0,1,1.5-1.74h.11A1.64,1.64,0,0,1,43.4,68.4l0,.5a1.62,1.62,0,0,1-1.51,1.73Z"/><path class="cls-2" d="M41.77,67a1.51,1.51,0,0,1,1.51,1.39l0,.5a1.5,1.5,0,0,1-1.39,1.6h-.11a1.5,1.5,0,0,1-1.49-1.39l0-.5A1.5,1.5,0,0,1,41.67,67h.1m0-.25h-.11A1.75,1.75,0,0,0,40,68.64l0,.5a1.75,1.75,0,0,0,1.74,1.63h.13a1.75,1.75,0,0,0,1.62-1.87l0-.5a1.76,1.76,0,0,0-1.76-1.62Z"/><path class="cls-1" d="M44.78,112.57a1.63,1.63,0,0,1-1.62-1.51l0-.5a1.63,1.63,0,0,1,1.51-1.73h.11a1.63,1.63,0,0,1,1.62,1.51l0,.5a1.62,1.62,0,0,1-1.51,1.73Z"/><path class="cls-2" d="M44.75,108.95a1.5,1.5,0,0,1,1.5,1.4l0,.5a1.5,1.5,0,0,1-1.39,1.6h-.1a1.5,1.5,0,0,1-1.5-1.4l0-.5a1.5,1.5,0,0,1,1.39-1.6h.1m0-.25h-.12A1.75,1.75,0,0,0,43,110.57l0,.5a1.75,1.75,0,0,0,1.74,1.63h.12a1.75,1.75,0,0,0,1.63-1.87l0-.5a1.76,1.76,0,0,0-1.75-1.63Z"/><path class="cls-1" d="M38.78,28.71a1.63,1.63,0,0,1-1.62-1.51l0-.49A1.63,1.63,0,0,1,38.63,25h.11a1.64,1.64,0,0,1,1.63,1.5l0,.5a1.62,1.62,0,0,1-1.51,1.73Z"/><path class="cls-2" d="M38.74,25.09a1.51,1.51,0,0,1,1.51,1.39l0,.5a1.5,1.5,0,0,1-1.39,1.6h-.11a1.5,1.5,0,0,1-1.49-1.39l0-.49a1.5,1.5,0,0,1,1.39-1.61h.1m0-.25h-.11A1.75,1.75,0,0,0,37,26.72l0,.49a1.75,1.75,0,0,0,1.74,1.63h.13A1.75,1.75,0,0,0,40.53,27l0-.5a1.76,1.76,0,0,0-1.76-1.62Z"/><path class="cls-1" d="M42.57,81.12a1.63,1.63,0,0,1-1.62-1.51l0-.5a1.62,1.62,0,0,1,1.51-1.73h.13a1.6,1.6,0,0,1,1.6,1.51l0,.49a1.63,1.63,0,0,1-1.5,1.74Z"/><path class="cls-2" d="M42.55,77.5A1.49,1.49,0,0,1,44,78.89l0,.49A1.5,1.5,0,0,1,42.68,81h-.11a1.5,1.5,0,0,1-1.49-1.39l0-.5a1.5,1.5,0,0,1,1.39-1.6h.12m0-.25h-.14a1.75,1.75,0,0,0-1.62,1.87l0,.5a1.76,1.76,0,0,0,1.74,1.62h.13a1.75,1.75,0,0,0,1.62-1.87l0-.49a1.73,1.73,0,0,0-1.73-1.63Z"/><path class="cls-1" d="M38,18.23a1.63,1.63,0,0,1-1.62-1.51l0-.49a1.63,1.63,0,0,1,1.5-1.74H38A1.64,1.64,0,0,1,39.6,16l0,.5a1.62,1.62,0,0,1-1.51,1.73Z"/><path class="cls-2" d="M38,14.61A1.5,1.5,0,0,1,39.48,16l0,.5a1.5,1.5,0,0,1-1.39,1.6H38a1.5,1.5,0,0,1-1.49-1.4l0-.49a1.5,1.5,0,0,1,1.39-1.61H38m0-.25h-.11a1.75,1.75,0,0,0-1.62,1.87l0,.49A1.75,1.75,0,0,0,38,18.35h.13a1.75,1.75,0,0,0,1.62-1.87l0-.5A1.76,1.76,0,0,0,38,14.36Z"/><path class="cls-1" d="M41.06,60.16a1.63,1.63,0,0,1-1.62-1.51l0-.5a1.62,1.62,0,0,1,1.51-1.74H41a1.62,1.62,0,0,1,1.6,1.51l0,.49a1.63,1.63,0,0,1-1.5,1.74Z"/><path class="cls-2" d="M41,56.53a1.5,1.5,0,0,1,1.48,1.4l0,.49A1.5,1.5,0,0,1,41.18,60h-.11a1.5,1.5,0,0,1-1.49-1.39l0-.5a1.5,1.5,0,0,1,1.39-1.6H41m0-.25H40.9a1.75,1.75,0,0,0-1.62,1.87l0,.5a1.76,1.76,0,0,0,1.74,1.62h.13a1.75,1.75,0,0,0,1.62-1.87l0-.49A1.75,1.75,0,0,0,41,56.28Z"/><path class="cls-1" d="M43.31,91.6a1.63,1.63,0,0,1-1.62-1.51l0-.5a1.62,1.62,0,0,1,1.51-1.73h.13a1.62,1.62,0,0,1,1.61,1.51l0,.5a1.62,1.62,0,0,1-1.51,1.73Z"/><path class="cls-2" d="M43.29,88a1.49,1.49,0,0,1,1.48,1.4l0,.5a1.5,1.5,0,0,1-1.39,1.6h-.11a1.5,1.5,0,0,1-1.49-1.39l0-.5A1.5,1.5,0,0,1,43.17,88h.12m0-.25h-.14a1.75,1.75,0,0,0-1.62,1.87l0,.5a1.75,1.75,0,0,0,1.74,1.63h.13a1.75,1.75,0,0,0,1.62-1.87l0-.5a1.75,1.75,0,0,0-1.73-1.63Z"/><path class="cls-1" d="M37.23,11.78a5.76,5.76,0,1,1,4.23-1.84,5.75,5.75,0,0,1-4.23,1.84Z"/><path class="cls-2" d="M37.23.38a5.64,5.64,0,1,1-4.13,1.8A5.62,5.62,0,0,1,37.23.38m0-.25a5.89,5.89,0,1,0,4,1.57,5.91,5.91,0,0,0-4-1.57Z"/><polygon class="cls-1" points="40.37 115.25 49.75 114.6 45.62 123.05 40.37 115.25"/><path class="cls-2" d="M49.54,114.74,45.6,122.8l-5-7.44,9-.62m.41-.28-.43,0-9,.62-.43,0,.24.36,5,7.44.24.36.19-.39,3.94-8.06.19-.39Z"/><text class="cls-3" transform="translate(35.81 7.8)">1</text><text class="cls-3" transform="translate(41.14 133.8)">2</text></g></g></svg>