<svg xmlns="http://www.w3.org/2000/svg" viewBox="0 0 98.36 130.59"><defs><style>.cls-1{fill:#fff;stroke:#00c2ff;stroke-miterlimit:10;stroke-width:0.5px;}.cls-2,.cls-3{fill:#00c2ff;}.cls-3{font-size:6.75px;font-family:Linotte-SemiBold, Linotte-SemiBold;}</style></defs><title>18-ain-guide trace</title><g id="Layer_2" data-name="Layer 2"><g id="Guide_Trace" data-name="Guide Trace"><path class="cls-1" d="M61.59,129.06a1.63,1.63,0,0,1-.31-3.22l.48-.1a1.63,1.63,0,0,1,.65,3.19l-.5.1A1.63,1.63,0,0,1,61.59,129.06Z"/><path class="cls-2" d="M62.08,125.84a1.5,1.5,0,0,1,.3,3l-.5.1-.29,0a1.5,1.5,0,0,1-.29-3l.48-.1.3,0m0-.25a1.78,1.78,0,0,0-.35,0l-.48.1a1.75,1.75,0,1,0,.68,3.43l.5-.1a1.75,1.75,0,0,0-.35-3.46Z"/><path class="cls-1" d="M6.19,21.85l-.31,0a1.62,1.62,0,0,1-1.29-1.9q.05-.26.11-.53a1.63,1.63,0,0,1,1.59-1.28,1.63,1.63,0,0,1,1.59,2l-.09.45A1.63,1.63,0,0,1,6.19,21.85Z"/><path class="cls-2" d="M6.28,18.24a1.5,1.5,0,0,1,1.47,1.82l-.09.46a1.5,1.5,0,0,1-1.47,1.22l-.29,0a1.5,1.5,0,0,1-1.19-1.76q.05-.26.11-.53a1.5,1.5,0,0,1,1.46-1.18m0-.25a1.76,1.76,0,0,0-1.71,1.38q-.06.27-.11.53a1.75,1.75,0,0,0,1.39,2A1.75,1.75,0,0,0,7.9,20.56L8,20.11A1.75,1.75,0,0,0,6.28,18Z"/><path class="cls-1" d="M81.34,122.12a1.63,1.63,0,0,1-.76-3.06l.43-.23a1.62,1.62,0,0,1,1.54,2.86l-.46.24A1.63,1.63,0,0,1,81.34,122.12Z"/><path class="cls-2" d="M81.78,118.76a1.5,1.5,0,0,1,.71,2.82l-.46.24a1.5,1.5,0,0,1-1.39-2.66l.43-.23a1.49,1.49,0,0,1,.71-.18m0-.25a1.75,1.75,0,0,0-.83.21l-.43.23a1.75,1.75,0,1,0,1.63,3.1l.46-.24a1.75,1.75,0,0,0-.83-3.29Z"/><path class="cls-1" d="M6.78,69.57a1.63,1.63,0,0,1-1.47-2.32l.22-.46A1.63,1.63,0,0,1,7,65.86,1.6,1.6,0,0,1,7.7,66a1.63,1.63,0,0,1,.76,2.17l-.21.44A1.63,1.63,0,0,1,6.78,69.57Z"/><path class="cls-2" d="M7,66a1.5,1.5,0,0,1,1.35,2.15l-.21.44A1.5,1.5,0,0,1,5.42,67.3l.22-.46A1.5,1.5,0,0,1,7,66m0-.25a1.76,1.76,0,0,0-1.58,1l-.22.46a1.75,1.75,0,1,0,3.16,1.5l.21-.44A1.75,1.75,0,0,0,7,65.74Z"/><path class="cls-1" d="M53.64,34.21A1.63,1.63,0,0,1,53.33,31l.51-.1.3,0a1.63,1.63,0,0,1,.29,3.22l-.48.09A1.65,1.65,0,0,1,53.64,34.21Z"/><path class="cls-2" d="M54.14,31a1.5,1.5,0,0,1,.27,3l-.48.09-.29,0a1.5,1.5,0,0,1-.28-3l.51-.1.27,0m0-.25a1.74,1.74,0,0,0-.32,0l-.51.1a1.75,1.75,0,0,0,.33,3.47,1.77,1.77,0,0,0,.33,0l.48-.09a1.75,1.75,0,0,0-.31-3.47Z"/><path class="cls-1" d="M51.18,130.34a1.63,1.63,0,0,1-.08-3.25l.49,0a1.65,1.65,0,0,1,1.71,1.53,1.63,1.63,0,0,1-1.53,1.72Z"/><path class="cls-2" d="M51.67,127.19a1.5,1.5,0,0,1,.1,3l-.51,0h-.08a1.5,1.5,0,0,1-.07-3l.49,0h.07m0-.25h-.09l-.49,0a1.75,1.75,0,0,0,.09,3.5h.09l.51,0a1.75,1.75,0,0,0-.11-3.5Z"/><path class="cls-1" d="M36.86,41.47a1.63,1.63,0,0,1-1.47-.92,1.61,1.61,0,0,1-.77.36l-.49.09-.28,0a1.63,1.63,0,0,1-.28-3.23l.49-.09.28,0a1.62,1.62,0,0,1,1.47.92,1.63,1.63,0,0,1,.36-.23l.46-.21a1.61,1.61,0,0,1,.68-.15,1.63,1.63,0,0,1,.68,3.1l-.45.21A1.6,1.6,0,0,1,36.86,41.47Z"/><path class="cls-2" d="M34.34,37.81a1.51,1.51,0,0,1,1.42,1,1.5,1.5,0,0,1,.46-.34l.46-.21A1.5,1.5,0,1,1,37.94,41l-.45.21a1.5,1.5,0,0,1-2-.73l-.06-.15a1.49,1.49,0,0,1-.84.45l-.49.09-.26,0a1.5,1.5,0,0,1-.26-3l.49-.09.26,0m0-.25h0l-.3,0-.49.09a1.75,1.75,0,0,0,.3,3.47l.3,0,.49-.09a1.74,1.74,0,0,0,.71-.29,1.76,1.76,0,0,0,1.51.86,1.73,1.73,0,0,0,.74-.16l.45-.21A1.75,1.75,0,1,0,36.58,38l-.46.21a1.78,1.78,0,0,0-.27.16,1.75,1.75,0,0,0-1.51-.86Z"/><path class="cls-1" d="M41,130.12l-.51-.05a1.63,1.63,0,0,1,.16-3.24h.17l.49,0a1.63,1.63,0,0,1-.16,3.24Z"/><path class="cls-2" d="M40.69,126.95h.16l.49,0a1.5,1.5,0,0,1-.14,3H41l-.5-.05a1.5,1.5,0,0,1,.15-3m0-.25a1.75,1.75,0,0,0-.18,3.49l.51.05h.17a1.75,1.75,0,0,0,.17-3.49l-.49,0Z"/><path class="cls-1" d="M3.32,79.45a1.63,1.63,0,0,1-1.58-2l.12-.5A1.62,1.62,0,1,1,5,77.74l-.11.47A1.62,1.62,0,0,1,3.32,79.45Z"/><path class="cls-2" d="M3.44,75.84A1.5,1.5,0,0,1,4.9,77.71l-.11.47a1.5,1.5,0,0,1-2.92-.69L2,77a1.5,1.5,0,0,1,1.45-1.14m0-.25a1.74,1.74,0,0,0-1.69,1.33l-.12.5A1.75,1.75,0,1,0,5,78.23l.11-.47a1.75,1.75,0,0,0-1.7-2.17Z"/><path class="cls-1" d="M21.14,124.37a1.63,1.63,0,0,1-.75-.19l-.45-.24a1.63,1.63,0,0,1,.77-3.06,1.63,1.63,0,0,1,.77.19l.43.23a1.63,1.63,0,0,1-.76,3.06Z"/><path class="cls-2" d="M20.7,121a1.5,1.5,0,0,1,.71.18l.43.23a1.5,1.5,0,1,1-1.39,2.66l-.45-.24A1.5,1.5,0,0,1,20.7,121m0-.25a1.75,1.75,0,0,0-.83,3.29l.46.24a1.75,1.75,0,1,0,1.63-3.1l-.43-.23a1.76,1.76,0,0,0-.83-.21Z"/><path class="cls-1" d="M6.75,32.21a1.64,1.64,0,0,1-1.52-1L5,30.64a1.63,1.63,0,0,1,3.08-1.05l.15.41a1.63,1.63,0,0,1-1.52,2.21Z"/><path class="cls-2" d="M6.58,28.61a1.5,1.5,0,0,1,1.42,1l.15.41a1.5,1.5,0,1,1-2.8,1.08L5.29,31l-.13-.35a1.5,1.5,0,0,1,1.42-2m0-.25a1.75,1.75,0,0,0-1.66,2.32l.13.36.07.17a1.76,1.76,0,0,0,1.63,1.12A1.75,1.75,0,0,0,8.39,30l-.15-.41a1.75,1.75,0,0,0-1.66-1.18Z"/><path class="cls-1" d="M27.67,46.54a1.62,1.62,0,0,1-.88-3l.42-.27A1.63,1.63,0,0,1,29,46l-.42.27A1.62,1.62,0,0,1,27.67,46.54Z"/><path class="cls-2" d="M28.08,43.14a1.5,1.5,0,0,1,.81,2.77l-.42.27a1.5,1.5,0,1,1-1.62-2.52l.42-.27a1.49,1.49,0,0,1,.8-.24m0-.25a1.74,1.74,0,0,0-.94.28l-.42.27a1.75,1.75,0,1,0,1.89,2.95l.42-.27a1.75,1.75,0,0,0-.94-3.23Z"/><path class="cls-1" d="M30.89,128.21a1.61,1.61,0,0,1-.44-.06l-.49-.14a1.63,1.63,0,0,1,.91-3.12l.47.13a1.63,1.63,0,0,1-.44,3.19Z"/><path class="cls-2" d="M30.41,124.95a1.52,1.52,0,0,1,.42.06l.47.13a1.5,1.5,0,1,1-.82,2.89l-.49-.14a1.5,1.5,0,0,1,.42-2.94m0-.25a1.75,1.75,0,0,0-.49,3.43l.49.14a1.75,1.75,0,1,0,1-3.37l-.46-.13a1.77,1.77,0,0,0-.49-.07Z"/><path class="cls-1" d="M71.72,126.31a1.63,1.63,0,0,1-.54-3.16l.46-.16a1.62,1.62,0,0,1,1.1,3.06l-.49.17A1.62,1.62,0,0,1,71.72,126.31Z"/><path class="cls-2" d="M72.19,123a1.5,1.5,0,0,1,.51,2.91l-.49.17a1.5,1.5,0,1,1-1-2.83l.46-.16a1.51,1.51,0,0,1,.51-.09m0-.25a1.75,1.75,0,0,0-.59.1l-.46.16a1.75,1.75,0,1,0,1.16,3.3l.49-.17a1.75,1.75,0,0,0-.59-3.4Z"/><path class="cls-1" d="M10.45,12.37A1.62,1.62,0,0,1,9.2,9.72l.35-.42A1.62,1.62,0,1,1,12,11.43l-.29.34A1.62,1.62,0,0,1,10.45,12.37Z"/><path class="cls-2" d="M10.77,8.87a1.5,1.5,0,0,1,1.13,2.48l-.29.35A1.5,1.5,0,1,1,9.29,9.8l.35-.42a1.5,1.5,0,0,1,1.13-.51m0-.25a1.75,1.75,0,0,0-1.32.6l-.36.42a1.75,1.75,0,0,0,2.71,2.22l.29-.34a1.75,1.75,0,0,0-1.32-2.9Z"/><path class="cls-1" d="M12.22,60.61a1.61,1.61,0,0,1-1-.33A1.63,1.63,0,0,1,10.92,58l.31-.4a1.63,1.63,0,1,1,2.58,2l-.3.39A1.61,1.61,0,0,1,12.22,60.61Z"/><path class="cls-2" d="M12.52,57.09a1.5,1.5,0,0,1,1.19,2.42l-.3.39A1.5,1.5,0,1,1,11,58.07l.31-.4a1.5,1.5,0,0,1,1.19-.58m0-.25a1.74,1.74,0,0,0-1.39.68l-.31.41a1.75,1.75,0,0,0,.33,2.45A1.75,1.75,0,0,0,13.61,60l.3-.39a1.75,1.75,0,0,0-.32-2.45,1.73,1.73,0,0,0-1.07-.36Z"/><path class="cls-1" d="M13.73,39.72a1.61,1.61,0,0,1-.73-.17l-.48-.25a1.63,1.63,0,0,1,1.54-2.86l.4.21a1.63,1.63,0,0,1-.73,3.08Z"/><path class="cls-2" d="M13.29,36.37a1.5,1.5,0,0,1,.71.18l.41.21a1.5,1.5,0,1,1-1.35,2.68l-.48-.25a1.5,1.5,0,0,1,.71-2.82m0-.25a1.75,1.75,0,0,0-.83,3.29l.49.25a1.75,1.75,0,1,0,1.57-3.13l-.4-.21a1.76,1.76,0,0,0-.83-.21Z"/><path class="cls-1" d="M12.57,118.35a1.62,1.62,0,0,1-1.11-.44l-.38-.36a1.62,1.62,0,1,1,2.25-2.34l.35.33a1.62,1.62,0,0,1-1.11,2.81Z"/><path class="cls-2" d="M12.21,114.88a1.49,1.49,0,0,1,1,.42l.35.33a1.5,1.5,0,1,1-2,2.19l-.38-.36a1.5,1.5,0,0,1,1-2.58m0-.25a1.75,1.75,0,0,0-1.21,3l.38.36a1.75,1.75,0,1,0,2.39-2.55l-.35-.33a1.74,1.74,0,0,0-1.21-.49Z"/><path class="cls-1" d="M2.58,100.28A1.63,1.63,0,0,1,1,99l-.1-.51a1.62,1.62,0,0,1,1.3-1.9l.3,0a1.63,1.63,0,0,1,1.59,1.33l.09.48a1.63,1.63,0,0,1-1.28,1.91A1.65,1.65,0,0,1,2.58,100.28Z"/><path class="cls-2" d="M2.49,96.66A1.5,1.5,0,0,1,4,97.89l.09.48a1.5,1.5,0,0,1-1.18,1.76l-.29,0a1.5,1.5,0,0,1-1.47-1.21L1,98.44a1.5,1.5,0,0,1,1.2-1.75l.28,0m0-.25A1.75,1.75,0,0,0,.77,98.49l.1.51a1.75,1.75,0,0,0,1.72,1.41,1.79,1.79,0,0,0,.34,0A1.75,1.75,0,0,0,4.3,98.31l-.09-.48a1.75,1.75,0,0,0-1.72-1.43Z"/><path class="cls-1" d="M1.79,89.83a1.63,1.63,0,0,1-1.54-1.7l0-.51a1.63,1.63,0,0,1,1.63-1.53,1.66,1.66,0,0,1,1.21.54,1.62,1.62,0,0,1,.41,1.17l0,.49a1.62,1.62,0,0,1-1.62,1.54Z"/><path class="cls-2" d="M1.91,86.21H2A1.5,1.5,0,0,1,3.4,87.79l0,.49a1.5,1.5,0,0,1-1.5,1.43H1.8A1.5,1.5,0,0,1,.38,88.13l0-.51a1.51,1.51,0,0,1,1.5-1.42m0-.25A1.75,1.75,0,0,0,.15,87.61l0,.51A1.75,1.75,0,0,0,1.79,90h.09A1.75,1.75,0,0,0,3.62,88.3l0-.49A1.75,1.75,0,0,0,2,86Z"/><path class="cls-1" d="M6.15,110.11a1.63,1.63,0,0,1-1.42-.84l-.25-.47a1.63,1.63,0,0,1,2.87-1.52l.22.41a1.63,1.63,0,0,1-1.42,2.41Z"/><path class="cls-2" d="M5.91,106.55a1.5,1.5,0,0,1,1.33.8l.22.41a1.5,1.5,0,1,1-2.62,1.46l-.25-.47a1.5,1.5,0,0,1,1.32-2.2m0-.25a1.75,1.75,0,0,0-1.54,2.57l.26.47a1.75,1.75,0,0,0,3.06-1.7l-.22-.41a1.75,1.75,0,0,0-1.55-.93Z"/><path class="cls-1" d="M23.35,41.91a1.62,1.62,0,0,1-1.57-1.68,1.66,1.66,0,0,1,1.66-1.57h.5a1.62,1.62,0,0,1,1.59,1.66,1.63,1.63,0,0,1-1.62,1.59Z"/><path class="cls-2" d="M23.44,38.79h.5a1.5,1.5,0,0,1,0,3h-.55a1.5,1.5,0,0,1-1.45-1.55,1.53,1.53,0,0,1,1.53-1.45m0-.25a1.78,1.78,0,0,0-1.78,1.69A1.75,1.75,0,0,0,23.35,42h.52a1.77,1.77,0,0,0,1.79-1.71,1.75,1.75,0,0,0-1.71-1.78h-.5Z"/><path class="cls-1" d="M29.57,5.94a1.62,1.62,0,0,1,.09-3.25l.58,0A1.63,1.63,0,0,1,30.15,6Z"/><path class="cls-2" d="M29.67,2.82h.05l.52,0a1.5,1.5,0,0,1-.09,3h-.09l-.48,0a1.5,1.5,0,0,1,.09-3m0-.25a1.75,1.75,0,0,0-.1,3.5l.48,0h.11a1.75,1.75,0,0,0,.11-3.5l-.52,0Z"/><path class="cls-1" d="M19.25,7a1.63,1.63,0,0,1-1.56-1.18,1.62,1.62,0,0,1,1.12-2l.51-.14a1.65,1.65,0,0,1,.41-.05,1.62,1.62,0,0,1,.41,3.2l-.45.12A1.62,1.62,0,0,1,19.25,7Z"/><path class="cls-2" d="M19.73,3.71a1.5,1.5,0,0,1,.38,3l-.45.12a1.5,1.5,0,1,1-.82-2.89l.51-.14a1.52,1.52,0,0,1,.38,0m0-.25a1.77,1.77,0,0,0-.44.06l-.52.14a1.75,1.75,0,1,0,1,3.37l.45-.12a1.75,1.75,0,0,0-.45-3.44Z"/><path class="cls-1" d="M46.63,37.65a1.62,1.62,0,0,1-1.55-1.12v0a1.63,1.63,0,0,1-.52.3l-.46.16A1.62,1.62,0,1,1,43,33.89l.48-.17a1.63,1.63,0,0,1,2.07,1l0,.08a1.63,1.63,0,0,1,.56-.31l.49-.16a1.62,1.62,0,0,1,1.93,2.3,1.61,1.61,0,0,1-1,.8l-.46.15A1.62,1.62,0,0,1,46.63,37.65Z"/><path class="cls-2" d="M44,33.75a1.5,1.5,0,0,1,1.42,1,1.55,1.55,0,0,1,.07.29,1.49,1.49,0,0,1,.67-.44l.49-.16a1.5,1.5,0,0,1,.9,2.86l-.46.15a1.5,1.5,0,0,1-1.95-1.22,1.49,1.49,0,0,1-.64.43l-.46.16A1.5,1.5,0,1,1,43,34l.48-.17a1.51,1.51,0,0,1,.5-.08m0-.25h0a1.75,1.75,0,0,0-.58.1l-.49.17a1.75,1.75,0,1,0,1.19,3.29l.46-.16a1.75,1.75,0,0,0,.42-.21,1.75,1.75,0,0,0,2.16,1l.46-.15a1.75,1.75,0,1,0-1-3.34l-.49.16a1.75,1.75,0,0,0-.46.23A1.75,1.75,0,0,0,44,33.5Z"/><path class="cls-1" d="M19.32,52.9a1.62,1.62,0,0,1-1.09-2.83l.38-.34a1.63,1.63,0,1,1,2.16,2.43l-.36.32A1.62,1.62,0,0,1,19.32,52.9Z"/><path class="cls-2" d="M19.7,49.44a1.5,1.5,0,0,1,1,2.62l-.36.33a1.5,1.5,0,0,1-2-2.23l.38-.34a1.5,1.5,0,0,1,1-.38m0-.25a1.75,1.75,0,0,0-1.16.44l-.38.34a1.75,1.75,0,1,0,2.34,2.6l.36-.32a1.75,1.75,0,0,0-1.16-3.06Z"/><path class="cls-1" d="M91.69,115.81l-.09.08-.41.31a1.62,1.62,0,0,1-2.27-.33,1.63,1.63,0,0,1,.33-2.27l.39-.29a1.55,1.55,0,0,1,.49-.25l-1.6-2.82,9.41.06-4.75,8.12Z"/><path class="cls-2" d="M88.73,110.36l9,.06-4.54,7.74-1.45-2.55a1.51,1.51,0,0,1-.19.18l-.41.31a1.5,1.5,0,0,1-1.8-2.4l.39-.29a1.48,1.48,0,0,1,.6-.27l-1.58-2.77m-.43-.25.21.38,1.42,2.5a1.68,1.68,0,0,0-.38.22l-.39.29a1.75,1.75,0,0,0,2.1,2.8l.39-.3,1.3,2.28.21.38.22-.37,4.54-7.74.22-.37h-.43l-9-.06Z"/><path class="cls-1" d="M40,11.78a5.77,5.77,0,0,1-5.58-5.94A5.74,5.74,0,0,1,40.2.25h.18A5.77,5.77,0,0,1,46,6.19a5.74,5.74,0,0,1-5.76,5.58Z"/><path class="cls-2" d="M40.2.38h.18a5.64,5.64,0,0,1-.17,11.28H40A5.64,5.64,0,0,1,40.2.38m0-.25A5.89,5.89,0,0,0,35.91,10,5.85,5.85,0,0,0,40,11.9h.19A5.89,5.89,0,0,0,44.5,2,5.85,5.85,0,0,0,40.39.13Z"/><text class="cls-3" transform="translate(38.99 8.25)">1</text></g></g></svg>