<svg xmlns="http://www.w3.org/2000/svg" viewBox="0 0 93.66 143.16"><defs><style>.cls-1{fill:#fff;stroke:#00c2ff;stroke-miterlimit:10;stroke-width:0.5px;}.cls-2,.cls-3{fill:#00c2ff;}.cls-3{font-size:6.75px;font-family:Linotte-SemiBold, Linotte-SemiBold;}</style></defs><title>19-ghain-guide trace</title><g id="Layer_2" data-name="Layer 2"><g id="Guide_Trace" data-name="Guide Trace"><circle class="cls-1" cx="24.47" cy="2.21" r="1.96"/><path class="cls-2" d="M24.47.38a1.83,1.83,0,1,1-1.83,1.83A1.83,1.83,0,0,1,24.47.38m0-.25a2.08,2.08,0,1,0,2.08,2.08A2.09,2.09,0,0,0,24.47.13Z"/><path class="cls-1" d="M26.1,58.64a1.63,1.63,0,0,1-.1-3.25l.61,0A1.63,1.63,0,0,1,27.83,58a1.61,1.61,0,0,1-1.11.56l-.52,0Z"/><path class="cls-2" d="M26.6,55.48a1.5,1.5,0,0,1,.11,3l-.52,0h-.1a1.5,1.5,0,0,1-.1-3l.48,0h.12m0-.25h-.14l-.47,0a1.75,1.75,0,0,0,.11,3.5h.11l.52,0a1.75,1.75,0,0,0,1.61-1.88,1.76,1.76,0,0,0-1.74-1.61Z"/><path class="cls-1" d="M52,52.61a1.63,1.63,0,0,1-1-2.89A1.6,1.6,0,0,1,52.37,49a1.62,1.62,0,0,1,1.51,2.23,2.37,2.37,0,0,1-1,1.18A1.62,1.62,0,0,1,52,52.61Z"/><path class="cls-2" d="M52.37,49.11a1.5,1.5,0,0,1,1.39,2.06,2.24,2.24,0,0,1-1,1.12,1.61,1.61,0,1,1-.41-3.18m0-.25a2,2,0,1,0,.53,3.64A2.49,2.49,0,0,0,54,51.26a1.75,1.75,0,0,0-1.62-2.4Z"/><path class="cls-1" d="M17.09,25.84a1.63,1.63,0,0,1-.54-3.16l.51-.17a1.62,1.62,0,0,1,2,1,1.63,1.63,0,0,1-1,2l-.44.15A1.64,1.64,0,0,1,17.09,25.84Z"/><path class="cls-2" d="M17.57,22.56A1.5,1.5,0,0,1,18,25.49l-.44.15a1.5,1.5,0,0,1-1-2.83l.51-.17a1.49,1.49,0,0,1,.46-.07m0-.25a1.74,1.74,0,0,0-.54.09l-.51.17a1.75,1.75,0,1,0,1.15,3.31l.43-.15a1.75,1.75,0,0,0-.54-3.42Z"/><path class="cls-1" d="M78,134.73a1.63,1.63,0,0,1-.77-3.06l.43-.23a1.63,1.63,0,0,1,1.56,2.85l-.45.24A1.63,1.63,0,0,1,78,134.73Z"/><path class="cls-2" d="M78.46,131.37a1.5,1.5,0,0,1,.72,2.82l-.45.24a1.5,1.5,0,1,1-1.42-2.64l.43-.23a1.5,1.5,0,0,1,.72-.18m0-.25a1.76,1.76,0,0,0-.84.21l-.43.23a1.75,1.75,0,1,0,1.66,3.08l.45-.24a1.75,1.75,0,0,0-.84-3.29Z"/><path class="cls-1" d="M23.38,65.14a1.62,1.62,0,0,1-1-2.94l.41-.3a1.62,1.62,0,1,1,1.89,2.64l-.4.29A1.61,1.61,0,0,1,23.38,65.14Z"/><path class="cls-2" d="M23.79,61.73a1.5,1.5,0,0,1,.87,2.72l-.4.29A1.5,1.5,0,1,1,22.5,62.3l.41-.3a1.49,1.49,0,0,1,.87-.28m0-.25a1.74,1.74,0,0,0-1,.33l-.42.3A1.75,1.75,0,0,0,22,64.55a1.76,1.76,0,0,0,1.42.72,1.74,1.74,0,0,0,1-.33l.4-.28a1.75,1.75,0,0,0,.41-2.44,1.75,1.75,0,0,0-1.42-.73Z"/><path class="cls-1" d="M27.65,140.31a1.63,1.63,0,0,1-.5-.08l-.48-.16a1.62,1.62,0,0,1,1-3.08l.46.15a1.63,1.63,0,0,1-.5,3.17Z"/><path class="cls-2" d="M27.18,137a1.51,1.51,0,0,1,.47.08l.46.15a1.5,1.5,0,1,1-.92,2.85l-.48-.16a1.5,1.5,0,0,1,.47-2.92m0-.25a1.75,1.75,0,0,0-.55,3.41l.48.16A1.75,1.75,0,1,0,28.19,137l-.46-.15a1.75,1.75,0,0,0-.55-.09Z"/><path class="cls-1" d="M68.43,139a1.63,1.63,0,0,1-.54-3.16l.46-.17a1.62,1.62,0,0,1,1.1,3.06l-.48.17A1.61,1.61,0,0,1,68.43,139Z"/><path class="cls-2" d="M68.9,135.68a1.5,1.5,0,0,1,.51,2.91l-.48.17a1.5,1.5,0,1,1-1-2.83l.46-.17a1.5,1.5,0,0,1,.51-.09m0-.25a1.74,1.74,0,0,0-.6.1l-.46.16A1.75,1.75,0,1,0,69,139l.48-.17a1.75,1.75,0,0,0-.59-3.4Z"/><path class="cls-1" d="M18.09,136a1.62,1.62,0,0,1-.84-.24l-.44-.27a1.63,1.63,0,1,1,1.71-2.77l.42.25a1.62,1.62,0,0,1-.84,3Z"/><path class="cls-2" d="M17.66,132.65a1.49,1.49,0,0,1,.79.22l.42.25a1.5,1.5,0,1,1-1.55,2.57l-.44-.27a1.5,1.5,0,0,1,.79-2.78m0-.25a1.75,1.75,0,0,0-.92,3.24l.44.27a1.75,1.75,0,1,0,1.81-3l-.42-.25a1.74,1.74,0,0,0-.92-.26Z"/><path class="cls-1" d="M58.3,141.72a1.63,1.63,0,0,1-.3-3.22l.48-.09a1.62,1.62,0,1,1,.64,3.19l-.5.1A1.6,1.6,0,0,1,58.3,141.72Z"/><path class="cls-2" d="M58.8,138.5a1.5,1.5,0,0,1,.29,3l-.5.1-.28,0a1.5,1.5,0,0,1-.28-3l.48-.09a1.5,1.5,0,0,1,.3,0m0-.25a1.75,1.75,0,0,0-.35,0l-.48.09a1.75,1.75,0,1,0,.66,3.44l.51-.1a1.75,1.75,0,0,0-.34-3.47Z"/><path class="cls-1" d="M27.39,24.44a1.63,1.63,0,0,1,0-3.25l.61,0a1.62,1.62,0,0,1-.06,3.25Z"/><path class="cls-2" d="M27.4,21.31h.09l.51,0a1.5,1.5,0,0,1-.06,3h-.06l-.49,0a1.5,1.5,0,0,1,0-3m0-.25a1.75,1.75,0,0,0,0,3.5l.49,0h.07a1.75,1.75,0,0,0,.07-3.5l-.51,0Z"/><path class="cls-1" d="M7.74,52a1.62,1.62,0,0,1-1.36-.73l-.3-.47a1.62,1.62,0,1,1,2.77-1.7l.24.37A1.63,1.63,0,0,1,7.74,52Z"/><path class="cls-2" d="M7.47,48.43a1.5,1.5,0,0,1,1.28.72l.24.38a1.5,1.5,0,1,1-2.5,1.66l-.3-.47a1.5,1.5,0,0,1,1.28-2.28m0-.25A1.75,1.75,0,0,0,6,50.84l.3.47A1.75,1.75,0,1,0,9.2,49.38L9,49a1.74,1.74,0,0,0-1.49-.84Z"/><path class="cls-1" d="M4.41,120.6a1.62,1.62,0,0,1-1.5-1l-.2-.49a1.63,1.63,0,1,1,3-1.21l.18.44a1.63,1.63,0,0,1-1.5,2.25Z"/><path class="cls-2" d="M4.22,117a1.5,1.5,0,0,1,1.39.94l.18.44A1.5,1.5,0,1,1,3,119.55l-.2-.49A1.5,1.5,0,0,1,4.22,117m0-.25a1.75,1.75,0,0,0-1.62,2.4l.2.49A1.75,1.75,0,1,0,6,118.3l-.18-.44a1.74,1.74,0,0,0-1.63-1.1Z"/><path class="cls-1" d="M15.47,72a1.62,1.62,0,0,1-1.17-2.75l.36-.37A1.62,1.62,0,1,1,17,71.17l-.34.35A1.61,1.61,0,0,1,15.47,72Z"/><path class="cls-2" d="M15.81,68.54a1.5,1.5,0,0,1,1.07,2.55l-.34.35a1.5,1.5,0,1,1-2.17-2.07l.36-.37a1.5,1.5,0,0,1,1.07-.45m0-.25a1.74,1.74,0,0,0-1.25.53l-.36.37a1.75,1.75,0,1,0,2.53,2.42l.34-.35a1.75,1.75,0,0,0-1.25-3Z"/><path class="cls-1" d="M16.19,57.82a1.62,1.62,0,0,1-.44-.06l-.52-.16a1.62,1.62,0,1,1,1-3.1l.44.13a1.63,1.63,0,0,1-.44,3.19Z"/><path class="cls-2" d="M15.71,54.55a1.5,1.5,0,0,1,.45.07l.44.13a1.5,1.5,0,1,1-.82,2.89l-.52-.15a1.5,1.5,0,0,1,.45-2.93m0-.25a1.75,1.75,0,0,0-.52,3.42l.52.16a1.75,1.75,0,1,0,1-3.37l-.43-.13a1.75,1.75,0,0,0-.53-.08Z"/><path class="cls-1" d="M10,129.42a1.63,1.63,0,0,1-1.21-.54l-.35-.39a1.62,1.62,0,1,1,2.45-2.14l.32.36A1.63,1.63,0,0,1,10,129.42Z"/><path class="cls-2" d="M9.66,125.92a1.5,1.5,0,0,1,1.13.51l.32.36a1.5,1.5,0,1,1-2.23,2l-.35-.39a1.5,1.5,0,0,1,1.13-2.49m0-.25a1.75,1.75,0,0,0-1.32,2.9l.35.39a1.75,1.75,0,1,0,2.61-2.34l-.32-.36a1.75,1.75,0,0,0-1.32-.6Z"/><path class="cls-1" d="M9,80.3a1.62,1.62,0,0,1-1.38-2.48l.27-.44a1.62,1.62,0,1,1,2.75,1.74l-.26.41A1.62,1.62,0,0,1,9,80.3Z"/><path class="cls-2" d="M9.31,76.75a1.5,1.5,0,0,1,1.27,2.3l-.26.41a1.5,1.5,0,0,1-2.55-1.58L8,77.45a1.5,1.5,0,0,1,1.27-.7m0-.25a1.74,1.74,0,0,0-1.48.81l-.27.44a1.75,1.75,0,1,0,3,1.84l.26-.41A1.75,1.75,0,0,0,9.31,76.5Z"/><path class="cls-1" d="M4.54,89.76A1.63,1.63,0,0,1,3,87.6l.17-.49a1.63,1.63,0,1,1,3.06,1.1l-.16.46A1.63,1.63,0,0,1,4.54,89.76Z"/><path class="cls-2" d="M4.71,86.16a1.5,1.5,0,0,1,1.41,2L6,88.63a1.5,1.5,0,0,1-2.83-1l.17-.49a1.5,1.5,0,0,1,1.41-1m0-.25a1.75,1.75,0,0,0-1.65,1.16l-.17.49A1.75,1.75,0,1,0,6.2,88.71l.16-.46a1.75,1.75,0,0,0-1.65-2.34Z"/><path class="cls-1" d="M5.43,41.9A1.63,1.63,0,0,1,4,40.14c0-.18,0-.36.06-.54a1.63,1.63,0,0,1,1.62-1.44h.18A1.62,1.62,0,0,1,7.24,40c0,.15,0,.3,0,.46a1.63,1.63,0,0,1-1.62,1.48Z"/><path class="cls-2" d="M5.63,38.28H5.8A1.5,1.5,0,0,1,7.12,40c0,.15,0,.31,0,.46a1.5,1.5,0,0,1-1.49,1.37H5.44a1.5,1.5,0,0,1-1.36-1.63q0-.27.05-.54a1.5,1.5,0,0,1,1.49-1.33m0-.25a1.75,1.75,0,0,0-1.74,1.55c0,.18,0,.36-.06.54A1.75,1.75,0,0,0,5.42,42h.16a1.74,1.74,0,0,0,1.74-1.6c0-.15,0-.3,0-.45A1.75,1.75,0,0,0,5.83,38Z"/><path class="cls-1" d="M1.92,110.44A1.62,1.62,0,0,1,.3,109l0-.51a1.63,1.63,0,0,1,1.49-1.75h.12a1.62,1.62,0,0,1,1.63,1.49l0,.48a1.62,1.62,0,0,1-1.47,1.77Z"/><path class="cls-2" d="M1.87,106.81a1.5,1.5,0,0,1,1.51,1.38l0,.48a1.5,1.5,0,0,1-1.36,1.63H1.92a1.5,1.5,0,0,1-1.49-1.36l0-.51a1.5,1.5,0,0,1,1.37-1.62h.11m0-.25H1.73a1.75,1.75,0,0,0-1.6,1.89l0,.51a1.74,1.74,0,0,0,1.74,1.59h.16a1.75,1.75,0,0,0,1.58-1.9l0-.48a1.77,1.77,0,0,0-1.75-1.61Z"/><path class="cls-1" d="M8.9,32.05a1.63,1.63,0,0,1-1.36-2.51l.31-.46a1.62,1.62,0,1,1,2.67,1.86l-.25.37A1.62,1.62,0,0,1,8.9,32.05Z"/><path class="cls-2" d="M9.18,28.51a1.5,1.5,0,0,1,1.23,2.36l-.25.38a1.5,1.5,0,1,1-2.51-1.64l.3-.45a1.5,1.5,0,0,1,1.23-.64m0-.25A1.75,1.75,0,0,0,7.74,29l-.31.46a1.75,1.75,0,0,0,2.93,1.91l.25-.37a1.75,1.75,0,0,0-1.44-2.75Z"/><path class="cls-1" d="M2.18,100H2a1.63,1.63,0,0,1-1.4-1.82l.07-.51a1.63,1.63,0,0,1,1.61-1.41h.22a1.63,1.63,0,0,1,1.39,1.83l-.06.48A1.63,1.63,0,0,1,2.18,100Z"/><path class="cls-2" d="M2.25,96.34h.2A1.5,1.5,0,0,1,3.73,98l-.06.49a1.5,1.5,0,0,1-1.49,1.31H2a1.5,1.5,0,0,1-1.3-1.68l.07-.51a1.51,1.51,0,0,1,1.49-1.3m0-.25A1.76,1.76,0,0,0,.51,97.61l-.07.51a1.75,1.75,0,0,0,1.51,2h.23a1.75,1.75,0,0,0,1.73-1.53L4,98.08a1.75,1.75,0,0,0-1.5-2l-.24,0Z"/><path class="cls-1" d="M86.88,129h-.06a1.62,1.62,0,0,1-1.37-2.49l-1.63-2.82h9.41l-4.7,8.15Z"/><path class="cls-2" d="M84,123.83h9l-4.49,7.77-1.58-2.74-.13,0a1.49,1.49,0,0,1-1.22-2.36L84,123.83m-.43-.25.22.38,1.48,2.56a1.74,1.74,0,0,0,1.51,2.61l1.5,2.6.22.38.22-.38L93.23,124l.22-.37H83.6Z"/><path class="cls-1" d="M47.88,142.91a1.63,1.63,0,0,1-.06-3.25l.49,0A1.64,1.64,0,0,1,50,141.19a1.63,1.63,0,0,1-1.55,1.69Z"/><path class="cls-2" d="M48.36,139.77a1.5,1.5,0,0,1,.09,3l-.51,0h-.06a1.5,1.5,0,0,1-.06-3l.49,0h0m0-.25h-.05l-.49,0a1.75,1.75,0,0,0,.07,3.5h.06l.51,0a1.75,1.75,0,0,0,1.67-1.83,1.76,1.76,0,0,0-1.77-1.67Z"/><path class="cls-1" d="M33.46,59.14a1.48,1.48,0,0,0,.62-2,1.52,1.52,0,0,0-2-.64l-.4.2A1.5,1.5,0,1,0,33,59.36l.42-.22"/><path class="cls-2" d="M32.33,59.66a1.63,1.63,0,0,1-.75-3.07l.4-.2a1.68,1.68,0,0,1,1.27-.1,1.62,1.62,0,0,1,.26,3L33.4,59a1.37,1.37,0,0,0-.23-2.51,1.42,1.42,0,0,0-1.08.09l-.4.2A1.37,1.37,0,1,0,33,59.25l.42-.22.11.22-.42.22A1.61,1.61,0,0,1,32.33,59.66Z"/><path class="cls-1" d="M38,56.73a1.62,1.62,0,0,1-.61-3.13l.48-.19a1.63,1.63,0,1,1,1.2,3l-.45.18A1.61,1.61,0,0,1,38,56.73Z"/><path class="cls-2" d="M38.47,53.41A1.5,1.5,0,0,1,39,56.31l-.45.18a1.5,1.5,0,1,1-1.13-2.78l.48-.19a1.5,1.5,0,0,1,.55-.11m0-.25a1.74,1.74,0,0,0-.65.12l-.48.19a1.75,1.75,0,1,0,1.32,3.24l.45-.18a1.75,1.75,0,0,0-.65-3.38Z"/><path class="cls-1" d="M37.9,142.52h-.2l-.51-.06a1.62,1.62,0,0,1,.2-3.24h.21l.48.06a1.63,1.63,0,0,1-.19,3.24Z"/><path class="cls-2" d="M37.4,139.34h.19l.49.06a1.5,1.5,0,0,1-.18,3h-.18l-.5-.06a1.5,1.5,0,0,1,.19-3m0-.25a1.75,1.75,0,0,0-.22,3.49l.51.06h.21a1.75,1.75,0,0,0,.21-3.49l-.48-.06Z"/><path class="cls-1" d="M45.39,54.51a1.63,1.63,0,0,1-.32-3.22l.5-.1a1.63,1.63,0,1,1,.62,3.19l-.48.1A1.65,1.65,0,0,1,45.39,54.51Z"/><path class="cls-2" d="M45.88,51.29a1.5,1.5,0,0,1,.28,3l-.48.1-.3,0a1.5,1.5,0,0,1-.29-3l.5-.1.29,0m0-.25a1.75,1.75,0,0,0-.34,0l-.5.1a1.75,1.75,0,0,0,.34,3.47,1.77,1.77,0,0,0,.35,0l.48-.1A1.75,1.75,0,0,0,45.88,51Z"/><path class="cls-1" d="M37.77,30.16A5.76,5.76,0,0,1,38,18.63h.24A5.76,5.76,0,0,1,38,30.16Z"/><path class="cls-2" d="M38,18.76h.24A5.64,5.64,0,0,1,38,30h-.24A5.64,5.64,0,0,1,38,18.76m0-.25a5.89,5.89,0,0,0-.24,11.77H38a5.89,5.89,0,0,0,.24-11.77Z"/><text class="cls-3" transform="translate(36.41 27.46)">1</text></g></g></svg>