<svg xmlns="http://www.w3.org/2000/svg" viewBox="0 0 159.42 85.05"><defs><style>.cls-1{fill:#fff;stroke:#00c2ff;stroke-miterlimit:10;stroke-width:0.5px;}.cls-2,.cls-3{fill:#00c2ff;}.cls-3{font-size:6.75px;font-family:Linotte-SemiBold, Linotte-SemiBold;}</style></defs><title>2-ba-guide trace</title><g id="Layer_2" data-name="Layer 2"><g id="Guide_Trace" data-name="Guide Trace"><circle class="cls-1" cx="78.26" cy="82.84" r="1.96"/><path class="cls-2" d="M78.26,81a1.83,1.83,0,1,1-1.83,1.83A1.83,1.83,0,0,1,78.26,81m0-.25a2.08,2.08,0,1,0,2.08,2.08,2.09,2.09,0,0,0-2.08-2.08Z"/><path class="cls-1" d="M5.28,25.49a1.63,1.63,0,0,1-1.61-1.4l-.07-.52a1.61,1.61,0,0,1,.11-.82L.48,22l6.38-6.91,2.8,9-2.79-.63,0,.17a1.62,1.62,0,0,1-1.38,1.83Z"/><path class="cls-2" d="M6.8,15.35l2.67,8.57L6.72,23.3l0,.35a1.5,1.5,0,0,1-1.28,1.69H5.28A1.5,1.5,0,0,1,3.8,24.07l-.07-.52a1.49,1.49,0,0,1,.17-.89L.72,21.95l6.09-6.6m.11-.49-.29.32L.53,21.78l-.29.32.42.1,2.89.65a1.73,1.73,0,0,0-.07.74l.07.52a1.76,1.76,0,0,0,1.73,1.51l.25,0a1.75,1.75,0,0,0,1.49-2l2.4.54.42.1-.13-.41L7,15.28l-.13-.41Z"/><path class="cls-1" d="M86.1,53.28a1.63,1.63,0,0,1-1.62-1.49A1.62,1.62,0,0,1,86,50l.49,0h.14a1.62,1.62,0,0,1,.14,3.24l-.5,0Z"/><path class="cls-2" d="M86.6,50.11a1.5,1.5,0,0,1,.13,3l-.5,0H86.1a1.5,1.5,0,0,1-.13-3l.49,0h.13m0-.25h-.15l-.5,0a1.75,1.75,0,0,0-1.59,1.89,1.76,1.76,0,0,0,1.74,1.6h.15l.5,0a1.75,1.75,0,0,0-.15-3.49Z"/><path class="cls-1" d="M44.68,53.83h-.19L44,53.76a1.63,1.63,0,0,1,.2-3.24h.21l.49.06a1.62,1.62,0,0,1-.19,3.24Z"/><path class="cls-2" d="M44.18,50.64h.19l.49.06a1.5,1.5,0,0,1-.17,3h-.18L44,53.63a1.5,1.5,0,0,1,.18-3m0-.25A1.75,1.75,0,0,0,44,53.88l.51.06h.21a1.75,1.75,0,0,0,.2-3.49l-.49-.06Z"/><path class="cls-1" d="M106.93,50.64a1.63,1.63,0,0,1-.28-3.23l.49-.09.28,0a1.62,1.62,0,0,1,.28,3.23l-.49.09Z"/><path class="cls-2" d="M107.42,47.43a1.5,1.5,0,0,1,.26,3l-.49.09-.26,0a1.5,1.5,0,0,1-.26-3l.49-.09.26,0m0-.25-.3,0-.49.09a1.75,1.75,0,0,0,.3,3.47l.3,0,.49-.09a1.75,1.75,0,0,0-.3-3.47Z"/><path class="cls-1" d="M75.63,54a1.63,1.63,0,0,1-.13-3.24l.52,0h.14A1.63,1.63,0,0,1,76.24,54l-.48,0Z"/><path class="cls-2" d="M76.15,50.86a1.5,1.5,0,0,1,.08,3l-.48,0h-.13a1.5,1.5,0,0,1-.12-3l.52,0h.13m0-.25H76l-.51,0a1.75,1.75,0,0,0,.14,3.49h.15l.48,0a1.75,1.75,0,0,0-.1-3.5Z"/><path class="cls-1" d="M117.21,48.53a1.63,1.63,0,0,1-.38-3.21l.48-.12a1.62,1.62,0,0,1,.77,3.16l-.49.12A1.65,1.65,0,0,1,117.21,48.53Z"/><path class="cls-2" d="M117.7,45.28a1.5,1.5,0,0,1,.35,3l-.49.12a1.52,1.52,0,0,1-.35,0,1.5,1.5,0,0,1-.35-3l.48-.12a1.49,1.49,0,0,1,.36,0m0-.25a1.75,1.75,0,0,0-.42.05l-.48.12a1.75,1.75,0,1,0,.82,3.4l.5-.12A1.75,1.75,0,0,0,117.7,45Z"/><path class="cls-1" d="M34.35,52A1.64,1.64,0,0,1,34,52l-.5-.12a1.63,1.63,0,0,1,.4-3.2,1.63,1.63,0,0,1,.4,0l.47.12a1.63,1.63,0,0,1-.38,3.2Z"/><path class="cls-2" d="M33.86,48.76a1.5,1.5,0,0,1,.37,0l.47.12A1.5,1.5,0,1,1,34,51.83l-.5-.12a1.5,1.5,0,0,1,.37-3m0-.25A1.75,1.75,0,0,0,33.44,52l.5.12a1.77,1.77,0,0,0,.42.05,1.75,1.75,0,0,0,.41-3.45l-.47-.12a1.75,1.75,0,0,0-.43-.05Z"/><path class="cls-1" d="M8.64,35.37a1.63,1.63,0,0,1-1.41-.82L7,34.09a1.62,1.62,0,1,1,2.86-1.55l.23.41a1.63,1.63,0,0,1-1.41,2.43Z"/><path class="cls-2" d="M8.39,31.81a1.5,1.5,0,0,1,1.32.78l.23.41a1.5,1.5,0,1,1-2.61,1.49L7.07,34a1.5,1.5,0,0,1,1.32-2.22m0-.25a1.75,1.75,0,0,0-1.54,2.59l.26.47a1.75,1.75,0,1,0,3-1.73l-.23-.41a1.75,1.75,0,0,0-1.54-.91Z"/><path class="cls-1" d="M15.44,43.29a1.63,1.63,0,0,1-1-.37l-.4-.33A1.63,1.63,0,0,1,16.1,40.1l.37.3a1.62,1.62,0,0,1-1,2.88Z"/><path class="cls-2" d="M15.06,39.84a1.49,1.49,0,0,1,1,.35l.37.3a1.5,1.5,0,1,1-1.9,2.33l-.4-.33a1.5,1.5,0,0,1,1-2.65m0-.25a1.75,1.75,0,0,0-1.13,3.09l.4.34a1.75,1.75,0,1,0,2.21-2.71l-.36-.3a1.75,1.75,0,0,0-1.12-.41Z"/><path class="cls-1" d="M96.54,52.18a1.63,1.63,0,0,1-.2-3.24l.49-.06H97a1.62,1.62,0,0,1,.21,3.24l-.5.06Z"/><path class="cls-2" d="M97,49a1.5,1.5,0,0,1,.19,3l-.5.06h-.19a1.5,1.5,0,0,1-.18-3l.49-.06H97m0-.25h-.21l-.49.06a1.75,1.75,0,0,0,.21,3.49h.22l.5-.06A1.75,1.75,0,0,0,97,48.75Z"/><path class="cls-1" d="M65.15,54.61a1.63,1.63,0,0,1,0-3.25h.5a1.64,1.64,0,0,1,1.67,1.58,1.62,1.62,0,0,1-1.58,1.67Z"/><path class="cls-2" d="M65.65,51.47a1.5,1.5,0,0,1,0,3h-.55a1.5,1.5,0,0,1,0-3h.55m0-.25H65.1a1.75,1.75,0,0,0,.05,3.5h.55a1.75,1.75,0,0,0,1.7-1.8,1.76,1.76,0,0,0-1.74-1.7Z"/><path class="cls-1" d="M145.82,36a1.62,1.62,0,0,1-1-2.88l.37-.31a1.62,1.62,0,1,1,2.1,2.48l-.4.33A1.62,1.62,0,0,1,145.82,36Z"/><path class="cls-2" d="M146.2,32.55a1.5,1.5,0,0,1,1,2.64l-.4.33a1.5,1.5,0,0,1-1.91-2.31l.37-.31a1.49,1.49,0,0,1,1-.35m0-.25a1.75,1.75,0,0,0-1.13.41l-.37.31a1.75,1.75,0,0,0,2.23,2.7l.4-.33a1.75,1.75,0,0,0-1.13-3.09Z"/><path class="cls-1" d="M155.35,18.07a1.63,1.63,0,0,1-1.58-1.66v-.47a1.62,1.62,0,0,1,2.78-1.13A1.61,1.61,0,0,1,157,16v.53a1.63,1.63,0,0,1-1.62,1.59Z"/><path class="cls-2" d="M155.41,14.45A1.5,1.5,0,0,1,156.9,16v.53a1.5,1.5,0,0,1-1.5,1.46h0a1.5,1.5,0,0,1-1.46-1.53v-.47a1.5,1.5,0,0,1,1.5-1.49h0m0-.25h0a1.75,1.75,0,0,0-1.75,1.74v.47a1.75,1.75,0,0,0,1.71,1.79h0a1.77,1.77,0,0,0,1.79-1.71V16a1.75,1.75,0,0,0-1.74-1.76Z"/><path class="cls-1" d="M152.62,28.09a1.62,1.62,0,0,1-1.41-2.42l.22-.4a1.62,1.62,0,1,1,2.87,1.53l-.26.47A1.63,1.63,0,0,1,152.62,28.09Z"/><path class="cls-2" d="M152.86,24.52a1.5,1.5,0,0,1,1.32,2.21l-.26.47a1.5,1.5,0,0,1-2.61-1.47l.22-.41a1.5,1.5,0,0,1,1.33-.79m0-.25a1.75,1.75,0,0,0-1.55.93l-.22.4a1.75,1.75,0,1,0,3,1.72l.26-.47a1.75,1.75,0,0,0-1.54-2.57Z"/><path class="cls-1" d="M137,41.63a1.63,1.63,0,0,1-.73-3.08l.43-.22a1.61,1.61,0,0,1,.74-.18,1.62,1.62,0,0,1,.74,3.07l-.46.23A1.61,1.61,0,0,1,137,41.63Z"/><path class="cls-2" d="M137.44,38.28a1.5,1.5,0,0,1,.69,2.83l-.46.23a1.5,1.5,0,0,1-1.34-2.68l.43-.22a1.49,1.49,0,0,1,.68-.17m0-.25a1.76,1.76,0,0,0-.8.19l-.43.22a1.75,1.75,0,0,0,1.57,3.13l.46-.23a1.75,1.75,0,0,0-.8-3.31Z"/><path class="cls-1" d="M127.3,45.63a1.63,1.63,0,0,1-.53-3.16l.47-.16a1.63,1.63,0,1,1,1.06,3.07l-.48.16A1.63,1.63,0,0,1,127.3,45.63Z"/><path class="cls-2" d="M127.77,42.34a1.5,1.5,0,0,1,.49,2.92l-.48.16a1.5,1.5,0,0,1-1-2.84l.47-.16a1.49,1.49,0,0,1,.49-.08m0-.25a1.74,1.74,0,0,0-.57.1l-.47.16a1.75,1.75,0,1,0,1.13,3.31l.48-.16a1.75,1.75,0,0,0-.57-3.41Z"/><path class="cls-1" d="M54.59,54.58A1.63,1.63,0,0,1,53,52.89a1.65,1.65,0,0,1,1.65-1.56l.53,0a1.62,1.62,0,0,1-.05,3.25Z"/><path class="cls-2" d="M54.67,51.45h0l.49,0a1.5,1.5,0,0,1,0,3h0l-.51,0a1.5,1.5,0,0,1-1.44-1.56,1.52,1.52,0,0,1,1.52-1.44m0-.25a1.78,1.78,0,0,0-1.77,1.68,1.75,1.75,0,0,0,1.68,1.82l.51,0h.06a1.75,1.75,0,0,0,.06-3.5l-.49,0h0Z"/><path class="cls-1" d="M24.4,48.69a1.62,1.62,0,0,1-.66-.14l-.47-.21a1.62,1.62,0,1,1,1.35-3l.44.2a1.63,1.63,0,0,1-.66,3.11Z"/><path class="cls-2" d="M23.95,45.36a1.5,1.5,0,0,1,.62.13l.44.2a1.5,1.5,0,1,1-1.22,2.74l-.47-.21a1.5,1.5,0,0,1,.62-2.87m0-.25a1.75,1.75,0,0,0-.73,3.34l.47.21a1.75,1.75,0,1,0,1.42-3.2l-.44-.2a1.74,1.74,0,0,0-.72-.16Z"/><path class="cls-1" d="M153.41,11.78a5.76,5.76,0,1,1,3.83-1.45,5.77,5.77,0,0,1-3.83,1.45Z"/><path class="cls-2" d="M153.41.38a5.64,5.64,0,1,1-3.74,1.42A5.63,5.63,0,0,1,153.41.38m0-.25a5.89,5.89,0,1,0,4.41,2,5.88,5.88,0,0,0-4.41-2Z"/><text class="cls-3" transform="translate(152.21 8.09)">1</text></g></g></svg>