<svg xmlns="http://www.w3.org/2000/svg" viewBox="0 0 123.52 97.63"><defs><style>.cls-1{fill:#fff;stroke:#00c2ff;stroke-miterlimit:10;stroke-width:0.5px;}.cls-2,.cls-3{fill:#00c2ff;}.cls-3{font-size:6.75px;font-family:Linotte-SemiBold, Linotte-SemiBold;}</style></defs><title>20-fa-guide trace</title><g id="Layer_2" data-name="Layer 2"><g id="Guide_Trace" data-name="Guide Trace"><circle class="cls-1" cx="94.66" cy="2.21" r="1.96"/><path class="cls-2" d="M94.66.38a1.83,1.83,0,1,1-1.83,1.83A1.83,1.83,0,0,1,94.66.38m0-.25a2.08,2.08,0,1,0,2.08,2.08A2.09,2.09,0,0,0,94.66.13Z"/><path class="cls-1" d="M101.77,57.46a1.63,1.63,0,0,1-1.59-1.28,1.62,1.62,0,0,1,1.24-1.93l.46-.1a1.64,1.64,0,0,1,.37,0,1.63,1.63,0,0,1,.37,3.21l-.52.12A1.64,1.64,0,0,1,101.77,57.46Z"/><path class="cls-2" d="M102.26,54.22a1.5,1.5,0,0,1,.34,3l-.52.12a1.5,1.5,0,0,1-.64-2.93l.46-.1a1.51,1.51,0,0,1,.35,0m0-.25a1.76,1.76,0,0,0-.4,0l-.46.1a1.75,1.75,0,0,0-1.34,2.08,1.75,1.75,0,0,0,2.08,1.34l.52-.12a1.75,1.75,0,0,0-.4-3.45Z"/><path class="cls-1" d="M93.53,30a1.63,1.63,0,0,1-1.61-1.41,1.63,1.63,0,0,1,1.39-1.83l.54-.07H94A1.63,1.63,0,0,1,94.21,30l-.45.06Z"/><path class="cls-2" d="M94,26.84a1.5,1.5,0,0,1,.16,3l-.46.06h-.2a1.5,1.5,0,0,1-.2-3l.54-.07H94m0-.25h-.19l-.54.07a1.75,1.75,0,0,0,.23,3.48l.24,0,.45-.05A1.75,1.75,0,0,0,94,26.59Z"/><path class="cls-1" d="M84.12,34.33A1.62,1.62,0,0,1,83,31.48l.41-.35a1.63,1.63,0,0,1,2.08,2.5l-.34.29A1.62,1.62,0,0,1,84.12,34.33Z"/><path class="cls-2" d="M84.5,30.88a1.5,1.5,0,0,1,1,2.65l-.35.3a1.5,1.5,0,0,1-2-2.25l.41-.35a1.49,1.49,0,0,1,1-.35m0-.25a1.75,1.75,0,0,0-1.12.4l-.42.36A1.75,1.75,0,0,0,85.28,34l.34-.29a1.75,1.75,0,0,0-1.12-3.09Z"/><path class="cls-1" d="M104,86.57a1.63,1.63,0,0,1-1.57-2,1.61,1.61,0,0,1,.76-1l.42-.25a1.61,1.61,0,0,1,.82-.22,1.63,1.63,0,0,1,.82,3l-.44.26A1.62,1.62,0,0,1,104,86.57Z"/><path class="cls-2" d="M104.38,83.19a1.5,1.5,0,0,1,.76,2.79l-.44.26a1.5,1.5,0,0,1-1.5-2.6l.42-.25a1.49,1.49,0,0,1,.76-.21m0-.25a1.74,1.74,0,0,0-.88.24l-.42.25a1.75,1.75,0,0,0-.64,2.39,1.75,1.75,0,0,0,2.39.64l.44-.26a1.75,1.75,0,0,0-.89-3.26Z"/><path class="cls-1" d="M104.24,31.77a1.61,1.61,0,0,1-.69-.16l-.42-.19a1.62,1.62,0,1,1,1.31-3l.49.22a1.63,1.63,0,0,1,.78,2.16A1.63,1.63,0,0,1,104.24,31.77Z"/><path class="cls-2" d="M103.79,28.43a1.49,1.49,0,0,1,.6.13l.49.22a1.5,1.5,0,1,1-1.28,2.71l-.42-.19a1.5,1.5,0,0,1,.61-2.87m0-.25a1.75,1.75,0,0,0-.71,3.35l.41.19a1.74,1.74,0,0,0,.74.17,1.75,1.75,0,0,0,.75-3.33l-.5-.23a1.73,1.73,0,0,0-.7-.15Z"/><path class="cls-1" d="M79,43.3a1.63,1.63,0,0,1-1.45-1.78c0-.19,0-.38.07-.57a1.63,1.63,0,0,1,1.6-1.39l.25,0a1.62,1.62,0,0,1,1.37,1.84c0,.14,0,.28-.05.43a1.62,1.62,0,0,1-1.61,1.46Z"/><path class="cls-2" d="M79.23,39.69l.23,0a1.5,1.5,0,0,1,1.27,1.7c0,.14,0,.29-.05.43a1.5,1.5,0,0,1-1.49,1.35H79a1.5,1.5,0,0,1-1.34-1.65q0-.28.07-.56a1.5,1.5,0,0,1,1.47-1.28m0-.25a1.75,1.75,0,0,0-1.72,1.5q0,.29-.07.57A1.75,1.75,0,0,0,79,43.43h.18a1.75,1.75,0,0,0,1.74-1.57c0-.14,0-.28.05-.42a1.75,1.75,0,0,0-1.48-2l-.27,0Z"/><path class="cls-1" d="M111.6,53.84a1.63,1.63,0,0,1-1.53-2.18,1.62,1.62,0,0,1,.84-.92l.45-.21a1.61,1.61,0,0,1,.69-.16,1.63,1.63,0,0,1,1.53,2.18,1.62,1.62,0,0,1-.84.92l-.45.21A1.61,1.61,0,0,1,111.6,53.84Z"/><path class="cls-2" d="M112.05,50.5a1.5,1.5,0,0,1,.64,2.86l-.45.21A1.5,1.5,0,1,1,111,50.86l.45-.21a1.49,1.49,0,0,1,.64-.14m0-.25a1.73,1.73,0,0,0-.75.17l-.45.21A1.75,1.75,0,0,0,110,53a1.76,1.76,0,0,0,1.58,1,1.74,1.74,0,0,0,.74-.17l.45-.21a1.75,1.75,0,0,0,.84-2.33,1.76,1.76,0,0,0-1.58-1Z"/><path class="cls-1" d="M1.88,58.92l-.23,0A1.63,1.63,0,0,1,.27,57.07l.08-.52a1.64,1.64,0,0,1,1.61-1.37l.25,0A1.63,1.63,0,0,1,3.55,57l-.07.47A1.63,1.63,0,0,1,1.88,58.92Z"/><path class="cls-2" d="M1.95,55.3l.23,0A1.5,1.5,0,0,1,3.43,57l-.07.47a1.5,1.5,0,0,1-1.48,1.29H1.67A1.5,1.5,0,0,1,.39,57.08l.08-.52A1.5,1.5,0,0,1,1.95,55.3m0-.25A1.76,1.76,0,0,0,.22,56.52L.14,57a1.75,1.75,0,0,0,1.49,2l.24,0a1.76,1.76,0,0,0,1.73-1.51l.07-.47a1.75,1.75,0,0,0-1.46-2l-.27,0Z"/><path class="cls-1" d="M43.18,96.84H43l-.51-.05a1.63,1.63,0,0,1,.18-3.24h.18l.49.05a1.62,1.62,0,0,1-.17,3.24Z"/><path class="cls-2" d="M42.69,93.66h.17l.49.05a1.5,1.5,0,0,1-.16,3H43l-.51-.06a1.5,1.5,0,0,1,.17-3m0-.25a1.75,1.75,0,0,0-.2,3.49L43,97h.19a1.75,1.75,0,0,0,.18-3.49l-.49-.05Z"/><path class="cls-1" d="M2.37,69.34A1.62,1.62,0,0,1,.79,68.09l-.12-.51a1.63,1.63,0,0,1,1.24-1.94,1.67,1.67,0,0,1,.35,0,1.64,1.64,0,0,1,1.59,1.28l.11.46a1.63,1.63,0,0,1-1.21,2A1.67,1.67,0,0,1,2.37,69.34Z"/><path class="cls-2" d="M2.26,65.73a1.5,1.5,0,0,1,1.47,1.18l.11.46a1.5,1.5,0,0,1-1.11,1.81,1.53,1.53,0,0,1-.35,0A1.5,1.5,0,0,1,.91,68.07l-.12-.51a1.5,1.5,0,0,1,1.14-1.79,1.52,1.52,0,0,1,.32,0m0-.25a1.78,1.78,0,0,0-.37,0A1.75,1.75,0,0,0,.55,67.61l.12.52a1.74,1.74,0,0,0,1.7,1.35,1.78,1.78,0,0,0,.41,0,1.75,1.75,0,0,0,1.3-2.11L4,66.85a1.76,1.76,0,0,0-1.71-1.37Z"/><path class="cls-1" d="M74.08,95.92a1.63,1.63,0,0,1-1.61-1.39,1.62,1.62,0,0,1,1.38-1.84l.49-.07.24,0a1.63,1.63,0,0,1,.23,3.23l-.5.07Z"/><path class="cls-2" d="M74.58,92.72a1.5,1.5,0,0,1,.21,3l-.5.07-.22,0a1.5,1.5,0,0,1-.21-3l.49-.07.22,0m0-.25-.26,0-.49.07a1.75,1.75,0,0,0-1.48,2A1.76,1.76,0,0,0,74.08,96l.25,0,.5-.07a1.75,1.75,0,0,0,1.48-2,1.76,1.76,0,0,0-1.73-1.5Z"/><path class="cls-1" d="M63.65,97a1.62,1.62,0,0,1-.12-3.25l.5,0h.12A1.62,1.62,0,0,1,64.27,97l-.5,0Z"/><path class="cls-2" d="M64.15,93.87a1.5,1.5,0,0,1,.11,3l-.5,0h-.11a1.5,1.5,0,0,1-.11-3l.5,0h.11m0-.25H64l-.5,0a1.75,1.75,0,0,0-1.62,1.87,1.76,1.76,0,0,0,1.74,1.62h.13l.5,0a1.75,1.75,0,0,0-.13-3.5Z"/><path class="cls-1" d="M22.91,91.73a1.62,1.62,0,0,1-.66-.14l-.47-.21a1.63,1.63,0,0,1,.68-3.1,1.61,1.61,0,0,1,.67.15l.45.2a1.63,1.63,0,0,1-.67,3.11Z"/><path class="cls-2" d="M22.46,88.4a1.49,1.49,0,0,1,.62.14l.45.2a1.5,1.5,0,1,1-1.22,2.74l-.47-.21a1.5,1.5,0,0,1,.62-2.87m0-.25a1.75,1.75,0,0,0-.73,3.34l.47.21a1.75,1.75,0,1,0,1.43-3.19l-.44-.2a1.73,1.73,0,0,0-.72-.16Z"/><path class="cls-1" d="M6.65,78.87a1.63,1.63,0,0,1-1.33-.7L5,77.74a1.63,1.63,0,1,1,2.69-1.82l.27.39a1.63,1.63,0,0,1-1.33,2.55Z"/><path class="cls-2" d="M6.37,75.33A1.5,1.5,0,0,1,7.61,76l.27.39A1.5,1.5,0,0,1,5.42,78.1l-.3-.43a1.5,1.5,0,0,1,1.24-2.34m0-.25a1.75,1.75,0,0,0-1.45,2.73l.3.43a1.75,1.75,0,1,0,2.87-2l-.27-.39a1.75,1.75,0,0,0-1.45-.77Z"/><path class="cls-1" d="M32.85,95.08a1.64,1.64,0,0,1-.38,0l-.5-.12a1.62,1.62,0,1,1,.79-3.15l.47.12a1.63,1.63,0,0,1-.38,3.2Z"/><path class="cls-2" d="M32.36,91.83a1.5,1.5,0,0,1,.37,0l.47.12a1.5,1.5,0,1,1-.71,2.92l-.5-.12a1.5,1.5,0,0,1,.36-3m0-.25A1.75,1.75,0,0,0,31.93,95l.5.12a1.77,1.77,0,0,0,.42.05,1.75,1.75,0,0,0,.41-3.45l-.47-.12a1.75,1.75,0,0,0-.43-.05Z"/><path class="cls-1" d="M112.37,80.35a1.62,1.62,0,0,1-1.12-2.8l.34-.33a1.62,1.62,0,0,1,2.28,2.32l-.37.36A1.62,1.62,0,0,1,112.37,80.35Z"/><path class="cls-2" d="M112.73,76.88a1.5,1.5,0,0,1,1.05,2.57l-.37.36a1.5,1.5,0,0,1-2.07-2.17l.34-.33a1.49,1.49,0,0,1,1.05-.43m0-.25a1.74,1.74,0,0,0-1.23.5l-.34.33A1.75,1.75,0,0,0,113.58,80l.38-.36a1.75,1.75,0,0,0-1.23-3Z"/><path class="cls-1" d="M13.9,86.4a1.61,1.61,0,0,1-1-.34l-.41-.32a1.62,1.62,0,0,1,2-2.54l.38.29a1.62,1.62,0,0,1-1,2.91Z"/><path class="cls-2" d="M13.51,83a1.49,1.49,0,0,1,.93.33l.38.29A1.5,1.5,0,0,1,13,86l-.41-.32A1.5,1.5,0,0,1,13.51,83m0-.25a1.75,1.75,0,0,0-1.09,3.12l.41.32A1.75,1.75,0,1,0,15,83.39l-.37-.29a1.75,1.75,0,0,0-1.09-.38Z"/><path class="cls-1" d="M120.47,51.65a1.62,1.62,0,0,1-1.55-1.13l-.15-.48a1.63,1.63,0,0,1,3.09-1l.15.48a1.63,1.63,0,0,1-1.55,2.12Z"/><path class="cls-2" d="M120.31,48.05a1.5,1.5,0,0,1,1.43,1l.15.48a1.5,1.5,0,1,1-2.86.92l-.15-.48a1.5,1.5,0,0,1,1.43-2m0-.25a1.75,1.75,0,0,0-1.67,2.29l.15.48a1.75,1.75,0,0,0,3.33-1.07L122,49a1.74,1.74,0,0,0-1.67-1.22Z"/><path class="cls-1" d="M91.85,57.74a1.64,1.64,0,0,1-.32,0L91,57.59a1.62,1.62,0,1,1,.73-3.17l.45.1a1.63,1.63,0,0,1-.32,3.22Z"/><path class="cls-2" d="M91.35,54.51a1.5,1.5,0,0,1,.34,0l.45.1a1.5,1.5,0,1,1-.59,2.94L91,57.47a1.5,1.5,0,0,1,.34-3m0-.25A1.75,1.75,0,0,0,91,57.71l.54.12a1.75,1.75,0,1,0,.69-3.43l-.44-.1a1.75,1.75,0,0,0-.4,0Z"/><path class="cls-1" d="M84.39,94A1.63,1.63,0,0,1,84,90.78l.48-.12a1.65,1.65,0,0,1,.39,0,1.63,1.63,0,0,1,.38,3.21l-.49.12A1.63,1.63,0,0,1,84.39,94Z"/><path class="cls-2" d="M84.89,90.74a1.5,1.5,0,0,1,.35,3l-.49.12A1.5,1.5,0,1,1,84,90.9l.48-.12a1.51,1.51,0,0,1,.36,0m0-.25a1.76,1.76,0,0,0-.42.05l-.48.12a1.75,1.75,0,1,0,.81,3.41l.49-.12a1.75,1.75,0,0,0-.41-3.45Z"/><path class="cls-1" d="M53.15,97.38a1.63,1.63,0,0,1-.06-3.25h.58a1.63,1.63,0,0,1,0,3.25Z"/><path class="cls-2" d="M53.09,94.25h.58a1.5,1.5,0,0,1,0,3h-.51a1.5,1.5,0,0,1-.06-3m0-.25a1.75,1.75,0,0,0,.06,3.5h.5a1.75,1.75,0,1,0,0-3.5h-.58Z"/><path class="cls-1" d="M121.48,62A1.63,1.63,0,0,1,120,60.27l0-.47a1.62,1.62,0,0,1,3.24.21l0,.53A1.63,1.63,0,0,1,121.61,62Z"/><path class="cls-2" d="M121.66,58.4h.09a1.5,1.5,0,0,1,1.4,1.59l0,.52a1.5,1.5,0,0,1-1.49,1.38h-.12a1.5,1.5,0,0,1-1.37-1.62l0-.47a1.51,1.51,0,0,1,1.51-1.4m0-.25a1.76,1.76,0,0,0-1.76,1.64l0,.47a1.75,1.75,0,0,0,1.6,1.89h.15a1.76,1.76,0,0,0,1.74-1.61l0-.53a1.75,1.75,0,0,0-1.63-1.86Z"/><path class="cls-1" d="M82.75,52.81a1.61,1.61,0,0,1-1.15-.48l-.39-.41a1.63,1.63,0,0,1,2.39-2.2l.3.32a1.63,1.63,0,0,1-1.15,2.77Z"/><path class="cls-2" d="M82.4,49.32a1.5,1.5,0,0,1,1.11.48l.31.32a1.5,1.5,0,1,1-2.13,2.11l-.38-.4a1.5,1.5,0,0,1,1.1-2.52m0-.25A1.75,1.75,0,0,0,81.12,52l.39.41A1.75,1.75,0,1,0,84,49.95l-.3-.31a1.76,1.76,0,0,0-1.29-.57Z"/><path class="cls-1" d="M94.44,91a1.63,1.63,0,0,1-.56-3.15l.46-.17a1.63,1.63,0,0,1,1.15,3l-.48.18A1.64,1.64,0,0,1,94.44,91Z"/><path class="cls-2" d="M94.91,87.68a1.5,1.5,0,0,1,.53,2.9l-.48.18a1.5,1.5,0,0,1-1-2.81l.46-.17a1.5,1.5,0,0,1,.53-.1m0-.25a1.75,1.75,0,0,0-.62.11l-.46.17A1.75,1.75,0,1,0,95,91l.48-.18a1.75,1.75,0,0,0-.62-3.39Z"/><path class="cls-1" d="M118.71,72a1.63,1.63,0,0,1-1.44-2.37l.21-.42a1.62,1.62,0,0,1,2.91,1.45l-.24.47A1.62,1.62,0,0,1,118.71,72Z"/><path class="cls-2" d="M118.93,68.47a1.5,1.5,0,0,1,1.34,2.17l-.24.47a1.5,1.5,0,0,1-2.66-1.38l.22-.42a1.5,1.5,0,0,1,1.34-.83m0-.25a1.74,1.74,0,0,0-1.57,1l-.21.42a1.75,1.75,0,0,0,3.11,1.61l.24-.47a1.75,1.75,0,0,0-1.57-2.53Z"/><path class="cls-1" d="M5.37,49l-.16,0a1.62,1.62,0,0,1-1.59-1.93L1.45,44.72l9.19-2-2.84,9Z"/><path class="cls-2" d="M10.45,42.86,7.74,51.42,5.42,48.87l-.21,0a1.49,1.49,0,0,1-1.45-1.84L1.69,44.79l8.76-1.93m.37-.34-.42.09L1.63,44.55l-.42.09L1.5,45l2,2.17a1.74,1.74,0,0,0,1.72,2h.12l2.24,2.45.29.32L8,51.49l2.71-8.56.13-.41Z"/><path class="cls-1" d="M115,45.19a5.76,5.76,0,0,1-4.32-9.58,1.39,1.39,0,0,1,.4-.73,1.6,1.6,0,0,1,1-.42,5.56,5.56,0,0,1,2.9-.8,5.76,5.76,0,0,1,0,11.53Z"/><path class="cls-2" d="M115,33.79a5.64,5.64,0,1,1-4.23,1.91,1.46,1.46,0,0,1,.4-.72,1.48,1.48,0,0,1,.94-.39,5.62,5.62,0,0,1,2.89-.8m0-.25a5.89,5.89,0,0,0-3,.8,1.71,1.71,0,0,0-1,.45,1.66,1.66,0,0,0-.45.78,5.89,5.89,0,1,0,4.45-2Z"/><text class="cls-3" transform="translate(113.27 41.46)">1</text></g></g></svg>