<svg xmlns="http://www.w3.org/2000/svg" viewBox="0 0 104.27 123.45"><defs><style>.cls-1{fill:#fff;stroke:#00c2ff;stroke-miterlimit:10;stroke-width:0.5px;}.cls-2,.cls-3{fill:#00c2ff;}.cls-3{font-size:6.75px;font-family:Linotte-SemiBold, Linotte-SemiBold;}</style></defs><title>21-qaf-guide trace</title><g id="Layer_2" data-name="Layer 2"><g id="Guide_Trace" data-name="Guide Trace"><circle class="cls-1" cx="60.16" cy="2.21" r="1.96"/><path class="cls-2" d="M60.16.38a1.83,1.83,0,1,1-1.83,1.83A1.83,1.83,0,0,1,60.16.38m0-.25a2.08,2.08,0,1,0,2.08,2.08A2.09,2.09,0,0,0,60.16.13Z"/><circle class="cls-1" cx="86.82" cy="2.21" r="1.96"/><path class="cls-2" d="M86.82.38A1.83,1.83,0,1,1,85,2.21,1.83,1.83,0,0,1,86.82.38m0-.25a2.08,2.08,0,1,0,2.08,2.08A2.09,2.09,0,0,0,86.82.13Z"/><path class="cls-1" d="M85,115a1.62,1.62,0,0,1-.94-3l.39-.28a1.63,1.63,0,0,1,1.92,2.62l-.42.31A1.62,1.62,0,0,1,85,115Z"/><path class="cls-2" d="M85.36,111.61a1.5,1.5,0,0,1,.89,2.71l-.42.31a1.5,1.5,0,0,1-1.74-2.45l.39-.28a1.5,1.5,0,0,1,.89-.29m0-.25a1.74,1.74,0,0,0-1,.34l-.39.28a1.75,1.75,0,0,0-.41,2.44,1.75,1.75,0,0,0,2.44.41l.43-.31a1.75,1.75,0,0,0-1-3.16Z"/><path class="cls-1" d="M88.06,33.6a1.62,1.62,0,0,1-1.14-.47l-.34-.33a1.63,1.63,0,0,1,2.25-2.34l.38.37a1.63,1.63,0,0,1-1.14,2.78Z"/><path class="cls-2" d="M87.7,30.12a1.5,1.5,0,0,1,1,.42l.38.37A1.5,1.5,0,1,1,87,33l-.34-.33a1.5,1.5,0,0,1,1-2.58m0-.25a1.75,1.75,0,0,0-1.21,3l.34.33a1.75,1.75,0,0,0,2.46-2.49l-.38-.37a1.74,1.74,0,0,0-1.21-.49Z"/><path class="cls-1" d="M92.53,107.83a1.62,1.62,0,0,1-1.27-2.64l.29-.37a1.63,1.63,0,0,1,2.58,2l-.32.41A1.62,1.62,0,0,1,92.53,107.83Z"/><path class="cls-2" d="M92.84,104.31A1.5,1.5,0,0,1,94,106.72l-.32.41a1.5,1.5,0,1,1-2.35-1.87l.29-.37a1.5,1.5,0,0,1,1.19-.59m0-.25a1.74,1.74,0,0,0-1.39.68l-.29.37a1.75,1.75,0,0,0,.28,2.46,1.75,1.75,0,0,0,2.46-.28l.32-.42a1.75,1.75,0,0,0-1.39-2.82Z"/><path class="cls-1" d="M82,64.33a1.63,1.63,0,0,1-.35-3.21l.46-.11a1.63,1.63,0,0,1,.76,3.16l-.51.12A1.68,1.68,0,0,1,82,64.33Z"/><path class="cls-2" d="M82.54,61.09a1.5,1.5,0,0,1,.35,3l-.51.12a1.52,1.52,0,0,1-.33,0,1.5,1.5,0,0,1-.32-3l.46-.11a1.5,1.5,0,0,1,.35,0m0-.25a1.75,1.75,0,0,0-.41,0l-.46.11A1.75,1.75,0,0,0,82,64.46a1.78,1.78,0,0,0,.38,0l.52-.12a1.75,1.75,0,0,0-.41-3.45Z"/><path class="cls-1" d="M79.11,28.4a1.64,1.64,0,0,1-.32,0l-.46-.09a1.63,1.63,0,0,1,.29-3.22l.29,0,.52.1a1.63,1.63,0,0,1-.32,3.22Z"/><path class="cls-2" d="M78.61,25.18l.27,0,.52.1a1.5,1.5,0,1,1-.6,2.94l-.46-.09a1.5,1.5,0,0,1,.27-3m0-.25a1.75,1.75,0,0,0-.31,3.47l.46.09a1.75,1.75,0,0,0,.69-3.43l-.53-.1-.31,0Z"/><path class="cls-1" d="M97.89,98.84a1.63,1.63,0,0,1-1.49-2.27l.19-.45a1.63,1.63,0,0,1,3,1.27l-.2.47A1.63,1.63,0,0,1,97.89,98.84Z"/><path class="cls-2" d="M98.09,95.25a1.5,1.5,0,0,1,1.38,2.09l-.2.47a1.5,1.5,0,1,1-2.75-1.2l.19-.45a1.5,1.5,0,0,1,1.38-.91m0-.25a1.75,1.75,0,0,0-1.61,1.06l-.19.45a1.75,1.75,0,0,0,3.21,1.4l.2-.47A1.75,1.75,0,0,0,98.09,95Z"/><path class="cls-1" d="M2.8,62.45l-.25,0a1.63,1.63,0,0,1-1.36-1.85l.08-.5a1.62,1.62,0,0,1,1.6-1.37l.26,0a1.63,1.63,0,0,1,1.35,1.86l-.08.48A1.63,1.63,0,0,1,2.8,62.45Z"/><path class="cls-2" d="M2.87,58.83l.24,0a1.5,1.5,0,0,1,1.24,1.72l-.08.48A1.5,1.5,0,0,1,2.8,62.33l-.23,0A1.5,1.5,0,0,1,1.31,60.6l.08-.5a1.5,1.5,0,0,1,1.48-1.26m0-.25a1.74,1.74,0,0,0-1.72,1.47l-.08.5a1.75,1.75,0,0,0,1.46,2l.27,0A1.76,1.76,0,0,0,4.53,61.1l.08-.48a1.75,1.75,0,0,0-1.45-2l-.28,0Z"/><path class="cls-1" d="M5,52.2a1.65,1.65,0,0,1-.44-.06,1.63,1.63,0,0,1-1.13-2l.14-.49a1.62,1.62,0,1,1,3.12.9L6.59,51A1.63,1.63,0,0,1,5,52.2Z"/><path class="cls-2" d="M5.16,48.59A1.5,1.5,0,0,1,6.6,50.5L6.47,51a1.5,1.5,0,1,1-2.89-.81l.14-.49a1.5,1.5,0,0,1,1.44-1.09m0-.25a1.76,1.76,0,0,0-1.68,1.27l-.14.49A1.75,1.75,0,1,0,6.71,51l.13-.47a1.75,1.75,0,0,0-1.68-2.23Z"/><path class="cls-1" d="M101,88.84a1.63,1.63,0,0,1-1.36-.74,1.62,1.62,0,0,1-.23-1.22l.1-.47a1.63,1.63,0,0,1,1.59-1.31,1.65,1.65,0,0,1,.32,0A1.63,1.63,0,0,1,102.73,87l-.1.51A1.63,1.63,0,0,1,101,88.84Z"/><path class="cls-2" d="M101.13,85.23l.29,0A1.5,1.5,0,0,1,102.61,87l-.1.51a1.5,1.5,0,1,1-2.94-.62l.1-.47a1.5,1.5,0,0,1,1.47-1.21m0-.25a1.75,1.75,0,0,0-1.71,1.41l-.1.47A1.75,1.75,0,0,0,101,89a1.76,1.76,0,0,0,1.71-1.39l.1-.51A1.75,1.75,0,0,0,101.13,85Z"/><path class="cls-1" d="M102.28,78.44a1.63,1.63,0,0,1-1.53-1.71l0-.49a1.63,1.63,0,0,1,3.25.15l0,.51a1.63,1.63,0,0,1-1.62,1.54Z"/><path class="cls-2" d="M102.42,74.81h0a1.5,1.5,0,0,1,1.43,1.57l0,.51a1.5,1.5,0,0,1-1.5,1.42h-.08a1.5,1.5,0,0,1-1.41-1.58l0-.49a1.51,1.51,0,0,1,1.53-1.43m0-.25a1.77,1.77,0,0,0-1.78,1.67l0,.49a1.75,1.75,0,0,0,1.65,1.84h.1a1.75,1.75,0,0,0,1.75-1.65l0-.51a1.75,1.75,0,0,0-1.67-1.83h0Z"/><path class="cls-1" d="M75.69,119.9a1.63,1.63,0,0,1-1.48-2.3,1.62,1.62,0,0,1,.91-.85l.45-.17a1.62,1.62,0,0,1,1.18,3l-.49.19A1.61,1.61,0,0,1,75.69,119.9Z"/><path class="cls-2" d="M76.16,116.59a1.5,1.5,0,0,1,.54,2.9l-.49.19a1.5,1.5,0,0,1-1.05-2.81l.45-.17a1.5,1.5,0,0,1,.54-.1m0-.25a1.74,1.74,0,0,0-.64.12l-.45.17a1.75,1.75,0,0,0-1,2.25A1.76,1.76,0,0,0,75.69,120a1.74,1.74,0,0,0,.61-.11l.49-.19a1.75,1.75,0,0,0-.63-3.38Z"/><path class="cls-1" d="M2.48,83.38A1.63,1.63,0,0,1,.88,82l-.07-.51a1.63,1.63,0,0,1,1.4-1.83h.21A1.63,1.63,0,0,1,4,81l.07.48a1.62,1.62,0,0,1-1.38,1.84Z"/><path class="cls-2" d="M2.42,79.76a1.5,1.5,0,0,1,1.49,1.3l.07.48a1.5,1.5,0,0,1-1.27,1.7l-.21,0A1.5,1.5,0,0,1,1,82l-.07-.51a1.5,1.5,0,0,1,1.29-1.68h.2m0-.25-.23,0a1.75,1.75,0,0,0-1.5,2L.75,82A1.76,1.76,0,0,0,2.48,83.5l.25,0a1.75,1.75,0,0,0,1.49-2L4.15,81a1.76,1.76,0,0,0-1.74-1.52Z"/><path class="cls-1" d="M9.48,103a1.62,1.62,0,0,1-1.36-.74l-.28-.43a1.63,1.63,0,0,1,2.74-1.74l.26.41A1.62,1.62,0,0,1,9.48,103Z"/><path class="cls-2" d="M9.2,99.45a1.5,1.5,0,0,1,1.27.7l.26.41a1.5,1.5,0,1,1-2.51,1.64l-.28-.43a1.5,1.5,0,0,1,1.27-2.3m0-.25a1.75,1.75,0,0,0-1.48,2.69l.28.43a1.75,1.75,0,1,0,2.93-1.91l-.26-.41A1.74,1.74,0,0,0,9.2,99.2Z"/><path class="cls-1" d="M25,116.71a1.61,1.61,0,0,1-.73-.17l-.46-.24a1.63,1.63,0,1,1,1.5-2.88l.43.22a1.63,1.63,0,0,1-.73,3.08Z"/><path class="cls-2" d="M24.59,113.35a1.5,1.5,0,0,1,.69.17l.43.22a1.5,1.5,0,1,1-1.35,2.68l-.46-.24a1.5,1.5,0,0,1,.69-2.83m0-.25a1.75,1.75,0,0,0-.81,3.3l.46.24a1.76,1.76,0,0,0,.79.19,1.75,1.75,0,0,0,.79-3.31l-.43-.22a1.76,1.76,0,0,0-.81-.2Z"/><path class="cls-1" d="M16.33,110.89a1.62,1.62,0,0,1-1.07-.4l-.39-.34A1.63,1.63,0,1,1,17,107.72l.36.32a1.62,1.62,0,0,1-1.07,2.85Z"/><path class="cls-2" d="M16,107.43a1.5,1.5,0,0,1,1,.38l.36.32a1.5,1.5,0,0,1-2,2.26L15,110a1.5,1.5,0,0,1,1-2.62m0-.25a1.75,1.75,0,0,0-1.17,3.05l.39.34a1.75,1.75,0,1,0,2.31-2.63l-.36-.32a1.75,1.75,0,0,0-1.17-.45Z"/><path class="cls-1" d="M4.91,93.58a1.62,1.62,0,0,1-1.54-1.1L3.2,92a1.62,1.62,0,1,1,3.08-1l.16.46a1.63,1.63,0,0,1-1.54,2.15Z"/><path class="cls-2" d="M4.75,90a1.5,1.5,0,0,1,1.42,1l.16.46a1.5,1.5,0,1,1-2.84,1L3.32,92a1.5,1.5,0,0,1,1.42-2m0-.25A1.75,1.75,0,0,0,3.09,92l.17.49a1.75,1.75,0,1,0,3.31-1.14l-.16-.46a1.75,1.75,0,0,0-1.66-1.2Z"/><path class="cls-1" d="M8.47,42.28A1.63,1.63,0,0,1,7,40l.2-.47a1.63,1.63,0,1,1,3,1.28l-.19.45A1.62,1.62,0,0,1,8.47,42.28Z"/><path class="cls-2" d="M8.67,38.69A1.5,1.5,0,0,1,10,40.79l-.19.45a1.5,1.5,0,1,1-2.77-1.16l.2-.47a1.5,1.5,0,0,1,1.38-.91m0-.25A1.75,1.75,0,0,0,7.05,39.5l-.2.47a1.75,1.75,0,1,0,3.23,1.36l.19-.45a1.75,1.75,0,0,0-1.61-2.44Z"/><path class="cls-1" d="M45.11,122.49H44.9l-.51-.07a1.63,1.63,0,0,1,.21-3.24h.22l.48.06a1.63,1.63,0,0,1-.2,3.24Z"/><path class="cls-2" d="M44.61,119.3h.2l.48.06a1.5,1.5,0,0,1-.19,3h-.19l-.51-.07a1.5,1.5,0,0,1,.2-3m0-.25a1.75,1.75,0,0,0-.23,3.48l.51.07h.22a1.75,1.75,0,0,0,.22-3.49l-.48-.06-.23,0Z"/><path class="cls-1" d="M65.54,122.49a1.63,1.63,0,0,1-.24-3.23l.48-.07.26,0a1.64,1.64,0,0,1,1.6,1.37,1.62,1.62,0,0,1-1.35,1.86l-.51.08Z"/><path class="cls-2" d="M66,119.28a1.5,1.5,0,0,1,.23,3l-.51.08-.23,0a1.5,1.5,0,0,1-.22-3l.48-.07.24,0m0-.25-.28,0-.48.07a1.75,1.75,0,0,0,.26,3.48l.26,0,.51-.08a1.75,1.75,0,0,0,1.45-2A1.76,1.76,0,0,0,66,119Z"/><path class="cls-1" d="M68.23,28.78a1.63,1.63,0,0,1-.48-3.18l.51-.15a1.63,1.63,0,0,1,2,1.12,1.62,1.62,0,0,1-1.12,2l-.44.13A1.62,1.62,0,0,1,68.23,28.78Z"/><path class="cls-2" d="M68.71,25.51a1.5,1.5,0,0,1,.41,2.94l-.45.13a1.5,1.5,0,0,1-.88-2.87l.51-.15a1.51,1.51,0,0,1,.41-.06m0-.25a1.76,1.76,0,0,0-.47.07l-.52.15a1.75,1.75,0,1,0,1,3.34l.44-.13a1.75,1.75,0,0,0,1.21-2.16,1.76,1.76,0,0,0-1.69-1.27Z"/><path class="cls-1" d="M34.82,120.45a1.65,1.65,0,0,1-.44-.06l-.5-.14a1.62,1.62,0,0,1-1.11-2,1.62,1.62,0,0,1,2-1.11l.47.13a1.63,1.63,0,0,1-.44,3.19Z"/><path class="cls-2" d="M34.34,117.19a1.5,1.5,0,0,1,.42.06l.47.13a1.5,1.5,0,1,1-.8,2.89l-.49-.14a1.5,1.5,0,0,1,.41-2.94m0-.25a1.76,1.76,0,0,0-1.68,1.27,1.75,1.75,0,0,0,1.2,2.17l.49.14a1.75,1.75,0,0,0,2.16-1.22,1.75,1.75,0,0,0-1.22-2.15l-.47-.13a1.75,1.75,0,0,0-.48-.07Z"/><path class="cls-1" d="M59.61,34.52a1.62,1.62,0,0,1-1.24-2.68l.35-.41a1.63,1.63,0,1,1,2.42,2.17l-.3.35A1.62,1.62,0,0,1,59.61,34.52Z"/><path class="cls-2" d="M59.94,31a1.5,1.5,0,0,1,1.12,2.5l-.3.35a1.5,1.5,0,0,1-2.29-1.94l.35-.4a1.5,1.5,0,0,1,1.12-.5m0-.25a1.76,1.76,0,0,0-1.31.58l-.36.41A1.75,1.75,0,0,0,60.95,34l.3-.34a1.75,1.75,0,0,0-1.3-2.92Z"/><path class="cls-1" d="M71.52,65.11a1.62,1.62,0,0,1,.09-3.25l.56,0a1.63,1.63,0,0,1-.06,3.25Z"/><path class="cls-2" d="M71.61,62h.08l.47,0a1.5,1.5,0,0,1-.06,3h-.06l-.53,0a1.5,1.5,0,0,1,.09-3m0-.25a1.75,1.75,0,0,0-.1,3.5l.53,0h.07a1.75,1.75,0,0,0,.07-3.5l-.47,0Z"/><path class="cls-1" d="M1.84,72.91A1.62,1.62,0,0,1,.25,71.25v-.51a1.62,1.62,0,0,1,1.6-1.58,1.66,1.66,0,0,1,1.21.51,1.62,1.62,0,0,1,.45,1.16v.49a1.63,1.63,0,0,1-1.62,1.59Z"/><path class="cls-2" d="M1.86,69.28h.07a1.5,1.5,0,0,1,1.46,1.54v.49a1.5,1.5,0,0,1-1.5,1.47h0A1.5,1.5,0,0,1,.38,71.25v-.51a1.5,1.5,0,0,1,1.47-1.46m0-.25a1.75,1.75,0,0,0-1.72,1.7v.51A1.75,1.75,0,0,0,1.84,73h0a1.77,1.77,0,0,0,1.78-1.71v-.49A1.75,1.75,0,0,0,1.93,69Z"/><path class="cls-1" d="M55.71,54.24a1.63,1.63,0,0,1-1.53-1.08L54,52.64a1.63,1.63,0,0,1,3.09-1l.14.43a1.63,1.63,0,0,1-1.53,2.17Z"/><path class="cls-2" d="M55.55,50.64a1.5,1.5,0,0,1,1.43,1l.15.43a1.5,1.5,0,1,1-2.83,1l-.17-.52a1.5,1.5,0,0,1,1.43-2m0-.25a1.75,1.75,0,0,0-1.67,2.29l.18.52A1.75,1.75,0,1,0,57.36,52l-.14-.42a1.74,1.74,0,0,0-1.67-1.21Z"/><path class="cls-1" d="M55.08,123.19a1.63,1.63,0,0,1,0-3.25h.5a1.63,1.63,0,0,1,0,3.25Z"/><path class="cls-2" d="M55.08,120.07h.5a1.5,1.5,0,0,1,0,3h-.49a1.5,1.5,0,0,1,0-3m0-.25h0a1.75,1.75,0,0,0,0,3.5h.5a1.75,1.75,0,1,0,0-3.5Z"/><path class="cls-1" d="M91.65,60.21a1.63,1.63,0,0,1-.79-3l.44-.24a1.62,1.62,0,0,1,1.59,2.84l-.44.24A1.62,1.62,0,0,1,91.65,60.21Z"/><path class="cls-2" d="M92.08,56.84a1.5,1.5,0,0,1,.73,2.81l-.44.24a1.5,1.5,0,0,1-1.46-2.62l.44-.24a1.49,1.49,0,0,1,.73-.19m0-.25a1.75,1.75,0,0,0-.85.22l-.44.24a1.75,1.75,0,1,0,1.71,3.05l.44-.24a1.75,1.75,0,0,0-.86-3.28Z"/><path class="cls-1" d="M62.13,62.3a1.63,1.63,0,0,1-.87-.25l-.46-.3a1.63,1.63,0,0,1,1.82-2.7l.38.25a1.62,1.62,0,0,1-.87,3Z"/><path class="cls-2" d="M61.71,58.9a1.5,1.5,0,0,1,.84.26l.38.25a1.5,1.5,0,1,1-1.6,2.54l-.46-.3a1.5,1.5,0,0,1,.84-2.74m0-.25a1.75,1.75,0,0,0-1,3.2l.46.3a1.75,1.75,0,0,0,1.87-3L62.69,59a1.75,1.75,0,0,0-1-.3Z"/><path class="cls-1" d="M99.57,57.76A1.62,1.62,0,0,1,98,56.62l-.15-.47a1.63,1.63,0,1,1,3.09-1l.15.48a1.63,1.63,0,0,1-1.55,2.12Z"/><path class="cls-2" d="M99.42,54.15a1.5,1.5,0,0,1,1.43,1l.15.48a1.5,1.5,0,1,1-2.86.91L98,56.12a1.5,1.5,0,0,1,1.43-2m0-.25a1.75,1.75,0,0,0-1.67,2.29l.15.47a1.75,1.75,0,0,0,3.34-1.06l-.15-.48a1.74,1.74,0,0,0-1.67-1.21Z"/><path class="cls-1" d="M55.11,43.88a1.64,1.64,0,0,1-.32,0,1.63,1.63,0,0,1-1.27-1.91q.05-.27.11-.53a1.62,1.62,0,0,1,1.58-1.26,1.63,1.63,0,0,1,1.59,2c0,.15-.07.3-.1.45A1.63,1.63,0,0,1,55.11,43.88Z"/><path class="cls-2" d="M55.21,40.27a1.5,1.5,0,0,1,1.46,1.83c0,.15-.07.3-.1.45A1.5,1.5,0,1,1,53.64,42q.05-.26.11-.53a1.5,1.5,0,0,1,1.46-1.17m0-.25a1.74,1.74,0,0,0-1.7,1.36q-.06.27-.11.53A1.75,1.75,0,0,0,54.76,44a1.75,1.75,0,0,0,2.06-1.37c0-.15.06-.3.09-.44A1.75,1.75,0,0,0,55.21,40Z"/><path class="cls-1" d="M102,68a1.63,1.63,0,0,1-1.61-1.4l-.07-.48a1.63,1.63,0,0,1,1.37-1.85l.23,0a1.62,1.62,0,0,1,1.61,1.39l.07.51a1.63,1.63,0,0,1-1.39,1.83Z"/><path class="cls-2" d="M101.89,64.35a1.5,1.5,0,0,1,1.49,1.28l.07.51a1.5,1.5,0,0,1-1.28,1.69H102a1.5,1.5,0,0,1-1.48-1.29l-.07-.48a1.5,1.5,0,0,1,1.26-1.7l.21,0m0-.25-.25,0a1.75,1.75,0,0,0-1.48,2l.07.48A1.76,1.76,0,0,0,102,68.09l.24,0a1.75,1.75,0,0,0,1.49-2l-.07-.51a1.74,1.74,0,0,0-1.74-1.49Z"/><path class="cls-1" d="M13.15,33a1.58,1.58,0,0,1-.74-.26,1.63,1.63,0,0,1-.61-1.93l-1.66-2.68,9.4-.28L15.09,36.1Z"/><path class="cls-2" d="M19.34,27.95l-4.25,7.9-1.86-3a1.48,1.48,0,0,1-.74-.24,1.5,1.5,0,0,1-.54-1.83l-1.58-2.55,9-.26m.43-.26h-.43l-9,.26H9.93l.23.37,1.51,2.45a1.75,1.75,0,0,0,.68,2,1.68,1.68,0,0,0,.73.27L14.87,36l.23.37L15.3,36l4.25-7.9.21-.38Z"/><path class="cls-1" d="M94.33,46.25a5.77,5.77,0,1,1,2.55-.6,5.73,5.73,0,0,1-2.55.6Z"/><path class="cls-2" d="M94.32,34.84a5.64,5.64,0,1,1-2.49.58,5.64,5.64,0,0,1,2.49-.58m0-.25a5.89,5.89,0,1,0,5.29,3.28,5.83,5.83,0,0,0-5.29-3.28Z"/><text class="cls-3" transform="translate(92.6 42.38)">1</text></g></g></svg>