<svg xmlns="http://www.w3.org/2000/svg" viewBox="0 0 115.57 123.98"><defs><style>.cls-1{fill:#fff;stroke:#00c2ff;stroke-miterlimit:10;stroke-width:0.5px;}.cls-2,.cls-3{fill:#00c2ff;}.cls-3{font-size:6.75px;font-family:Linotte-SemiBold, Linotte-SemiBold;}</style></defs><title>22-kaf-guide trace</title><g id="Layer_2" data-name="Layer 2"><g id="Guide_Trace" data-name="Guide Trace"><path class="cls-1" d="M102.45,20.6a1.63,1.63,0,0,1-.75-.18l-.46-.24a1.63,1.63,0,0,1,.76-3.06,1.63,1.63,0,0,1,.76.19l.43.22a1.63,1.63,0,0,1-.75,3.07Z"/><path class="cls-2" d="M102,17.24a1.5,1.5,0,0,1,.7.18l.43.23a1.5,1.5,0,1,1-1.38,2.66l-.46-.24a1.5,1.5,0,0,1,.7-2.83m0-.25a1.75,1.75,0,0,0-.82,3.3l.46.24a1.75,1.75,0,1,0,1.61-3.11l-.43-.22A1.76,1.76,0,0,0,102,17Z"/><path class="cls-1" d="M93.6,15a1.61,1.61,0,0,1-1-.34l-.4-.31a1.63,1.63,0,0,1,2-2.56l.39.3a1.62,1.62,0,0,1-1,2.91Z"/><path class="cls-2" d="M93.21,11.54a1.49,1.49,0,0,1,.92.32l.39.3a1.5,1.5,0,0,1-1.83,2.38l-.4-.31a1.5,1.5,0,0,1,.93-2.68m0-.25a1.75,1.75,0,0,0-1.08,3.13l.4.31A1.75,1.75,0,1,0,94.67,12l-.39-.3a1.73,1.73,0,0,0-1.08-.37Z"/><path class="cls-1" d="M85.82,11.78a5.76,5.76,0,1,1,4.32-1.94,5.76,5.76,0,0,1-4.32,1.94Z"/><path class="cls-2" d="M85.82.38a5.64,5.64,0,1,1-4.22,1.9A5.62,5.62,0,0,1,85.82.38m0-.25a5.89,5.89,0,1,0,3.9,1.48A5.9,5.9,0,0,0,85.82.13Z"/><polygon class="cls-1" points="110.3 17.32 115.13 25.39 105.73 25.55 110.3 17.32"/><path class="cls-2" d="M110.3,17.57l4.61,7.7-9,.15,4.36-7.85m0-.5-.21.38-4.36,7.85-.21.38h.43l9-.15h.43l-.22-.37-4.61-7.7-.22-.37Z"/><path class="cls-1" d="M55,123.21A1.63,1.63,0,0,1,54.9,120l.5,0h.1a1.62,1.62,0,0,1,.16,3.24l-.51,0Z"/><path class="cls-2" d="M55.5,120a1.5,1.5,0,0,1,.15,3l-.51,0H55a1.5,1.5,0,0,1-.11-3l.49,0h.1m0-.25h-.11l-.49,0a1.75,1.75,0,0,0,.13,3.5h.13l.51,0a1.75,1.75,0,0,0-.17-3.49Z"/><path class="cls-1" d="M99.17,72.15a1.63,1.63,0,0,1-1.62-1.62V70a1.63,1.63,0,0,1,3.25,0v.5a1.63,1.63,0,0,1-1.62,1.63Z"/><path class="cls-2" d="M99.17,68.53a1.5,1.5,0,0,1,1.5,1.5v.5a1.5,1.5,0,0,1-1.5,1.5h0a1.5,1.5,0,0,1-1.5-1.5V70a1.5,1.5,0,0,1,1.5-1.5h0m0-.25h0A1.75,1.75,0,0,0,97.42,70v.5a1.75,1.75,0,1,0,3.5,0V70a1.75,1.75,0,0,0-1.75-1.74Z"/><path class="cls-1" d="M99.09,61.65A1.63,1.63,0,0,1,97.47,60v-.5a1.62,1.62,0,0,1,1.61-1.64h0a1.64,1.64,0,0,1,1.64,1.61V60a1.62,1.62,0,0,1-1.61,1.64h0Z"/><path class="cls-2" d="M99.12,58a1.51,1.51,0,0,1,1.47,1.48V60a1.5,1.5,0,0,1-1.48,1.52h0A1.5,1.5,0,0,1,97.59,60v-.5A1.5,1.5,0,0,1,99.07,58h0m0-.25h-.06a1.75,1.75,0,0,0-1.72,1.77V60a1.75,1.75,0,0,0,3,1.2,1.74,1.74,0,0,0,.5-1.24v-.5a1.76,1.76,0,0,0-1.72-1.73Z"/><path class="cls-1" d="M99.09,49.65A1.63,1.63,0,0,1,97.47,48v-.5a1.62,1.62,0,0,1,1.61-1.64h0a1.64,1.64,0,0,1,1.64,1.61V48a1.62,1.62,0,0,1-1.61,1.64h0Z"/><path class="cls-2" d="M99.12,46a1.51,1.51,0,0,1,1.47,1.48V48a1.5,1.5,0,0,1-1.48,1.52h0A1.5,1.5,0,0,1,97.59,48v-.5A1.5,1.5,0,0,1,99.07,46h0m0-.25h-.06a1.75,1.75,0,0,0-1.72,1.77V48a1.75,1.75,0,0,0,3,1.2,1.74,1.74,0,0,0,.5-1.24v-.5a1.76,1.76,0,0,0-1.72-1.73Z"/><path class="cls-1" d="M86,117.91a1.63,1.63,0,0,1-.5-3.17l.47-.15a1.65,1.65,0,0,1,.51-.08,1.62,1.62,0,0,1,.51,3.17l-.48.16A1.62,1.62,0,0,1,86,117.91Z"/><path class="cls-2" d="M86.52,114.63a1.5,1.5,0,0,1,.47,2.92l-.48.16a1.5,1.5,0,1,1-.92-2.85l.47-.15a1.5,1.5,0,0,1,.47-.07m0-.25a1.75,1.75,0,0,0-.54.09l-.47.15A1.75,1.75,0,1,0,86.58,118l.48-.16a1.75,1.75,0,0,0-.55-3.41Z"/><path class="cls-1" d="M99.11,82.65A1.62,1.62,0,0,1,97.51,81v-.49a1.63,1.63,0,1,1,3.25,0V81a1.63,1.63,0,0,1-1.62,1.61Z"/><path class="cls-2" d="M99.15,79a1.5,1.5,0,0,1,1.49,1.51V81a1.5,1.5,0,0,1-1.5,1.48h0A1.5,1.5,0,0,1,97.63,81v-.5A1.5,1.5,0,0,1,99.14,79h0m0-.25h0a1.76,1.76,0,0,0-1.75,1.74V81a1.75,1.75,0,0,0,1.73,1.77A1.76,1.76,0,0,0,100.88,81v-.51a1.75,1.75,0,0,0-1.73-1.77Z"/><path class="cls-1" d="M65.48,122.14a1.62,1.62,0,0,1-.21-3.24l.49-.06.23,0a1.63,1.63,0,0,1,.21,3.24l-.51.07Z"/><path class="cls-2" d="M66,118.94a1.5,1.5,0,0,1,.19,3l-.51.07h-.19a1.5,1.5,0,0,1-.19-3l.49-.06.21,0m0-.25-.25,0-.48.06a1.75,1.75,0,0,0,.22,3.49h.23l.5-.07a1.75,1.75,0,0,0-.23-3.49Z"/><path class="cls-1" d="M98.19,103.63a1.62,1.62,0,0,1-1.48-1.76l0-.5a1.62,1.62,0,0,1,1.63-1.49h.12a1.63,1.63,0,0,1,1.48,1.76l0,.5a1.64,1.64,0,0,1-1.62,1.49Z"/><path class="cls-2" d="M98.38,100h.11a1.5,1.5,0,0,1,1.37,1.62l0,.5a1.5,1.5,0,0,1-1.49,1.37H98.2a1.5,1.5,0,0,1-1.37-1.62l0-.5A1.5,1.5,0,0,1,98.38,100m0-.25a1.75,1.75,0,0,0-1.76,1.6l0,.49a1.75,1.75,0,0,0,1.59,1.89h.15a1.76,1.76,0,0,0,1.74-1.6l0-.5a1.75,1.75,0,0,0-1.6-1.89Z"/><polygon class="cls-1" points="97.19 38.93 98.2 38.9 98.69 38.89 98.7 39.14 97.2 39.18 97.19 38.93"/><path class="cls-2" d="M98.69,39l-1.5,0,1,0h.49m0-.25H98.2l-1,0,0,.5,1.5,0v-.5Z"/><path class="cls-1" d="M13.84,120.35a1.62,1.62,0,0,1-.49-.08l-.49-.16a1.63,1.63,0,0,1,.5-3.17,1.59,1.59,0,0,1,.51.08l.46.15a1.63,1.63,0,0,1-.49,3.17Z"/><path class="cls-2" d="M13.36,117.07a1.49,1.49,0,0,1,.47.08l.46.15a1.5,1.5,0,0,1-.91,2.86L12.9,120a1.5,1.5,0,0,1,.47-2.93m0-.25a1.75,1.75,0,0,0-.54,3.41l.49.16a1.75,1.75,0,1,0,1.06-3.34l-.46-.15a1.73,1.73,0,0,0-.55-.09Z"/><path class="cls-1" d="M95.39,113.28a1.62,1.62,0,0,1-1.09-2.83l.37-.34a1.63,1.63,0,1,1,2.18,2.41l-.37.34A1.62,1.62,0,0,1,95.39,113.28Z"/><path class="cls-2" d="M95.76,109.81a1.5,1.5,0,0,1,1,2.61l-.37.34a1.5,1.5,0,1,1-2-2.22l.37-.34a1.49,1.49,0,0,1,1-.39m0-.25a1.74,1.74,0,0,0-1.17.45l-.37.34a1.75,1.75,0,1,0,2.35,2.59l.37-.34a1.75,1.75,0,0,0-1.18-3Z"/><path class="cls-1" d="M24.08,122.62l-.24,0-.5-.07a1.63,1.63,0,0,1,.25-3.23l.25,0,.48.07a1.62,1.62,0,0,1-.24,3.23Z"/><path class="cls-2" d="M23.59,119.42l.23,0,.48.07a1.5,1.5,0,0,1-.22,3l-.22,0-.5-.08a1.5,1.5,0,0,1,.23-3m0-.25a1.75,1.75,0,0,0-.27,3.48l.51.08.26,0a1.75,1.75,0,0,0,.25-3.48l-.48-.07-.27,0Z"/><path class="cls-1" d="M44.53,123.73a1.63,1.63,0,0,1,0-3.25H45a1.63,1.63,0,0,1,.08,3.25h-.54Z"/><path class="cls-2" d="M45,120.59a1.5,1.5,0,0,1,.07,3h-.54a1.5,1.5,0,0,1,0-3H45m0-.25h-.51a1.75,1.75,0,0,0,0,3.5h.54a1.75,1.75,0,0,0-.07-3.5Z"/><path class="cls-1" d="M75.86,120.47a1.63,1.63,0,0,1-.31-3.22l.48-.1a1.67,1.67,0,0,1,.32,0,1.63,1.63,0,0,1,1.59,1.3,1.62,1.62,0,0,1-1.27,1.92l-.5.1A1.65,1.65,0,0,1,75.86,120.47Z"/><path class="cls-2" d="M76.35,117.24a1.5,1.5,0,0,1,.3,3l-.5.1a1.48,1.48,0,0,1-.29,0,1.5,1.5,0,0,1-.29-3l.48-.1a1.51,1.51,0,0,1,.3,0m0-.25a1.77,1.77,0,0,0-.35,0l-.48.1a1.75,1.75,0,1,0,.68,3.43l.5-.1a1.75,1.75,0,0,0-.35-3.46Z"/><path class="cls-1" d="M33.95,123.57a1.63,1.63,0,0,1,.09-3.25l.56,0a1.63,1.63,0,0,1-.07,3.25Z"/><path class="cls-2" d="M34,120.45h.08l.48,0a1.5,1.5,0,0,1-.06,3h-.06l-.52,0a1.5,1.5,0,0,1,.08-3m0-.25a1.75,1.75,0,0,0-.09,3.5l.52,0h.07a1.75,1.75,0,0,0,.07-3.5l-.48,0Z"/><path class="cls-1" d="M98.85,93.15a1.62,1.62,0,0,1-1.57-1.68l0-.5a1.61,1.61,0,0,1,1.57-1.58H99a1.63,1.63,0,0,1,1.57,1.68l0,.5a1.62,1.62,0,0,1-1.62,1.57Z"/><path class="cls-2" d="M98.88,89.53H99a1.5,1.5,0,0,1,1.45,1.55l0,.5A1.5,1.5,0,0,1,98.91,93h0a1.5,1.5,0,0,1-1.45-1.55l0-.5a1.49,1.49,0,0,1,1.45-1.45m0-.25a1.74,1.74,0,0,0-1.7,1.7l0,.5a1.75,1.75,0,0,0,1.69,1.81h.06a1.74,1.74,0,0,0,1.75-1.69l0-.5A1.75,1.75,0,0,0,99,89.28Z"/><path class="cls-1" d="M.3,108.15,9,111.77,6.19,113.9a1.61,1.61,0,0,1-1.61,1.67,1.58,1.58,0,0,1-.47-.08l-2.6,2Z"/><path class="cls-2" d="M.46,108.35l8.28,3.45-2.67,2a1.48,1.48,0,0,1-1.49,1.61,1.5,1.5,0,0,1-.5-.09l-2.48,1.89-1.15-8.9m-.3-.4.06.43,1.15,8.9.06.43.34-.26,2.38-1.81a1.64,1.64,0,0,0,.45.07,1.73,1.73,0,0,0,1.27-.55A1.72,1.72,0,0,0,6.32,114l2.57-2,.34-.26-.4-.17L.55,108.12.15,108Z"/><path class="cls-1" d="M97.06,38.85a5.76,5.76,0,0,1,1.18-11.35h.22a5.76,5.76,0,0,1,1.85,11.22v.35l-2.12.07H97.07Z"/><path class="cls-2" d="M98.46,27.63a5.64,5.64,0,0,1,1.72,11V39l-2,.07h-1v-.28a5.64,5.64,0,0,1,1.07-11.12h.21m2,11.32v-.14a5.89,5.89,0,0,0-2-11.43h-.22A5.89,5.89,0,0,0,96.94,39v.33H98.2l2-.07"/><path class="cls-1" d="M52.18,70.31a1.64,1.64,0,0,1-.39,0l-.49-.12a1.62,1.62,0,0,1,.39-3.2,1.65,1.65,0,0,1,.4,0l.49.12a1.62,1.62,0,0,1-.39,3.2Z"/><path class="cls-2" d="M51.69,67.06a1.52,1.52,0,0,1,.37,0l.49.12a1.5,1.5,0,1,1-.73,2.91L51.33,70a1.5,1.5,0,0,1,.36-3m0-.25a1.75,1.75,0,0,0-.42,3.45l.49.12a1.77,1.77,0,0,0,.42.05A1.75,1.75,0,0,0,52.6,67l-.49-.12a1.77,1.77,0,0,0-.43-.05Z"/><path class="cls-1" d="M34.08,61.43a1.61,1.61,0,0,1-1.48-1l0-.11-.16-.57a1.63,1.63,0,0,1,1.13-2,1.6,1.6,0,0,1,.44-.06,1.63,1.63,0,0,1,1.56,1.19l.13.45a1.64,1.64,0,0,1-1,2A1.61,1.61,0,0,1,34.08,61.43Z"/><path class="cls-2" d="M34,57.84a1.5,1.5,0,0,1,1.44,1.1l.13.45a1.5,1.5,0,0,1-1.44,1.93,1.48,1.48,0,0,1-1.37-.9l0-.11-.16-.56a1.5,1.5,0,0,1,1-1.85,1.48,1.48,0,0,1,.41-.06m0-.25a1.75,1.75,0,0,0-1.69,2.22l.16.56.05.14a1.74,1.74,0,0,0,2.24.93,1.77,1.77,0,0,0,1-2.12l-.12-.45A1.75,1.75,0,0,0,34,57.59Z"/><path class="cls-1" d="M34.19,51.26a1.61,1.61,0,0,1-.72-.17,1.63,1.63,0,0,1-.73-2.18c.08-.17.17-.34.27-.51A1.63,1.63,0,1,1,35.84,50l-.2.37A1.62,1.62,0,0,1,34.19,51.26Z"/><path class="cls-2" d="M34.42,47.7a1.5,1.5,0,0,1,1.31,2.23l-.2.38A1.5,1.5,0,0,1,32.84,49l.27-.5a1.5,1.5,0,0,1,1.31-.77m0-.25a1.75,1.75,0,0,0-1.53.9q-.14.25-.27.52a1.75,1.75,0,0,0,.79,2.35,1.75,1.75,0,0,0,2.35-.79l.19-.37a1.75,1.75,0,0,0-1.53-2.6Z"/><path class="cls-1" d="M42,67.76a1.63,1.63,0,0,1-.45-.06L41,67.54a1.62,1.62,0,1,1,1-3.1l.44.13A1.62,1.62,0,0,1,42,67.76Z"/><path class="cls-2" d="M41.51,64.49a1.5,1.5,0,0,1,.45.07l.45.13a1.5,1.5,0,1,1-.83,2.88l-.51-.15a1.5,1.5,0,0,1,.45-2.93m0-.25A1.75,1.75,0,0,0,41,67.66l.52.16a1.75,1.75,0,1,0,1-3.36L42,64.32a1.74,1.74,0,0,0-.52-.08Z"/><path class="cls-1" d="M42.42,45.34a1.63,1.63,0,0,1-.34-3.21l.55-.11.28,0a1.62,1.62,0,0,1,.29,3.22l-.43.08A1.64,1.64,0,0,1,42.42,45.34Z"/><path class="cls-2" d="M42.91,42.12a1.5,1.5,0,0,1,.26,3l-.44.09a1.52,1.52,0,0,1-.32,0,1.5,1.5,0,0,1-.31-3l.54-.11.26,0m0-.25-.3,0-.55.11a1.75,1.75,0,0,0,.37,3.46,1.78,1.78,0,0,0,.37,0l.43-.08a1.75,1.75,0,0,0-.31-3.47Z"/><path class="cls-1" d="M51.3,49.2a4.64,4.64,0,0,1-4.19-6.62,4.66,4.66,0,0,1,4.2-2.66,4.64,4.64,0,0,1,4.19,6.62,4.66,4.66,0,0,1-4.2,2.66Z"/><path class="cls-2" d="M51.3,40a4.51,4.51,0,1,1-4.08,2.58A4.49,4.49,0,0,1,51.3,40m0-.25A4.79,4.79,0,0,0,47,42.53a4.76,4.76,0,0,0,4.3,6.8,4.76,4.76,0,0,0,2-9.07,4.72,4.72,0,0,0-2-.46Z"/><path class="cls-1" d="M47.6,75a1.62,1.62,0,0,1-1.11-2.81l.38-.35a1.63,1.63,0,1,1,2.21,2.39l-.36.33A1.62,1.62,0,0,1,47.6,75Z"/><path class="cls-2" d="M48,71.54a1.5,1.5,0,0,1,1,2.6l-.36.33a1.5,1.5,0,1,1-2.05-2.19l.38-.35a1.49,1.49,0,0,1,1-.4m0-.25a1.74,1.74,0,0,0-1.19.46l-.38.35a1.75,1.75,0,0,0-.08,2.47,1.75,1.75,0,0,0,2.47.08l.36-.33a1.75,1.75,0,0,0,.1-2.47A1.76,1.76,0,0,0,48,71.29Z"/><path class="cls-1" d="M55.37,67.94a1.62,1.62,0,0,1-1.08-2.84l.37-.33a1.63,1.63,0,0,1,2.16,2.43l-.38.33A1.62,1.62,0,0,1,55.37,67.94Z"/><path class="cls-2" d="M55.74,64.48a1.5,1.5,0,0,1,1,2.62l-.38.33a1.5,1.5,0,1,1-2-2.25l.37-.33a1.49,1.49,0,0,1,1-.38m0-.25a1.74,1.74,0,0,0-1.16.44l-.37.33a1.75,1.75,0,0,0,2.32,2.62l.38-.34a1.75,1.75,0,0,0-1.16-3.06Z"/><path class="cls-1" d="M63.45,65a5.79,5.79,0,0,1-4.22-1.83A5.77,5.77,0,1,1,63.45,65Z"/><path class="cls-2" d="M63.44,53.63a5.64,5.64,0,1,1-3.84,1.51,5.62,5.62,0,0,1,3.84-1.51m0-.25a5.89,5.89,0,1,0,4.31,1.88,5.87,5.87,0,0,0-4.31-1.88Z"/><polygon class="cls-1" points="43.01 71.32 49.36 78.27 40.17 80.29 43.01 71.32"/><path class="cls-2" d="M43.06,71.57l6.05,6.63-8.76,1.93,2.71-8.56M43,71.08l-.13.41L40.12,80l-.13.41.42-.09,8.76-1.93.42-.09L49.3,78,43.25,71.4,43,71.08Z"/><text class="cls-3" transform="translate(84.03 8.38)">1</text><text class="cls-3" transform="translate(49.53 46.88)">1</text><text class="cls-3" transform="translate(97.2 35.71)">2</text><text class="cls-3" transform="translate(61.7 61.21)">2</text></g></g></svg>