<svg xmlns="http://www.w3.org/2000/svg" viewBox="0 0 92.63 155.41"><defs><style>.cls-1{fill:#fff;stroke:#00c2ff;stroke-miterlimit:10;stroke-width:0.5px;}.cls-2,.cls-3{fill:#00c2ff;}.cls-3{font-size:6.75px;font-family:Linotte-SemiBold, Linotte-SemiBold;}</style></defs><title>23-lam-guide trace</title><g id="Layer_2" data-name="Layer 2"><g id="Guide_Trace" data-name="Guide Trace"><path class="cls-1" d="M87.3,28.87a1.62,1.62,0,0,1-1.62-1.57l0-.49a1.63,1.63,0,0,1,1.58-1.68h0a1.63,1.63,0,0,1,1.67,1.57v.5a1.62,1.62,0,0,1-1.57,1.68Z"/><path class="cls-2" d="M87.27,25.26a1.5,1.5,0,0,1,1.52,1.45v.5a1.5,1.5,0,0,1-1.45,1.55h0a1.5,1.5,0,0,1-1.5-1.45l0-.49a1.51,1.51,0,0,1,1.46-1.55h0m0-.25h0a1.76,1.76,0,0,0-1.7,1.81l0,.49A1.74,1.74,0,0,0,87.3,29h.06A1.75,1.75,0,0,0,89,27.19v-.5A1.75,1.75,0,0,0,87.27,25Z"/><path class="cls-1" d="M74.77,149A1.62,1.62,0,0,1,74,146l.42-.22A1.62,1.62,0,1,1,76,148.6l-.46.25A1.63,1.63,0,0,1,74.77,149Z"/><path class="cls-2" d="M75.21,145.67a1.5,1.5,0,0,1,.72,2.82l-.46.25a1.5,1.5,0,1,1-1.39-2.66l.42-.22a1.48,1.48,0,0,1,.72-.18m0-.25a1.74,1.74,0,0,0-.84.22l-.42.22a1.75,1.75,0,0,0,1.63,3.1l.46-.25a1.75,1.75,0,0,0-.84-3.29Z"/><path class="cls-1" d="M44.18,155.15a1.63,1.63,0,0,1,.07-3.25h.49a1.63,1.63,0,0,1,0,3.25Z"/><path class="cls-2" d="M44.25,152h.49a1.5,1.5,0,0,1,0,3h-.53a1.5,1.5,0,0,1,.07-3m0-.25h0a1.75,1.75,0,0,0-.08,3.5h.51a1.75,1.75,0,1,0,.06-3.5h-.49Z"/><path class="cls-1" d="M54.69,154.75a1.63,1.63,0,0,1-.18-3.24l.5-.05h.19a1.63,1.63,0,0,1,.17,3.24l-.5.06Z"/><path class="cls-2" d="M55.21,151.57a1.5,1.5,0,0,1,.15,3l-.5.06h-.17a1.5,1.5,0,0,1-.16-3l.5-.05h.18m0-.25H55l-.49.05a1.75,1.75,0,0,0,.19,3.49h.19l.5-.06a1.75,1.75,0,0,0-.18-3.49Z"/><path class="cls-1" d="M83.19,142.84A1.63,1.63,0,0,1,82,140.09l.32-.34A1.62,1.62,0,0,1,84.73,142l-.36.39A1.61,1.61,0,0,1,83.19,142.84Z"/><path class="cls-2" d="M83.54,139.35a1.5,1.5,0,0,1,1.1,2.52l-.36.39a1.5,1.5,0,0,1-2.16-2.08l.32-.34a1.49,1.49,0,0,1,1.1-.48m0-.25a1.75,1.75,0,0,0-1.29.56l-.32.34a1.75,1.75,0,0,0,2.53,2.42l.36-.39a1.75,1.75,0,0,0-1.28-2.94Z"/><path class="cls-1" d="M87,18.36a1.62,1.62,0,0,1-1.62-1.58l0-.49a1.63,1.63,0,0,1,1.57-1.68h0a1.63,1.63,0,0,1,1.67,1.57l0,.51A1.63,1.63,0,0,1,87,18.36Z"/><path class="cls-2" d="M87,14.74a1.5,1.5,0,0,1,1.49,1.45l0,.51A1.5,1.5,0,0,1,87,18.24h0a1.5,1.5,0,0,1-1.5-1.46l0-.49a1.5,1.5,0,0,1,1.45-1.55H87m0-.25H86.9a1.75,1.75,0,0,0-1.69,1.81l0,.49A1.74,1.74,0,0,0,87,18.49H87a1.75,1.75,0,0,0,1.7-1.8l0-.51A1.74,1.74,0,0,0,87,14.49Z"/><path class="cls-1" d="M65,152.84a1.62,1.62,0,0,1-.43-3.19l.48-.13a1.59,1.59,0,0,1,.44-.06,1.63,1.63,0,0,1,1.42,2.42,1.61,1.61,0,0,1-1,.77l-.49.14A1.62,1.62,0,0,1,65,152.84Z"/><path class="cls-2" d="M65.49,149.58a1.5,1.5,0,0,1,.4,2.95l-.49.14a1.5,1.5,0,0,1-.8-2.89l.48-.13a1.47,1.47,0,0,1,.41-.06m0-.25a1.72,1.72,0,0,0-.48.07l-.47.13a1.75,1.75,0,0,0,.94,3.37l.49-.14a1.75,1.75,0,0,0,1.21-2.16,1.76,1.76,0,0,0-1.68-1.28Z"/><path class="cls-1" d="M3.46,121.37l-.29,0a1.63,1.63,0,0,1-1.31-1.89l.1-.51a1.62,1.62,0,0,1,1.59-1.31,1.56,1.56,0,0,1,.32,0,1.62,1.62,0,0,1,1.28,1.91l-.09.47A1.62,1.62,0,0,1,3.46,121.37Z"/><path class="cls-2" d="M3.55,117.75A1.51,1.51,0,0,1,5,119.54l-.09.47a1.5,1.5,0,0,1-1.47,1.23l-.27,0A1.5,1.5,0,0,1,2,119.47l.1-.51a1.5,1.5,0,0,1,1.46-1.21m0-.25a1.75,1.75,0,0,0-1.71,1.42l-.1.51a1.75,1.75,0,0,0,1.41,2l.32,0a1.75,1.75,0,0,0,1.72-1.43l.09-.47a1.75,1.75,0,0,0-1.38-2.05,1.75,1.75,0,0,0-.34,0Z"/><path class="cls-1" d="M6.6,141.6a1.62,1.62,0,0,1-1.36-.73L5,140.42a1.62,1.62,0,1,1,2.76-1.72l.25.38A1.62,1.62,0,0,1,6.6,141.6Z"/><path class="cls-2" d="M6.33,138.06a1.5,1.5,0,0,1,1.27.71l.25.39a1.5,1.5,0,0,1-2.5,1.66l-.29-.45a1.5,1.5,0,0,1,1.27-2.29m0-.25a1.75,1.75,0,0,0-1.48,2.68l.3.46A1.75,1.75,0,1,0,8.06,139l-.25-.38a1.74,1.74,0,0,0-1.49-.82Z"/><path class="cls-1" d="M14.21,148.7a1.63,1.63,0,0,1-.83-.23l-.45-.28a1.63,1.63,0,0,1,1.72-2.76l.4.25a1.62,1.62,0,0,1-.84,3Z"/><path class="cls-2" d="M13.79,145.32a1.49,1.49,0,0,1,.79.23l.4.25a1.5,1.5,0,0,1-1.54,2.57l-.45-.27a1.5,1.5,0,0,1,.8-2.77m0-.25a1.75,1.75,0,0,0-.93,3.24l.45.28a1.75,1.75,0,1,0,1.8-3l-.4-.25a1.74,1.74,0,0,0-.92-.26Z"/><path class="cls-1" d="M23.91,152.63a1.65,1.65,0,0,1-.41-.05l-.51-.13a1.63,1.63,0,0,1-1.14-2,1.63,1.63,0,0,1,2-1.14l.46.12a1.63,1.63,0,0,1-.41,3.2Z"/><path class="cls-2" d="M23.43,149.38a1.51,1.51,0,0,1,.4.05l.46.12a1.5,1.5,0,0,1-.37,3,1.52,1.52,0,0,1-.38,0l-.5-.13a1.5,1.5,0,0,1,.4-2.95m0-.25a1.75,1.75,0,0,0-.47,3.44l.51.14a1.78,1.78,0,0,0,.44.06,1.75,1.75,0,0,0,.44-3.44l-.46-.12a1.75,1.75,0,0,0-.46-.06Z"/><path class="cls-1" d="M34.25,154.43h-.19l-.5-.06a1.63,1.63,0,0,1,.19-3.24h.21l.49.06a1.62,1.62,0,0,1-.19,3.24Z"/><path class="cls-2" d="M33.74,151.25h.19l.49.06a1.5,1.5,0,0,1-.17,3h-.18l-.5-.06a1.5,1.5,0,0,1,.18-3m0-.25a1.75,1.75,0,0,0-.21,3.49l.5.06h.21a1.75,1.75,0,0,0,.2-3.49L34,151Z"/><path class="cls-1" d="M3.06,131.82a1.63,1.63,0,0,1-1.61-1.42l-.06-.53a1.62,1.62,0,0,1,1.44-1.79H3a1.63,1.63,0,0,1,1.62,1.45l.06.47a1.63,1.63,0,0,1-1.4,1.82Z"/><path class="cls-2" d="M3,128.2a1.51,1.51,0,0,1,1.5,1.34l.06.47a1.5,1.5,0,0,1-1.3,1.68H3.06a1.5,1.5,0,0,1-1.49-1.31c0-.18,0-.35-.06-.53a1.5,1.5,0,0,1,1.33-1.65H3m0-.25H2.81a1.75,1.75,0,0,0-1.55,1.93c0,.18,0,.35.06.53a1.75,1.75,0,0,0,1.73,1.53h.23a1.75,1.75,0,0,0,1.51-2l-.06-.47A1.75,1.75,0,0,0,3,127.95Z"/><path class="cls-1" d="M88.51,133.91a1.65,1.65,0,0,1-.4-.05,1.62,1.62,0,0,1-1.17-2c0-.14.07-.29.1-.43a1.63,1.63,0,0,1,1.58-1.28,1.63,1.63,0,0,1,1.59,2q-.06.27-.13.54A1.62,1.62,0,0,1,88.51,133.91Z"/><path class="cls-2" d="M88.62,130.3a1.51,1.51,0,0,1,1.47,1.82q-.06.27-.13.54a1.5,1.5,0,1,1-2.91-.74q.06-.22.1-.44a1.5,1.5,0,0,1,1.46-1.18m0-.25a1.76,1.76,0,0,0-1.7,1.38l-.1.43a1.75,1.75,0,0,0,3.39.87q.07-.27.13-.54A1.76,1.76,0,0,0,88.62,130Z"/><path class="cls-1" d="M89,102.43a1.63,1.63,0,0,1-1.62-1.6v-.5A1.62,1.62,0,0,1,89,98.68h0a1.65,1.65,0,0,1,1.64,1.61v.5a1.63,1.63,0,0,1-1.6,1.65h0Z"/><path class="cls-2" d="M89,98.81a1.52,1.52,0,0,1,1.49,1.48v.5A1.5,1.5,0,0,1,89,102.31h0a1.5,1.5,0,0,1-1.5-1.48v-.5A1.5,1.5,0,0,1,89,98.81h0m0-.25h0a1.75,1.75,0,0,0-1.73,1.77v.51a1.75,1.75,0,1,0,3.5-.05v-.49A1.78,1.78,0,0,0,89,98.56Z"/><path class="cls-1" d="M87.61,39.38A1.62,1.62,0,0,1,86,37.8v-.5a1.63,1.63,0,0,1,1.58-1.67h0a1.65,1.65,0,0,1,1.67,1.58v.5a1.63,1.63,0,0,1-1.58,1.67Z"/><path class="cls-2" d="M87.6,35.76a1.5,1.5,0,0,1,1.5,1.46v.5a1.5,1.5,0,0,1-1.46,1.54h0a1.5,1.5,0,0,1-1.5-1.46v-.5a1.5,1.5,0,0,1,1.46-1.54h0m0-.25h-.05a1.75,1.75,0,0,0-1.7,1.8v.5a1.74,1.74,0,0,0,1.75,1.7,1.76,1.76,0,0,0,1.75-1.8v-.5a1.74,1.74,0,0,0-1.75-1.7Z"/><path class="cls-1" d="M89.12,112.94a1.63,1.63,0,0,1-1.62-1.62v-.5a1.63,1.63,0,0,1,3.25,0v.5a1.62,1.62,0,0,1-1.62,1.63Z"/><path class="cls-2" d="M89.12,109.32a1.5,1.5,0,0,1,1.5,1.49v.5a1.5,1.5,0,0,1-1.49,1.51h0a1.5,1.5,0,0,1-1.5-1.49v-.5a1.5,1.5,0,0,1,1.49-1.51h0m0-.25h0a1.75,1.75,0,0,0-1.74,1.76v.5a1.75,1.75,0,0,0,3.5,0v-.5a1.75,1.75,0,0,0-1.75-1.74Z"/><path class="cls-1" d="M89.08,123.45a1.63,1.63,0,0,1-1.6-1.65v-.49a1.63,1.63,0,1,1,3.25,0v.51a1.63,1.63,0,0,1-1.62,1.6Z"/><path class="cls-2" d="M89.12,119.82a1.5,1.5,0,0,1,1.49,1.51v.51a1.5,1.5,0,0,1-1.5,1.48h0a1.5,1.5,0,0,1-1.48-1.52v-.49a1.5,1.5,0,0,1,1.5-1.49h0m0-.25h0a1.76,1.76,0,0,0-1.75,1.74v.49a1.75,1.75,0,0,0,3.5.05v-.51a1.75,1.75,0,0,0-1.73-1.77Z"/><path class="cls-1" d="M88.66,81.41A1.63,1.63,0,0,1,87,79.82v-.5a1.62,1.62,0,1,1,3.25-.07v.5a1.63,1.63,0,0,1-1.59,1.66h0Z"/><path class="cls-2" d="M88.63,77.79a1.51,1.51,0,0,1,1.52,1.47v.5a1.5,1.5,0,0,1-1.47,1.53h0a1.5,1.5,0,0,1-1.5-1.47v-.5a1.5,1.5,0,0,1,1.47-1.53h0m0-.25h0a1.75,1.75,0,0,0-1.72,1.79v.5a1.75,1.75,0,1,0,3.5-.07v-.5a1.75,1.75,0,0,0-1.77-1.71Z"/><path class="cls-1" d="M87.9,49.89a1.62,1.62,0,0,1-1.62-1.58v-.5a1.63,1.63,0,0,1,1.58-1.67h0a1.64,1.64,0,0,1,1.66,1.58v.5a1.63,1.63,0,0,1-1.58,1.67Z"/><path class="cls-2" d="M87.91,46.26a1.49,1.49,0,0,1,1.48,1.46v.5a1.5,1.5,0,0,1-1.46,1.54h0a1.5,1.5,0,0,1-1.5-1.46v-.5a1.5,1.5,0,0,1,1.46-1.54h.06m0-.25h-.07a1.75,1.75,0,0,0-1.7,1.8v.5A1.74,1.74,0,0,0,87.9,50H88a1.75,1.75,0,0,0,1.7-1.8v-.5A1.75,1.75,0,0,0,87.91,46Z"/><path class="cls-1" d="M88.18,60.39a1.63,1.63,0,0,1-1.62-1.59v-.49a1.63,1.63,0,0,1,1.58-1.67h0a1.66,1.66,0,0,1,1.67,1.58v.5a1.63,1.63,0,0,1-1.59,1.66Z"/><path class="cls-2" d="M88.18,56.77a1.51,1.51,0,0,1,1.48,1.46v.5a1.5,1.5,0,0,1-1.46,1.53h0a1.5,1.5,0,0,1-1.5-1.46v-.49a1.5,1.5,0,0,1,1.46-1.54h.06m0-.25h-.07a1.75,1.75,0,0,0-1.7,1.8v.49a1.75,1.75,0,0,0,3,1.17,1.74,1.74,0,0,0,.48-1.25v-.5a1.77,1.77,0,0,0-1.73-1.7Z"/><path class="cls-1" d="M88.86,91.92a1.63,1.63,0,0,1-1.62-1.6v-.5a1.63,1.63,0,1,1,3.25-.06v.5a1.63,1.63,0,0,1-1.6,1.65h0Z"/><path class="cls-2" d="M88.83,88.3a1.52,1.52,0,0,1,1.53,1.47v.5a1.5,1.5,0,0,1-1.47,1.53h0a1.5,1.5,0,0,1-1.5-1.47v-.5a1.5,1.5,0,0,1,1.47-1.53m0-.25h0a1.75,1.75,0,0,0-1.72,1.78v.5a1.75,1.75,0,0,0,3.5-.06v-.5A1.76,1.76,0,0,0,88.83,88Z"/><path class="cls-1" d="M88.43,70.91a1.63,1.63,0,0,1-1.62-1.59v-.5a1.62,1.62,0,0,1,1.59-1.66h0A1.61,1.61,0,0,1,90,68.74v.5a1.63,1.63,0,0,1-1.59,1.66Z"/><path class="cls-2" d="M88.45,67.28a1.47,1.47,0,0,1,1.47,1.47v.5a1.5,1.5,0,0,1-1.46,1.53h0a1.5,1.5,0,0,1-1.5-1.46v-.5a1.5,1.5,0,0,1,1.46-1.53h.07m0-.25h-.08a1.75,1.75,0,0,0-1.7,1.79v.5a1.75,1.75,0,1,0,3.5-.08v-.5A1.73,1.73,0,0,0,88.45,67Z"/><path class="cls-1" d="M86.61,11.78a5.77,5.77,0,1,1,1.14-.11,5.78,5.78,0,0,1-1.14.11Z"/><path class="cls-2" d="M86.62.38a5.64,5.64,0,1,1-1.11.11A5.64,5.64,0,0,1,86.62.38m0-.25a5.89,5.89,0,0,0,0,11.78,5.89,5.89,0,0,0,0-11.78Z"/><polygon class="cls-1" points="0.5 112.42 8.56 107.56 8.73 116.97 0.5 112.42"/><path class="cls-2" d="M8.44,107.78l.17,9L.75,112.41l7.69-4.63m.24-.44-.37.22L.62,112.2l-.37.22.38.21L8.48,117l.38.21v-.43l-.17-9v-.43Z"/><text class="cls-3" transform="translate(85.04 8)">1</text></g></g></svg>