<svg xmlns="http://www.w3.org/2000/svg" viewBox="0 0 100.05 88.22"><defs><style>.cls-1{fill:#fff;stroke:#00c2ff;stroke-miterlimit:10;stroke-width:0.5px;}.cls-2,.cls-3{fill:#00c2ff;}.cls-3{font-size:6.75px;font-family:Linotte-SemiBold, Linotte-SemiBold;}</style></defs><title>24-mim-guide trace</title><g id="Layer_2" data-name="Layer 2"><g id="Guide_Trace" data-name="Guide Trace"><path class="cls-1" d="M43.21,48.77a1.62,1.62,0,0,1-1.36-2.51l.27-.42a1.62,1.62,0,1,1,2.73,1.77l-.27.42A1.62,1.62,0,0,1,43.21,48.77Z"/><path class="cls-2" d="M43.48,45.22a1.5,1.5,0,0,1,1.26,2.32l-.27.42A1.5,1.5,0,0,1,42,46.33l.27-.42a1.5,1.5,0,0,1,1.26-.69m0-.25a1.75,1.75,0,0,0-1.47.8l-.27.42a1.75,1.75,0,1,0,2.94,1.9l.27-.42A1.75,1.75,0,0,0,43.48,45Z"/><path class="cls-1" d="M70.52,36.09h-.17l-.5-.05A1.63,1.63,0,0,1,70,32.79h.18l.5.05a1.62,1.62,0,0,1-.16,3.24Z"/><path class="cls-2" d="M70,32.91h.17l.5.05a1.5,1.5,0,0,1-.15,3h-.15l-.5-.05a1.5,1.5,0,0,1,.13-3m0-.25a1.75,1.75,0,0,0-.16,3.49l.5.05h.18a1.75,1.75,0,0,0,.17-3.49l-.5-.05Z"/><path class="cls-1" d="M37.35,57.49A1.63,1.63,0,0,1,36,54.93l.28-.4a1.63,1.63,0,0,1,1.34-.7A1.63,1.63,0,0,1,39,56.38l-.29.41A1.63,1.63,0,0,1,37.35,57.49Z"/><path class="cls-2" d="M37.64,54a1.5,1.5,0,0,1,1.23,2.36l-.29.41A1.5,1.5,0,0,1,36.13,55l.28-.4A1.5,1.5,0,0,1,37.64,54m0-.25a1.75,1.75,0,0,0-1.44.75l-.28.4a1.75,1.75,0,0,0,2.87,2l.29-.41a1.75,1.75,0,0,0-1.43-2.75Z"/><path class="cls-1" d="M65.89,13.41A1.63,1.63,0,0,1,64.6,10.8l.31-.4a1.63,1.63,0,1,1,2.58,2l-.3.39A1.61,1.61,0,0,1,65.89,13.41Z"/><path class="cls-2" d="M66.2,9.89a1.5,1.5,0,0,1,1.19,2.41l-.3.39a1.5,1.5,0,0,1-2.39-1.81l.31-.4a1.5,1.5,0,0,1,1.19-.59m0-.25a1.74,1.74,0,0,0-1.39.69l-.31.4a1.75,1.75,0,0,0,.34,2.45,1.75,1.75,0,0,0,2.45-.34l.3-.39A1.75,1.75,0,0,0,66.2,9.64Z"/><path class="cls-1" d="M16.21,80.65a1.63,1.63,0,0,1-.95-2.95l.4-.29a1.61,1.61,0,0,1,.95-.31,1.63,1.63,0,0,1,1.32.67A1.62,1.62,0,0,1,17.57,80l-.41.3A1.62,1.62,0,0,1,16.21,80.65Z"/><path class="cls-2" d="M16.61,77.23a1.5,1.5,0,0,1,.88,2.72l-.41.3a1.5,1.5,0,0,1-1.74-2.44l.4-.29a1.49,1.49,0,0,1,.88-.28m0-.25a1.73,1.73,0,0,0-1,.33l-.4.29a1.75,1.75,0,0,0,2,2.85l.41-.3A1.75,1.75,0,0,0,18,77.71,1.76,1.76,0,0,0,16.61,77Z"/><path class="cls-1" d="M31.07,65.9a1.62,1.62,0,0,1-1.27-2.64l.31-.38a1.62,1.62,0,0,1,2.55,2l-.32.4A1.62,1.62,0,0,1,31.07,65.9Z"/><path class="cls-2" d="M31.39,62.38a1.5,1.5,0,0,1,1.17,2.43l-.32.4a1.5,1.5,0,1,1-2.34-1.87l.31-.38a1.5,1.5,0,0,1,1.18-.57m0-.25A1.74,1.74,0,0,0,30,62.8l-.31.38a1.75,1.75,0,0,0,2.73,2.19l.32-.4a1.75,1.75,0,0,0-.29-2.46,1.73,1.73,0,0,0-1.08-.38Z"/><path class="cls-1" d="M.48,85.69l6.47-6.83,1,3.26a1.63,1.63,0,0,1,1,1,1.61,1.61,0,0,1-.27,1.51l1,3.22Z"/><path class="cls-2" d="M6.89,79.1l.93,3.12a1.49,1.49,0,0,1,.71,2.41l.91,3.08L.72,85.61,6.89,79.1M7,78.61l-.3.31L.54,85.44l-.3.31.42.1,8.73,2.09.42.1-.12-.42-.88-3a1.73,1.73,0,0,0,.25-1.58A1.75,1.75,0,0,0,8,82l-.89-3L7,78.61Z"/><path class="cls-1" d="M24.13,73.78A1.62,1.62,0,0,1,23,71l.34-.35a1.63,1.63,0,0,1,2.3,0,1.63,1.63,0,0,1,0,2.3l-.36.37A1.61,1.61,0,0,1,24.13,73.78Z"/><path class="cls-2" d="M24.48,70.3a1.5,1.5,0,0,1,1.08,2.54l-.36.37a1.5,1.5,0,1,1-2.13-2.11l.34-.35a1.5,1.5,0,0,1,1.08-.46m0-.25a1.74,1.74,0,0,0-1.26.53l-.34.35a1.75,1.75,0,0,0,2.49,2.46l.36-.37a1.75,1.75,0,0,0-1.26-3Z"/><path class="cls-1" d="M97.6,17.7a1.62,1.62,0,0,1-1.55-1.14l-.14-.44A1.62,1.62,0,1,1,99,15.07l.17.52A1.63,1.63,0,0,1,97.6,17.7Z"/><path class="cls-2" d="M97.45,14.1a1.5,1.5,0,0,1,1.42,1l.17.51a1.5,1.5,0,1,1-2.86.9L96,16.09a1.5,1.5,0,0,1,1.42-2m0-.25a1.75,1.75,0,0,0-1.66,2.32l.14.43a1.75,1.75,0,1,0,3.34-1L99.1,15a1.75,1.75,0,0,0-1.66-1.18Z"/><path class="cls-1" d="M98,28a1.63,1.63,0,0,1-1.56-2.09l.12-.42a1.62,1.62,0,0,1,3.15.81c0,.18-.1.36-.15.54A1.64,1.64,0,0,1,98,28Z"/><path class="cls-2" d="M98.17,24.43a1.5,1.5,0,0,1,1.46,1.88c0,.18-.1.36-.15.54A1.5,1.5,0,1,1,96.6,26q.06-.21.12-.43a1.5,1.5,0,0,1,1.45-1.13m0-.25a1.75,1.75,0,0,0-1.69,1.31l-.12.42A1.75,1.75,0,0,0,98,28.16a1.76,1.76,0,0,0,1.68-1.25c.05-.18.1-.36.15-.55a1.75,1.75,0,0,0-1.7-2.19Z"/><path class="cls-1" d="M92.27,8.76a1.61,1.61,0,0,1-1.16-.49L90.79,8A1.63,1.63,0,0,1,93,5.62l.39.38a1.62,1.62,0,0,1-1.16,2.76Z"/><path class="cls-2" d="M91.92,5.28a1.5,1.5,0,0,1,1,.42l.38.38a1.5,1.5,0,0,1-2.14,2.1l-.33-.32a1.5,1.5,0,0,1,1-2.58m0-.25A1.75,1.75,0,0,0,90.7,8l.32.32a1.75,1.75,0,1,0,2.5-2.45l-.39-.39A1.74,1.74,0,0,0,91.92,5Z"/><path class="cls-1" d="M80.5,36.53a1.63,1.63,0,0,1-1.62-1.59,1.63,1.63,0,0,1,1.59-1.66H81a1.62,1.62,0,0,1,.09,3.25H80.5Z"/><path class="cls-2" d="M81,33.39a1.5,1.5,0,0,1,0,3H80.5a1.5,1.5,0,0,1,0-3H81m0-.25h-.57a1.75,1.75,0,0,0,0,3.5h.55a1.75,1.75,0,0,0,0-3.5Z"/><path class="cls-1" d="M90.86,35.06a1.62,1.62,0,0,1-.51-3.17l.43-.15a1.62,1.62,0,0,1,1.1,3.06l-.51.18A1.62,1.62,0,0,1,90.86,35.06Z"/><path class="cls-2" d="M91.33,31.77a1.5,1.5,0,0,1,.51,2.91l-.51.17A1.5,1.5,0,1,1,90.39,32l.44-.15a1.49,1.49,0,0,1,.51-.09m0-.25a1.74,1.74,0,0,0-.59.1l-.43.15a1.75,1.75,0,1,0,1.1,3.32l.51-.18a1.75,1.75,0,0,0-.59-3.4Z"/><path class="cls-1" d="M73,5.71a1.63,1.63,0,0,1-1-2.9l.43-.33a1.63,1.63,0,1,1,2,2.6L74,5.36A1.61,1.61,0,0,1,73,5.71Z"/><path class="cls-2" d="M73.39,2.28a1.5,1.5,0,0,1,.9,2.7l-.36.28a1.5,1.5,0,0,1-1.86-2.35l.43-.33a1.49,1.49,0,0,1,.9-.3m0-.25a1.74,1.74,0,0,0-1,.35l-.43.33a1.75,1.75,0,0,0,2.18,2.74l.36-.28A1.75,1.75,0,0,0,73.39,2Z"/><path class="cls-1" d="M83.29,3.61a1.62,1.62,0,0,1-.37,0l-.45-.1A1.63,1.63,0,0,1,82.79.25a1.66,1.66,0,0,1,.34,0l.53.12a1.63,1.63,0,0,1-.37,3.21Z"/><path class="cls-2" d="M82.79.37a1.51,1.51,0,0,1,.31,0l.53.12a1.5,1.5,0,1,1-.69,2.92l-.45-.1a1.5,1.5,0,0,1,.3-3m0-.25a1.76,1.76,0,0,0-1.71,1.39,1.75,1.75,0,0,0,1.36,2.07l.44.1a1.75,1.75,0,1,0,.8-3.41L83.16.16a1.76,1.76,0,0,0-.36,0Z"/><path class="cls-1" d="M48.81,39.88a1.63,1.63,0,0,1-1.38-2.48l.26-.42a1.63,1.63,0,1,1,2.77,1.7l-.27.43A1.62,1.62,0,0,1,48.81,39.88Z"/><path class="cls-2" d="M49.08,36.33a1.5,1.5,0,0,1,1.28,2.28l-.27.43a1.5,1.5,0,1,1-2.55-1.58L47.8,37a1.5,1.5,0,0,1,1.28-.72m0-.25a1.74,1.74,0,0,0-1.49.83l-.26.42a1.75,1.75,0,0,0,3,1.85l.27-.43a1.75,1.75,0,0,0-1.49-2.67Z"/><path class="cls-1" d="M59.91,22a1.62,1.62,0,0,1-1.36-2.51l.27-.42a1.63,1.63,0,0,1,2.72,1.78l-.27.42A1.62,1.62,0,0,1,59.91,22Z"/><path class="cls-2" d="M60.19,18.5a1.5,1.5,0,0,1,1.25,2.32l-.27.42a1.5,1.5,0,1,1-2.52-1.63l.27-.42a1.5,1.5,0,0,1,1.26-.68m0-.25a1.75,1.75,0,0,0-1.47.79l-.28.42a1.75,1.75,0,1,0,2.94,1.9l.27-.41a1.75,1.75,0,0,0-1.46-2.71Z"/><path class="cls-1" d="M59.53,38.58a5.77,5.77,0,0,1-5.66-6.88,5.48,5.48,0,0,1,.22-.79,1.57,1.57,0,0,1-.63-.22,1.63,1.63,0,0,1-.53-2.24L53.2,28a1.62,1.62,0,0,1,2.24-.53,1.59,1.59,0,0,1,.62.72,5.76,5.76,0,1,1,3.48,10.36Z"/><path class="cls-2" d="M59.52,27.17a5.68,5.68,0,1,1-5.26,3.63A1.49,1.49,0,0,1,53,28.52l.26-.42a1.49,1.49,0,0,1,2.7.33,5.64,5.64,0,0,1,3.53-1.25m0-.25A5.91,5.91,0,0,0,56.1,28a1.7,1.7,0,0,0-.6-.63,1.75,1.75,0,0,0-2.41.57l-.26.43a1.75,1.75,0,0,0,.57,2.41,1.68,1.68,0,0,0,.53.21,5.53,5.53,0,0,0-.18.67,5.89,5.89,0,1,0,5.78-4.76Z"/><text class="cls-3" transform="translate(57.4 35.53)">1</text></g></g></svg>