<svg xmlns="http://www.w3.org/2000/svg" viewBox="0 0 94.82 109.77"><defs><style>.cls-1{fill:#fff;stroke:#00c2ff;stroke-miterlimit:10;stroke-width:0.5px;}.cls-2,.cls-3{fill:#00c2ff;}.cls-3{font-size:6.75px;font-family:Linotte-SemiBold, Linotte-SemiBold;}</style></defs><title>25-nun-guide trace</title><g id="Layer_2" data-name="Layer 2"><g id="Guide_Trace" data-name="Guide Trace"><circle class="cls-1" cx="39.91" cy="2.21" r="1.96"/><path class="cls-2" d="M39.91.37a1.83,1.83,0,1,1-1.83,1.83A1.83,1.83,0,0,1,39.91.37m0-.25A2.08,2.08,0,1,0,42,2.21,2.09,2.09,0,0,0,39.91.12Z"/><path class="cls-1" d="M6.41,86.51a1.62,1.62,0,0,1-1.51-1L4.71,85a1.63,1.63,0,0,1,.94-2.1,1.65,1.65,0,0,1,.57-.1,1.63,1.63,0,0,1,1.52,1l.17.45A1.62,1.62,0,0,1,7,86.4,1.6,1.6,0,0,1,6.41,86.51Z"/><path class="cls-2" d="M6.23,82.92a1.5,1.5,0,0,1,1.41,1l.17.45A1.5,1.5,0,1,1,5,85.43l-.18-.48A1.5,1.5,0,0,1,5.7,83a1.52,1.52,0,0,1,.53-.1m0-.25a1.76,1.76,0,0,0-.62.11,1.75,1.75,0,0,0-1,2.26l.18.48A1.75,1.75,0,1,0,8,84.25l-.17-.45a1.76,1.76,0,0,0-1.64-1.13Z"/><path class="cls-1" d="M3.71,76.38A1.62,1.62,0,0,1,2.11,75L2,74.5A1.63,1.63,0,0,1,3.4,72.65l.25,0A1.63,1.63,0,0,1,5.25,74l.08.48A1.63,1.63,0,0,1,4,76.36Z"/><path class="cls-2" d="M3.64,72.76A1.5,1.5,0,0,1,5.12,74l.08.48A1.5,1.5,0,0,1,4,76.24l-.24,0A1.5,1.5,0,0,1,2.23,75l-.08-.51a1.5,1.5,0,0,1,1.26-1.71l.23,0m0-.25-.27,0a1.75,1.75,0,0,0-1.47,2L2,75A1.74,1.74,0,0,0,3.71,76.5l.28,0a1.75,1.75,0,0,0,1.45-2L5.37,74a1.76,1.76,0,0,0-1.73-1.49Z"/><path class="cls-1" d="M11.52,95.64A1.61,1.61,0,0,1,10.24,95l-.32-.42a1.62,1.62,0,1,1,2.6-2l.29.38a1.63,1.63,0,0,1-.29,2.28A1.61,1.61,0,0,1,11.52,95.64Z"/><path class="cls-2" d="M11.22,92.11a1.5,1.5,0,0,1,1.2.6l.29.38a1.5,1.5,0,1,1-2.37,1.84L10,94.52a1.5,1.5,0,0,1,1.2-2.4m0-.25a1.75,1.75,0,0,0-1.4,2.8l.32.42a1.75,1.75,0,1,0,2.77-2.14l-.29-.38a1.73,1.73,0,0,0-1.4-.7Z"/><path class="cls-1" d="M3.49,55.44H3.3a1.62,1.62,0,0,1-1.43-1.8l.06-.5A1.63,1.63,0,0,1,3.55,51.7h.18a1.63,1.63,0,0,1,1.42,1.81L5.1,54A1.62,1.62,0,0,1,3.49,55.44Z"/><path class="cls-2" d="M3.55,51.82h.17A1.5,1.5,0,0,1,5,53.5L5,54a1.5,1.5,0,0,1-1.49,1.33H3.31A1.5,1.5,0,0,1,2,53.65l.06-.5a1.51,1.51,0,0,1,1.5-1.32m0-.25a1.76,1.76,0,0,0-1.75,1.54l-.06.51a1.75,1.75,0,0,0,1.54,1.94h.2A1.75,1.75,0,0,0,5.22,54l.06-.49a1.75,1.75,0,0,0-1.53-1.95Z"/><path class="cls-1" d="M2.89,65.92A1.63,1.63,0,0,1,1.27,64.3v-.44A1.64,1.64,0,0,1,2.89,62.2a1.59,1.59,0,0,1,1.63,1.59v.49A1.62,1.62,0,0,1,2.9,65.92Z"/><path class="cls-2" d="M2.89,62.33a1.47,1.47,0,0,1,1.5,1.47v.49a1.5,1.5,0,0,1-1.5,1.5h0a1.5,1.5,0,0,1-1.5-1.5v-.44a1.53,1.53,0,0,1,1.5-1.53m0-.25a1.77,1.77,0,0,0-1.75,1.78v.44a1.75,1.75,0,1,0,3.5,0v-.49a1.72,1.72,0,0,0-1.75-1.72Z"/><path class="cls-1" d="M78,100.09a1.62,1.62,0,0,1-1.09-2.83l.34-.32a1.62,1.62,0,0,1,1.11-.44,1.63,1.63,0,0,1,1.11,2.81l-.39.36A1.62,1.62,0,0,1,78,100.09Z"/><path class="cls-2" d="M78.34,96.62a1.5,1.5,0,0,1,1,2.59l-.39.36a1.5,1.5,0,0,1-2-2.23l.34-.32a1.49,1.49,0,0,1,1-.41m0-.25a1.74,1.74,0,0,0-1.2.48l-.34.31a1.75,1.75,0,0,0,2.35,2.6l.39-.36a1.75,1.75,0,0,0-1.2-3Z"/><path class="cls-1" d="M90.65,40.75A1.63,1.63,0,0,1,89,39.34L89,38.85A1.63,1.63,0,0,1,90.36,37h.22a1.63,1.63,0,0,1,1.61,1.4l.07.5a1.62,1.62,0,0,1-1.39,1.83Z"/><path class="cls-2" d="M90.58,37.13a1.5,1.5,0,0,1,1.49,1.3l.07.5a1.5,1.5,0,0,1-1.29,1.69h-.2a1.5,1.5,0,0,1-1.48-1.3l-.07-.49a1.5,1.5,0,0,1,1.28-1.69h.2m0-.25-.24,0a1.75,1.75,0,0,0-1.5,2l.07.49a1.75,1.75,0,0,0,1.73,1.51l.24,0a1.75,1.75,0,0,0,1.5-2l-.07-.5a1.76,1.76,0,0,0-1.73-1.51Z"/><path class="cls-1" d="M88.8,82.4a1.63,1.63,0,0,1-.49-.08,1.62,1.62,0,0,1-1.06-2l.14-.46a1.62,1.62,0,1,1,3.11.94l-.15.49A1.62,1.62,0,0,1,88.8,82.4Z"/><path class="cls-2" d="M88.95,78.8a1.5,1.5,0,0,1,1.43,1.94l-.15.49a1.5,1.5,0,0,1-2.86-.9l.14-.46a1.5,1.5,0,0,1,1.44-1.06m0-.25a1.76,1.76,0,0,0-1.68,1.24l-.14.46a1.75,1.75,0,0,0,1.14,2.19,1.75,1.75,0,0,0,2.19-1.14l.15-.49a1.75,1.75,0,0,0-1.67-2.26Z"/><path class="cls-1" d="M91.69,51.2a1.63,1.63,0,0,1-1.62-1.53l0-.49a1.63,1.63,0,0,1,1.51-1.73h0A1.66,1.66,0,0,1,93.28,49l0,.51a1.63,1.63,0,0,1-1.52,1.72Z"/><path class="cls-2" d="M91.64,47.57A1.51,1.51,0,0,1,93.15,49l0,.51a1.5,1.5,0,0,1-1.41,1.59h-.09a1.5,1.5,0,0,1-1.5-1.41l0-.49a1.5,1.5,0,0,1,1.4-1.6h.09m0-.25h-.11a1.75,1.75,0,0,0-1.63,1.87l0,.49a1.75,1.75,0,0,0,1.75,1.64h.11a1.75,1.75,0,0,0,1.64-1.85l0-.51a1.76,1.76,0,0,0-1.76-1.63Z"/><path class="cls-1" d="M91.06,72.16l-.23,0a1.63,1.63,0,0,1-1.38-1.84l.07-.49a1.63,1.63,0,0,1,1.61-1.41l.22,0a1.63,1.63,0,0,1,1.39,1.83l-.07.5A1.63,1.63,0,0,1,91.06,72.16Z"/><path class="cls-2" d="M91.12,68.54h.21a1.5,1.5,0,0,1,1.28,1.69l-.07.5A1.5,1.5,0,0,1,91.06,72h-.21a1.5,1.5,0,0,1-1.27-1.7l.07-.49a1.5,1.5,0,0,1,1.48-1.3m0-.25a1.75,1.75,0,0,0-1.73,1.51l-.07.49a1.75,1.75,0,0,0,1.49,2l.25,0a1.76,1.76,0,0,0,1.73-1.5l.07-.5a1.75,1.75,0,0,0-1.5-2l-.24,0Z"/><path class="cls-1" d="M84.58,92a1.63,1.63,0,0,1-1.39-2.46l.24-.42a1.62,1.62,0,0,1,3,.4,1.61,1.61,0,0,1-.17,1.23l-.26.44A1.63,1.63,0,0,1,84.58,92Z"/><path class="cls-2" d="M84.84,88.43a1.5,1.5,0,0,1,1.3,2.25l-.26.44a1.5,1.5,0,0,1-2.58-1.54l.24-.42a1.5,1.5,0,0,1,1.3-.75m0-.25a1.76,1.76,0,0,0-1.51.87l-.24.42a1.75,1.75,0,0,0,1.5,2.64,1.76,1.76,0,0,0,1.5-.85l.26-.44a1.75,1.75,0,0,0-1.51-2.63Z"/><path class="cls-1" d="M91.85,61.69A1.62,1.62,0,0,1,90.28,60v-.49a1.62,1.62,0,1,1,3.25.07v.51a1.62,1.62,0,0,1-1.62,1.58Z"/><path class="cls-2" d="M91.94,58.07a1.5,1.5,0,0,1,1.47,1.53v.51a1.5,1.5,0,0,1-1.5,1.46h0A1.5,1.5,0,0,1,90.4,60v-.49a1.51,1.51,0,0,1,1.53-1.47m0-.25h0a1.76,1.76,0,0,0-1.78,1.71V60a1.75,1.75,0,0,0,1.7,1.79h0a1.75,1.75,0,0,0,1.79-1.7V59.6a1.75,1.75,0,0,0-1.71-1.79Z"/><path class="cls-1" d="M19.17,102.76a1.62,1.62,0,0,1-.91-.28l-.43-.29a1.63,1.63,0,0,1,1.85-2.67l.4.27a1.63,1.63,0,0,1-.91,3Z"/><path class="cls-2" d="M18.76,99.36a1.5,1.5,0,0,1,.85.27l.4.27a1.5,1.5,0,0,1-1.68,2.48l-.42-.29a1.5,1.5,0,0,1,.86-2.73m0-.25a1.75,1.75,0,0,0-1,3.19l.43.29a1.75,1.75,0,1,0,2-2.9l-.4-.27a1.75,1.75,0,0,0-1-.31Z"/><path class="cls-1" d="M38.84,109.52h-.19l-.5-.06a1.62,1.62,0,0,1,.2-3.24h.2l.49.06a1.62,1.62,0,0,1-.19,3.24Z"/><path class="cls-2" d="M38.34,106.33h.19l.49.06a1.5,1.5,0,0,1-.17,3h-.18l-.51-.06a1.5,1.5,0,0,1,.18-3m0-.25a1.75,1.75,0,0,0-.21,3.49l.51.06h.21a1.75,1.75,0,0,0,.2-3.49l-.49-.06Z"/><path class="cls-1" d="M49.84,109.52h-.19l-.5-.06a1.62,1.62,0,0,1,.2-3.24h.2l.49.06a1.62,1.62,0,0,1-.19,3.24Z"/><path class="cls-2" d="M49.34,106.33h.19l.49.06a1.5,1.5,0,0,1-.17,3h-.18l-.51-.06a1.5,1.5,0,0,1,.18-3m0-.25a1.75,1.75,0,0,0-.21,3.49l.51.06h.21a1.75,1.75,0,0,0,.2-3.49l-.49-.06Z"/><path class="cls-1" d="M59.25,109a1.63,1.63,0,0,1-.3-3.22l.47-.09a1.69,1.69,0,0,1,.33,0,1.62,1.62,0,0,1,.32,3.22l-.51.1Z"/><path class="cls-2" d="M59.75,105.77a1.5,1.5,0,0,1,.3,3l-.51.1-.28,0a1.5,1.5,0,0,1-.28-3l.47-.09a1.53,1.53,0,0,1,.3,0m0-.25a1.78,1.78,0,0,0-.35,0l-.47.09a1.75,1.75,0,0,0,.33,3.47,1.8,1.8,0,0,0,.33,0l.51-.1a1.75,1.75,0,0,0-.35-3.47Z"/><path class="cls-1" d="M69.24,105.84a1.63,1.63,0,0,1-1.47-.94,1.62,1.62,0,0,1,.79-2.16l.43-.21a1.63,1.63,0,0,1,1.41,2.93l-.47.22A1.62,1.62,0,0,1,69.24,105.84Z"/><path class="cls-2" d="M69.69,102.5a1.5,1.5,0,0,1,.65,2.85l-.47.22a1.5,1.5,0,1,1-1.26-2.72l.43-.21a1.5,1.5,0,0,1,.65-.15m0-.25a1.74,1.74,0,0,0-.76.17l-.43.2a1.75,1.75,0,0,0-.85,2.32,1.75,1.75,0,0,0,2.32.85l.47-.22a1.75,1.75,0,0,0-.76-3.33Z"/><path class="cls-1" d="M28.59,107.31a1.61,1.61,0,0,1-.51-.08l-.48-.16a1.63,1.63,0,1,1,1-3.08l.46.16a1.62,1.62,0,0,1-.51,3.17Z"/><path class="cls-2" d="M28.12,104a1.5,1.5,0,0,1,.48.08l.46.16a1.5,1.5,0,1,1-.95,2.85l-.48-.16a1.5,1.5,0,0,1,.48-2.92m0-.25a1.75,1.75,0,0,0-.57,3.41l.49.16A1.75,1.75,0,1,0,29.15,104l-.46-.16a1.75,1.75,0,0,0-.56-.09Z"/><path class="cls-1" d="M5.25,45.1a1.62,1.62,0,0,1-1.44-.88L.46,43.74l5.81-7.4,3.51,8.73L6.4,44.59A1.59,1.59,0,0,1,5.25,45.1Z"/><path class="cls-2" d="M6.24,36.59l3.34,8.33-3.23-.46A1.47,1.47,0,0,1,3.9,44.1L.7,43.65l5.54-7.06m.07-.49L6,36.43.5,43.49l-.27.34.43.06,3.07.44a1.71,1.71,0,0,0,2.71.39l3.1.44.43.06-.16-.4L6.47,36.49l-.16-.4Z"/><path class="cls-1" d="M88.7,34.19A5.76,5.76,0,0,1,83,28.32a5.79,5.79,0,0,1,5.76-5.66h.11a5.76,5.76,0,0,1-.1,11.53Z"/><path class="cls-2" d="M88.8,22.79h.11a5.64,5.64,0,0,1-.1,11.28H88.7a5.64,5.64,0,0,1,.1-11.28m0-.25a5.92,5.92,0,0,0-5.89,5.78,5.89,5.89,0,0,0,5.78,6h.11a5.89,5.89,0,0,0,.11-11.78Z"/><text class="cls-3" transform="translate(86.85 30.88)">1</text></g></g></svg>