<svg xmlns="http://www.w3.org/2000/svg" viewBox="0 0 93.23 82.11"><defs><style>.cls-1{fill:#fff;stroke:#00c2ff;stroke-miterlimit:10;stroke-width:0.5px;}.cls-2,.cls-3{fill:#00c2ff;}.cls-3{font-size:6.75px;font-family:Linotte-SemiBold, Linotte-SemiBold;}</style></defs><title>26-wau-guide trace</title><g id="Layer_2" data-name="Layer 2"><g id="Guide_Trace" data-name="Guide Trace"><path class="cls-1" d="M48.76,19.58a1.63,1.63,0,0,1-1.55-2.1l.16-.51a1.62,1.62,0,0,1,3.08,1l-.14.44A1.62,1.62,0,0,1,48.76,19.58Z"/><path class="cls-2" d="M48.91,16a1.5,1.5,0,0,1,1.42,2l-.14.44a1.5,1.5,0,0,1-2.87-.88l.16-.51a1.5,1.5,0,0,1,1.42-1m0-.25a1.75,1.75,0,0,0-1.66,1.2l-.16.52a1.75,1.75,0,1,0,3.35,1l.14-.44a1.75,1.75,0,0,0-1.66-2.3Z"/><path class="cls-1" d="M53.86,10.49A1.62,1.62,0,0,1,52.64,7.8L53,7.4a1.63,1.63,0,0,1,2.3-.12,1.62,1.62,0,0,1,.12,2.29l-.31.35A1.63,1.63,0,0,1,53.86,10.49Z"/><path class="cls-2" d="M54.2,7a1.5,1.5,0,0,1,1.11,2.5L55,9.85a1.5,1.5,0,0,1-2.27-2l.35-.4A1.5,1.5,0,0,1,54.2,7m0-.25a1.76,1.76,0,0,0-1.3.58l-.35.4A1.75,1.75,0,1,0,55.18,10l.31-.35a1.75,1.75,0,0,0-1.3-2.92Z"/><path class="cls-1" d="M48.62,29.9a1.63,1.63,0,0,1-1.53-1.07c-.07-.18-.13-.36-.18-.54a1.63,1.63,0,1,1,3.1-1l.14.41a1.63,1.63,0,0,1-1.53,2.18Z"/><path class="cls-2" d="M48.46,26.3a1.5,1.5,0,0,1,1.43,1l.14.41a1.5,1.5,0,1,1-2.82,1q-.1-.26-.18-.53a1.5,1.5,0,0,1,1.43-2m0-.25a1.75,1.75,0,0,0-1.67,2.28q.09.27.19.54a1.75,1.75,0,0,0,2.24,1,1.75,1.75,0,0,0,1-2.24l-.14-.4A1.74,1.74,0,0,0,48.46,26Z"/><path class="cls-1" d="M55.31,79.38a1.63,1.63,0,0,1-1.56-1.16,1.62,1.62,0,0,1,1.09-2l.46-.14a1.63,1.63,0,0,1,.48-.07,1.63,1.63,0,0,1,.48,3.18l-.5.15A1.63,1.63,0,0,1,55.31,79.38Z"/><path class="cls-2" d="M55.79,76.11A1.5,1.5,0,0,1,56.24,79l-.5.15a1.5,1.5,0,1,1-.86-2.87l.46-.14a1.51,1.51,0,0,1,.45-.07m0-.25a1.76,1.76,0,0,0-.52.08l-.46.14a1.75,1.75,0,0,0-1.18,2.18,1.75,1.75,0,0,0,2.18,1.18l.5-.15a1.75,1.75,0,0,0-.52-3.42Z"/><path class="cls-1" d="M45,81.45a1.62,1.62,0,0,1-.18-3.24l.49-.06h.19a1.62,1.62,0,0,1,.2,3.24l-.51.06Z"/><path class="cls-2" d="M45.53,78.26a1.5,1.5,0,0,1,.18,3l-.51.06H45a1.5,1.5,0,0,1-.17-3l.49-.06h.18m0-.25h-.21l-.49.06a1.75,1.75,0,0,0,.2,3.49h.2l.51-.06A1.75,1.75,0,0,0,45.53,78Z"/><path class="cls-1" d="M24.61,81l-.23,0-.5-.07a1.63,1.63,0,0,1,.22-3.23l.24,0,.49.07A1.62,1.62,0,0,1,24.61,81Z"/><path class="cls-2" d="M24.1,77.79l.22,0,.49.07a1.5,1.5,0,0,1-.21,3H24.4l-.5-.07a1.5,1.5,0,0,1,.2-3m0-.25A1.75,1.75,0,0,0,23.86,81l.5.07.24,0a1.75,1.75,0,0,0,.24-3.48l-.49-.07-.26,0Z"/><path class="cls-1" d="M34.51,81.85a1.62,1.62,0,0,1,0-3.25h.55a1.63,1.63,0,0,1,1.59,1.66,1.63,1.63,0,0,1-1.62,1.59Z"/><path class="cls-2" d="M34.55,78.72h.55a1.5,1.5,0,0,1,0,3h-.55a1.5,1.5,0,0,1,0-3m0-.25a1.75,1.75,0,0,0,0,3.5H35a1.75,1.75,0,0,0,.08-3.5h-.55Z"/><path class="cls-1" d="M56.43,36.11l-.28,0L55.6,36a1.63,1.63,0,1,1,.67-3.18l.43.08a1.63,1.63,0,0,1-.27,3.23Z"/><path class="cls-2" d="M55.93,32.89a1.51,1.51,0,0,1,.31,0l.43.08a1.5,1.5,0,0,1-.25,3l-.25,0-.55-.1a1.5,1.5,0,0,1,.31-3m0-.25a1.75,1.75,0,0,0-.36,3.46l.56.11.3,0a1.75,1.75,0,0,0,.29-3.48l-.42-.08a1.77,1.77,0,0,0-.36,0Z"/><path class="cls-1" d="M66.39,36a1.62,1.62,0,0,1-.24-3.23l.47-.07.26,0a1.62,1.62,0,0,1,.26,3.23l-.52.08Z"/><path class="cls-2" d="M66.89,32.76a1.5,1.5,0,0,1,.24,3l-.52.08-.22,0a1.5,1.5,0,0,1-.22-3l.47-.07.24,0m0-.25-.28,0-.47.07a1.75,1.75,0,0,0,.26,3.48l.26,0,.52-.08a1.75,1.75,0,0,0-.28-3.48Z"/><path class="cls-1" d="M80.53,61.51a1.62,1.62,0,0,1-1.32-2.57l.28-.4a1.62,1.62,0,1,1,2.67,1.86l-.3.42A1.63,1.63,0,0,1,80.53,61.51Z"/><path class="cls-2" d="M80.82,58A1.5,1.5,0,0,1,82,60.33l-.3.42A1.5,1.5,0,0,1,79.31,59l.28-.4A1.5,1.5,0,0,1,80.82,58m0-.25a1.75,1.75,0,0,0-1.44.75l-.28.4a1.75,1.75,0,0,0,2.85,2l.3-.42a1.75,1.75,0,0,0-1.44-2.75Z"/><path class="cls-1" d="M85.63,52.32a1.62,1.62,0,0,1-1.51-2.2l.19-.46a1.63,1.63,0,0,1,3,1.18l-.18.45A1.67,1.67,0,0,1,85.63,52.32Z"/><path class="cls-2" d="M85.82,48.76a1.5,1.5,0,0,1,1.4,2l-.18.45a1.53,1.53,0,0,1-1.41.95,1.47,1.47,0,0,1-.55-.11,1.48,1.48,0,0,1-.84-1.92l.19-.46a1.5,1.5,0,0,1,1.4-1m0-.25a1.74,1.74,0,0,0-1.63,1.11l-.18.46a1.74,1.74,0,0,0,1.62,2.37,1.79,1.79,0,0,0,1.64-1.1l.18-.45a1.75,1.75,0,0,0-1.63-2.39Z"/><path class="cls-1" d="M88.15,42.17l-.25,0a1.63,1.63,0,0,1-1.35-1.86l.07-.48a1.64,1.64,0,0,1,1.61-1.38l.24,0a1.63,1.63,0,0,1,1.36,1.85l-.08.5A1.62,1.62,0,0,1,88.15,42.17Z"/><path class="cls-2" d="M88.22,38.55l.22,0a1.5,1.5,0,0,1,1.26,1.71l-.08.5A1.5,1.5,0,0,1,88.15,42l-.23,0a1.5,1.5,0,0,1-1.25-1.71l.07-.49a1.5,1.5,0,0,1,1.48-1.28m0-.25a1.76,1.76,0,0,0-1.73,1.49l-.07.48a1.75,1.75,0,0,0,1.46,2l.27,0a1.74,1.74,0,0,0,1.73-1.48l.08-.5a1.75,1.75,0,0,0-1.47-2l-.26,0Z"/><path class="cls-1" d="M76.23,31.2l-.7-1.48.47-.25a1.63,1.63,0,1,1,1.55,2.86l-.4.22Z"/><path class="cls-2" d="M76.77,29.39a1.5,1.5,0,0,1,.72,2.82l-.3.16-.85-1.25-.64-1.36.37-.2a1.49,1.49,0,0,1,.71-.18m0-.25a1.75,1.75,0,0,0-.83.21l-.37.2-.21.11.1.21.64,1.36L77,32.52l.13.19.2-.11.3-.16a1.75,1.75,0,0,0-.84-3.29Z"/><path class="cls-1" d="M62.27,4.36a1.63,1.63,0,0,1-.6-3.14L62.18,1a1.63,1.63,0,0,1,1.11,3.06l-.43.16A1.62,1.62,0,0,1,62.27,4.36Z"/><path class="cls-2" d="M62.73,1.06A1.5,1.5,0,0,1,63.24,4l-.43.16a1.5,1.5,0,1,1-1.1-2.79l.5-.19a1.5,1.5,0,0,1,.51-.09m0-.25a1.75,1.75,0,0,0-.59.1l-.51.19a1.75,1.75,0,1,0,1.28,3.26l.42-.16a1.75,1.75,0,0,0-.6-3.39Z"/><path class="cls-1" d="M73.54,69.32a1.63,1.63,0,0,1-1.08-2.84l.35-.32A1.62,1.62,0,0,1,75,68.56l-.39.35A1.62,1.62,0,0,1,73.54,69.32Z"/><path class="cls-2" d="M73.92,65.86a1.5,1.5,0,0,1,1,2.61l-.39.35a1.5,1.5,0,1,1-2-2.25l.35-.32a1.49,1.49,0,0,1,1-.39m0-.25a1.74,1.74,0,0,0-1.18.46l-.35.32A1.75,1.75,0,0,0,74.7,69l.39-.35a1.75,1.75,0,0,0-1.18-3Z"/><path class="cls-1" d="M65,75.36a1.63,1.63,0,0,1-.78-3.05l.42-.23a1.63,1.63,0,0,1,1.59,2.83l-.46.25A1.63,1.63,0,0,1,65,75.36Z"/><path class="cls-2" d="M65.42,72a1.5,1.5,0,0,1,.74,2.81l-.46.25a1.5,1.5,0,1,1-1.44-2.63l.42-.23a1.5,1.5,0,0,1,.73-.19m0-.25a1.75,1.75,0,0,0-.86.22l-.42.23a1.75,1.75,0,0,0,1.68,3.07l.46-.25a1.75,1.75,0,0,0-.86-3.28Z"/><path class="cls-1" d="M14.29,79.05a1.62,1.62,0,0,1-.37,0l-.4-.09a1.67,1.67,0,0,1-1.26-2,1.58,1.58,0,0,1,1.91-1.22l.48.11a1.63,1.63,0,0,1-.37,3.21Z"/><path class="cls-2" d="M13.81,75.81a1.48,1.48,0,0,1,.34,0l.48.11a1.5,1.5,0,1,1-.68,2.92l-.4-.09A1.54,1.54,0,0,1,12.39,77a1.47,1.47,0,0,1,1.42-1.17m0-.25a1.72,1.72,0,0,0-1.66,1.36A1.8,1.8,0,0,0,13.49,79l.4.09a1.76,1.76,0,0,0,.4,0,1.75,1.75,0,0,0,.39-3.46l-.48-.11a1.74,1.74,0,0,0-.39,0Z"/><path class="cls-1" d="M73.07,3.61a1.64,1.64,0,0,1-.37,0l-.45-.1A1.63,1.63,0,0,1,72.58.25a1.64,1.64,0,0,1,.33,0l.53.12a1.63,1.63,0,0,1-.37,3.21Z"/><path class="cls-2" d="M72.58.38a1.52,1.52,0,0,1,.31,0l.52.12a1.5,1.5,0,1,1-.68,2.92l-.45-.1a1.5,1.5,0,0,1,.3-3m0-.25a1.76,1.76,0,0,0-1.71,1.39,1.75,1.75,0,0,0,1.36,2.07l.45.1a1.77,1.77,0,0,0,.4,0,1.75,1.75,0,0,0,.4-3.45L72.94.16a1.77,1.77,0,0,0-.36,0Z"/><path class="cls-1" d="M85.57,27.76a1.63,1.63,0,0,1-.78-3.05l.44-.24a1.62,1.62,0,0,1,2.33,1.89,1.61,1.61,0,0,1-.78,1l-.44.24A1.62,1.62,0,0,1,85.57,27.76Z"/><path class="cls-2" d="M86,24.39a1.5,1.5,0,0,1,.72,2.82l-.44.24a1.5,1.5,0,1,1-1.43-2.64l.44-.24a1.5,1.5,0,0,1,.71-.18m0-.25a1.76,1.76,0,0,0-.83.21l-.44.24a1.75,1.75,0,1,0,1.67,3.08l.44-.24A1.75,1.75,0,0,0,86,24.14Z"/><path class="cls-1" d="M89.18,31.72A1.62,1.62,0,0,1,87.67,30l0-.49A1.63,1.63,0,0,1,89.33,28a1.65,1.65,0,0,1,1.62,1.73l0,.51a1.63,1.63,0,0,1-1.62,1.51Z"/><path class="cls-2" d="M89.33,28.1h.09a1.5,1.5,0,0,1,1.4,1.59l0,.51a1.5,1.5,0,0,1-1.5,1.4h-.11A1.5,1.5,0,0,1,87.8,30l0-.49a1.5,1.5,0,0,1,1.5-1.41m0-.25a1.75,1.75,0,0,0-1.75,1.64l0,.49a1.75,1.75,0,0,0,1.62,1.87h.12A1.76,1.76,0,0,0,91,30.22l0-.51a1.75,1.75,0,0,0-1.64-1.86Z"/><path class="cls-1" d="M82.1,8.65a1.63,1.63,0,0,1-1.19-.52l-.31-.33a1.63,1.63,0,0,1,2.31-2.28l.38.39A1.62,1.62,0,0,1,82.1,8.65Z"/><path class="cls-2" d="M81.75,5.16a1.5,1.5,0,0,1,1.07.45l.38.39A1.5,1.5,0,0,1,81,8l-.32-.33a1.5,1.5,0,0,1,1.07-2.55m0-.25a1.75,1.75,0,0,0-1.25,3l.31.32a1.75,1.75,0,0,0,2.47.09,1.75,1.75,0,0,0,.09-2.47L83,5.43a1.74,1.74,0,0,0-1.25-.52Z"/><path class="cls-1" d="M87.21,21.55a5.79,5.79,0,0,1-5.54-4.19A5.77,5.77,0,0,1,87.21,10a5.77,5.77,0,0,1,0,11.53Z"/><path class="cls-2" d="M87.21,10.15a5.64,5.64,0,1,1-1.54.22,5.64,5.64,0,0,1,1.54-.22m0-.25a5.89,5.89,0,1,0,5.66,4.28A5.9,5.9,0,0,0,87.21,9.9Z"/><polygon class="cls-1" points="0.46 72.56 9.8 71.47 6.08 80.11 0.46 72.56"/><path class="cls-2" d="M9.6,71.62,6,79.86.69,72.66l8.91-1m.4-.3-.43.05-8.91,1-.43.05.26.35L5.85,80l.26.35.17-.4,3.55-8.24.17-.4Z"/><text class="cls-3" transform="translate(85.97 17.74)">1</text></g></g></svg>