<svg xmlns="http://www.w3.org/2000/svg" viewBox="0 0 103.3 105.53"><defs><style>.cls-1{fill:#fff;stroke:#00c2ff;stroke-miterlimit:10;stroke-width:0.5px;}.cls-2,.cls-3{fill:#00c2ff;}.cls-3{font-size:6.75px;font-family:Linotte-SemiBold, Linotte-SemiBold;}</style></defs><title>27-ha-guide trace</title><g id="Layer_2" data-name="Layer 2"><g id="Guide_Trace" data-name="Guide Trace"><path class="cls-1" d="M71.4,48.4h-.2a1.63,1.63,0,0,1-1.42-1.81l.05-.47a1.62,1.62,0,0,1,1.62-1.45h.17a1.63,1.63,0,0,1,1.44,1.79L73,47A1.62,1.62,0,0,1,71.4,48.4Z"/><path class="cls-2" d="M71.46,44.78h.16a1.5,1.5,0,0,1,1.33,1.65l-.06.52a1.5,1.5,0,0,1-1.49,1.32h-.18a1.5,1.5,0,0,1-1.31-1.67l.05-.48a1.5,1.5,0,0,1,1.49-1.34m0-.25a1.75,1.75,0,0,0-1.74,1.56l-.05.47a1.75,1.75,0,0,0,1.53,1.95h.21A1.75,1.75,0,0,0,73.14,47l.06-.52a1.75,1.75,0,0,0-1.55-1.93Z"/><path class="cls-1" d="M101.42,41.45a1.63,1.63,0,0,1-1.53-1.08L99.74,40a1.63,1.63,0,0,1,3-1.2l.19.51a1.63,1.63,0,0,1-1.53,2.18Z"/><path class="cls-2" d="M101.25,37.85a1.5,1.5,0,0,1,1.4.95l.19.51a1.5,1.5,0,1,1-2.82,1l-.16-.42a1.5,1.5,0,0,1,1.39-2.05m0-.25A1.75,1.75,0,0,0,99.62,40l.16.42a1.75,1.75,0,1,0,3.29-1.18l-.2-.52a1.74,1.74,0,0,0-1.63-1.11Z"/><path class="cls-1" d="M69.1,58.64a1.65,1.65,0,0,1-.44-.06,1.63,1.63,0,0,1-1.13-2l.13-.48A1.63,1.63,0,0,1,70.8,57l-.13.48A1.63,1.63,0,0,1,69.1,58.64Z"/><path class="cls-2" d="M69.23,55a1.5,1.5,0,0,1,1.45,1.9l-.13.48a1.5,1.5,0,0,1-2.89-.81l.13-.48A1.5,1.5,0,0,1,69.23,55m0-.25a1.75,1.75,0,0,0-1.69,1.28l-.13.48a1.75,1.75,0,1,0,3.37.94l.13-.48a1.75,1.75,0,0,0-1.22-2.16,1.76,1.76,0,0,0-.47-.06Z"/><path class="cls-1" d="M65.18,71.17a1.63,1.63,0,0,1-.3-3.22h0a1.61,1.61,0,0,1-.17-1.26l.13-.48a1.63,1.63,0,0,1,2-1.13,1.63,1.63,0,0,1,1.13,2l-.13.48a1.61,1.61,0,0,1-.81,1A1.63,1.63,0,0,1,66,71l-.5.1A1.58,1.58,0,0,1,65.18,71.17Z"/><path class="cls-2" d="M66.42,65.14A1.5,1.5,0,0,1,67.86,67l-.13.48a1.5,1.5,0,0,1-.88,1A1.5,1.5,0,0,1,66,70.93l-.5.1-.28,0a1.5,1.5,0,0,1-.28-3l.19,0a1.5,1.5,0,0,1-.25-1.32l.13-.48a1.5,1.5,0,0,1,1.44-1.1m0-.25a1.76,1.76,0,0,0-1.69,1.28l-.13.48a1.73,1.73,0,0,0,.1,1.21,1.75,1.75,0,0,0,.81,3.4l.5-.1a1.75,1.75,0,0,0,1.2-2.56,1.74,1.74,0,0,0,.76-1l.13-.48a1.75,1.75,0,0,0-1.69-2.22Z"/><path class="cls-1" d="M70.81,13.67a1.63,1.63,0,0,1-.76-.19l-.43-.23a1.63,1.63,0,0,1,1.5-2.89l.46.24a1.63,1.63,0,0,1-.76,3.06Z"/><path class="cls-2" d="M70.37,10.32a1.49,1.49,0,0,1,.69.17l.46.24a1.5,1.5,0,1,1-1.4,2.65l-.43-.23a1.5,1.5,0,0,1,.69-2.83m0-.25a1.75,1.75,0,0,0-.81,3.3l.43.23a1.75,1.75,0,0,0,1.64-3.09l-.46-.24a1.76,1.76,0,0,0-.8-.2Z"/><path class="cls-1" d="M95.8,32.64a1.62,1.62,0,0,1-1.23-.56l-.32-.36a1.62,1.62,0,0,1,2.43-2.16L97,30a1.62,1.62,0,0,1-1.23,2.69Z"/><path class="cls-2" d="M95.47,29.14a1.5,1.5,0,0,1,1.12.5l.34.39a1.5,1.5,0,1,1-2.27,2l-.32-.36a1.5,1.5,0,0,1,1.12-2.5m0-.25a1.75,1.75,0,0,0-1.31,2.91l.32.36a1.75,1.75,0,0,0,2.64-2.29l-.34-.39a1.75,1.75,0,0,0-1.31-.59Z"/><path class="cls-1" d="M71.24,37.94a1.62,1.62,0,0,1-1.6-1.36l-.08-.47a1.62,1.62,0,0,1,1.31-1.89l.29,0a1.62,1.62,0,0,1,1.6,1.33l.09.52a1.63,1.63,0,0,1-1.34,1.87Z"/><path class="cls-2" d="M71.16,34.32a1.5,1.5,0,0,1,1.47,1.23l.09.51a1.5,1.5,0,0,1-1.23,1.73l-.25,0a1.5,1.5,0,0,1-1.48-1.25l-.08-.47a1.5,1.5,0,0,1,1.21-1.75l.27,0m0-.25-.31,0a1.75,1.75,0,0,0-1.41,2l.08.47a1.74,1.74,0,0,0,1.72,1.46l.29,0A1.75,1.75,0,0,0,73,36l-.09-.52a1.75,1.75,0,0,0-1.72-1.44Z"/><path class="cls-1" d="M75.35,68.53a1.63,1.63,0,0,1-.49-3.17l.47-.15a1.63,1.63,0,0,1,1,3.09l-.48.15A1.63,1.63,0,0,1,75.35,68.53Z"/><path class="cls-2" d="M75.83,65.25a1.5,1.5,0,0,1,.46,2.93l-.48.15a1.5,1.5,0,1,1-.91-2.86l.47-.15a1.49,1.49,0,0,1,.46-.07m0-.25a1.74,1.74,0,0,0-.54.09l-.47.15a1.75,1.75,0,1,0,1.06,3.33l.48-.16A1.75,1.75,0,0,0,75.83,65Z"/><path class="cls-1" d="M79.83,19.05a1.61,1.61,0,0,1-.9-.27l-.41-.27a1.63,1.63,0,0,1,1.79-2.71l.42.28a1.62,1.62,0,0,1-.9,3Z"/><path class="cls-2" d="M79.42,15.65a1.49,1.49,0,0,1,.82.25l.42.28A1.5,1.5,0,1,1,79,18.68l-.41-.27a1.5,1.5,0,0,1,.83-2.75m0-.25a1.75,1.75,0,0,0-1,3.21l.41.27A1.75,1.75,0,0,0,80.81,16l-.42-.28a1.74,1.74,0,0,0-1-.29Z"/><path class="cls-1" d="M100.82,51.67a1.63,1.63,0,0,1-1.49-2.27L99.5,49a1.62,1.62,0,1,1,3,1.19l-.21.51A1.62,1.62,0,0,1,100.82,51.67Z"/><path class="cls-2" d="M101,48.08a1.5,1.5,0,0,1,1.4,2.05l-.21.5a1.5,1.5,0,0,1-2.76-1.18l.17-.42a1.5,1.5,0,0,1,1.39-.95m0-.25a1.74,1.74,0,0,0-1.63,1.11l-.17.42a1.75,1.75,0,1,0,3.22,1.38l.21-.51A1.75,1.75,0,0,0,101,47.83Z"/><path class="cls-1" d="M94.38,59.84a1.63,1.63,0,0,1-1-2.89l.37-.3a1.62,1.62,0,1,1,2.07,2.5l-.41.33A1.63,1.63,0,0,1,94.38,59.84Z"/><path class="cls-2" d="M94.77,56.39a1.5,1.5,0,0,1,1,2.65l-.41.33A1.5,1.5,0,0,1,93.44,57l.37-.3a1.49,1.49,0,0,1,1-.35m0-.25a1.75,1.75,0,0,0-1.12.4l-.37.3a1.75,1.75,0,0,0,2.19,2.73l.41-.33a1.75,1.75,0,0,0-1.12-3.1Z"/><path class="cls-1" d="M67.5,28.24a1.62,1.62,0,0,1-1.36-.74l-.27-.42a1.62,1.62,0,1,1,2.73-1.77l.27.42a1.63,1.63,0,0,1-1.36,2.51Z"/><path class="cls-2" d="M67.22,24.69a1.5,1.5,0,0,1,1.26.68l.27.42a1.5,1.5,0,1,1-2.52,1.63L66,27a1.5,1.5,0,0,1,1.26-2.32m0-.25a1.75,1.75,0,0,0-1.47,2.7l.27.42A1.75,1.75,0,1,0,69,25.66l-.27-.42a1.74,1.74,0,0,0-1.47-.8Z"/><path class="cls-1" d="M88.25,25.34a1.63,1.63,0,0,1-1-.38l-.38-.31a1.62,1.62,0,1,1,2.07-2.5l.39.33a1.63,1.63,0,0,1-1,2.87Z"/><path class="cls-2" d="M87.87,21.9a1.49,1.49,0,0,1,1,.35l.39.33a1.5,1.5,0,0,1-1.93,2.3l-.38-.31a1.5,1.5,0,0,1,1-2.65m0-.25a1.75,1.75,0,0,0-1.12,3.1l.38.31a1.75,1.75,0,0,0,2.25-2.68L89,22.05a1.75,1.75,0,0,0-1.12-.4Z"/><path class="cls-1" d="M85.2,64.89a1.63,1.63,0,0,1-.63-3.12l.45-.19a1.61,1.61,0,0,1,.65-.13,1.63,1.63,0,0,1,.65,3.12l-.47.2A1.61,1.61,0,0,1,85.2,64.89Z"/><path class="cls-2" d="M85.66,61.56a1.5,1.5,0,0,1,.6,2.88l-.47.2a1.5,1.5,0,0,1-1.17-2.76l.45-.19a1.49,1.49,0,0,1,.6-.12m0-.25a1.73,1.73,0,0,0-.7.15l-.45.19a1.75,1.75,0,1,0,1.37,3.22l.47-.2a1.75,1.75,0,0,0-.7-3.36Z"/><path class="cls-1" d="M33.8,26.65a1.63,1.63,0,0,1-1-2.9l.41-.32a1.62,1.62,0,1,1,2,2.56l-.38.3A1.63,1.63,0,0,1,33.8,26.65Z"/><path class="cls-2" d="M34.19,23.21a1.5,1.5,0,0,1,.92,2.68l-.38.3a1.5,1.5,0,0,1-1.87-2.34l.41-.32a1.5,1.5,0,0,1,.92-.32m0-.25a1.74,1.74,0,0,0-1.07.37l-.41.32a1.75,1.75,0,1,0,2.18,2.74l.38-.3A1.75,1.75,0,0,0,34.19,23Z"/><path class="cls-1" d="M55.07,70.53l-.5,0a1.62,1.62,0,0,1,.17-3.24h.15l.5,0a1.63,1.63,0,0,1-.16,3.24Z"/><path class="cls-2" d="M54.75,67.36h.14l.5,0a1.5,1.5,0,0,1-.15,3h-.15l-.5,0a1.5,1.5,0,0,1,.16-3m0-.25a1.75,1.75,0,0,0-.18,3.49l.5,0h.17a1.75,1.75,0,0,0,.17-3.49l-.5,0Z"/><path class="cls-1" d="M34.48,67.58a1.62,1.62,0,0,1-.45-.06l-.5-.15a1.63,1.63,0,0,1-1.09-2A1.63,1.63,0,0,1,34,64.19a1.62,1.62,0,0,1,.47.07l.46.14a1.63,1.63,0,0,1-.45,3.19Z"/><path class="cls-2" d="M34,64.31a1.49,1.49,0,0,1,.43.06l.46.14a1.5,1.5,0,1,1-.83,2.88l-.5-.15A1.5,1.5,0,0,1,34,64.31m0-.25a1.76,1.76,0,0,0-1.67,1.25,1.75,1.75,0,0,0,1.17,2.18l.5.15a1.75,1.75,0,1,0,1-3.36l-.46-.14a1.74,1.74,0,0,0-.5-.07Z"/><path class="cls-1" d="M26.6,34.25a1.63,1.63,0,0,1-1.32-2.57l.31-.42a1.63,1.63,0,0,1,1.31-.66,1.62,1.62,0,0,1,1.31,2.59l-.28.39A1.63,1.63,0,0,1,26.6,34.25Z"/><path class="cls-2" d="M26.89,30.72a1.5,1.5,0,0,1,1.21,2.39l-.28.39a1.5,1.5,0,0,1-2.44-1.75l.3-.42a1.5,1.5,0,0,1,1.21-.61m0-.25a1.76,1.76,0,0,0-1.41.71l-.31.42a1.75,1.75,0,1,0,2.85,2l.28-.39a1.75,1.75,0,0,0-1.41-2.78Z"/><path class="cls-1" d="M23.49,97.29A1.63,1.63,0,0,1,23,94.11l.47-.15a1.63,1.63,0,0,1,1,3.11l-.48.15A1.63,1.63,0,0,1,23.49,97.29Z"/><path class="cls-2" d="M24,94a1.5,1.5,0,0,1,.44,2.93l-.48.15A1.5,1.5,0,0,1,23,94.23l.47-.15A1.5,1.5,0,0,1,24,94m0-.25a1.75,1.75,0,0,0-.52.08L23,94a1.75,1.75,0,0,0,.51,3.42,1.76,1.76,0,0,0,.51-.08l.48-.15A1.75,1.75,0,0,0,24,93.76Z"/><path class="cls-1" d="M33.38,93.76a1.63,1.63,0,0,1-.62-3.13l.46-.19a1.63,1.63,0,0,1,1.25,3l-.47.19A1.61,1.61,0,0,1,33.38,93.76Z"/><path class="cls-2" d="M33.84,90.45a1.5,1.5,0,0,1,.58,2.88l-.47.19a1.5,1.5,0,0,1-1.14-2.77l.46-.19a1.5,1.5,0,0,1,.58-.12m0-.25a1.75,1.75,0,0,0-.67.13l-.46.19A1.75,1.75,0,1,0,34,93.75l.47-.19a1.75,1.75,0,0,0-.67-3.36Z"/><path class="cls-1" d="M25.11,63A1.62,1.62,0,0,1,24,62.61l-.41-.38a1.62,1.62,0,1,1,2.25-2.35l.32.3A1.63,1.63,0,0,1,25.11,63Z"/><path class="cls-2" d="M24.74,59.55a1.5,1.5,0,0,1,1,.42l.33.3a1.5,1.5,0,0,1-2,2.25l-.41-.38a1.5,1.5,0,0,1,1-2.58m0-.25a1.73,1.73,0,0,0-1.27.54,1.75,1.75,0,0,0,.06,2.47l.42.38a1.75,1.75,0,1,0,2.32-2.62L26,59.78a1.74,1.74,0,0,0-1.21-.48Z"/><path class="cls-1" d="M42.87,21.46a1.63,1.63,0,0,1-.55-3.15l.5-.18a1.62,1.62,0,1,1,1.06,3.07l-.45.16A1.61,1.61,0,0,1,42.87,21.46Z"/><path class="cls-2" d="M43.35,18.17a1.5,1.5,0,0,1,.49,2.92l-.45.16a1.5,1.5,0,0,1-1-2.82l.5-.18a1.5,1.5,0,0,1,.49-.08m0-.25a1.75,1.75,0,0,0-.57.1l-.5.18a1.75,1.75,0,1,0,1.19,3.29l.45-.16a1.75,1.75,0,0,0-.57-3.4Z"/><path class="cls-1" d="M13.31,99.89a1.63,1.63,0,0,1-1.59-1.29A1.63,1.63,0,0,1,13,96.67l.48-.1a1.65,1.65,0,0,1,.34,0,1.63,1.63,0,0,1,.33,3.22l-.49.1A1.67,1.67,0,0,1,13.31,99.89Z"/><path class="cls-2" d="M13.81,96.66a1.5,1.5,0,0,1,.31,3l-.49.1a1.52,1.52,0,0,1-.31,0,1.5,1.5,0,0,1-.31-3l.48-.1a1.5,1.5,0,0,1,.32,0m0-.25a1.76,1.76,0,0,0-.37,0l-.48.1a1.75,1.75,0,0,0-1.35,2.07A1.76,1.76,0,0,0,13.31,100a1.78,1.78,0,0,0,.36,0l.49-.1a1.75,1.75,0,0,0-.36-3.46Z"/><path class="cls-1" d="M20.46,53.86a1.63,1.63,0,0,1-1.61-1.42c0-.18,0-.36-.06-.55a1.63,1.63,0,0,1,1.47-1.77h.16A1.64,1.64,0,0,1,22,51.59c0,.15,0,.3,0,.45a1.62,1.62,0,0,1-1.41,1.81Z"/><path class="cls-2" d="M20.41,50.24A1.5,1.5,0,0,1,21.9,51.6q0,.23,0,.45a1.5,1.5,0,0,1-1.3,1.67h-.19A1.5,1.5,0,0,1,19,52.42q0-.27-.06-.54a1.5,1.5,0,0,1,1.35-1.63h.14m0-.25h-.17a1.75,1.75,0,0,0-1.58,1.91q0,.28.06.55A1.75,1.75,0,0,0,20.46,54h.22a1.75,1.75,0,0,0,1.52-2q0-.22,0-.44A1.76,1.76,0,0,0,20.41,50Z"/><path class="cls-1" d="M21.77,43.53a1.63,1.63,0,0,1-1.54-2.15l.17-.49A1.63,1.63,0,1,1,23.46,42l-.16.45A1.63,1.63,0,0,1,21.77,43.53Z"/><path class="cls-2" d="M21.93,39.94a1.5,1.5,0,0,1,1.41,2l-.16.45a1.5,1.5,0,1,1-2.84-1l.17-.49a1.5,1.5,0,0,1,1.41-1m0-.25a1.75,1.75,0,0,0-1.65,1.16l-.17.49a1.75,1.75,0,1,0,3.31,1.14l.16-.45a1.75,1.75,0,0,0-1.65-2.34Z"/><path class="cls-1" d="M52.88,18.28a1.63,1.63,0,0,1-.49-3.18l.48-.15a1.64,1.64,0,0,1,.49-.07,1.62,1.62,0,0,1,.49,3.17l-.48.15A1.64,1.64,0,0,1,52.88,18.28Z"/><path class="cls-2" d="M53.36,15a1.5,1.5,0,0,1,.45,2.93l-.48.15a1.5,1.5,0,0,1-.9-2.86l.48-.15a1.52,1.52,0,0,1,.45-.07m0-.25a1.77,1.77,0,0,0-.52.08l-.48.15a1.75,1.75,0,1,0,1,3.34l.48-.15a1.75,1.75,0,0,0-.53-3.42Z"/><path class="cls-1" d="M59.76,76.93a1.62,1.62,0,0,1-1.16-2.76l.35-.35a1.62,1.62,0,1,1,2.33,2.27l-.35.36A1.61,1.61,0,0,1,59.76,76.93Z"/><path class="cls-2" d="M60.12,73.44A1.5,1.5,0,0,1,61.19,76l-.35.36a1.5,1.5,0,1,1-2.14-2.1L59,73.9a1.5,1.5,0,0,1,1.07-.45m0-.25a1.74,1.74,0,0,0-1.25.53l-.35.35A1.75,1.75,0,0,0,61,76.53l.35-.36a1.75,1.75,0,0,0-1.25-3Z"/><path class="cls-1" d="M61.24,9.36a1.62,1.62,0,0,1-.57-.1l-.46-.17a1.63,1.63,0,0,1-1-2.08,1.63,1.63,0,0,1,2.08-1l.48.18a1.62,1.62,0,0,1,1,2.09A1.63,1.63,0,0,1,61.24,9.36Z"/><path class="cls-2" d="M60.77,6.06a1.5,1.5,0,0,1,.51.09l.48.18a1.5,1.5,0,1,1-1,2.81L60.26,9a1.5,1.5,0,0,1,.51-2.91m0-.25a1.75,1.75,0,0,0-.6,3.4l.46.17a1.74,1.74,0,0,0,.61.11,1.76,1.76,0,0,0,1.64-1.14,1.75,1.75,0,0,0-1-2.25l-.48-.18a1.75,1.75,0,0,0-.6-.11Z"/><path class="cls-1" d="M61.78,19.43a1.62,1.62,0,0,1-1.36-.74l-.27-.42a1.62,1.62,0,1,1,2.73-1.77l.27.42a1.63,1.63,0,0,1-1.36,2.51Z"/><path class="cls-2" d="M61.5,15.89a1.5,1.5,0,0,1,1.26.68L63,17a1.5,1.5,0,1,1-2.52,1.63l-.27-.42a1.5,1.5,0,0,1,1.26-2.32m0-.25A1.75,1.75,0,0,0,60,18.34l.27.42a1.75,1.75,0,1,0,2.93-1.91L63,16.44a1.74,1.74,0,0,0-1.47-.8Z"/><path class="cls-1" d="M44.62,69.49l-.51-.05a1.63,1.63,0,0,1,.18-3.24h.17l.49.05a1.63,1.63,0,0,1-.16,3.24Z"/><path class="cls-2" d="M44.29,66.32h.16l.49.05a1.5,1.5,0,0,1-.15,3h-.16l-.51-.05a1.5,1.5,0,0,1,.17-3m0-.25a1.75,1.75,0,0,0-.19,3.49l.51.05h.18A1.75,1.75,0,0,0,45,66.13l-.49-.05Z"/><path class="cls-1" d="M42.87,89.27a1.63,1.63,0,0,1-.78-3.05l.43-.24a1.62,1.62,0,1,1,1.56,2.85l-.44.24A1.63,1.63,0,0,1,42.87,89.27Z"/><path class="cls-2" d="M43.31,85.91A1.5,1.5,0,0,1,44,88.73l-.44.24a1.5,1.5,0,1,1-1.43-2.64l.43-.24a1.5,1.5,0,0,1,.72-.18m0-.25a1.75,1.75,0,0,0-.84.22l-.43.24a1.75,1.75,0,1,0,1.67,3.08l.44-.24a1.75,1.75,0,0,0-.84-3.28Z"/><path class="cls-1" d="M51.77,83.71a1.63,1.63,0,0,1-1-2.94l.4-.29a1.61,1.61,0,0,1,1-.31,1.63,1.63,0,0,1,1,2.94l-.41.3A1.62,1.62,0,0,1,51.77,83.71Z"/><path class="cls-2" d="M52.17,80.29A1.5,1.5,0,0,1,53.06,83l-.41.3a1.5,1.5,0,1,1-1.76-2.43l.4-.29a1.49,1.49,0,0,1,.88-.29m0-.25a1.74,1.74,0,0,0-1,.34l-.4.29a1.75,1.75,0,0,0,2,2.84l.41-.3a1.75,1.75,0,0,0-1-3.16Z"/><path class="cls-1" d="M43.89,5,52.1.43l0,3.31a1.61,1.61,0,0,1,.65,1.53A1.58,1.58,0,0,1,52,6.36l0,3.48Z"/><path class="cls-2" d="M52,.64l0,3.16a1.5,1.5,0,0,1,.65,1.45,1.47,1.47,0,0,1-.69,1l0,3.33L44.14,5,52,.64m.26-.43-.38.21L44,4.81,43.64,5l.37.22,7.71,4.59.37.22V9.62l0-3.2a1.7,1.7,0,0,0,.69-1.14,1.73,1.73,0,0,0-.65-1.61l0-3V.21Z"/><path class="cls-1" d="M5.81,105.27A5.76,5.76,0,0,1,6,93.75h.21A5.76,5.76,0,0,1,6,105.28Z"/><path class="cls-2" d="M6,93.87h.21A5.64,5.64,0,0,1,6,105.15H5.81A5.64,5.64,0,0,1,6,93.87m0-.25A5.89,5.89,0,0,0,5.8,105.4H6a5.89,5.89,0,0,0,.21-11.78Z"/><text class="cls-3" transform="translate(4.18 102.27)">1</text></g></g></svg>