<svg xmlns="http://www.w3.org/2000/svg" viewBox="0 0 74.81 124.53"><defs><style>.cls-1{fill:#fff;stroke:#00c2ff;stroke-miterlimit:10;stroke-width:0.5px;}.cls-2,.cls-3{fill:#00c2ff;}.cls-3{font-size:6.75px;font-family:Linotte-SemiBold, Linotte-SemiBold;}</style></defs><title>28-lam alif-guide trace</title><g id="Layer_2" data-name="Layer 2"><g id="Guide_Trace" data-name="Guide Trace"><path class="cls-1" d="M13.09,40.18a1.62,1.62,0,0,1-1.24-.58l-.32-.38A1.62,1.62,0,1,1,14,37.12l.32.38a1.63,1.63,0,0,1-1.24,2.67Z"/><path class="cls-2" d="M12.77,36.67a1.5,1.5,0,0,1,1.15.53l.32.38a1.5,1.5,0,1,1-2.29,1.94l-.32-.38a1.5,1.5,0,0,1,1.15-2.47m0-.25a1.75,1.75,0,0,0-1.34,2.88l.32.38a1.75,1.75,0,1,0,2.67-2.26L14.1,37a1.75,1.75,0,0,0-1.34-.62Z"/><path class="cls-1" d="M37.54,74.26a1.62,1.62,0,0,1-1.46-.9l-.22-.44a1.62,1.62,0,0,1,2.9-1.46l.23.46a1.63,1.63,0,0,1-1.46,2.35Z"/><path class="cls-2" d="M37.32,70.68a1.5,1.5,0,0,1,1.34.82l.23.46A1.5,1.5,0,1,1,36.2,73.3L36,72.86a1.5,1.5,0,0,1,1.34-2.18m0-.25A1.75,1.75,0,0,0,35.76,73l.22.44a1.75,1.75,0,0,0,3.14-1.55l-.23-.46a1.74,1.74,0,0,0-1.56-1Z"/><path class="cls-1" d="M26.19,56.6a1.63,1.63,0,0,1-1.31-.66l-.3-.4a1.63,1.63,0,0,1,2.61-1.94l.3.4a1.63,1.63,0,0,1-1.3,2.59Z"/><path class="cls-2" d="M25.89,53.08a1.5,1.5,0,0,1,1.2.6l.3.4A1.5,1.5,0,1,1,25,55.87l-.3-.4a1.5,1.5,0,0,1,1.2-2.4m0-.25a1.75,1.75,0,0,0-1.4,2.79l.3.4a1.76,1.76,0,0,0,1.41.71,1.75,1.75,0,0,0,1.4-2.79l-.3-.4a1.76,1.76,0,0,0-1.41-.7Z"/><path class="cls-1" d="M32.23,65.2a1.62,1.62,0,0,1-1.36-.73l-.28-.42a1.63,1.63,0,0,1,2.71-1.79l.28.42a1.63,1.63,0,0,1-1.35,2.52Z"/><path class="cls-2" d="M32,61.66a1.5,1.5,0,0,1,1.25.67l.28.42A1.5,1.5,0,0,1,31,64.4L30.7,64A1.5,1.5,0,0,1,32,61.66m0-.25a1.75,1.75,0,0,0-1.46,2.71l.28.42a1.75,1.75,0,1,0,2.92-1.93l-.28-.42A1.74,1.74,0,0,0,32,61.41Z"/><path class="cls-1" d="M41.5,84A1.62,1.62,0,0,1,40,83l-.18-.47a1.63,1.63,0,0,1,3-1.18l.18.46A1.63,1.63,0,0,1,41.5,84Z"/><path class="cls-2" d="M41.32,80.4a1.5,1.5,0,0,1,1.4,1l.18.46a1.5,1.5,0,1,1-2.79,1.1l-.18-.47a1.5,1.5,0,0,1,1.4-2m0-.25a1.75,1.75,0,0,0-1.63,2.38l.18.47a1.75,1.75,0,1,0,3.26-1.28l-.18-.46a1.74,1.74,0,0,0-1.63-1.12Z"/><path class="cls-1" d="M19.76,48.29a1.62,1.62,0,0,1-1.27-.61l-.31-.39a1.63,1.63,0,0,1,2.54-2l.31.39a1.63,1.63,0,0,1-1.27,2.64Z"/><path class="cls-2" d="M19.45,44.77a1.5,1.5,0,0,1,1.17.56l.31.39a1.5,1.5,0,1,1-2.34,1.88l-.31-.39a1.5,1.5,0,0,1,1.17-2.44m0-.25a1.75,1.75,0,0,0-1.36,2.84l.31.39a1.75,1.75,0,1,0,2.73-2.19l-.31-.39a1.74,1.74,0,0,0-1.37-.66Z"/><path class="cls-1" d="M45.3,93.78a1.63,1.63,0,0,1-1.52-1l-.18-.47a1.63,1.63,0,0,1,1.52-2.21,1.63,1.63,0,0,1,1.52,1l.18.47a1.63,1.63,0,0,1-1.52,2.21Z"/><path class="cls-2" d="M45.12,90.19a1.5,1.5,0,0,1,1.4,1l.18.47a1.5,1.5,0,1,1-2.8,1.07l-.18-.47a1.5,1.5,0,0,1,1.4-2m0-.25a1.75,1.75,0,0,0-1.63,2.37l.18.47a1.75,1.75,0,0,0,2.26,1,1.75,1.75,0,0,0,1-2.26l-.18-.47a1.76,1.76,0,0,0-1.63-1.12Z"/><path class="cls-1" d="M6,36.26a5.76,5.76,0,1,1,4.48-2.13A5.78,5.78,0,0,1,6,36.26Z"/><path class="cls-2" d="M6,24.86a5.64,5.64,0,1,1-4.38,2.09A5.62,5.62,0,0,1,6,24.86m0-.25a5.89,5.89,0,1,0,3.71,1.32A5.87,5.87,0,0,0,6,24.61Z"/><path class="cls-1" d="M59.23,88a1.63,1.63,0,0,1-1.51-1.73l0-.49a1.63,1.63,0,0,1,1.62-1.52h.1A1.63,1.63,0,0,1,61,86l0,.51A1.63,1.63,0,0,1,59.35,88Z"/><path class="cls-2" d="M59.38,84.38h.1A1.5,1.5,0,0,1,60.87,86l0,.51a1.5,1.5,0,0,1-1.5,1.4h-.1a1.5,1.5,0,0,1-1.39-1.6l0-.49a1.5,1.5,0,0,1,1.5-1.4m0-.25a1.75,1.75,0,0,0-1.75,1.64l0,.49a1.75,1.75,0,0,0,1.63,1.86h.12a1.75,1.75,0,0,0,1.74-1.63l0-.51a1.75,1.75,0,0,0-1.63-1.86Z"/><path class="cls-1" d="M58.32,35.49A1.63,1.63,0,0,1,56.7,34l0-.48a1.64,1.64,0,0,1,.41-1.18,1.61,1.61,0,0,1,1.12-.55h0a1.64,1.64,0,0,1,1.71,1.52l0,.5a1.63,1.63,0,0,1-1.53,1.72Z"/><path class="cls-2" d="M58.29,31.88a1.49,1.49,0,0,1,1.5,1.4l0,.5a1.5,1.5,0,0,1-1.41,1.58h-.09a1.5,1.5,0,0,1-1.5-1.41l0-.48a1.51,1.51,0,0,1,1.41-1.6h.08m0-.25H58.2a1.73,1.73,0,0,0-1.21.59,1.76,1.76,0,0,0-.44,1.27l0,.48a1.75,1.75,0,0,0,1.75,1.65h.1a1.75,1.75,0,0,0,1.65-1.85l0-.5a1.75,1.75,0,0,0-1.75-1.64Z"/><path class="cls-1" d="M59.68,77.5a1.63,1.63,0,0,1-1.61-1.64v-.5a1.63,1.63,0,1,1,3.25,0v.5a1.63,1.63,0,0,1-1.62,1.61Z"/><path class="cls-2" d="M59.7,73.88a1.5,1.5,0,0,1,1.49,1.51v.5a1.5,1.5,0,0,1-1.5,1.49h0a1.5,1.5,0,0,1-1.49-1.51v-.5a1.5,1.5,0,0,1,1.5-1.49h0m0-.25h0a1.75,1.75,0,0,0-1.75,1.74v.5a1.75,1.75,0,0,0,1.73,1.76,1.76,1.76,0,0,0,1.77-1.73v-.5a1.75,1.75,0,0,0-1.74-1.76Z"/><path class="cls-1" d="M58.87,46a1.62,1.62,0,0,1-1.62-1.54l0-.5a1.63,1.63,0,0,1,1.55-1.7h0a1.63,1.63,0,0,1,1.7,1.55l0,.49A1.63,1.63,0,0,1,59,46Z"/><path class="cls-2" d="M58.82,42.36a1.5,1.5,0,0,1,1.52,1.43l0,.49a1.5,1.5,0,0,1-1.42,1.57h-.08a1.5,1.5,0,0,1-1.5-1.43l0-.5a1.5,1.5,0,0,1,1.43-1.57h0m0-.25h-.05a1.75,1.75,0,0,0-1.67,1.83l0,.5a1.75,1.75,0,0,0,1.75,1.66H59a1.75,1.75,0,0,0,1.66-1.83l0-.49a1.76,1.76,0,0,0-1.77-1.67Z"/><path class="cls-1" d="M50.93,106.61a1.62,1.62,0,0,1-1.1-.43,1.6,1.6,0,0,1-.38-1.81l-6.81-5.69,8.83-3.24-1.4,8.06a1.63,1.63,0,0,1,2.28-.1,1.62,1.62,0,0,1,.12,2.29l-.35.38A1.63,1.63,0,0,1,50.93,106.61Z"/><path class="cls-2" d="M51.32,95.65l-1.44,8.27.28-.3a1.5,1.5,0,1,1,2.23,2L52,106a1.49,1.49,0,0,1-2.43-1.66l-6.71-5.61,8.43-3.09m.32-.38-.41.15L42.8,98.5l-.41.15.33.28,6.57,5.49a1.72,1.72,0,0,0,.45,1.86,1.75,1.75,0,0,0,2.47-.11l.35-.38a1.75,1.75,0,0,0-2.31-2.6l1.31-7.5.07-.43Z"/><path class="cls-1" d="M57.08,98.14a1.63,1.63,0,0,1-1.41-2.43l.24-.42a1.63,1.63,0,0,1,2.84,1.59l-.25.45A1.63,1.63,0,0,1,57.08,98.14Z"/><path class="cls-2" d="M57.33,94.58a1.5,1.5,0,0,1,1.31,2.23l-.25.45a1.5,1.5,0,1,1-2.61-1.49l.24-.42a1.5,1.5,0,0,1,1.31-.77m0-.25a1.75,1.75,0,0,0-1.53.9l-.24.42a1.75,1.75,0,0,0,1.52,2.62,1.76,1.76,0,0,0,1.52-.88l.25-.45a1.75,1.75,0,0,0-1.53-2.61Z"/><path class="cls-1" d="M59.31,56.49a1.62,1.62,0,0,1-1.62-1.56l0-.5a1.63,1.63,0,0,1,1.56-1.69h0a1.62,1.62,0,0,1,1.68,1.56l0,.5a1.63,1.63,0,0,1-1.56,1.69Z"/><path class="cls-2" d="M59.28,52.86a1.49,1.49,0,0,1,1.51,1.44l0,.5a1.5,1.5,0,0,1-1.44,1.56h-.06a1.5,1.5,0,0,1-1.5-1.44l0-.5a1.5,1.5,0,0,1,1.44-1.56h.05m0-.25h-.06a1.75,1.75,0,0,0-1.68,1.82l0,.5a1.74,1.74,0,0,0,1.75,1.68h.06a1.75,1.75,0,0,0,1.69-1.82l0-.5a1.73,1.73,0,0,0-1.76-1.68Z"/><path class="cls-1" d="M59.81,67a1.62,1.62,0,0,1-1.62-1.56l0-.5a1.63,1.63,0,0,1,1.56-1.69h0a1.62,1.62,0,0,1,1.68,1.56l0,.5A1.63,1.63,0,0,1,59.87,67Z"/><path class="cls-2" d="M59.78,63.36a1.49,1.49,0,0,1,1.51,1.44l0,.5a1.5,1.5,0,0,1-1.44,1.56h-.06a1.5,1.5,0,0,1-1.5-1.44l0-.5a1.5,1.5,0,0,1,1.44-1.56h.05m0-.25h-.06A1.75,1.75,0,0,0,58,64.93l0,.5a1.74,1.74,0,0,0,1.75,1.68h.06a1.75,1.75,0,0,0,1.69-1.82l0-.5a1.73,1.73,0,0,0-1.76-1.68Z"/><path class="cls-1" d="M23.45,120.75a1.63,1.63,0,0,1-.26-3.23l.48-.08.27,0a1.63,1.63,0,0,1,.27,3.23l-.51.08Z"/><path class="cls-2" d="M23.95,117.55a1.5,1.5,0,0,1,.25,3l-.51.08-.24,0a1.5,1.5,0,0,1-.24-3l.48-.08.25,0m0-.25-.29,0-.48.08a1.75,1.75,0,0,0,.28,3.48l.28,0,.51-.08a1.75,1.75,0,0,0-.29-3.48Z"/><path class="cls-1" d="M62.21,9.67A1.62,1.62,0,0,1,61,9.09l-.32-.38a1.63,1.63,0,1,1,2.48-2.1l.32.38a1.62,1.62,0,0,1-1.24,2.67Z"/><path class="cls-2" d="M61.88,6.16A1.5,1.5,0,0,1,63,6.69l.32.38A1.5,1.5,0,1,1,61.06,9l-.32-.38a1.5,1.5,0,0,1,1.14-2.47m0-.25a1.75,1.75,0,0,0-1.34,2.88l.32.38a1.75,1.75,0,1,0,2.67-2.26l-.32-.38a1.75,1.75,0,0,0-1.34-.62Z"/><path class="cls-1" d="M43,113.4a1.63,1.63,0,0,1-.9-3l.4-.27a1.63,1.63,0,0,1,1.82,2.69l-.43.29A1.62,1.62,0,0,1,43,113.4Z"/><path class="cls-2" d="M43.37,110a1.5,1.5,0,0,1,.84,2.74l-.43.29a1.5,1.5,0,1,1-1.65-2.51l.4-.27a1.49,1.49,0,0,1,.84-.26m0-.25a1.74,1.74,0,0,0-1,.3l-.4.27a1.75,1.75,0,0,0,1.93,2.92l.43-.29a1.75,1.75,0,0,0-1-3.2Z"/><path class="cls-1" d="M33.6,118.12a1.63,1.63,0,0,1-1.52-1.06A1.62,1.62,0,0,1,33,115l.46-.17a1.61,1.61,0,0,1,.58-.11,1.63,1.63,0,0,1,1.52,1,1.62,1.62,0,0,1-.94,2.1l-.48.18A1.62,1.62,0,0,1,33.6,118.12Z"/><path class="cls-2" d="M34.07,114.81a1.5,1.5,0,0,1,.53,2.9l-.48.18a1.5,1.5,0,0,1-1-2.81l.46-.17a1.49,1.49,0,0,1,.54-.1m0-.25a1.73,1.73,0,0,0-.63.12l-.46.17a1.75,1.75,0,0,0-1,2.25,1.76,1.76,0,0,0,1.64,1.14,1.74,1.74,0,0,0,.61-.11l.48-.18a1.75,1.75,0,0,0,1-2.26,1.76,1.76,0,0,0-1.63-1.13Z"/><path class="cls-1" d="M57.7,25a1.63,1.63,0,0,1-1.62-1.53L56,23a1.63,1.63,0,0,1,1.52-1.73h0a1.66,1.66,0,0,1,1.72,1.52l0,.5A1.63,1.63,0,0,1,57.8,25Z"/><path class="cls-2" d="M57.65,21.37a1.51,1.51,0,0,1,1.51,1.4l0,.5a1.5,1.5,0,0,1-1.41,1.59H57.7a1.5,1.5,0,0,1-1.5-1.41l0-.49a1.5,1.5,0,0,1,1.4-1.59h.08m0-.25h-.09A1.75,1.75,0,0,0,55.92,23l0,.49a1.75,1.75,0,0,0,1.75,1.64h.11a1.75,1.75,0,0,0,1.64-1.85l0-.5a1.76,1.76,0,0,0-1.76-1.64Z"/><path class="cls-1" d="M56.23,4a1.63,1.63,0,0,1-1.62-1.5l0-.5A1.63,1.63,0,0,1,56.07.26h.14a1.61,1.61,0,0,1,1.61,1.5l0,.5A1.62,1.62,0,0,1,56.35,4Z"/><path class="cls-2" d="M56.2.38a1.49,1.49,0,0,1,1.48,1.39l0,.5a1.5,1.5,0,0,1-1.38,1.61h-.11a1.5,1.5,0,0,1-1.49-1.39l0-.5A1.5,1.5,0,0,1,56.08.38h.13m0-.25h-.15A1.75,1.75,0,0,0,54.45,2l0,.5a1.76,1.76,0,0,0,1.74,1.62h.13A1.75,1.75,0,0,0,58,2.24l0-.5A1.73,1.73,0,0,0,56.2.13Z"/><path class="cls-1" d="M57,14.5A1.63,1.63,0,0,1,55.38,13l0-.49a1.63,1.63,0,0,1,1.51-1.74H57a1.62,1.62,0,0,1,1.6,1.51l0,.51a1.63,1.63,0,0,1-1.51,1.73Z"/><path class="cls-2" d="M57,10.87a1.5,1.5,0,0,1,1.48,1.4l0,.51a1.5,1.5,0,0,1-1.4,1.6H57A1.5,1.5,0,0,1,55.5,13l0-.49a1.5,1.5,0,0,1,1.39-1.6H57m0-.25h-.15a1.75,1.75,0,0,0-1.62,1.87l0,.49A1.75,1.75,0,0,0,57,14.62h.12a1.75,1.75,0,0,0,1.63-1.86l0-.51A1.75,1.75,0,0,0,57,10.62Z"/><path class="cls-1" d="M68.81,21.61a5.76,5.76,0,1,1,3.72-1.36,5.76,5.76,0,0,1-3.72,1.36Z"/><path class="cls-2" d="M68.8,10.21a5.64,5.64,0,1,1-3.64,1.33,5.63,5.63,0,0,1,3.64-1.33m0-.25A5.89,5.89,0,1,0,73.3,12,5.89,5.89,0,0,0,68.8,10Z"/><polygon class="cls-1" points="13.71 118.95 22.1 114.69 21.59 124.09 13.71 118.95"/><path class="cls-2" d="M22,114.9l-.49,9L14,119l8-4.06m.27-.42-.39.2-8,4.06-.39.2.36.24,7.52,4.9.36.24,0-.43.49-9,0-.43Z"/><text class="cls-3" transform="translate(67.05 18.4)">1</text><text class="cls-3" transform="translate(4.39 32.07)">2</text></g></g></svg>