<svg xmlns="http://www.w3.org/2000/svg" viewBox="0 0 52.57 54.03"><defs><style>.cls-1{fill:#fff;stroke:#00c2ff;stroke-miterlimit:10;stroke-width:0.5px;}.cls-2,.cls-3{fill:#00c2ff;}.cls-3{font-size:6.75px;font-family:Linotte-SemiBold, Linotte-SemiBold;}</style></defs><title>29-hamzah-guide trace</title><g id="Layer_2" data-name="Layer 2"><g id="Guide_Trace" data-name="Guide Trace"><path class="cls-1" d="M33.44,13A5.76,5.76,0,0,1,27.92,5.6l-.2-.08-.42-.2a1.62,1.62,0,1,1,1.34-3l.49.23a1.57,1.57,0,0,1,.5.38,5.77,5.77,0,0,1,3.84-1.46,5.71,5.71,0,0,1,3.78,1.43A5.76,5.76,0,0,1,33.44,13Z"/><path class="cls-2" d="M33.48,1.64A5.56,5.56,0,0,1,37.17,3a5.64,5.64,0,1,1-9.09,2.48,1.5,1.5,0,0,1-.3-.1l-.42-.2A1.5,1.5,0,1,1,28.6,2.48l.48.23a1.48,1.48,0,0,1,.54.45,5.66,5.66,0,0,1,3.86-1.52m0-.25A5.89,5.89,0,0,0,29.64,2.8a1.68,1.68,0,0,0-.45-.32l-.49-.23a1.75,1.75,0,1,0-1.45,3.19l.42.2.1,0a5.9,5.9,0,1,0,5.71-4.29Z"/><path class="cls-1" d="M17.77,3.52a1.63,1.63,0,0,1-.1-3.25l.54,0a1.64,1.64,0,0,1,1.68,1.57A1.62,1.62,0,0,1,18.32,3.5Z"/><path class="cls-2" d="M18.23.37a1.5,1.5,0,0,1,.09,3l-.46,0h-.09a1.5,1.5,0,0,1-.09-3l.54,0h0m0-.25h0l-.55,0a1.75,1.75,0,0,0,.11,3.5h.11l.45,0A1.75,1.75,0,0,0,20,1.81,1.76,1.76,0,0,0,18.23.12Z"/><path class="cls-1" d="M1.88,15.22A1.63,1.63,0,0,1,.32,13.14q.08-.27.17-.54a1.62,1.62,0,1,1,3.08,1L3.44,14A1.63,1.63,0,0,1,1.88,15.22Z"/><path class="cls-2" d="M2,11.61a1.5,1.5,0,0,1,1.42,2L3.32,14a1.5,1.5,0,1,1-2.88-.84q.08-.27.17-.53a1.5,1.5,0,0,1,1.42-1m0-.25a1.75,1.75,0,0,0-1.66,1.2q-.09.27-.17.54a1.75,1.75,0,0,0,1.68,2.24,1.76,1.76,0,0,0,1.68-1.26l.13-.41A1.75,1.75,0,0,0,2,11.36Z"/><path class="cls-1" d="M3.67,25.2a1.62,1.62,0,0,1-1.38-.76L2,24a1.63,1.63,0,0,1,1.4-2.45,1.63,1.63,0,0,1,1.4.8l.24.39A1.62,1.62,0,0,1,3.67,25.2Z"/><path class="cls-2" d="M3.41,21.65a1.5,1.5,0,0,1,1.29.74l.24.4A1.5,1.5,0,0,1,2.4,24.37l-.28-.46a1.5,1.5,0,0,1,1.29-2.26m0-.25A1.75,1.75,0,0,0,1.9,24l.28.46a1.75,1.75,0,1,0,3-1.86l-.24-.39a1.76,1.76,0,0,0-1.51-.86Z"/><path class="cls-1" d="M10.58,33.07a1.62,1.62,0,0,1-1.09-.42l-.38-.35a1.62,1.62,0,1,1,2.2-2.39l.36.33a1.62,1.62,0,0,1-1.09,2.83Z"/><path class="cls-2" d="M10.21,29.61a1.49,1.49,0,0,1,1,.4l.36.33a1.5,1.5,0,0,1-2,2.23l-.38-.35a1.5,1.5,0,0,1,1-2.6m0-.25A1.75,1.75,0,0,0,9,32.4l.38.35a1.75,1.75,0,1,0,2.34-2.6l-.36-.33a1.74,1.74,0,0,0-1.18-.46Z"/><path class="cls-1" d="M8,6.89A1.63,1.63,0,0,1,7,4l.44-.31A1.62,1.62,0,1,1,9.31,6.31l-.37.27A1.61,1.61,0,0,1,8,6.89Z"/><path class="cls-2" d="M8.38,3.48a1.5,1.5,0,0,1,.86,2.73l-.38.27A1.5,1.5,0,0,1,7.09,4.06l.44-.31a1.49,1.49,0,0,1,.85-.27m0-.25a1.74,1.74,0,0,0-1,.31l-.44.32A1.75,1.75,0,0,0,6.56,6.3,1.76,1.76,0,0,0,8,7a1.74,1.74,0,0,0,1-.34l.37-.27a1.75,1.75,0,0,0-1-3.19Z"/><path class="cls-1" d="M15.11,41l1.83-2.82A1.62,1.62,0,0,1,18.37,36l1.85-2.86,4.29,8.37Z"/><path class="cls-2" d="M20.21,33.39l4.09,8-9-.45,1.74-2.7a1.49,1.49,0,0,1,1.36-2.11l1.77-2.73m0-.5-.24.36-1.7,2.63a1.75,1.75,0,0,0-1.29.74,1.73,1.73,0,0,0-.21,1.58l-1.67,2.59-.24.36.43,0,9,.45.43,0-.2-.39-4.09-8-.2-.39Z"/><path class="cls-1" d="M27.42,42.07A1.63,1.63,0,0,1,26.69,39l.46-.23a1.62,1.62,0,1,1,1.44,2.91l-.44.22A1.61,1.61,0,0,1,27.42,42.07Z"/><path class="cls-2" d="M27.86,38.72a1.5,1.5,0,0,1,.66,2.85l-.44.22a1.5,1.5,0,1,1-1.34-2.68l.46-.23a1.49,1.49,0,0,1,.66-.16m0-.25a1.73,1.73,0,0,0-.77.18l-.46.23A1.75,1.75,0,1,0,28.2,42l.44-.22a1.75,1.75,0,0,0-.78-3.32Z"/><path class="cls-1" d="M18,46.79a1.63,1.63,0,0,1-.75-3.07l.45-.23A1.62,1.62,0,0,1,20,45.44a1.61,1.61,0,0,1-.8.95l-.44.23A1.61,1.61,0,0,1,18,46.79Z"/><path class="cls-2" d="M18.48,43.44a1.5,1.5,0,0,1,.69,2.83l-.44.23a1.5,1.5,0,1,1-1.37-2.67l.45-.23a1.49,1.49,0,0,1,.68-.17m0-.25a1.75,1.75,0,0,0-.8.19l-.45.23a1.75,1.75,0,1,0,1.6,3.11l.44-.23a1.75,1.75,0,0,0-.8-3.31Z"/><path class="cls-1" d="M2.67,53.12l5.24-7.81,1.43,2.91a1.61,1.61,0,0,1,1.21,2.47l1.5,3.06Z"/><path class="cls-2" d="M7.89,45.56l1.37,2.78a1.49,1.49,0,0,1,1.15,2.34l1.44,2.93-9-.6,5-7.45m0-.5-.24.36-5,7.45-.24.36.43,0,9,.6.43,0-.19-.39L10.7,50.69A1.74,1.74,0,0,0,9.42,48.1l-1.3-2.66-.19-.39Z"/><path class="cls-1" d="M36.86,37.45a1.63,1.63,0,0,1-1.46-.92,1.62,1.62,0,0,1,.75-2.17l.45-.22a1.61,1.61,0,0,1,.7-.16,1.64,1.64,0,0,1,1.47.92A1.63,1.63,0,0,1,38,37.08l-.45.21A1.61,1.61,0,0,1,36.86,37.45Z"/><path class="cls-2" d="M37.31,34.11A1.5,1.5,0,0,1,38,37l-.45.21a1.5,1.5,0,0,1-1.31-2.7l.45-.22a1.49,1.49,0,0,1,.65-.15m0-.25a1.73,1.73,0,0,0-.76.17l-.45.22a1.75,1.75,0,0,0-.81,2.34,1.76,1.76,0,0,0,1.58,1,1.73,1.73,0,0,0,.76-.18l.45-.21a1.75,1.75,0,0,0,.82-2.34,1.76,1.76,0,0,0-1.58-1Z"/><path class="cls-1" d="M46.56,37a5.77,5.77,0,1,1,2.74-.69A5.76,5.76,0,0,1,46.56,37Z"/><path class="cls-2" d="M46.55,25.61a5.64,5.64,0,1,1-2.68.68,5.64,5.64,0,0,1,2.68-.68m0-.25a5.89,5.89,0,1,0,5.19,3.09,5.9,5.9,0,0,0-5.19-3.09Z"/><text class="cls-3" transform="translate(31.66 9.58)">1</text><text class="cls-3" transform="translate(44.91 33.58)">2</text></g></g></svg>