<svg xmlns="http://www.w3.org/2000/svg" viewBox="0 0 112.68 96.45"><defs><style>.cls-1{fill:#fff;stroke:#00c2ff;stroke-miterlimit:10;stroke-width:0.5px;}.cls-2,.cls-3{fill:#00c2ff;}.cls-3{font-size:6.75px;font-family:Linotte-SemiBold, Linotte-SemiBold;}</style></defs><title>30-ya-guide trace</title><g id="Layer_2" data-name="Layer 2"><g id="Guide_Trace" data-name="Guide Trace"><circle class="cls-1" cx="36.39" cy="94.25" r="1.96"/><path class="cls-2" d="M36.39,92.41a1.83,1.83,0,1,1-1.83,1.83,1.83,1.83,0,0,1,1.83-1.83m0-.25a2.08,2.08,0,1,0,2.08,2.08,2.09,2.09,0,0,0-2.08-2.08Z"/><circle class="cls-1" cx="62.06" cy="94.25" r="1.96"/><path class="cls-2" d="M62.05,92.41a1.83,1.83,0,1,1-1.83,1.83,1.83,1.83,0,0,1,1.83-1.83m0-.25a2.08,2.08,0,1,0,2.08,2.08,2.09,2.09,0,0,0-2.08-2.08Z"/><path class="cls-1" d="M77.71,39.79a1.62,1.62,0,0,1-1.54-1.12L76,38.23a1.63,1.63,0,1,1,3.07-1.07l.17.5a1.63,1.63,0,0,1-1.54,2.13Z"/><path class="cls-2" d="M77.55,36.19a1.5,1.5,0,0,1,1.42,1l.17.5a1.5,1.5,0,1,1-2.85.94l-.15-.45a1.5,1.5,0,0,1,1.42-2m0-.25a1.75,1.75,0,0,0-1.65,2.33l.15.45a1.75,1.75,0,0,0,3.33-1.09l-.17-.5a1.75,1.75,0,0,0-1.65-1.18Z"/><path class="cls-1" d="M57.38,69.7a1.63,1.63,0,0,1-1.59-1.29A1.63,1.63,0,0,1,57,66.48l.48-.1a1.6,1.6,0,0,1,.35,0,1.63,1.63,0,0,1,.34,3.21l-.5.11A1.63,1.63,0,0,1,57.38,69.7Z"/><path class="cls-2" d="M57.88,66.47a1.5,1.5,0,0,1,.31,3l-.5.11a1.5,1.5,0,1,1-.61-2.94l.48-.1a1.49,1.49,0,0,1,.32,0m0-.25a1.75,1.75,0,0,0-.38,0l-.47.1a1.75,1.75,0,1,0,.72,3.43l.5-.11a1.75,1.75,0,0,0-.37-3.46Z"/><path class="cls-1" d="M5.48,29.13a1.55,1.55,0,0,1-.59.13,1.61,1.61,0,0,1-.64-.13,1.62,1.62,0,0,1-1-1.41L.5,25.94l8.35-4.32L8.42,31Z"/><path class="cls-2" d="M8.72,21.83l-.41,9L5.49,29a1.48,1.48,0,0,1-2.1-1.35L.75,26l8-4.13M9,21.41l-.38.2-8,4.13-.38.2.36.23,2.53,1.62a1.75,1.75,0,0,0,1.74,1.6,1.63,1.63,0,0,0,.58-.11L8.17,31l.36.23,0-.43.41-9,0-.43Z"/><path class="cls-1" d="M8.81,59a1.62,1.62,0,0,1-1.26-.59L7.22,58a1.62,1.62,0,1,1,2.54-2l.3.37A1.62,1.62,0,0,1,8.81,59Z"/><path class="cls-2" d="M8.49,55.46A1.5,1.5,0,0,1,9.67,56l.3.37a1.5,1.5,0,0,1-2.32,1.9l-.33-.41a1.5,1.5,0,0,1,1.17-2.43m0-.25a1.75,1.75,0,0,0-1.37,2.84l.33.41a1.75,1.75,0,1,0,2.71-2.22l-.3-.37a1.74,1.74,0,0,0-1.37-.66Z"/><path class="cls-1" d="M2.46,39.44A1.63,1.63,0,0,1,.92,37.73l0-.52a1.61,1.61,0,0,1,1.62-1.52h.11A1.63,1.63,0,0,1,4.2,37.42l0,.48a1.62,1.62,0,0,1-1.62,1.54Z"/><path class="cls-2" d="M2.58,35.82h.1a1.5,1.5,0,0,1,1.4,1.6l0,.48a1.5,1.5,0,0,1-1.5,1.42H2.47A1.5,1.5,0,0,1,1,37.74l0-.52a1.49,1.49,0,0,1,1.5-1.4m0-.25A1.73,1.73,0,0,0,.83,37.2l0,.52a1.75,1.75,0,0,0,1.66,1.84h.09a1.75,1.75,0,0,0,1.75-1.66l0-.48a1.75,1.75,0,0,0-1.63-1.86Z"/><path class="cls-1" d="M93.22,3.63a1.64,1.64,0,0,1-.45-.06l-.43-.12a1.62,1.62,0,0,1,.4-3.2,1.64,1.64,0,0,1,.4.05l.53.15a1.63,1.63,0,0,1-.45,3.19Z"/><path class="cls-2" d="M92.73.38a1.52,1.52,0,0,1,.37,0l.53.14a1.5,1.5,0,1,1-.83,2.88l-.44-.12a1.5,1.5,0,0,1,.37-3m0-.25a1.75,1.75,0,0,0-.43,3.45l.43.12a1.75,1.75,0,0,0,1-3.36L93.17.18a1.78,1.78,0,0,0-.43-.05Z"/><path class="cls-1" d="M101.7,9.52a1.62,1.62,0,0,1-1.28-.62l-.29-.36a1.62,1.62,0,1,1,2.5-2.07l.34.42a1.63,1.63,0,0,1-.27,2.28A1.61,1.61,0,0,1,101.7,9.52Z"/><path class="cls-2" d="M101.38,6a1.5,1.5,0,0,1,1.16.54l.34.42a1.5,1.5,0,0,1-2.36,1.86l-.29-.36A1.5,1.5,0,0,1,101.38,6m0-.25A1.75,1.75,0,0,0,100,8.63l.29.36a1.75,1.75,0,0,0,2.75-2.16l-.34-.42a1.74,1.74,0,0,0-1.35-.63Z"/><path class="cls-1" d="M67.31,66.39a1.63,1.63,0,0,1-.73-3.08l.42-.22A1.63,1.63,0,0,1,68.51,66l-.46.24A1.61,1.61,0,0,1,67.31,66.39Z"/><path class="cls-2" d="M67.76,63a1.5,1.5,0,0,1,.69,2.83L68,66.1a1.5,1.5,0,0,1-1.35-2.68l.43-.22a1.5,1.5,0,0,1,.69-.17m0-.25a1.76,1.76,0,0,0-.81.2l-.42.22a1.75,1.75,0,1,0,1.58,3.13l.47-.24a1.75,1.75,0,0,0-.81-3.3Z"/><path class="cls-1" d="M78.89,50.13a1.62,1.62,0,0,1-1.48-1.76q0-.23,0-.46a1.62,1.62,0,0,1,3.24.21c0,.18,0,.36,0,.54A1.63,1.63,0,0,1,79,50.14Z"/><path class="cls-2" d="M79.09,46.52h.08a1.5,1.5,0,0,1,1.4,1.59c0,.18,0,.35,0,.53A1.5,1.5,0,0,1,79,50H78.9a1.5,1.5,0,0,1-1.36-1.62q0-.23,0-.46a1.51,1.51,0,0,1,1.51-1.4m0-.25a1.76,1.76,0,0,0-1.76,1.64c0,.15,0,.31,0,.46a1.75,1.75,0,0,0,1.59,1.9H79a1.76,1.76,0,0,0,1.74-1.6c0-.18,0-.36,0-.54a1.75,1.75,0,0,0-1.63-1.86Z"/><path class="cls-1" d="M73.84,9.51A1.63,1.63,0,0,1,72.47,7l.32-.47a1.63,1.63,0,1,1,2.66,1.87l-.24.36A1.62,1.62,0,0,1,73.84,9.51Z"/><path class="cls-2" d="M74.12,6a1.5,1.5,0,0,1,1.23,2.36l-.24.36a1.5,1.5,0,0,1-2.53-1.62l.31-.47A1.5,1.5,0,0,1,74.12,6m0-.25a1.76,1.76,0,0,0-1.43.74l-.32.48a1.75,1.75,0,1,0,2.95,1.89l.24-.35a1.75,1.75,0,0,0-1.43-2.76Z"/><path class="cls-1" d="M74.07,29.93a1.62,1.62,0,0,1-1.55-1.15l-.15-.49a1.63,1.63,0,1,1,3.12-.93l.14.47a1.63,1.63,0,0,1-1.56,2.1Z"/><path class="cls-2" d="M73.92,26.33a1.5,1.5,0,0,1,1.44,1.07l.14.47a1.5,1.5,0,1,1-2.87.87l-.15-.49a1.5,1.5,0,0,1,1.44-1.93m0-.25a1.75,1.75,0,0,0-1.68,2.25l.15.49a1.75,1.75,0,1,0,3.35-1l-.14-.47a1.76,1.76,0,0,0-1.68-1.25Z"/><path class="cls-1" d="M47,71a1.63,1.63,0,0,1-.09-3.25l.49,0a1.66,1.66,0,0,1,1.72,1.52A1.63,1.63,0,0,1,47.58,71Z"/><path class="cls-2" d="M47.46,67.84a1.5,1.5,0,0,1,.11,3l-.51,0H47a1.5,1.5,0,0,1-.08-3l.48,0h.08m0-.25h-.1l-.49,0a1.75,1.75,0,0,0,.1,3.5h.1l.51,0a1.75,1.75,0,0,0-.12-3.5Z"/><path class="cls-1" d="M36.87,71l-.51,0a1.62,1.62,0,0,1-1.51-1.73,1.63,1.63,0,0,1,1.63-1.51l.59,0A1.62,1.62,0,0,1,37,71Z"/><path class="cls-2" d="M36.48,67.87h.1l.49,0a1.5,1.5,0,0,1-.09,3h-.09l-.51,0a1.5,1.5,0,0,1,.11-3m0-.25a1.76,1.76,0,0,0-1.75,1.63,1.75,1.75,0,0,0,1.62,1.87l.51,0H37a1.75,1.75,0,0,0,.11-3.5l-.49,0Z"/><path class="cls-1" d="M72,19.66a1.63,1.63,0,0,1-1.62-1.5l0-.52a1.63,1.63,0,0,1,1.52-1.73h.1a1.63,1.63,0,0,1,1.62,1.52l0,.48a1.62,1.62,0,0,1-1.49,1.75Z"/><path class="cls-2" d="M71.93,16a1.51,1.51,0,0,1,1.5,1.4l0,.48a1.5,1.5,0,0,1-1.38,1.61H72a1.5,1.5,0,0,1-1.49-1.38l0-.52A1.5,1.5,0,0,1,71.83,16h.09m0-.25h-.11a1.75,1.75,0,0,0-1.63,1.86l0,.52A1.76,1.76,0,0,0,72,19.78h.14a1.75,1.75,0,0,0,1.6-1.88l0-.48a1.76,1.76,0,0,0-1.75-1.64Z"/><path class="cls-1" d="M82.4,3.74a1.63,1.63,0,0,1-1.6-1.22A1.59,1.59,0,0,1,82,.56l.51-.12a1.64,1.64,0,0,1,.37,0A1.62,1.62,0,0,1,83.2,3.6l-.4.1A1.66,1.66,0,0,1,82.4,3.74Z"/><path class="cls-2" d="M82.83.52a1.5,1.5,0,0,1,.34,3l-.4.1a1.53,1.53,0,0,1-1.85-1.08A1.47,1.47,0,0,1,82,.68l.51-.12a1.5,1.5,0,0,1,.34,0m0-.25a1.76,1.76,0,0,0-.39,0l-.51.13a1.72,1.72,0,0,0-1.24,2.11A1.76,1.76,0,0,0,82.4,3.87a1.78,1.78,0,0,0,.43-.05l.4-.1a1.75,1.75,0,0,0-.4-3.45Z"/><path class="cls-1" d="M75.4,59.84a1.62,1.62,0,0,1-1.3-2.6l.27-.37a1.63,1.63,0,0,1,1.33-.69A1.63,1.63,0,0,1,77,58.75l-.32.44A1.64,1.64,0,0,1,75.4,59.84Z"/><path class="cls-2" d="M75.69,56.31a1.5,1.5,0,0,1,1.22,2.37l-.32.44a1.5,1.5,0,0,1-2.41-1.79l.27-.37a1.5,1.5,0,0,1,1.23-.64m0-.25a1.75,1.75,0,0,0-1.43.74l-.27.37a1.75,1.75,0,1,0,2.81,2.09l.32-.44a1.75,1.75,0,0,0-1.43-2.76Z"/><path class="cls-1" d="M26.6,69.45a1.62,1.62,0,0,1-.4,0l-.5-.13a1.62,1.62,0,0,1,.42-3.2,1.64,1.64,0,0,1,.42.05l.46.12a1.63,1.63,0,0,1-.4,3.2Z"/><path class="cls-2" d="M26.12,66.2a1.51,1.51,0,0,1,.38,0l.46.12a1.5,1.5,0,1,1-.73,2.91l-.5-.13a1.5,1.5,0,0,1,.39-2.95m0-.25a1.75,1.75,0,0,0-.45,3.44l.51.13a1.75,1.75,0,0,0,2.13-1.27A1.75,1.75,0,0,0,27,66.13L26.57,66a1.76,1.76,0,0,0-.45-.06Z"/><path class="cls-1" d="M3.85,49.8A1.62,1.62,0,0,1,2.3,48.66l-.15-.5a1.63,1.63,0,0,1,1.1-2,1.62,1.62,0,0,1,2,1.1l.14.46A1.63,1.63,0,0,1,3.85,49.8Z"/><path class="cls-2" d="M3.71,46.2a1.5,1.5,0,0,1,1.44,1.07l.14.46a1.5,1.5,0,1,1-2.86.89l-.15-.5A1.5,1.5,0,0,1,3.71,46.2m0-.25a1.76,1.76,0,0,0-.5.07A1.75,1.75,0,0,0,2,48.2l.15.5a1.75,1.75,0,1,0,3.34-1l-.14-.46a1.76,1.76,0,0,0-1.67-1.25Z"/><path class="cls-1" d="M16.85,65.64a1.62,1.62,0,0,1-.8-.21l-.45-.26A1.62,1.62,0,0,1,15,62.94a1.62,1.62,0,0,1,2.22-.58l.42.24a1.63,1.63,0,0,1-.81,3Z"/><path class="cls-2" d="M16.42,62.26a1.49,1.49,0,0,1,.76.21l.42.24a1.5,1.5,0,1,1-1.48,2.61l-.45-.26a1.5,1.5,0,0,1,.76-2.8m0-.25a1.76,1.76,0,0,0-1.51.87,1.75,1.75,0,0,0,.63,2.39l.45.26a1.75,1.75,0,1,0,1.73-3l-.42-.24a1.75,1.75,0,0,0-.88-.24Z"/><path class="cls-1" d="M106.66,24a5.77,5.77,0,1,1,1.54-.21,5.78,5.78,0,0,1-1.54.21Z"/><path class="cls-2" d="M106.66,12.55a5.64,5.64,0,1,1-1.5.2,5.64,5.64,0,0,1,1.5-.2m0-.25a5.89,5.89,0,1,0,5.67,4.32,5.9,5.9,0,0,0-5.67-4.32Z"/><text class="cls-3" transform="translate(104.75 20.83)">1</text></g></g></svg>