<svg xmlns="http://www.w3.org/2000/svg" viewBox="0 0 159.42 101.84"><defs><style>.cls-1{fill:#fff;stroke:#00c2ff;stroke-miterlimit:10;stroke-width:0.5px;}.cls-2,.cls-3{fill:#00c2ff;}.cls-3{font-size:6.75px;font-family:Linotte-SemiBold, Linotte-SemiBold;}</style></defs><title>4-tsa-guide trace</title><g id="Layer_2" data-name="Layer 2"><g id="Guide_Trace" data-name="Guide Trace"><path class="cls-1" d="M34.35,99a1.63,1.63,0,0,1-.39,0l-.5-.12a1.63,1.63,0,1,1,.79-3.15l.47.12a1.63,1.63,0,0,1-.38,3.2Z"/><path class="cls-2" d="M33.86,95.74a1.51,1.51,0,0,1,.37,0l.47.12A1.5,1.5,0,1,1,34,98.82l-.5-.12a1.5,1.5,0,0,1,.37-3m0-.25a1.75,1.75,0,0,0-.43,3.45l.5.12a1.75,1.75,0,1,0,.83-3.4l-.47-.12a1.76,1.76,0,0,0-.43-.05Z"/><path class="cls-1" d="M137,88.61a1.63,1.63,0,0,1-.73-3.08l.43-.22a1.6,1.6,0,0,1,.74-.18,1.62,1.62,0,0,1,.74,3.07l-.46.23A1.61,1.61,0,0,1,137,88.61Z"/><path class="cls-2" d="M137.44,85.26a1.5,1.5,0,0,1,.69,2.83l-.46.23a1.5,1.5,0,0,1-1.34-2.68l.43-.22a1.49,1.49,0,0,1,.68-.17m0-.25a1.75,1.75,0,0,0-.8.19l-.43.22a1.75,1.75,0,0,0,1.57,3.13l.46-.23a1.75,1.75,0,0,0-.8-3.31Z"/><path class="cls-1" d="M65.14,101.59a1.63,1.63,0,0,1,0-3.25h.5a1.65,1.65,0,0,1,1.67,1.58,1.63,1.63,0,0,1-1.58,1.67Z"/><path class="cls-2" d="M65.64,98.45a1.5,1.5,0,0,1,0,3h-.55a1.5,1.5,0,0,1,0-3h.54m0-.25h-.55a1.75,1.75,0,0,0,.05,3.5h.55a1.75,1.75,0,0,0,1.7-1.8,1.76,1.76,0,0,0-1.75-1.7Z"/><path class="cls-1" d="M75.63,101a1.63,1.63,0,0,1-.13-3.24l.52,0h.13a1.63,1.63,0,0,1,.1,3.25l-.48,0Z"/><path class="cls-2" d="M76.14,97.85a1.5,1.5,0,0,1,.09,3l-.48,0h-.13a1.5,1.5,0,0,1-.12-3l.52,0h.12m0-.25H76l-.52,0a1.75,1.75,0,0,0,.14,3.49h.15l.48,0a1.75,1.75,0,0,0-.11-3.5Z"/><path class="cls-1" d="M106.93,97.63a1.63,1.63,0,0,1-.28-3.23l.49-.09.28,0a1.62,1.62,0,0,1,.28,3.23l-.49.09Z"/><path class="cls-2" d="M107.42,94.42a1.5,1.5,0,0,1,.26,3l-.49.09-.26,0a1.5,1.5,0,0,1-.26-3l.49-.09.26,0m0-.25-.3,0-.49.09a1.75,1.75,0,0,0,.3,3.47l.3,0,.49-.09a1.75,1.75,0,0,0-.3-3.47Z"/><path class="cls-1" d="M96.54,99.17a1.63,1.63,0,0,1-.2-3.24l.49-.06H97a1.62,1.62,0,0,1,.21,3.24l-.5.06Z"/><path class="cls-2" d="M97,96a1.5,1.5,0,0,1,.19,3l-.5.06h-.19a1.5,1.5,0,0,1-.18-3l.49-.06H97m0-.25h-.22l-.49.06a1.75,1.75,0,0,0,.21,3.49h.22l.5-.06A1.75,1.75,0,0,0,97,95.73Z"/><path class="cls-1" d="M54.59,101.56A1.63,1.63,0,0,1,53,99.88a1.66,1.66,0,0,1,1.66-1.56l.52,0a1.62,1.62,0,0,1-.05,3.25Z"/><path class="cls-2" d="M54.68,98.44h0l.49,0a1.5,1.5,0,0,1,0,3h0l-.51,0a1.5,1.5,0,0,1-1.44-1.56,1.52,1.52,0,0,1,1.53-1.44m0-.25a1.78,1.78,0,0,0-1.78,1.68,1.75,1.75,0,0,0,1.68,1.82l.51,0h.06a1.75,1.75,0,0,0,.05-3.5l-.49,0h0Z"/><path class="cls-1" d="M152.61,75.07a1.62,1.62,0,0,1-1.41-2.42l.22-.4a1.62,1.62,0,1,1,2.87,1.53l-.26.47A1.63,1.63,0,0,1,152.61,75.07Z"/><path class="cls-2" d="M152.86,71.51a1.5,1.5,0,0,1,1.32,2.21l-.26.47a1.5,1.5,0,0,1-2.61-1.47l.22-.41a1.5,1.5,0,0,1,1.33-.79m0-.25a1.75,1.75,0,0,0-1.55.93l-.22.4a1.75,1.75,0,1,0,3,1.72l.26-.47a1.75,1.75,0,0,0-1.54-2.57Z"/><path class="cls-1" d="M24.4,95.67a1.61,1.61,0,0,1-.66-.14l-.47-.21a1.62,1.62,0,0,1-.8-2.15,1.63,1.63,0,0,1,1.48-.95,1.61,1.61,0,0,1,.67.15l.44.2a1.63,1.63,0,0,1-.66,3.11Z"/><path class="cls-2" d="M23.95,92.34a1.49,1.49,0,0,1,.62.14l.44.2a1.5,1.5,0,1,1-1.21,2.74l-.47-.21a1.5,1.5,0,0,1,.63-2.86m0-.25a1.76,1.76,0,0,0-1.59,1,1.75,1.75,0,0,0,.86,2.32l.47.21a1.75,1.75,0,1,0,1.42-3.2l-.44-.2a1.73,1.73,0,0,0-.72-.16Z"/><path class="cls-1" d="M8.64,82.36a1.63,1.63,0,0,1-1.41-.82L7,81.08a1.63,1.63,0,0,1,.64-2.21,1.63,1.63,0,0,1,2.21.64l.23.42a1.62,1.62,0,0,1-.61,2.22A1.62,1.62,0,0,1,8.64,82.36Z"/><path class="cls-2" d="M8.39,78.8a1.5,1.5,0,0,1,1.32.78l.23.42a1.5,1.5,0,1,1-2.61,1.49L7.08,81A1.5,1.5,0,0,1,8.39,78.8m0-.25a1.76,1.76,0,0,0-.84.22,1.75,1.75,0,0,0-.69,2.38l.26.46a1.75,1.75,0,0,0,3.21-.4,1.74,1.74,0,0,0-.17-1.33l-.23-.41a1.75,1.75,0,0,0-1.53-.9Z"/><path class="cls-1" d="M145.82,83a1.62,1.62,0,0,1-1-2.88l.37-.31a1.62,1.62,0,1,1,2.1,2.48l-.4.33A1.62,1.62,0,0,1,145.82,83Z"/><path class="cls-2" d="M146.2,79.54a1.5,1.5,0,0,1,1,2.64l-.4.33a1.5,1.5,0,0,1-1.91-2.31l.37-.31a1.49,1.49,0,0,1,1-.35m0-.25a1.75,1.75,0,0,0-1.13.41l-.37.31a1.75,1.75,0,0,0,2.23,2.7l.4-.33a1.75,1.75,0,0,0-1.13-3.09Z"/><path class="cls-1" d="M5.28,72.47a1.63,1.63,0,0,1-1.61-1.4l-.07-.52a1.6,1.6,0,0,1,.11-.82L.48,69l6.38-6.91,2.8,9-2.79-.63,0,.17a1.63,1.63,0,0,1-1.38,1.83Z"/><path class="cls-2" d="M6.8,62.34,9.47,70.9l-2.75-.62,0,.35a1.5,1.5,0,0,1-1.28,1.69H5.28A1.5,1.5,0,0,1,3.8,71.06l-.07-.52a1.49,1.49,0,0,1,.17-.89L.72,68.93l6.09-6.6m.11-.49-.29.32L.53,68.76l-.29.32.42.1,2.89.65a1.73,1.73,0,0,0-.07.74l.07.52A1.76,1.76,0,0,0,5.28,72.6l.25,0a1.75,1.75,0,0,0,1.49-2l2.4.54.42.1-.13-.41L7,62.26l-.13-.41Z"/><path class="cls-1" d="M155.35,65.05a1.63,1.63,0,0,1-1.58-1.66v-.47a1.64,1.64,0,0,1,1.63-1.61A1.63,1.63,0,0,1,157,62.94v.53a1.63,1.63,0,0,1-1.62,1.59Z"/><path class="cls-2" d="M155.41,61.43a1.5,1.5,0,0,1,1.49,1.51v.53a1.5,1.5,0,0,1-1.5,1.46h0a1.5,1.5,0,0,1-1.46-1.53v-.47a1.51,1.51,0,0,1,1.51-1.49m0-.25h0a1.76,1.76,0,0,0-1.75,1.74v.47a1.75,1.75,0,0,0,1.71,1.79h0a1.77,1.77,0,0,0,1.79-1.71v-.53a1.75,1.75,0,0,0-1.74-1.76Z"/><path class="cls-1" d="M15.44,90.27a1.63,1.63,0,0,1-1-.36l-.4-.33a1.62,1.62,0,1,1,2.08-2.49l.37.3a1.63,1.63,0,0,1-1,2.89Z"/><path class="cls-2" d="M15.05,86.83a1.49,1.49,0,0,1,1,.35l.37.31a1.5,1.5,0,1,1-1.89,2.33l-.4-.33a1.5,1.5,0,0,1,1-2.65m0-.25a1.75,1.75,0,0,0-1.12,3.09l.4.33a1.75,1.75,0,1,0,2.21-2.72l-.37-.3a1.75,1.75,0,0,0-1.12-.41Z"/><path class="cls-1" d="M44.68,100.81h-.19l-.51-.06a1.63,1.63,0,0,1,.2-3.24h.2l.49.06a1.62,1.62,0,0,1-.19,3.24Z"/><path class="cls-2" d="M44.18,97.63h.19l.49.06a1.5,1.5,0,0,1-.17,3h-.18l-.51-.06a1.5,1.5,0,0,1,.18-3m0-.25a1.75,1.75,0,0,0-.21,3.49l.51.06h.21a1.75,1.75,0,0,0,.2-3.49l-.49-.06Z"/><path class="cls-1" d="M86.1,100.26a1.63,1.63,0,0,1-1.62-1.49A1.62,1.62,0,0,1,86,97l.49,0h.14a1.62,1.62,0,0,1,.14,3.24l-.5,0Z"/><path class="cls-2" d="M86.6,97.09a1.5,1.5,0,0,1,.13,3l-.5,0H86.1a1.5,1.5,0,0,1-.13-3l.49,0h.13m0-.25h-.15l-.49,0a1.75,1.75,0,0,0-1.59,1.89,1.76,1.76,0,0,0,1.74,1.6h.15l.5,0a1.75,1.75,0,0,0-.15-3.49Z"/><path class="cls-1" d="M117.21,95.51a1.63,1.63,0,0,1-.38-3.21l.48-.12a1.62,1.62,0,0,1,.77,3.16l-.49.12A1.65,1.65,0,0,1,117.21,95.51Z"/><path class="cls-2" d="M117.7,92.27a1.5,1.5,0,0,1,.35,3l-.49.12a1.52,1.52,0,0,1-.35,0,1.5,1.5,0,0,1-.35-3l.48-.12a1.5,1.5,0,0,1,.36,0m0-.25a1.75,1.75,0,0,0-.42.05l-.48.12a1.75,1.75,0,0,0,.41,3.45,1.77,1.77,0,0,0,.41,0l.5-.12A1.75,1.75,0,0,0,117.7,92Z"/><path class="cls-1" d="M127.3,92.61a1.63,1.63,0,0,1-.53-3.16l.47-.16a1.61,1.61,0,0,1,.53-.09,1.63,1.63,0,0,1,.53,3.16l-.48.16A1.63,1.63,0,0,1,127.3,92.61Z"/><path class="cls-2" d="M127.77,89.32a1.5,1.5,0,0,1,.49,2.92l-.48.16a1.5,1.5,0,0,1-1-2.84l.47-.16a1.49,1.49,0,0,1,.49-.08m0-.25a1.74,1.74,0,0,0-.57.1l-.47.16a1.75,1.75,0,1,0,1.14,3.31l.48-.16a1.75,1.75,0,0,0-.57-3.41Z"/><path class="cls-1" d="M153.41,58.76a5.76,5.76,0,1,1,3.83-1.45,5.77,5.77,0,0,1-3.83,1.45Z"/><path class="cls-2" d="M153.41,47.36a5.64,5.64,0,1,1-3.74,1.42,5.63,5.63,0,0,1,3.74-1.42m0-.25a5.89,5.89,0,1,0,4.41,2,5.88,5.88,0,0,0-4.41-2Z"/><circle class="cls-1" cx="53.88" cy="34.71" r="1.96"/><path class="cls-2" d="M53.88,32.87A1.83,1.83,0,1,1,52,34.71a1.83,1.83,0,0,1,1.83-1.83m0-.25A2.08,2.08,0,1,0,56,34.71a2.09,2.09,0,0,0-2.08-2.08Z"/><circle class="cls-1" cx="100.05" cy="30.87" r="1.96"/><path class="cls-2" d="M100,29a1.83,1.83,0,1,1-1.83,1.83A1.83,1.83,0,0,1,100,29m0-.25a2.08,2.08,0,1,0,2.08,2.08A2.09,2.09,0,0,0,100,28.79Z"/><circle class="cls-1" cx="72.55" cy="2.21" r="1.96"/><path class="cls-2" d="M72.55.37a1.83,1.83,0,1,1-1.83,1.83A1.83,1.83,0,0,1,72.55.37m0-.25a2.08,2.08,0,1,0,2.08,2.08A2.09,2.09,0,0,0,72.55.12Z"/><text class="cls-3" transform="translate(151.49 55.13)">1</text></g></g></svg>