<svg xmlns="http://www.w3.org/2000/svg" viewBox="0 0 123.78 114.38"><defs><style>.cls-1{fill:#fff;stroke:#00c2ff;stroke-miterlimit:10;stroke-width:0.5px;}.cls-2,.cls-3{fill:#00c2ff;}.cls-3{font-size:6.75px;font-family:Linotte-SemiBold, Linotte-SemiBold;}</style></defs><title>6-ha-guide trace</title><g id="Layer_2" data-name="Layer 2"><g id="Guide_Trace" data-name="Guide Trace"><path class="cls-1" d="M54.92,6.21A1.63,1.63,0,0,1,53.4,4.49,1.61,1.61,0,0,1,55,3l.59,0a1.63,1.63,0,0,1-.09,3.25Z"/><path class="cls-2" d="M55,3.09h.09l.49,0a1.5,1.5,0,0,1-.08,3h-.08l-.51,0a1.5,1.5,0,0,1,.1-3m0-.25a1.73,1.73,0,0,0-1.75,1.64,1.75,1.75,0,0,0,1.63,1.86l.51,0h.1a1.75,1.75,0,0,0,.1-3.5l-.48,0Z"/><path class="cls-1" d="M88.23,8.29a1.63,1.63,0,0,1-.44-3.19L88.28,5a1.67,1.67,0,0,1,.43-.06,1.62,1.62,0,0,1,.43,3.19l-.47.13A1.65,1.65,0,0,1,88.23,8.29Z"/><path class="cls-2" d="M88.71,5A1.5,1.5,0,0,1,89.11,8l-.47.13a1.52,1.52,0,0,1-.41.06,1.5,1.5,0,0,1-.41-2.94l.49-.14A1.53,1.53,0,0,1,88.71,5m0-.25a1.78,1.78,0,0,0-.46.06l-.5.14a1.75,1.75,0,0,0,.47,3.44,1.77,1.77,0,0,0,.48-.07l.47-.13a1.75,1.75,0,0,0-.46-3.44Z"/><path class="cls-1" d="M86.37,3.76a1.63,1.63,0,0,1-1.23-2.68A1.61,1.61,0,0,1,86.25.52l.51,0h.1A1.62,1.62,0,0,1,87,3.72l-.49,0Z"/><path class="cls-2" d="M86.86.6a1.5,1.5,0,0,1,.12,3l-.49,0h-.12a1.5,1.5,0,0,1-.12-3l.51,0h.1m0-.25h-.11l-.51,0a1.75,1.75,0,0,0-1.61,1.88,1.76,1.76,0,0,0,1.74,1.61h.14l.49,0A1.75,1.75,0,0,0,86.86.35Z"/><path class="cls-1" d="M78.23,11.55a1.63,1.63,0,0,1-.56-3.15l.47-.17a1.6,1.6,0,0,1,.56-.1,1.63,1.63,0,0,1,1.52,1.06,1.62,1.62,0,0,1-1,2.09l-.47.17A1.63,1.63,0,0,1,78.23,11.55Z"/><path class="cls-2" d="M78.7,8.25a1.5,1.5,0,0,1,.52,2.91l-.47.17a1.5,1.5,0,1,1-1-2.81l.47-.17a1.49,1.49,0,0,1,.52-.09m0-.25a1.73,1.73,0,0,0-.61.11l-.47.17a1.75,1.75,0,1,0,1.21,3.28l.47-.17a1.75,1.75,0,0,0,1-2.25A1.76,1.76,0,0,0,78.7,8Z"/><path class="cls-1" d="M81.59,113a1.63,1.63,0,0,1-1.6-1.65,1.63,1.63,0,0,1,1.62-1.6h.52a1.63,1.63,0,0,1,0,3.25Z"/><path class="cls-2" d="M81.64,109.92h.49a1.5,1.5,0,0,1,0,3h-.53a1.5,1.5,0,0,1,0-3h0m0-.25h0a1.75,1.75,0,0,0,0,3.5h.51a1.76,1.76,0,0,0,1.77-1.73,1.75,1.75,0,0,0-1.73-1.77h-.49Z"/><path class="cls-1" d="M92.12,112.93a1.63,1.63,0,0,1-.06-3.25l.49,0a1.62,1.62,0,0,1,.15,3.25Z"/><path class="cls-2" d="M92.62,109.79a1.47,1.47,0,0,1,1.5,1.43,1.5,1.5,0,0,1-1.43,1.57l-.52,0h-.05a1.5,1.5,0,0,1-.05-3l.48,0h.07m0-.25h-.08l-.48,0a1.75,1.75,0,0,0,.06,3.5h.07l.51,0a1.75,1.75,0,0,0-.08-3.5Z"/><path class="cls-1" d="M50.71,26.67a1.62,1.62,0,0,1-1-2.9l.41-.32a1.62,1.62,0,1,1,2,2.57l-.38.3A1.61,1.61,0,0,1,50.71,26.67Z"/><path class="cls-2" d="M51.1,23.23A1.5,1.5,0,0,1,52,25.92l-.38.3a1.5,1.5,0,1,1-1.86-2.35l.41-.32a1.49,1.49,0,0,1,.92-.31m0-.25a1.73,1.73,0,0,0-1.07.37l-.41.32a1.75,1.75,0,0,0,1.09,3.12,1.73,1.73,0,0,0,1.08-.38l.38-.3A1.75,1.75,0,0,0,51.1,23Z"/><path class="cls-1" d="M68.56,15.66a1.63,1.63,0,0,1-1.46-.92,1.62,1.62,0,0,1,.75-2.17l.46-.22a1.62,1.62,0,0,1,.7-.16,1.62,1.62,0,0,1,.7,3.09l-.44.21A1.61,1.61,0,0,1,68.56,15.66Z"/><path class="cls-2" d="M69,12.32a1.5,1.5,0,0,1,.64,2.86l-.44.21a1.5,1.5,0,1,1-1.31-2.7l.46-.22a1.5,1.5,0,0,1,.64-.14m0-.25a1.74,1.74,0,0,0-.75.17l-.46.22A1.75,1.75,0,0,0,67,14.8a1.76,1.76,0,0,0,1.58,1,1.73,1.73,0,0,0,.76-.18l.44-.21A1.75,1.75,0,0,0,69,12.07Z"/><path class="cls-1" d="M65.51,6.08A1.63,1.63,0,0,1,63.89,4.6a1.62,1.62,0,0,1,1.48-1.76l.49,0H66a1.64,1.64,0,0,1,1.62,1.48A1.62,1.62,0,0,1,66.15,6l-.51,0Z"/><path class="cls-2" d="M66,2.91a1.5,1.5,0,0,1,.13,3l-.5,0h-.13a1.5,1.5,0,0,1-.13-3l.49,0H66m0-.25h-.16l-.49,0a1.75,1.75,0,0,0-1.59,1.89,1.76,1.76,0,0,0,1.74,1.6h.15l.51,0a1.75,1.75,0,0,0,1.59-1.9A1.76,1.76,0,0,0,66,2.66Z"/><path class="cls-1" d="M71.5,112.6l-.51,0a1.62,1.62,0,0,1,.14-3.24h.12l.49,0a1.63,1.63,0,0,1-.12,3.25Z"/><path class="cls-2" d="M71.14,109.44h.11l.49,0a1.5,1.5,0,0,1-.11,3h-.12l-.51,0a1.5,1.5,0,0,1,.13-3m0-.25a1.75,1.75,0,0,0-.15,3.49l.51,0h.14a1.75,1.75,0,0,0,.13-3.5l-.49,0Z"/><path class="cls-1" d="M51,109.11a1.65,1.65,0,0,1-.46-.07L50,108.9a1.63,1.63,0,0,1-1.09-2,1.64,1.64,0,0,1,1.56-1.16,1.62,1.62,0,0,1,.46.07l.47.14a1.62,1.62,0,0,1-.46,3.18Z"/><path class="cls-2" d="M50.48,105.85a1.5,1.5,0,0,1,.43.06l.47.14a1.5,1.5,0,1,1-.84,2.88l-.49-.14a1.5,1.5,0,0,1,.44-2.94m0-.25a1.76,1.76,0,0,0-1.68,1.25A1.75,1.75,0,0,0,50,109l.49.14A1.75,1.75,0,0,0,52.64,108a1.75,1.75,0,0,0-1.19-2.17l-.47-.14a1.75,1.75,0,0,0-.5-.07Z"/><path class="cls-1" d="M59.33,20.68a1.63,1.63,0,0,1-.85-3l.43-.27a1.62,1.62,0,1,1,1.68,2.78l-.42.26A1.62,1.62,0,0,1,59.33,20.68Z"/><path class="cls-2" d="M59.75,17.29a1.5,1.5,0,0,1,.78,2.78l-.42.26a1.5,1.5,0,0,1-1.57-2.56l.43-.26a1.49,1.49,0,0,1,.78-.22m0-.25a1.74,1.74,0,0,0-.91.25l-.43.26a1.75,1.75,0,1,0,1.83,3l.42-.26A1.75,1.75,0,0,0,59.75,17Z"/><path class="cls-1" d="M75.94,4.88a1.63,1.63,0,0,1-.2-3.24l.5-.06h.2a1.63,1.63,0,0,1,.19,3.24l-.49.06Z"/><path class="cls-2" d="M76.44,1.69a1.5,1.5,0,0,1,.17,3l-.49.06h-.19a1.5,1.5,0,0,1-.18-3l.5-.06h.19m0-.25h-.22l-.5.06A1.75,1.75,0,0,0,75.94,5h.22l.49-.06a1.75,1.75,0,0,0-.2-3.49Z"/><path class="cls-1" d="M26.27,91.14a1.63,1.63,0,0,1-1.47-.94l-.22-.48a1.63,1.63,0,0,1,1.48-2.29,1.63,1.63,0,0,1,1.48,1l.2.43a1.63,1.63,0,0,1-1.47,2.31Z"/><path class="cls-2" d="M26.06,87.56a1.5,1.5,0,0,1,1.37.89l.2.43a1.5,1.5,0,1,1-2.72,1.27l-.22-.48a1.5,1.5,0,0,1,1.37-2.12m0-.25a1.75,1.75,0,0,0-1.6,2.47l.22.48a1.76,1.76,0,0,0,1.59,1,1.75,1.75,0,0,0,1.58-2.49l-.2-.43a1.75,1.75,0,0,0-1.6-1Z"/><path class="cls-1" d="M61.21,111.39l-.27,0-.5-.08a1.62,1.62,0,0,1,.27-3.23l.27,0,.49.08a1.63,1.63,0,0,1-.26,3.23Z"/><path class="cls-2" d="M60.71,108.18l.25,0,.49.08a1.5,1.5,0,0,1-.24,3l-.25,0-.5-.08a1.5,1.5,0,0,1,.25-3m0-.25a1.75,1.75,0,0,0-.29,3.48l.5.08.29,0a1.75,1.75,0,0,0,.28-3.48L61,108l-.29,0Z"/><path class="cls-1" d="M8.47,16.35A1.63,1.63,0,0,1,7,14.12l.2-.49a1.62,1.62,0,1,1,3,1.26l-.18.44A1.62,1.62,0,0,1,8.47,16.35Z"/><path class="cls-2" d="M8.66,12.76A1.5,1.5,0,0,1,10,14.84l-.18.44a1.5,1.5,0,1,1-2.79-1.11l.2-.49a1.5,1.5,0,0,1,1.38-.92m0-.25A1.75,1.75,0,0,0,7,13.58l-.2.49a1.75,1.75,0,1,0,3.25,1.3l.18-.43a1.75,1.75,0,0,0-1.61-2.43Z"/><path class="cls-1" d="M24.36,70.57l-.26,0a1.62,1.62,0,0,1-1.35-1.86l.08-.5a1.62,1.62,0,0,1,1.6-1.36l.27,0A1.62,1.62,0,0,1,26,68.72L26,69.2A1.62,1.62,0,0,1,24.36,70.57Z"/><path class="cls-2" d="M24.44,67l.25,0a1.5,1.5,0,0,1,1.23,1.73l-.08.48a1.5,1.5,0,0,1-1.48,1.26l-.24,0a1.5,1.5,0,0,1-1.25-1.72l.08-.5A1.5,1.5,0,0,1,24.44,67m0-.25a1.74,1.74,0,0,0-1.73,1.46l-.08.5a1.75,1.75,0,0,0,1.45,2l.28,0a1.74,1.74,0,0,0,1.73-1.47l.08-.48a1.75,1.75,0,0,0-1.44-2l-.29,0Z"/><path class="cls-1" d="M32.5,99.51a1.62,1.62,0,0,1-1.1-.43L31,98.72a1.63,1.63,0,0,1-.06-2.3,1.62,1.62,0,0,1,2.3-.06l.35.33a1.62,1.62,0,0,1-1.1,2.82Z"/><path class="cls-2" d="M32.13,96a1.5,1.5,0,0,1,1,.41l.35.33a1.5,1.5,0,1,1-2,2.21l-.38-.36a1.5,1.5,0,0,1,1-2.59m0-.25a1.73,1.73,0,0,0-1.27.54,1.75,1.75,0,0,0,.06,2.47l.39.36a1.75,1.75,0,1,0,2.37-2.57l-.35-.32a1.74,1.74,0,0,0-1.21-.48Z"/><path class="cls-1" d="M34.72,3.58l-.26,0L34,3.48A1.62,1.62,0,0,1,34.22.25l.25,0,.5.08a1.63,1.63,0,0,1-.25,3.23Z"/><path class="cls-2" d="M34.22.38l.23,0,.5.08a1.5,1.5,0,0,1-.23,3l-.24,0L34,3.36a1.5,1.5,0,0,1,.23-3m0-.25A1.75,1.75,0,0,0,34,3.6l.49.08.28,0A1.75,1.75,0,0,0,36.13.92,1.74,1.74,0,0,0,35,.22l-.5-.08-.27,0Z"/><path class="cls-1" d="M26.78,60.38a1.62,1.62,0,0,1-1.55-2.11l.16-.5a1.63,1.63,0,1,1,3.09,1l-.15.46A1.62,1.62,0,0,1,26.78,60.38Z"/><path class="cls-2" d="M26.93,56.77a1.5,1.5,0,0,1,1.43,2l-.15.46a1.5,1.5,0,0,1-2.86-.9l.16-.49a1.5,1.5,0,0,1,1.42-1m0-.25a1.75,1.75,0,0,0-1.66,1.21l-.16.5a1.75,1.75,0,1,0,3.34,1l.15-.46a1.75,1.75,0,0,0-1.67-2.29Z"/><path class="cls-1" d="M30.72,50.67A1.61,1.61,0,0,1,30,50.5a1.63,1.63,0,0,1-.72-2.18l.23-.46a1.63,1.63,0,1,1,2.89,1.49l-.22.43A1.62,1.62,0,0,1,30.72,50.67Z"/><path class="cls-2" d="M31,47.1a1.5,1.5,0,0,1,1.33,2.19l-.22.43a1.5,1.5,0,1,1-2.68-1.35l.23-.46A1.5,1.5,0,0,1,31,47.1m0-.25a1.74,1.74,0,0,0-1.56.95l-.23.46a1.75,1.75,0,1,0,3.13,1.57l.22-.43A1.75,1.75,0,0,0,31,46.85Z"/><path class="cls-1" d="M14.33,7.76A1.63,1.63,0,0,1,13.26,4.9l.42-.35a1.63,1.63,0,1,1,2.05,2.52l-.35.29A1.63,1.63,0,0,1,14.33,7.76Z"/><path class="cls-2" d="M14.71,4.31A1.5,1.5,0,0,1,15.66,7l-.35.29a1.5,1.5,0,1,1-2-2.27l.42-.35a1.49,1.49,0,0,1,.95-.34m0-.25a1.75,1.75,0,0,0-1.1.39l-.42.35a1.75,1.75,0,0,0,2.29,2.65l.35-.29a1.75,1.75,0,0,0-1.11-3.11Z"/><path class="cls-1" d="M36.16,41.71a1.62,1.62,0,0,1-1.32-2.57l.3-.41a1.63,1.63,0,0,1,1.32-.67,1.63,1.63,0,0,1,1.31,2.58l-.29.4A1.63,1.63,0,0,1,36.16,41.71Z"/><path class="cls-2" d="M36.45,38.18a1.5,1.5,0,0,1,1.21,2.38l-.29.4a1.5,1.5,0,0,1-2.44-1.75l.3-.41a1.5,1.5,0,0,1,1.21-.62m0-.25a1.75,1.75,0,0,0-1.42.72l-.3.41a1.75,1.75,0,1,0,2.84,2l.29-.4a1.75,1.75,0,0,0-1.41-2.78Z"/><path class="cls-1" d="M98.48,5.95a1.63,1.63,0,0,1-1.54-2.13l-.31,0A1.63,1.63,0,0,1,96.85.54l.23,0,.53.08A1.63,1.63,0,0,1,99,2.5s0,.07,0,.1h0a1.62,1.62,0,0,1,.31,3.22l-.49.09Z"/><path class="cls-2" d="M96.85.67l.21,0,.53.08a1.5,1.5,0,0,1,1.24,1.72,1.55,1.55,0,0,1-.07.26H99a1.5,1.5,0,0,1,.28,3l-.49.09-.28,0a1.5,1.5,0,0,1-1.37-2.1h0l-.46-.07a1.5,1.5,0,0,1,.2-3m0-.25h0a1.76,1.76,0,0,0-1.73,1.51,1.75,1.75,0,0,0,1.49,2l.17,0a1.75,1.75,0,0,0,2,2.12L99.3,6a1.75,1.75,0,0,0-.22-3.47,1.75,1.75,0,0,0-1.45-2L97.1.43l-.25,0Z"/><path class="cls-1" d="M45.1,5.13l-.22,0L44.37,5a1.63,1.63,0,0,1,.22-3.24l.23,0,.49.07a1.63,1.63,0,0,1-.22,3.23Z"/><path class="cls-2" d="M44.59,1.94l.21,0L45.3,2a1.5,1.5,0,0,1-.2,3h-.21l-.5-.07a1.5,1.5,0,0,1,.2-3m0-.25a1.75,1.75,0,0,0-.24,3.48l.5.07.24,0a1.75,1.75,0,0,0,.24-3.48l-.49-.07-.25,0Z"/><path class="cls-1" d="M113,111.24a1.62,1.62,0,0,1-.2-3.24l.5-.06h.2a1.62,1.62,0,0,1,.2,3.24l-.5.06Z"/><path class="cls-2" d="M113.54,108a1.5,1.5,0,0,1,.18,3l-.5.06H113a1.5,1.5,0,0,1-.18-3l.5-.06h.18m0-.25h-.22l-.5.06a1.75,1.75,0,0,0,.21,3.49h.22l.5-.06a1.75,1.75,0,0,0-.22-3.49Z"/><path class="cls-1" d="M23.89,3.89A1.62,1.62,0,0,1,23.77.65l.55,0A1.66,1.66,0,0,1,26,2.15a1.63,1.63,0,0,1-1.54,1.71Z"/><path class="cls-2" d="M24.4.73a1.5,1.5,0,0,1,.07,3l-.46,0h-.12a1.5,1.5,0,0,1-.12-3l.54,0h.09m0-.25h-.1l-.54,0a1.75,1.75,0,0,0-1.61,1.88A1.76,1.76,0,0,0,23.89,4H24l.45,0A1.75,1.75,0,0,0,24.4.48Z"/><path class="cls-1" d="M102.48,110.7l-.09-1.63.59,0h.12a1.63,1.63,0,0,1,.13,3.25l-.57,0Z"/><path class="cls-2" d="M103.1,109.15a1.5,1.5,0,0,1,.12,3l-.45,0-.16-1.49-.08-1.5.47,0h.11m0-.25H103l-.47,0-.24,0v.24l.08,1.5.16,1.5,0,.24.24,0,.45,0a1.75,1.75,0,0,0-.14-3.5Z"/><path class="cls-1" d="M23.69,81a1.63,1.63,0,0,1-1.62-1.5L22,79a1.62,1.62,0,0,1,1.53-1.72h.12a1.61,1.61,0,0,1,1.6,1.53l0,.47A1.63,1.63,0,0,1,23.81,81Z"/><path class="cls-2" d="M23.68,77.39a1.48,1.48,0,0,1,1.47,1.41l0,.47a1.5,1.5,0,0,1-1.38,1.61h-.12a1.5,1.5,0,0,1-1.49-1.39l0-.53a1.5,1.5,0,0,1,1.41-1.58h.11m0-.25h-.13A1.75,1.75,0,0,0,21.91,79l0,.53a1.76,1.76,0,0,0,1.74,1.62h.13a1.75,1.75,0,0,0,1.61-1.88l0-.47a1.74,1.74,0,0,0-1.72-1.65Z"/><path class="cls-1" d="M42.9,33.68a1.63,1.63,0,0,1-1.17-2.76l.36-.37a1.63,1.63,0,1,1,2.31,2.28l-.34.35A1.61,1.61,0,0,1,42.9,33.68Z"/><path class="cls-2" d="M43.25,30.19a1.5,1.5,0,0,1,1.07,2.55L44,33.1A1.5,1.5,0,0,1,41.82,31l.36-.37a1.5,1.5,0,0,1,1.07-.45m0-.25a1.74,1.74,0,0,0-1.25.52l-.36.37a1.75,1.75,0,1,0,2.51,2.44l.34-.35a1.75,1.75,0,0,0-1.25-3Z"/><path class="cls-1" d="M41.17,105.35a1.62,1.62,0,0,1-.72-.17l-.47-.24a1.63,1.63,0,0,1,1.49-2.89l.42.21a1.62,1.62,0,0,1-.72,3.08Z"/><path class="cls-2" d="M40.73,102a1.5,1.5,0,0,1,.69.17l.42.21a1.5,1.5,0,1,1-1.33,2.69l-.47-.24a1.5,1.5,0,0,1,.69-2.83m0-.25a1.75,1.75,0,0,0-.81,3.3l.47.24a1.75,1.75,0,1,0,1.55-3.14l-.42-.21a1.76,1.76,0,0,0-.8-.19Z"/><path class="cls-1" d="M6,30.37a5.76,5.76,0,1,1,5.47-4,5.75,5.75,0,0,1-5.47,4Z"/><path class="cls-2" d="M6,19A5.64,5.64,0,1,1,.66,22.84,5.63,5.63,0,0,1,6,19m0-.25a5.89,5.89,0,1,0,1.85.3A5.88,5.88,0,0,0,6,18.71Z"/><polygon class="cls-1" points="115.28 104.55 123.28 109.49 115 113.95 115.28 104.55"/><path class="cls-2" d="M115.4,104.77l7.64,4.71-7.9,4.26.26-9m-.24-.44v.43l-.26,9v.43l.38-.21,7.9-4.26.38-.21-.37-.23-7.64-4.71-.37-.23Z"/><text class="cls-3" transform="translate(4.44 26.5)">1</text></g></g></svg>