<svg xmlns="http://www.w3.org/2000/svg" viewBox="0 0 123.79 143.54"><defs><style>.cls-1{fill:#fff;stroke:#00c2ff;stroke-miterlimit:10;stroke-width:0.5px;}.cls-2,.cls-3{fill:#00c2ff;}.cls-3{font-size:6.75px;font-family:Linotte-SemiBold, Linotte-SemiBold;}</style></defs><title>7-kho-guide trace</title><g id="Layer_2" data-name="Layer 2"><g id="Guide_Trace" data-name="Guide Trace"><circle class="cls-1" cx="57.11" cy="2.21" r="1.96"/><path class="cls-2" d="M57.11.38a1.83,1.83,0,1,1-1.83,1.83A1.83,1.83,0,0,1,57.11.38m0-.25a2.08,2.08,0,1,0,2.08,2.08A2.09,2.09,0,0,0,57.11.13Z"/><path class="cls-1" d="M50.71,55.83a1.63,1.63,0,0,1-1-2.9l.4-.31a1.63,1.63,0,1,1,2,2.57l-.39.3A1.61,1.61,0,0,1,50.71,55.83Z"/><path class="cls-2" d="M51.1,52.39A1.5,1.5,0,0,1,52,55.08l-.39.3A1.5,1.5,0,1,1,49.78,53l.4-.31a1.5,1.5,0,0,1,.92-.32m0-.25a1.74,1.74,0,0,0-1.07.37l-.4.32A1.75,1.75,0,0,0,50.71,56a1.73,1.73,0,0,0,1.08-.38l.39-.3a1.75,1.75,0,0,0-1.08-3.13Z"/><path class="cls-1" d="M8.47,45.51A1.63,1.63,0,0,1,7,43.28l.2-.48a1.63,1.63,0,1,1,3,1.26l-.18.44A1.62,1.62,0,0,1,8.47,45.51Z"/><path class="cls-2" d="M8.66,41.92A1.5,1.5,0,0,1,10,44l-.18.44a1.5,1.5,0,1,1-2.78-1.12l.2-.48a1.5,1.5,0,0,1,1.38-.92m0-.25A1.75,1.75,0,0,0,7,42.74l-.2.48a1.75,1.75,0,1,0,3.25,1.31l.18-.44a1.75,1.75,0,0,0-1.61-2.43Z"/><path class="cls-1" d="M86.38,32.92a1.63,1.63,0,0,1-1.62-1.5,1.62,1.62,0,0,1,1.49-1.75l.51,0h.11A1.62,1.62,0,0,1,87,32.88l-.49,0Z"/><path class="cls-2" d="M86.87,29.76a1.5,1.5,0,0,1,.12,3l-.49,0h-.12a1.5,1.5,0,0,1-.12-3l.51,0h.1m0-.25h-.12l-.51,0a1.75,1.75,0,0,0-1.61,1.88A1.76,1.76,0,0,0,86.38,33h.14L87,33a1.75,1.75,0,0,0-.14-3.49Z"/><path class="cls-1" d="M88.23,37.46a1.63,1.63,0,0,1-.44-3.19l.49-.14a1.63,1.63,0,1,1,.86,3.14l-.47.13A1.64,1.64,0,0,1,88.23,37.46Z"/><path class="cls-2" d="M88.71,34.2a1.5,1.5,0,0,1,.39,2.95l-.47.13a1.5,1.5,0,0,1-.81-2.89l.49-.14a1.49,1.49,0,0,1,.4-.05m0-.25a1.75,1.75,0,0,0-.46.06l-.49.14a1.75,1.75,0,1,0,.94,3.37l.47-.13a1.75,1.75,0,0,0-.46-3.44Z"/><path class="cls-1" d="M24.36,99.73l-.26,0a1.63,1.63,0,0,1-1.35-1.86l.08-.51A1.62,1.62,0,0,1,24.45,96l.27,0A1.63,1.63,0,0,1,26,97.89l-.08.48A1.62,1.62,0,0,1,24.36,99.73Z"/><path class="cls-2" d="M24.45,96.11l.25,0a1.5,1.5,0,0,1,1.23,1.73l-.08.48a1.5,1.5,0,0,1-1.48,1.26l-.24,0a1.5,1.5,0,0,1-1.24-1.72l.08-.51a1.51,1.51,0,0,1,1.48-1.25m0-.25a1.75,1.75,0,0,0-1.73,1.46l-.08.51a1.75,1.75,0,0,0,1.45,2l.28,0a1.74,1.74,0,0,0,1.73-1.47l.08-.48a1.75,1.75,0,0,0-1.43-2l-.29,0Z"/><path class="cls-1" d="M32.5,128.67a1.62,1.62,0,0,1-1.1-.43l-.38-.36a1.63,1.63,0,0,1,2.24-2.36l.35.32a1.63,1.63,0,0,1-1.1,2.82Z"/><path class="cls-2" d="M32.13,125.2a1.5,1.5,0,0,1,1,.41l.35.33a1.5,1.5,0,0,1-2,2.21l-.38-.36a1.5,1.5,0,0,1,1-2.59m0-.25a1.74,1.74,0,0,0-1.27.54,1.75,1.75,0,0,0,.06,2.47l.38.36a1.75,1.75,0,1,0,2.37-2.57l-.35-.32a1.74,1.74,0,0,0-1.21-.48Z"/><path class="cls-1" d="M51,138.27a1.63,1.63,0,0,1-.45-.06l-.49-.14a1.63,1.63,0,0,1-1.09-2,1.63,1.63,0,0,1,1.56-1.16,1.62,1.62,0,0,1,.46.07l.47.14a1.62,1.62,0,0,1,1.11,2A1.63,1.63,0,0,1,51,138.27Z"/><path class="cls-2" d="M50.48,135a1.5,1.5,0,0,1,.43.06l.47.14a1.5,1.5,0,0,1-.42,2.94,1.48,1.48,0,0,1-.42-.06l-.49-.14a1.5,1.5,0,0,1,.43-2.94m0-.25A1.76,1.76,0,0,0,48.8,136,1.75,1.75,0,0,0,50,138.18l.49.14a1.73,1.73,0,0,0,.49.07,1.76,1.76,0,0,0,1.68-1.27,1.75,1.75,0,0,0-1.2-2.17l-.47-.14a1.75,1.75,0,0,0-.5-.07Z"/><path class="cls-1" d="M78.23,40.71a1.63,1.63,0,0,1-1.48-2.3,1.61,1.61,0,0,1,.91-.85l.47-.17a1.62,1.62,0,1,1,1.13,3l-.47.17A1.61,1.61,0,0,1,78.23,40.71Z"/><path class="cls-2" d="M78.7,37.41a1.5,1.5,0,0,1,.52,2.91l-.47.17a1.5,1.5,0,0,1-1-2.81l.47-.17a1.5,1.5,0,0,1,.52-.09m0-.25a1.75,1.75,0,0,0-.61.11l-.47.17a1.75,1.75,0,0,0-1,2.25,1.76,1.76,0,0,0,1.64,1.14,1.74,1.74,0,0,0,.61-.11l.47-.17a1.75,1.75,0,0,0,1-2.25,1.76,1.76,0,0,0-1.64-1.14Z"/><path class="cls-1" d="M81.59,142.21a1.63,1.63,0,0,1-1.6-1.65,1.63,1.63,0,0,1,1.65-1.6h.5a1.63,1.63,0,0,1,0,3.25Z"/><path class="cls-2" d="M81.64,139.08h.5a1.5,1.5,0,0,1,0,3H81.6a1.5,1.5,0,1,1,0-3m0-.25h0a1.75,1.75,0,0,0,0,3.5h.5a1.75,1.75,0,0,0,.05-3.5h-.5Z"/><path class="cls-1" d="M26.78,89.54a1.63,1.63,0,0,1-1.55-2.12l.16-.49a1.63,1.63,0,1,1,3.09,1l-.15.46A1.62,1.62,0,0,1,26.78,89.54Z"/><path class="cls-2" d="M26.93,85.94a1.5,1.5,0,0,1,1.43,2l-.15.46a1.5,1.5,0,1,1-2.86-.9l.16-.49a1.5,1.5,0,0,1,1.43-1m0-.25a1.75,1.75,0,0,0-1.66,1.21l-.16.49a1.75,1.75,0,1,0,3.34,1.06L28.6,88a1.75,1.75,0,0,0-1.66-2.29Z"/><path class="cls-1" d="M75.94,34a1.63,1.63,0,0,1-.2-3.24l.5-.06h.2a1.63,1.63,0,0,1,.2,3.24l-.49.06Z"/><path class="cls-2" d="M76.44,30.85a1.5,1.5,0,0,1,.18,3l-.49.06h-.19a1.5,1.5,0,0,1-.18-3l.5-.06h.18m0-.25h-.21l-.5.06a1.75,1.75,0,0,0,.21,3.49h.22l.49-.06a1.75,1.75,0,0,0-.21-3.49Z"/><path class="cls-1" d="M23.69,110.18a1.63,1.63,0,0,1-1.62-1.51l0-.52a1.62,1.62,0,0,1,1.53-1.72h0A1.65,1.65,0,0,1,25.28,108l0,.48a1.63,1.63,0,0,1-1.51,1.73Z"/><path class="cls-2" d="M23.64,106.56A1.5,1.5,0,0,1,25.16,108l0,.48a1.5,1.5,0,0,1-1.39,1.6h-.11a1.5,1.5,0,0,1-1.49-1.39l0-.52a1.5,1.5,0,0,1,1.41-1.58h.07m0-.25h-.08a1.75,1.75,0,0,0-1.65,1.85l0,.52a1.76,1.76,0,0,0,1.74,1.63h.13a1.75,1.75,0,0,0,1.62-1.87l0-.48a1.76,1.76,0,0,0-1.76-1.65Z"/><path class="cls-1" d="M113,140.4a1.63,1.63,0,0,1-.2-3.24l.49-.06h.21a1.63,1.63,0,0,1,.21,3.24l-.5.06Z"/><path class="cls-2" d="M113.55,137.21a1.5,1.5,0,0,1,.19,3l-.5.06H113a1.5,1.5,0,0,1-.19-3l.49-.06h.2m0-.25h-.23l-.49.06a1.75,1.75,0,0,0,.22,3.49h.22l.5-.06a1.75,1.75,0,0,0-.22-3.49Z"/><path class="cls-1" d="M92.12,142.09a1.63,1.63,0,0,1-.06-3.25l.5,0a1.63,1.63,0,0,1,.12,3.25Z"/><path class="cls-2" d="M92.6,138.95a1.5,1.5,0,0,1,.08,3l-.51,0h-.05a1.5,1.5,0,0,1-.05-3l.5,0h0m0-.25h0l-.5,0a1.75,1.75,0,0,0,.06,3.5h.06l.51,0a1.75,1.75,0,0,0-.09-3.5Z"/><path class="cls-1" d="M26.27,120.3a1.63,1.63,0,0,1-1.47-.93l-.22-.48a1.62,1.62,0,1,1,3-1.33l.2.42a1.63,1.63,0,0,1-1.47,2.32Z"/><path class="cls-2" d="M26.06,116.72a1.5,1.5,0,0,1,1.37.89l.2.43a1.5,1.5,0,1,1-2.71,1.29l-.22-.48a1.5,1.5,0,0,1,1.37-2.11m0-.25a1.75,1.75,0,0,0-1.6,2.47l.22.49a1.76,1.76,0,0,0,1.58,1,1.75,1.75,0,0,0,1.58-2.5l-.2-.42a1.75,1.75,0,0,0-1.6-1Z"/><path class="cls-1" d="M65.51,35.24A1.63,1.63,0,0,1,65.37,32l.49,0H66a1.64,1.64,0,0,1,1.62,1.48,1.62,1.62,0,0,1-1.47,1.77l-.51,0Z"/><path class="cls-2" d="M66,32.07a1.5,1.5,0,0,1,.13,3l-.51,0h-.13a1.5,1.5,0,0,1-.13-3l.49,0H66m0-.25h-.16l-.49,0a1.75,1.75,0,0,0,.15,3.49h.15l.51,0a1.75,1.75,0,0,0,1.58-1.9A1.76,1.76,0,0,0,66,31.82Z"/><path class="cls-1" d="M98.49,35.11A1.63,1.63,0,0,1,96.94,33l-.31,0a1.62,1.62,0,0,1-1.38-1.83,1.63,1.63,0,0,1,1.61-1.4l.23,0,.53.08A1.62,1.62,0,0,1,99,31.66l0,.1h0a1.63,1.63,0,0,1,.3,3.22l-.49.09Z"/><path class="cls-2" d="M96.86,29.83h.21l.53.08a1.5,1.5,0,0,1,1.17,2l.21,0a1.5,1.5,0,0,1,.28,3l-.49.09-.28,0a1.5,1.5,0,0,1-1.37-2.1h0l-.46-.07a1.5,1.5,0,0,1,.21-3m0-.25h0a1.76,1.76,0,0,0-1.73,1.51,1.75,1.75,0,0,0,1.49,2l.17,0a1.75,1.75,0,0,0,1.7,2.15,1.76,1.76,0,0,0,.32,0l.49-.09a1.75,1.75,0,0,0-.22-3.47,1.75,1.75,0,0,0-1.45-2l-.53-.08-.24,0Z"/><path class="cls-1" d="M30.73,79.83a1.63,1.63,0,0,1-1.45-2.36l.23-.46A1.63,1.63,0,1,1,32.4,78.5l-.22.44A1.62,1.62,0,0,1,30.73,79.83Z"/><path class="cls-2" d="M31,76.26a1.5,1.5,0,0,1,1.33,2.18l-.22.44a1.5,1.5,0,0,1-2.68-1.35l.23-.45A1.5,1.5,0,0,1,31,76.26M31,76a1.74,1.74,0,0,0-1.56,1l-.23.46a1.75,1.75,0,0,0,.78,2.35A1.75,1.75,0,0,0,32.29,79l.22-.44a1.75,1.75,0,0,0-.76-2.35A1.76,1.76,0,0,0,31,76Z"/><path class="cls-1" d="M102.6,141.47a1.63,1.63,0,0,1-.13-3.24l.5,0h.13a1.62,1.62,0,0,1,.14,3.24l-.5,0Z"/><path class="cls-2" d="M103.09,138.31a1.5,1.5,0,0,1,.13,3l-.5,0h-.12a1.5,1.5,0,0,1-.12-3l.5,0h.12m0-.25H103l-.5,0a1.75,1.75,0,0,0-1.6,1.89,1.76,1.76,0,0,0,1.74,1.61h.14l.5,0a1.75,1.75,0,0,0-.15-3.49Z"/><path class="cls-1" d="M23.89,33.05a1.62,1.62,0,0,1-.13-3.24l.55,0A1.67,1.67,0,0,1,26,31.31,1.63,1.63,0,0,1,24.48,33Z"/><path class="cls-2" d="M24.39,29.9a1.52,1.52,0,0,1,1.51,1.42,1.5,1.5,0,0,1-1.42,1.58l-.46,0h-.12a1.5,1.5,0,0,1-.12-3l.54,0h.07m0-.25H24.3l-.55,0a1.75,1.75,0,0,0,.14,3.49H24l.45,0a1.75,1.75,0,0,0,1.66-1.84,1.78,1.78,0,0,0-1.76-1.66Z"/><path class="cls-1" d="M36.16,70.87a1.63,1.63,0,0,1-1.32-2.57l.3-.41a1.63,1.63,0,0,1,1.31-.67,1.63,1.63,0,0,1,1.31,2.58l-.29.4A1.63,1.63,0,0,1,36.16,70.87Z"/><path class="cls-2" d="M36.45,67.34a1.5,1.5,0,0,1,1.21,2.39l-.29.4a1.5,1.5,0,0,1-2.44-1.75l.3-.41a1.5,1.5,0,0,1,1.21-.62m0-.25a1.76,1.76,0,0,0-1.41.72l-.3.41a1.75,1.75,0,1,0,2.84,2l.29-.39a1.75,1.75,0,0,0-1.41-2.78Z"/><path class="cls-1" d="M14.33,36.92a1.62,1.62,0,0,1-1.06-2.85l.42-.35a1.63,1.63,0,1,1,2,2.52l-.34.29A1.63,1.63,0,0,1,14.33,36.92Z"/><path class="cls-2" d="M14.71,33.47a1.5,1.5,0,0,1,.95,2.67l-.35.29a1.5,1.5,0,0,1-2-2.27l.42-.35a1.49,1.49,0,0,1,.94-.34m0-.25a1.75,1.75,0,0,0-1.1.39l-.43.36a1.75,1.75,0,0,0,2.29,2.65l.34-.29a1.75,1.75,0,0,0-1.1-3.11Z"/><path class="cls-1" d="M61.21,140.54l-.26,0-.5-.08a1.63,1.63,0,0,1,.26-3.23l.27,0,.49.08a1.63,1.63,0,0,1-.26,3.23Z"/><path class="cls-2" d="M60.71,137.34l.25,0,.49.08a1.5,1.5,0,0,1-.24,3l-.24,0-.5-.08a1.5,1.5,0,0,1,.24-3m0-.25a1.75,1.75,0,0,0-.28,3.48l.5.08.28,0a1.75,1.75,0,0,0,.28-3.48l-.49-.08-.29,0Z"/><path class="cls-1" d="M42.9,62.84a1.62,1.62,0,0,1-1.17-2.76l.36-.36A1.62,1.62,0,1,1,44.41,62l-.34.35A1.61,1.61,0,0,1,42.9,62.84Z"/><path class="cls-2" d="M43.25,59.35a1.5,1.5,0,0,1,1.07,2.55l-.34.35a1.5,1.5,0,0,1-2.15-2.09l.36-.36a1.49,1.49,0,0,1,1.07-.45m0-.25a1.73,1.73,0,0,0-1.25.52l-.36.36a1.75,1.75,0,1,0,2.51,2.44l.34-.35a1.75,1.75,0,0,0-1.25-3Z"/><path class="cls-1" d="M59.33,49.84a1.63,1.63,0,0,1-.85-3l.43-.26a1.62,1.62,0,0,1,1.68,2.78l-.42.26A1.62,1.62,0,0,1,59.33,49.84Z"/><path class="cls-2" d="M59.76,46.45a1.5,1.5,0,0,1,.78,2.78l-.42.26a1.5,1.5,0,0,1-1.56-2.56l.43-.26a1.49,1.49,0,0,1,.78-.22m0-.25a1.75,1.75,0,0,0-.91.25l-.43.26a1.75,1.75,0,1,0,1.82,3l.42-.26a1.75,1.75,0,0,0-.91-3.25Z"/><path class="cls-1" d="M54.93,35.37A1.62,1.62,0,0,1,55,32.13l.57,0a1.63,1.63,0,0,1-.09,3.25Z"/><path class="cls-2" d="M55,32.25h.08l.49,0a1.5,1.5,0,0,1-.08,3h-.09l-.51,0a1.5,1.5,0,0,1,.11-3M55,32a1.75,1.75,0,0,0-.13,3.5l.51,0h.1a1.75,1.75,0,0,0,.1-3.5l-.49,0Z"/><path class="cls-1" d="M71.51,141.76l-.51,0a1.63,1.63,0,0,1,.11-3.25h.15l.49,0a1.62,1.62,0,0,1-.12,3.25Z"/><path class="cls-2" d="M71.12,138.6h.13l.49,0a1.5,1.5,0,0,1-.11,3h-.11l-.51,0a1.5,1.5,0,0,1,.1-3m0-.25a1.75,1.75,0,0,0-.12,3.5l.51,0h.13a1.76,1.76,0,0,0,1.74-1.62,1.75,1.75,0,0,0-1.62-1.87l-.49,0Z"/><path class="cls-1" d="M41.17,134.51a1.61,1.61,0,0,1-.73-.17l-.46-.23a1.62,1.62,0,0,1,1.48-2.89l.44.22a1.63,1.63,0,0,1-.73,3.08Z"/><path class="cls-2" d="M40.73,131.16a1.5,1.5,0,0,1,.68.16l.44.22a1.5,1.5,0,1,1-1.34,2.68L40,134a1.5,1.5,0,0,1,.69-2.84m0-.25a1.75,1.75,0,0,0-.8,3.31l.46.23A1.75,1.75,0,1,0,42,131.32l-.43-.22a1.76,1.76,0,0,0-.79-.19Z"/><path class="cls-1" d="M34.72,32.74l-.26,0L34,32.64a1.62,1.62,0,0,1,.25-3.23l.25,0,.5.08a1.62,1.62,0,0,1-.25,3.23Z"/><path class="cls-2" d="M34.23,29.54l.23,0,.5.08a1.5,1.5,0,0,1-.23,3l-.24,0L34,32.52a1.5,1.5,0,0,1,.24-3m0-.25A1.75,1.75,0,0,0,34,32.76l.49.08.28,0A1.75,1.75,0,0,0,35,29.38l-.5-.08-.27,0Z"/><path class="cls-1" d="M45.1,34.29l-.22,0-.5-.07A1.62,1.62,0,0,1,43,32.37,1.63,1.63,0,0,1,44.6,31l.23,0,.49.07a1.63,1.63,0,0,1,1.39,1.83A1.63,1.63,0,0,1,45.1,34.29Z"/><path class="cls-2" d="M44.6,31.1h.21l.49.07a1.5,1.5,0,0,1-.2,3h-.21l-.5-.07a1.5,1.5,0,0,1,.21-3m0-.25a1.76,1.76,0,0,0-1.73,1.51,1.75,1.75,0,0,0,1.49,2l.5.07.24,0a1.75,1.75,0,0,0,1.39-2.81,1.74,1.74,0,0,0-1.16-.68l-.49-.07-.24,0Z"/><path class="cls-1" d="M68.56,44.82a1.63,1.63,0,0,1-1.46-.92,1.62,1.62,0,0,1,.75-2.17l.46-.22a1.62,1.62,0,0,1,.7-.16,1.62,1.62,0,0,1,.7,3.09l-.44.21A1.6,1.6,0,0,1,68.56,44.82Z"/><path class="cls-2" d="M69,41.48a1.5,1.5,0,0,1,.64,2.86l-.44.21a1.5,1.5,0,1,1-1.31-2.7l.46-.22a1.5,1.5,0,0,1,.64-.14m0-.25a1.74,1.74,0,0,0-.75.17l-.46.22A1.75,1.75,0,0,0,67,44a1.76,1.76,0,0,0,1.58,1,1.73,1.73,0,0,0,.76-.18l.44-.21A1.75,1.75,0,0,0,69,41.23Z"/><path class="cls-1" d="M6,59.53a5.77,5.77,0,1,1,5.47-4,5.76,5.76,0,0,1-5.47,4Z"/><path class="cls-2" d="M6,48.13A5.64,5.64,0,1,1,.66,52,5.63,5.63,0,0,1,6,48.13m0-.25a5.9,5.9,0,1,0,1.85.3A5.88,5.88,0,0,0,6,47.88Z"/><polygon class="cls-1" points="115.28 133.71 123.29 138.65 115.01 143.12 115.28 133.71"/><path class="cls-2" d="M115.4,133.93l7.64,4.71-7.9,4.26.26-9m-.24-.44v.43l-.26,9v.43l.38-.21,7.9-4.26.38-.21-.37-.23-7.64-4.71-.37-.23Z"/><text class="cls-3" transform="translate(4.55 55.79)">1</text></g></g></svg>