<svg xmlns="http://www.w3.org/2000/svg" viewBox="0 0 59.94 67.3"><defs><style>.cls-1{fill:#fff;stroke:#00c2ff;stroke-miterlimit:10;stroke-width:0.5px;}.cls-2,.cls-3{fill:#00c2ff;}.cls-3{font-size:6.75px;font-family:Linotte-SemiBold, Linotte-SemiBold;}</style></defs><title>8-dal-guide trace</title><g id="Layer_2" data-name="Layer 2"><g id="Guide_Trace" data-name="Guide Trace"><path class="cls-1" d="M14.8,65a1.63,1.63,0,0,1,.05-3.25h.49a1.63,1.63,0,0,1,0,3.25Z"/><path class="cls-2" d="M14.86,61.87h.49a1.5,1.5,0,0,1,0,3h-.54a1.5,1.5,0,0,1,.05-3m0-.25a1.75,1.75,0,0,0-.06,3.5h.53a1.75,1.75,0,1,0,0-3.5h-.49Z"/><path class="cls-1" d="M45.3,58A1.63,1.63,0,0,1,43.84,57a1.62,1.62,0,0,1,.76-2.17l.43-.21a1.63,1.63,0,0,1,2.18.73,1.63,1.63,0,0,1-.73,2.18l-.47.23A1.59,1.59,0,0,1,45.3,58Z"/><path class="cls-2" d="M45.75,54.62a1.5,1.5,0,0,1,.67,2.84L46,57.7a1.48,1.48,0,0,1-.65.15A1.5,1.5,0,0,1,44.65,55l.43-.21a1.49,1.49,0,0,1,.67-.16m0-.25a1.73,1.73,0,0,0-.78.18l-.43.21a1.75,1.75,0,0,0-.82,2.33,1.76,1.76,0,0,0,1.58,1,1.72,1.72,0,0,0,.76-.17l.47-.23a1.75,1.75,0,0,0-.78-3.32Z"/><path class="cls-1" d="M18.69,11.26a1.62,1.62,0,0,1-.6-.11L17.63,11a1.63,1.63,0,0,1,1.19-3l.47.19a1.63,1.63,0,0,1-.6,3.14Z"/><path class="cls-2" d="M18.23,8a1.5,1.5,0,0,1,.55.1l.47.19A1.5,1.5,0,1,1,18.14,11l-.46-.18A1.5,1.5,0,0,1,18.23,8m0-.25a1.75,1.75,0,0,0-.64,3.38l.46.18A1.75,1.75,0,0,0,19.34,8l-.47-.19a1.75,1.75,0,0,0-.64-.12Z"/><path class="cls-1" d="M46.3,26.24a1.61,1.61,0,0,1-1-.35l-.39-.3a1.63,1.63,0,1,1,2-2.57l.4.31a1.63,1.63,0,0,1-1,2.9Z"/><path class="cls-2" d="M45.9,22.8a1.5,1.5,0,0,1,.92.32l.4.31a1.5,1.5,0,0,1-1.85,2.36l-.39-.3a1.5,1.5,0,0,1,.92-2.68m0-.25a1.75,1.75,0,0,0-1.07,3.13l.39.3a1.75,1.75,0,0,0,2.16-2.75l-.4-.31a1.74,1.74,0,0,0-1.07-.37Z"/><path class="cls-1" d="M35.51,61.75A1.62,1.62,0,0,1,35,58.57l.47-.15a1.63,1.63,0,1,1,1,3.11l-.48.15A1.57,1.57,0,0,1,35.51,61.75Z"/><path class="cls-2" d="M36,58.48a1.5,1.5,0,0,1,.44,2.93l-.48.15a1.48,1.48,0,0,1-.44.07,1.5,1.5,0,0,1-.44-2.93l.47-.15a1.51,1.51,0,0,1,.44-.07m0-.25a1.76,1.76,0,0,0-.51.08l-.47.15a1.75,1.75,0,1,0,1,3.35l.48-.15A1.75,1.75,0,0,0,36,58.23Z"/><path class="cls-1" d="M25.29,64.15A1.62,1.62,0,0,1,25,60.92l.48-.08.27,0A1.62,1.62,0,0,1,26.06,64l-.5.08Z"/><path class="cls-2" d="M25.78,60.95a1.5,1.5,0,0,1,.26,3l-.5.08-.25,0A1.5,1.5,0,0,1,25,61l.48-.08.25,0m0-.25-.29,0L25,60.8a1.75,1.75,0,0,0,.29,3.48l.29,0,.5-.08a1.75,1.75,0,0,0-.3-3.47Z"/><path class="cls-1" d="M37.58,20.34a1.57,1.57,0,0,1-.8-.22l-.43-.25A1.63,1.63,0,0,1,38,17.07l.37.22A1.67,1.67,0,0,1,39,19.53,1.63,1.63,0,0,1,37.58,20.34Z"/><path class="cls-2" d="M37.18,17a1.49,1.49,0,0,1,.76.2l.37.22a1.53,1.53,0,0,1,.57,2.07,1.5,1.5,0,0,1-1.29.75,1.44,1.44,0,0,1-.73-.2l-.43-.25A1.5,1.5,0,0,1,37.18,17m0-.25A1.75,1.75,0,0,0,36.29,20l.43.25a1.7,1.7,0,0,0,.86.24,1.76,1.76,0,0,0,1.5-.88,1.79,1.79,0,0,0-.65-2.41L38.06,17a1.75,1.75,0,0,0-.88-.24Z"/><path class="cls-1" d="M28.33,15.44a1.62,1.62,0,0,1-.7-.16l-.44-.21a1.62,1.62,0,0,1-.78-2.16A1.63,1.63,0,0,1,27.88,12a1.6,1.6,0,0,1,.69.16l.46.22a1.62,1.62,0,0,1,.77,2.17A1.63,1.63,0,0,1,28.33,15.44Z"/><path class="cls-2" d="M27.88,12.1a1.49,1.49,0,0,1,.64.14l.46.22a1.5,1.5,0,1,1-1.29,2.71L27.24,15a1.5,1.5,0,0,1,.64-2.86m0-.25a1.76,1.76,0,0,0-1.58,1,1.75,1.75,0,0,0,.84,2.33l.44.21a1.74,1.74,0,0,0,.75.17,1.76,1.76,0,0,0,1.58-1,1.75,1.75,0,0,0-.83-2.33L28.62,12a1.73,1.73,0,0,0-.74-.17Z"/><path class="cls-1" d="M58.07,43a1.63,1.63,0,0,1-1.61-1.42c0-.15,0-.29-.06-.44a1.62,1.62,0,0,1,1.33-1.87l.27,0a1.62,1.62,0,0,1,1.6,1.36c0,.18.06.37.08.55A1.62,1.62,0,0,1,58.28,43Z"/><path class="cls-2" d="M58,39.4a1.5,1.5,0,0,1,1.48,1.25c0,.18.06.36.08.55a1.5,1.5,0,0,1-1.29,1.68h-.2a1.5,1.5,0,0,1-1.49-1.31c0-.15,0-.29-.07-.44a1.5,1.5,0,0,1,1.23-1.73l.25,0m0-.25-.29,0a1.75,1.75,0,0,0-1.44,2c0,.14,0,.29.06.43a1.75,1.75,0,0,0,1.73,1.52h.23a1.75,1.75,0,0,0,1.51-2c0-.19-.05-.37-.08-.56A1.74,1.74,0,0,0,58,39.15Z"/><path class="cls-1" d="M54.07,52.25a1.63,1.63,0,0,1-1.18-.51,1.63,1.63,0,0,1,.07-2.3l.33-.32a1.63,1.63,0,1,1,2.29,2.31l-.39.38A1.62,1.62,0,0,1,54.07,52.25Z"/><path class="cls-2" d="M54.43,48.78a1.5,1.5,0,0,1,1.06,2.57l-.39.37A1.5,1.5,0,1,1,53,49.54l.33-.32a1.5,1.5,0,0,1,1.06-.43m0-.25a1.74,1.74,0,0,0-1.23.51l-.33.32a1.75,1.75,0,0,0-.07,2.47,1.75,1.75,0,0,0,2.47.07l.39-.38a1.75,1.75,0,0,0-1.23-3Z"/><path class="cls-1" d="M53.78,33.58a1.61,1.61,0,0,1-1.28-.63l-.3-.38a1.62,1.62,0,0,1,2.54-2l.32.41a1.62,1.62,0,0,1-1.28,2.62Z"/><path class="cls-2" d="M53.47,30.06a1.5,1.5,0,0,1,1.17.56L55,31a1.5,1.5,0,1,1-2.37,1.84l-.3-.38a1.5,1.5,0,0,1,1.17-2.43m0-.25a1.75,1.75,0,0,0-1.74,1.56,1.74,1.74,0,0,0,.37,1.29l.3.38a1.75,1.75,0,0,0,2.76-2.15l-.32-.41a1.74,1.74,0,0,0-1.37-.66Z"/><path class="cls-1" d="M8.62,11.78l-.5,0A5.76,5.76,0,0,1,8.61.25l.5,0a5.76,5.76,0,0,1-.48,11.51Z"/><path class="cls-2" d="M8.61.38,9.1.4a5.64,5.64,0,0,1-.48,11.26l-.49,0A5.64,5.64,0,0,1,8.61.38m0-.25A5.92,5.92,0,0,0,2.75,5.51a5.89,5.89,0,0,0,5.37,6.37l.51,0A5.89,5.89,0,0,0,9.12.15l-.51,0Z"/><polygon class="cls-1" points="0.45 58.95 9.84 58.39 5.63 66.81 0.45 58.95"/><path class="cls-2" d="M9.63,58.53l-4,8L.67,59.06l9-.53m.42-.28-.43,0-9,.53-.43,0,.24.36L5.4,66.69l.24.36.19-.39,4-8,.19-.39Z"/><text class="cls-3" transform="translate(7.73 8.05)">1</text></g></g></svg>