<svg xmlns="http://www.w3.org/2000/svg" viewBox="0 0 64.8 93.82"><defs><style>.cls-1{fill:#fff;stroke:#00c2ff;stroke-miterlimit:10;stroke-width:0.5px;}.cls-2,.cls-3{fill:#00c2ff;}.cls-3{font-size:6.75px;font-family:Linotte-SemiBold, Linotte-SemiBold;}</style></defs><title>9-dzal-guide trace</title><g id="Layer_2" data-name="Layer 2"><g id="Guide_Trace" data-name="Guide Trace"><circle class="cls-1" cx="2.21" cy="2.21" r="1.96"/><path class="cls-2" d="M2.21.37A1.83,1.83,0,1,1,.37,2.21,1.83,1.83,0,0,1,2.21.37m0-.25A2.08,2.08,0,1,0,4.29,2.21,2.09,2.09,0,0,0,2.21.12Z"/><path class="cls-1" d="M42.46,46.86a1.62,1.62,0,0,1-.82-.23l-.43-.25a1.63,1.63,0,0,1,1.64-2.81l.44.26a1.62,1.62,0,0,1,.57,2.22A1.63,1.63,0,0,1,42.46,46.86Z"/><path class="cls-2" d="M42,43.48a1.5,1.5,0,0,1,.76.2l.44.26a1.5,1.5,0,0,1-1.52,2.58l-.43-.25A1.5,1.5,0,0,1,42,43.48m0-.25a1.75,1.75,0,0,0-.89,3.26l.43.25a1.75,1.75,0,0,0,1.78-3l-.44-.26a1.75,1.75,0,0,0-.88-.24Z"/><path class="cls-1" d="M62.92,69.53a1.63,1.63,0,0,1-1.61-1.42q0-.22-.06-.44a1.62,1.62,0,0,1,1.34-1.87l.26,0a1.62,1.62,0,0,1,1.6,1.36c0,.18.06.36.08.55a1.62,1.62,0,0,1-1.4,1.82Z"/><path class="cls-2" d="M62.85,65.91a1.5,1.5,0,0,1,1.48,1.26q0,.27.08.54a1.5,1.5,0,0,1-1.29,1.68h-.2a1.5,1.5,0,0,1-1.49-1.31c0-.15,0-.3-.07-.44a1.5,1.5,0,0,1,1.24-1.72l.24,0m0-.25-.28,0a1.75,1.75,0,0,0-1.45,2c0,.15,0,.29.06.44a1.75,1.75,0,0,0,1.73,1.52h.23a1.75,1.75,0,0,0,1.51-2q0-.28-.08-.55a1.74,1.74,0,0,0-1.73-1.47Z"/><path class="cls-1" d="M23.55,37.77a1.62,1.62,0,0,1-.6-.11l-.46-.18a1.63,1.63,0,0,1,.59-3.14,1.61,1.61,0,0,1,.59.11l.47.18a1.63,1.63,0,0,1-.6,3.14Z"/><path class="cls-2" d="M23.08,34.46a1.5,1.5,0,0,1,.55.1l.47.18A1.5,1.5,0,1,1,23,37.54l-.46-.18a1.5,1.5,0,0,1,.55-2.9m0-.25a1.75,1.75,0,0,0-.64,3.38l.46.18a1.75,1.75,0,0,0,1.29-3.26l-.47-.18a1.74,1.74,0,0,0-.64-.12Z"/><path class="cls-1" d="M19.66,91.51a1.63,1.63,0,0,1-1.59-1.66,1.67,1.67,0,0,1,1.66-1.59h.48a1.63,1.63,0,0,1,0,3.25Z"/><path class="cls-2" d="M19.73,88.38h.47a1.5,1.5,0,0,1,0,3h-.54a1.5,1.5,0,0,1-1.46-1.54,1.53,1.53,0,0,1,1.53-1.46m0-.25h0a1.79,1.79,0,0,0-1.78,1.71,1.75,1.75,0,0,0,1.71,1.79h.53a1.76,1.76,0,0,0,1.76-1.74,1.75,1.75,0,0,0-1.74-1.76h-.48Z"/><path class="cls-1" d="M51.15,52.75a1.61,1.61,0,0,1-1-.35l-.38-.3a1.62,1.62,0,1,1,2-2.56l.41.32a1.63,1.63,0,0,1-1,2.9Z"/><path class="cls-2" d="M50.76,49.32a1.49,1.49,0,0,1,.92.32l.41.32a1.5,1.5,0,0,1-1.87,2.35l-.38-.3a1.5,1.5,0,0,1,.92-2.68m0-.25a1.75,1.75,0,0,0-1.08,3.13l.38.3a1.75,1.75,0,0,0,2.46-.28,1.75,1.75,0,0,0-.28-2.46l-.41-.32a1.74,1.74,0,0,0-1.07-.37Z"/><path class="cls-1" d="M50.16,84.48a1.63,1.63,0,0,1-.71-3.09l.44-.21a1.63,1.63,0,0,1,1.44,2.91l-.46.23A1.61,1.61,0,0,1,50.16,84.48Z"/><path class="cls-2" d="M50.6,81.14A1.5,1.5,0,0,1,51.27,84l-.46.23a1.5,1.5,0,1,1-1.31-2.7l.44-.21a1.5,1.5,0,0,1,.66-.15m0-.25a1.74,1.74,0,0,0-.77.18l-.44.21a1.75,1.75,0,0,0,1.53,3.15l.46-.23a1.75,1.75,0,0,0-.78-3.32Z"/><path class="cls-1" d="M40.37,88.26a1.63,1.63,0,0,1-.47-3.18l.47-.14a1.62,1.62,0,1,1,1,3.11l-.49.15A1.61,1.61,0,0,1,40.37,88.26Z"/><path class="cls-2" d="M40.84,85a1.5,1.5,0,0,1,.44,2.93l-.49.15a1.5,1.5,0,0,1-.87-2.87l.47-.14a1.51,1.51,0,0,1,.44-.07m0-.25a1.77,1.77,0,0,0-.51.08l-.47.14a1.75,1.75,0,0,0,1,3.35l.49-.15a1.75,1.75,0,0,0-.52-3.42Z"/><path class="cls-1" d="M33.18,42a1.62,1.62,0,0,1-.7-.16L32,41.58a1.62,1.62,0,1,1,1.38-2.94l.46.22a1.63,1.63,0,0,1-.7,3.09Z"/><path class="cls-2" d="M32.73,38.61a1.5,1.5,0,0,1,.64.14l.46.22a1.5,1.5,0,1,1-1.29,2.71l-.45-.21a1.5,1.5,0,0,1,.64-2.86m0-.25a1.76,1.76,0,0,0-1.58,1A1.75,1.75,0,0,0,32,41.69l.45.21a1.74,1.74,0,0,0,.75.17,1.76,1.76,0,0,0,1.58-1,1.75,1.75,0,0,0-.83-2.33l-.46-.22a1.74,1.74,0,0,0-.74-.17Z"/><path class="cls-1" d="M58.64,60.09a1.62,1.62,0,0,1-1.28-.62l-.3-.38a1.62,1.62,0,0,1,2.54-2l.32.41a1.63,1.63,0,0,1-1.28,2.63Z"/><path class="cls-2" d="M58.33,56.57a1.5,1.5,0,0,1,1.17.56l.32.41a1.5,1.5,0,0,1-2.37,1.85l-.3-.38a1.5,1.5,0,0,1,1.17-2.43m0-.25a1.76,1.76,0,0,0-1.09.38A1.75,1.75,0,0,0,57,59.16l.3.38A1.75,1.75,0,0,0,60,57.39L59.7,57a1.74,1.74,0,0,0-1.37-.66Z"/><path class="cls-1" d="M58.92,78.77a1.63,1.63,0,0,1-1.19-.51,1.63,1.63,0,0,1,.08-2.3l.32-.31a1.63,1.63,0,0,1,2.29,2.3l-.4.38A1.62,1.62,0,0,1,58.92,78.77Z"/><path class="cls-2" d="M59.28,75.29a1.5,1.5,0,0,1,1.06,2.56l-.39.38a1.5,1.5,0,1,1-2-2.19l.33-.32a1.5,1.5,0,0,1,1.06-.44m0-.25a1.74,1.74,0,0,0-1.24.51l-.32.31a1.75,1.75,0,0,0-.08,2.47,1.75,1.75,0,0,0,2.47.08l.4-.39a1.75,1.75,0,0,0-1.24-3Z"/><path class="cls-1" d="M30.15,90.67a1.62,1.62,0,0,1-.26-3.23l.48-.08.27,0a1.63,1.63,0,0,1,.28,3.23l-.5.08Z"/><path class="cls-2" d="M30.64,87.46a1.5,1.5,0,0,1,.26,3l-.5.08-.25,0a1.5,1.5,0,0,1-.24-3l.48-.08.25,0m0-.25-.29,0-.48.08a1.75,1.75,0,0,0,.29,3.48l.29,0,.5-.08a1.75,1.75,0,0,0-.3-3.47Z"/><path class="cls-1" d="M13.48,38.29l-.5,0a5.76,5.76,0,0,1,.49-11.51l.5,0a5.76,5.76,0,0,1-.49,11.51Z"/><path class="cls-2" d="M13.46,26.89l.49,0a5.64,5.64,0,0,1-.48,11.26l-.49,0a5.64,5.64,0,0,1,.48-11.26m0-.25A5.89,5.89,0,0,0,13,38.4l.51,0A5.89,5.89,0,0,0,14,26.66l-.51,0Z"/><polygon class="cls-1" points="5.3 85.47 14.69 84.91 10.48 93.32 5.3 85.47"/><path class="cls-2" d="M14.49,85l-4,8L5.53,85.58l9-.53m.42-.28-.43,0-9,.53-.43,0,.24.36,4.94,7.49.24.36.19-.39,4-8,.19-.39Z"/><text class="cls-3" transform="translate(12.01 34.4)">1</text></g></g></svg>