<svg xmlns="http://www.w3.org/2000/svg" viewBox="0 0 156.43 90.29"><defs><style>.cls-1{fill:#91a8c2;}</style></defs><title>12-sin-before trace</title><g id="Layer_2" data-name="Layer 2"><g id="Before_Trace" data-name="Before Trace"><path class="cls-1" d="M154,36.86C152,40.91,147.6,46,138.36,47.54c-9.79,1.66-16.38-1.66-20.14-4.72a22.13,22.13,0,0,1-2.45-2.28,24.36,24.36,0,0,1-16,7.41c-.7.07-1.4.09-2.07.09a21.49,21.49,0,0,1-5.07-.6c-.94,9.26-3.53,18.67-9.14,26.35-7.67,10.47-19.34,16-34.72,16.46-.8,0-1.61,0-2.4,0C29.48,90.29,16.91,85,8.93,74.46-6.62,54,2.63,22.18,3.73,18.62a8.33,8.33,0,0,1,15.91,4.95c-2.87,9.19-6,29.57,2.55,40.83,4.91,6.49,13.69,9.74,26.06,9.21C58.37,73.31,65.49,70.16,70,64c6.23-8.52,7-21.82,6-33a56.52,56.52,0,0,1-3.32-17.27,7.76,7.76,0,0,1,.07-1.27A8.31,8.31,0,0,1,89,9.07a113.32,113.32,0,0,1,3.3,17.76,11.06,11.06,0,0,0,2.41,3.49,4.31,4.31,0,0,0,3.51,1.06c8.56-.75,8.93-9.93,8.83-12.7a8.35,8.35,0,0,1,8-8.61,8.09,8.09,0,0,1,8.64,7.85c.14,2.16,1.33,9.07,5,12,1.06.86,2.91,1.9,7,1.25,2.84-.48,3.34-1.45,3.51-1.83,1.8-3.49-.7-12.27-3.2-17.25a8.32,8.32,0,0,1,14.85-7.5C152.47,7.78,160.29,24.52,154,36.86Z"/></g></g></svg>