<svg xmlns="http://www.w3.org/2000/svg" viewBox="0 0 164.49 93.24"><defs><style>.cls-1{fill:#e5b4b8;}</style></defs><title>14-shad-before trace</title><g id="Layer_2" data-name="Layer 2"><g id="Before_Trace" data-name="Before Trace"><path class="cls-1" d="M160.83,11.21C156,3.62,147.36-.49,137.5,0,120,1.14,103,17.1,92,30l-6.3,8.14L82.5,42.28c-1.23,1.73-2.07,3-2.47,3.61A7.68,7.68,0,0,0,85.1,57.67a8.1,8.1,0,0,0,1.38.13,7.69,7.69,0,0,0,6.44-3.5c1.06-1.6,2.53-3.7,4.31-6.09,8.47,2.14,18.82,3.17,31.42,3.26,15.1-.06,27.15-5.56,32.72-15.58A24.19,24.19,0,0,0,160.83,11.21ZM147.91,28.4c-2.75,5-9.81,7.63-19.17,7.68a147.28,147.28,0,0,1-20.17-1.35c9.05-9.59,20.23-18.73,29.87-19.31,4.26-.32,7.57,1.17,9.37,4A8.84,8.84,0,0,1,147.91,28.4Z"/><path class="cls-1" d="M80,45.89A7.68,7.68,0,0,0,85.1,57.67C84,64.87,81.57,72,77.2,78c-7.09,9.69-17.9,14.82-32.12,15.24l-2.22,0c-15.61,0-27.24-4.91-34.6-14.64C-6.13,59.66,2.44,30.25,3.45,27a7.7,7.7,0,1,1,14.71,4.56C15.51,40,12.6,58.87,20.51,69.29c4.54,6,12.66,9,24.11,8.53,9.36-.29,15.94-3.2,20.15-8.94C73.08,57.52,70.87,37,68.54,26.32c-.4-.85-.76-1.74-1.09-2.64a7.65,7.65,0,0,1,.21-5.89,1.62,1.62,0,0,1,.06-.16,7.71,7.71,0,0,1,14.66.47c.06.24.36,1.35.78,3.1A19.61,19.61,0,0,0,92,30l-6.3,8.14L82.5,42.28C81.27,44,80.43,45.27,80,45.89Z"/><line class="cls-1" x1="108.57" y1="34.74" x2="97.23" y2="48.2"/></g></g></svg>