<svg xmlns="http://www.w3.org/2000/svg" viewBox="0 0 128.55 149.77"><defs><style>.cls-1{fill:#e2c196;}</style></defs><title>17-zho-before trace</title><g id="Layer_2" data-name="Layer 2"><g id="Before_Trace" data-name="Before Trace"><path class="cls-1" d="M124.85,101.81c-4.94-8-14.06-12.31-24.22-11.82-15.21.83-30.09,12.4-41.29,23.94C56.9,74.58,49.1,10.34,48.7,7.05A8,8,0,1,0,32.79,9c.11.91,9.94,81.89,11.12,117.44-14.49-.91-26.86-2.8-28.35-6.89A8,8,0,0,0,.49,125.07c4.16,11.34,18.46,15.52,38.58,17.14a8,8,0,0,0,14.68,4c.62-.94,1.35-2,2.18-3.13,10.83.29,22.89.27,35,.45h.49c15.63.11,27.93-5.68,33.74-16A25.2,25.2,0,0,0,124.85,101.81Zm-13.6,17.8c-2.86,5.08-10,7.91-19.65,7.84h-.36c-7.34-.1-14.2-.14-22.35-.21,9.72-10.47,22-20.64,32.61-21.22,4.37-.3,7.87,1.26,9.7,4.24A9.13,9.13,0,0,1,111.24,119.61Z"/><path class="cls-1" d="M94.27,74.34A7.34,7.34,0,0,1,88.88,79a9.44,9.44,0,0,1-1.77.17,7.22,7.22,0,0,1-6.19-11,6.9,6.9,0,0,1,2.13-2.19,3.85,3.85,0,0,1,.9-.64,7.25,7.25,0,0,1,5.48-.67,7.55,7.55,0,0,1,4.1,3.08A6.87,6.87,0,0,1,94.27,74.34Z"/></g></g></svg>