<svg xmlns="http://www.w3.org/2000/svg" viewBox="0 0 113.49 143.4"><defs><style>.cls-1{fill:#e5b4b8;}</style></defs><title>18-ain-before trace</title><g id="Layer_2" data-name="Layer 2"><g id="Before_Trace" data-name="Before Trace"><path class="cls-1" d="M110.93,121.22c-14.5,14.42-35.85,22.33-56.27,22.19A68.29,68.29,0,0,1,27.9,138C9.46,129.9-.7,113.79,0,93.76A60.75,60.75,0,0,1,18,52.16,23.43,23.43,0,0,1,5.48,38.91c-4.59-12.3,1-28.49,12-34.65C33.38-4.67,54.08,3.06,56.4,4A8.68,8.68,0,0,1,50,20.15a45.25,45.25,0,0,0-14.56-2.78,19.23,19.23,0,0,0-9.51,2c-2.86,1.61-6,8.57-4.22,13.43,2.2,5.9,12.4,5,18,4a82.36,82.36,0,0,1,20.65-7,8.69,8.69,0,0,1,3.14,17.09,71.73,71.73,0,0,0-15.92,5.39c-.65.31-1.31.62-2,1C33,59.71,18.22,72,17.4,94.4c-.6,16.29,9.18,24,17.48,27.65,19.68,8.62,47.71,2.85,63.81-13.16a8.69,8.69,0,0,1,12.25,12.33Z"/></g></g></svg>