<svg xmlns="http://www.w3.org/2000/svg" viewBox="0 0 110.9 153.37"><defs><style>.cls-1{fill:#a3c08e;}</style></defs><title>19-ghain-before trace</title><g id="Layer_2" data-name="Layer 2"><g id="Before_Trace" data-name="Before Trace"><path class="cls-1" d="M37.13,9.28a7.05,7.05,0,0,1-5.27,4.31,9.85,9.85,0,0,1-1.74.16,7.28,7.28,0,0,1-5.08-2,6.48,6.48,0,0,1-1-8.26,6.87,6.87,0,0,1,2.08-2A3.14,3.14,0,0,1,27,.87,7.42,7.42,0,0,1,32.4.24a7.54,7.54,0,0,1,4,2.86A6,6,0,0,1,37.13,9.28Z"/><path class="cls-1" d="M108.4,132.78c-14.17,13.38-35,20.71-55,20.58a69.34,69.34,0,0,1-26.13-5.06c-18-7.5-28-22.47-27.26-41.08A55.08,55.08,0,0,1,17.56,68.62,22.23,22.23,0,0,1,5.34,56.3C.86,44.88,6.32,29.85,17,24.13c15.53-8.3,35.78-1.09,38-.24a8,8,0,0,1,4.77,10.48,8.64,8.64,0,0,1-11,4.53,46.14,46.14,0,0,0-14.21-2.58,19.67,19.67,0,0,0-9.31,1.88c-2.8,1.51-5.89,8-4.12,12.48,2.17,5.51,12.21,4.61,17.62,3.68A83.63,83.63,0,0,1,59,47.89a8.46,8.46,0,0,1,9.86,6.49,8.11,8.11,0,0,1-6.79,9.39,72.37,72.37,0,0,0-15.47,5c-.66.29-1.34.6-2,.92C32.24,75.62,17.8,87,17,107.83c-.58,15.13,9,22.33,17.09,25.7,19.25,8,46.62,2.65,62.34-12.2a8.8,8.8,0,0,1,12,0A7.79,7.79,0,0,1,108.4,132.78Z"/><path class="cls-1" d="M46.58,68.74a8.13,8.13,0,0,1-2,.92C45.24,69.34,45.92,69,46.58,68.74Z"/></g></g></svg>