<svg xmlns="http://www.w3.org/2000/svg" viewBox="0 0 170.91 97.22"><defs><style>.cls-1{fill:#91a8c2;}</style></defs><title>2-ba-before trace</title><g id="Layer_2" data-name="Layer 2"><g id="Before_Trace" data-name="Before Trace"><path class="cls-1" d="M63.91,68.58C37,67.9,18.13,61.12,7.93,48.37A36.83,36.83,0,0,1,1.08,16.78a9.38,9.38,0,0,1,18,5.2,17.93,17.93,0,0,0,3.67,14.9c8.08,9.82,28.38,14.31,57.15,12.65,55.44-1.77,68-14.76,70.89-20.25,3.59-6.95-1.2-14.37-1.41-14.67a9.46,9.46,0,0,1,2.57-13A9.33,9.33,0,0,1,164.91,4c4.23,6.11,9.56,20.06,2.73,33.57C158,56.68,129.57,66.71,80.76,68.28,74.83,68.62,69.21,68.71,63.91,68.58Z"/><path class="cls-1" d="M91.49,91.73a8.53,8.53,0,0,1-6.41,5.32,11,11,0,0,1-2.07.16,8.44,8.44,0,0,1-7-13,8.24,8.24,0,0,1,2.53-2.5,4.65,4.65,0,0,1,1.08-.74A8.43,8.43,0,0,1,86,80.25a8.86,8.86,0,0,1,4.73,3.69A7.88,7.88,0,0,1,91.49,91.73Z"/></g></g></svg>