<svg xmlns="http://www.w3.org/2000/svg" viewBox="0 0 134.28 108.26"><defs><style>.cls-1{fill:#e2c196;}</style></defs><title>20-fa-before trace</title><g id="Layer_2" data-name="Layer 2"><g id="Before_Trace" data-name="Before Trace"><path class="cls-1" d="M123.35,37.15c-7.94-8.74-18.19-12.29-28.08-9.82C86.77,29.5,80,35.94,78.06,43.76c-1.71,6.88.5,13.68,6,18.7,10.54,9.49,24.06,7.2,34.43,2.32a17,17,0,0,1-1.24,5.51c-4.91,12.21-23,20.24-49.65,22-25.88,1.75-44.22-4.64-50.18-17.54A19.4,19.4,0,0,1,21,53.21,7.84,7.84,0,1,0,9.78,42.29,35.17,35.17,0,0,0,3.24,81.38C7.09,89.72,20,108,58.57,108.26c3.2,0,6.56-.06,10.12-.3,45-3,58.88-21.24,63.14-31.81C137,63.27,133.84,48.68,123.35,37.15ZM94.61,50.83c-1.56-1.41-1.56-2.45-1.34-3.29.47-1.87,2.63-4.18,5.84-5a9.15,9.15,0,0,1,2.41-.3c3.45,0,7,1.9,10.24,5.45.59.66,1.14,1.32,1.66,2C108,52.57,99.78,55.48,94.61,50.83Z"/><path class="cls-1" d="M106.49,9.76a7.13,7.13,0,0,1-5.27,4.54,9.35,9.35,0,0,1-1.73.16A7.05,7.05,0,0,1,93.43,3.68a7.12,7.12,0,0,1,2.08-2.14,4.68,4.68,0,0,1,.91-.62,7,7,0,0,1,5.34-.67,7.49,7.49,0,0,1,4,3A6.59,6.59,0,0,1,106.49,9.76Z"/></g></g></svg>