<svg xmlns="http://www.w3.org/2000/svg" viewBox="0 0 114.61 135.19"><defs><style>.cls-1{fill:#e5b4b8;}</style></defs><title>21-qaf-before trace</title><g id="Layer_2" data-name="Layer 2"><g id="Before_Trace" data-name="Before Trace"><path class="cls-1" d="M110.14,53.82a23.45,23.45,0,0,0,.17-4.65,8.93,8.93,0,0,0-5.8-7.57c-4.88-8-11.39-13.84-19.13-15.3C74.55,24.24,64.75,27.78,58.48,36c-6.14,8-7.49,19.17-3.34,27.82,4,8.28,12.16,13.16,22.43,13.37,7.5.16,13.76-1.07,18.87-3.71a58.53,58.53,0,0,1,0,14.12c-1.89,14.69-10.39,31.72-40.16,29.7-19.31-1.36-31.05-8.53-35.92-21.91-7.57-20.88,3.79-48.75,7.55-52.42A8.9,8.9,0,1,0,18.11,28c-9.66,6.32-23.38,40.4-16,68.49C6.31,112.69,18.9,132.48,55,135c2.4.18,4.74.24,7,.2,29.12-.43,48.35-17,52-45.36A82.15,82.15,0,0,0,110.14,53.82ZM90.57,55.95c-2.22,2.36-6.63,3.56-12.63,3.42-5.23-.12-6.38-2.49-6.75-3.28-1.28-2.68-.69-6.58,1.38-9.29a8.26,8.26,0,0,1,6.75-3.28,14.09,14.09,0,0,1,2.75.26c2.79.53,6.35,4.76,9.28,11.15A7.22,7.22,0,0,1,90.57,55.95Z"/><path class="cls-1" d="M65.15,16.4h0A8,8,0,0,1,58.27,4.17a7.58,7.58,0,0,1,2.36-2.41,3.8,3.8,0,0,1,1-.72A8,8,0,0,1,67.7.29a8.46,8.46,0,0,1,4.55,3.4,7.61,7.61,0,0,1,.84,7.37,8.06,8.06,0,0,1-6,5.15A10.13,10.13,0,0,1,65.15,16.4Z"/><path class="cls-1" d="M92.38,16.6h0A8,8,0,0,1,85.52,4.36a7.83,7.83,0,0,1,2.37-2.41,3.56,3.56,0,0,1,1-.72A8,8,0,0,1,95,.49a8.43,8.43,0,0,1,4.54,3.4,7.48,7.48,0,0,1,.81,7.37,8,8,0,0,1-6,5.15A10.15,10.15,0,0,1,92.38,16.6Z"/></g></g></svg>