<svg xmlns="http://www.w3.org/2000/svg" viewBox="0 0 102.17 169.43"><defs><style>.cls-1{fill:#e2c196;}</style></defs><title>23-lam-before trace</title><g id="Layer_2" data-name="Layer 2"><g id="Before_Trace" data-name="Before Trace"><path class="cls-1" d="M50.65,169.42a117.57,117.57,0,0,1-17.3-1.49c-14.85-2.34-24.94-8.59-30-18.6-8.31-16.5,1.2-35.62,2.31-37.74a8.41,8.41,0,0,1,14.91,7.8c-1.89,3.68-6,14.92-2.18,22.41,2.48,4.88,8.39,8.07,17.55,9.52,27.17,4.27,39.88-3.22,44.08-6.62,3.88-3.16,5-6.17,5.1-7.45C86.26,114.35,82.73,9.76,82.69,8.7A8.41,8.41,0,1,1,99.5,8.13c.15,4.33,3.6,106.34,2.44,130-.35,7-4.47,14.14-11.29,19.66C84.68,162.59,72.3,169.58,50.65,169.42Z"/></g></g></svg>