<svg xmlns="http://www.w3.org/2000/svg" viewBox="0 0 105.4 94.65"><defs><style>.cls-1{fill:#91a8c2;}</style></defs><title>26-wau-before trace</title><g id="Layer_2" data-name="Layer 2"><g id="Before_Trace" data-name="Before Trace"><path class="cls-1" d="M44.18,94.65c-10.8-.08-23.52-2.18-38.48-7.2A8.36,8.36,0,0,1,11,71.6c37.28,12.54,64.38,6,74.32-17.83A45,45,0,0,0,88,44.49c-5.25,2.84-12.32,5-21.58,4.61C58,48.91,51.59,44.67,49,37.47,45.47,28,49.53,15.24,58.6,7.13A26.56,26.56,0,0,1,89.09,3.05c15.63,7.83,21.09,34.52,11.68,57.13C96.82,69.69,82.63,94.93,44.18,94.65Zm32.54-78a10.2,10.2,0,0,0-7,2.91c-4.39,3.92-5.94,9.78-5.09,12.11.06.15.23.65,2.23.69,13.75.73,18.36-6.5,19.38-8.51C85,21,83.38,18.89,81.6,18A10.78,10.78,0,0,0,76.72,16.68Z"/></g></g></svg>