<svg xmlns="http://www.w3.org/2000/svg" viewBox="0 0 118.02 111.18"><defs><style>.cls-1{fill:#91a8c2;}</style></defs><title>27-Ha-before trace</title><g id="Layer_2" data-name="Layer 2"><g id="Before_Trace" data-name="Before Trace"><path class="cls-1" d="M8.3,111.18a8.37,8.37,0,0,1-.66-16.71c20.42-1.75,34.77-7.92,44.58-15.6-7.82-.78-14.89-2.59-20.24-5.52-11.16-6.13-14.68-19.15-8.94-33.19C27.63,29,37.44,18.92,49.18,15.08a8.36,8.36,0,0,1,6.06-15C63.29,1.13,116.89,15.13,118,46c.32,9-4.7,17.22-14.17,23.07C96.45,73.6,86.5,76.7,76.1,78.22c-12.22,16.63-34.32,30.12-67,32.92A5.31,5.31,0,0,1,8.3,111.18Zm51.24-81c-8.94-.06-17.51,7.75-21,16.35-1.14,2.79-3.29,9.57,1.5,12.19,5.52,3,15.58,4.33,26.15,3.75A39.47,39.47,0,0,0,70.73,48c.83-8.88-2.09-15.8-7.28-17.27A14.52,14.52,0,0,0,59.54,30.14ZM83.79,28a39.29,39.29,0,0,1,3.58,21.49A54.11,54.11,0,0,1,85.59,59,42.74,42.74,0,0,0,95,54.82c4.25-2.62,6.37-5.4,6.25-8.24C101.05,39.74,93.22,33.23,83.79,28Z"/></g></g></svg>