<svg xmlns="http://www.w3.org/2000/svg" viewBox="0 0 82.61 133.53"><defs><style>.cls-1{fill:#e2c196;}</style></defs><title>28-lam alif-before trace</title><g id="Layer_2" data-name="Layer 2"><g id="Before_Trace" data-name="Before Trace"><path class="cls-1" d="M81.33,28.76A6.7,6.7,0,0,1,72,30.27c.39,26.32.36,67.43-3.31,76.35C67,110.7,63.41,115,58.56,118.82c0,0,0,0-.06.06-.61.5-1.24,1-1.89,1.45-10.11,7.45-24.6,13.21-38,13.21-1.31,0-2.6-.07-3.87-.18A6.69,6.69,0,1,1,15.94,120c10,.87,21.58-3.22,29.86-8.35-1.61-5.41-4.68-15.14-8.8-25.84C32.12,73.08,9.93,47.41,1.78,38.59a6.7,6.7,0,0,1,9.85-9.09C12.89,30.88,42.73,63.3,49.52,81c2.88,7.49,5.23,14.45,7,19.92,2.25-7.78,2.7-48.59,1.8-85.52h0a48.33,48.33,0,0,1-3.33-6A6.7,6.7,0,0,1,67.26,4a42.5,42.5,0,0,0,2.82,5c.22.33.44.67.7,1l0,.07a39.82,39.82,0,0,0,9,9.35A6.68,6.68,0,0,1,81.33,28.76Z"/></g></g></svg>