<svg xmlns="http://www.w3.org/2000/svg" viewBox="0 0 66.02 67.61"><defs><style>.cls-1{fill:#e5b4b8;}</style></defs><title>29-hamzah-before trace</title><g id="Layer_2" data-name="Layer 2"><g id="Before_Trace" data-name="Before Trace"><path class="cls-1" d="M61.33,42.42c-.3.13-31.19,14.37-48,24.11a8.08,8.08,0,1,1-8.09-14C8,51,11,49.3,14.18,47.59c-9-5.07-13.18-12.83-14-20C-1.19,15.93,5.61,4.93,16.33,1.47c16.09-5.2,28.93,4.52,34,11.08a8.08,8.08,0,0,1-12.76,9.9c-.37-.47-7.06-8.59-16.24-5.62-3.31,1.08-5.52,5-5.07,8.89.71,6.1,7.56,10.25,18.33,11.12.23,0,.45,0,.66.08C45.56,31.89,53.91,28,54.58,27.73a8.08,8.08,0,0,1,6.75,14.69Z"/></g></g></svg>