<svg xmlns="http://www.w3.org/2000/svg" viewBox="0 0 167.42 115.65"><defs><style>.cls-1{fill:#e5b4b8;}</style></defs><title>4-tsa-before trace</title><g id="Layer_2" data-name="Layer 2"><g id="Before_Trace" data-name="Before Trace"><path class="cls-1" d="M63.68,115.65c-26.4,0-45-6.18-55.33-18.42A36,36,0,0,1,.87,66.44,9.19,9.19,0,1,1,18.64,71.1a17.69,17.69,0,0,0,4,14.51c8.16,9.42,28.15,13.31,56.3,11,54.26-3.1,66.28-16.13,68.94-21.58,3.36-6.9-1.52-14-1.72-14.34a9.26,9.26,0,0,1,2.19-12.79,9.16,9.16,0,0,1,12.74,2.05c4.29,5.88,9.84,19.42,3.48,32.84-9,18.91-36.56,29.44-84.33,32.17C74.39,115.42,68.89,115.65,63.68,115.65Z"/><path class="cls-1" d="M82.59,3.78a7.79,7.79,0,0,1,.91,7.6,8.41,8.41,0,0,1-6.15,5.39,10.94,10.94,0,0,1-2,.19A8.29,8.29,0,0,1,70.53,1.85a4,4,0,0,1,1.08-.74A8.15,8.15,0,0,1,77.85.28,8.75,8.75,0,0,1,82.59,3.78Z"/><path class="cls-1" d="M64,37.3a7.75,7.75,0,0,1,.91,7.58,8.38,8.38,0,0,1-6.15,5.39,10.82,10.82,0,0,1-2,.21,8.28,8.28,0,0,1-7.2-12.59A8,8,0,0,1,52,35.36a3.82,3.82,0,0,1,1-.74,8.33,8.33,0,0,1,6.28-.83A8.75,8.75,0,0,1,64,37.3Z"/><path class="cls-1" d="M111.13,41.29A8.23,8.23,0,0,1,105,46.66a9.35,9.35,0,0,1-2,.23,8.26,8.26,0,0,1-7.19-12.61,8,8,0,0,1,2.4-2.51A4.66,4.66,0,0,1,99.25,31a8.26,8.26,0,0,1,6.26-.81,8.63,8.63,0,0,1,4.71,3.5A7.7,7.7,0,0,1,111.13,41.29Z"/></g></g></svg>