<svg xmlns="http://www.w3.org/2000/svg" viewBox="0 0 135.18 155.1"><defs><style>.cls-1{fill:#a3c08e;}</style></defs><title>7-kho-before trace</title><g id="Layer_2" data-name="Layer 2"><g id="Before_Trace" data-name="Before Trace"><path class="cls-1" d="M127.74,151.59a234.8,234.8,0,0,1-39.52,3.51c-20.47,0-43.94-3.21-57.92-15.65-8.92-7.93-13.2-18.91-12.35-31.76,2.51-27.61,17.53-46.62,35.19-59-5.19-.56-11.6-1.56-20.81-3-5-.77-7.22.58-8.47,1.65C19,51.47,18.21,61.8,18.22,64.35a9.13,9.13,0,0,1-9,9.26H9.1a9.11,9.11,0,0,1-9.09-9c0-2.1,0-20.79,11.9-31.12,4.26-3.69,11.77-7.74,23.28-5.9,24.67,3.94,26.9,4.07,39.74,2.47,13.44-1.69,22.76-2.85,30.2-.73.34.09.66.19,1,.3a1.43,1.43,0,0,0,.21.08A21,21,0,0,1,109.39,31a9.12,9.12,0,0,1-7.54,16.57C90.34,49.8,40.4,62,36.11,109.12c-.45,7.1,1.54,12.47,6.3,16.7,17.55,15.6,65.14,10.95,82,7.85a9.11,9.11,0,0,1,3.32,17.92Z"/><path class="cls-1" d="M67.84,11.28a8.28,8.28,0,0,1-6.09,5.34,10.57,10.57,0,0,1-2,.21A8.18,8.18,0,0,1,52.62,4.35,8,8,0,0,1,55,1.83a4.29,4.29,0,0,1,1-.73,8.1,8.1,0,0,1,6.2-.82,8.67,8.67,0,0,1,4.69,3.47A7.78,7.78,0,0,1,67.84,11.28Z"/></g></g></svg>