<svg xmlns="http://www.w3.org/2000/svg" viewBox="0 0 74.93 75.7"><defs><style>.cls-1{fill:#91a8c2;}</style></defs><title>8-dal-before trace</title><g id="Layer_2" data-name="Layer 2"><g id="Before_Trace" data-name="Before Trace"><path class="cls-1" d="M24,75.7c-7.9,0-15.46-1.7-20.77-6.52a9.73,9.73,0,1,1,13.08-14.4c1,.9,6,2.29,15.38.8,12.26-1.94,21.59-7.1,23.77-9.67C54.06,37.69,30.69,25.21,9.67,19A9.72,9.72,0,1,1,15.13.39c10,2.92,59.8,18.92,59.8,46.65-.39,9.13-7.71,16.73-21.25,22.38C46.74,72.33,35,75.7,24,75.7Z"/><path class="cls-1" d="M64.45,48.41"/></g></g></svg>