<svg xmlns="http://www.w3.org/2000/svg" viewBox="0 0 79.26 105.35"><defs><style>.cls-1{fill:#a3c08e;}</style></defs><title>9-dzal-before trace</title><g id="Layer_2" data-name="Layer 2"><g id="Before_Trace" data-name="Before Trace"><path class="cls-1" d="M28.28,105.35c-7.89,0-15.45-1.7-20.75-6.52a9.73,9.73,0,0,1,13.09-14.4c.64.58,5.12,2.41,15.35.8,12.28-1.94,21.61-7.1,23.79-9.67C58.4,67.35,35,54.86,14,48.7A9.72,9.72,0,0,1,19.47,30C29.45,33,79.26,49,79.26,76.69c-.37,9.14-7.74,16.75-21.29,22.4C51,102,39.34,105.35,28.28,105.35Z"/><path class="cls-1" d="M17.53,12A8.85,8.85,0,0,1,11,17.72a11.79,11.79,0,0,1-2.14.22A8.75,8.75,0,0,1,1.29,4.6,8.12,8.12,0,0,1,3.85,1.94a4.83,4.83,0,0,1,1.1-.8A9,9,0,0,1,11.59.28a9.2,9.2,0,0,1,5,3.7A8.27,8.27,0,0,1,17.53,12Z"/></g></g></svg>